<?xml version="1.0" standalone="no"?>
<!DOCTYPE svg PUBLIC "-//W3C//DTD SVG 20010904//EN"
 "http://www.w3.org/TR/2001/REC-SVG-20010904/DTD/svg10.dtd">
<svg version="1.0" xmlns="http://www.w3.org/2000/svg"
 width="359.000000pt" height="120.000000pt" viewBox="0 0 359.000000 120.000000"
 preserveAspectRatio="xMidYMid meet">

<g transform="translate(0.000000,120.000000) scale(0.100000,-0.100000)"
fill="#000000" stroke="none">
<path d="M167 1170 c-67 -13 -121 -66 -137 -136 -6 -21 -9 -228 -7 -459 2
-375 4 -423 19 -451 27 -49 73 -81 130 -93 37 -8 526 -11 1653 -9 1448 3 1603
5 1635 19 42 19 87 69 98 107 4 15 7 223 7 464 l0 436 -30 43 c-17 24 -46 52
-65 64 -35 20 -42 20 -1650 21 -888 1 -1632 -1 -1653 -6z m1633 -315 c0 -78
-3 -95 -15 -95 -12 0 -15 17 -15 95 0 78 3 95 15 95 12 0 15 -17 15 -95z m468
-3 c2 -77 0 -92 -13 -92 -8 0 -15 5 -15 12 0 9 -3 9 -12 0 -17 -17 -48 -15
-70 5 -24 22 -24 77 2 103 23 23 33 24 61 10 17 -10 19 -7 19 25 0 25 4 35 13
33 8 -3 13 -34 15 -96z m632 57 c3 -22 8 -30 13 -21 11 17 37 15 59 -5 23 -21
27 -123 4 -123 -11 0 -16 15 -18 53 -3 48 -5 52 -28 52 -23 0 -25 -4 -28 -52
-2 -38 -7 -53 -18 -53 -11 0 -14 19 -14 96 0 72 3 95 13 92 6 -3 14 -20 17
-39z m-2210 -5 c0 -29 -8 -44 -39 -75 -37 -37 -91 -54 -91 -29 0 42 64 123
105 133 11 3 21 5 23 6 1 0 2 -15 2 -35z m483 27 c51 -20 61 -123 14 -156 -12
-8 -43 -15 -69 -15 l-48 0 0 90 0 90 39 0 c22 0 51 -4 64 -9z m1634 -21 c3
-11 9 -20 14 -20 5 0 9 -4 9 -10 0 -5 -7 -10 -15 -10 -10 0 -15 -10 -15 -29 0
-39 9 -61 26 -61 8 0 14 -5 14 -11 0 -6 -12 -9 -27 -7 -26 3 -28 7 -31 53 -2
27 -9 53 -15 58 -9 7 -9 10 1 14 6 2 12 13 12 24 0 25 20 25 27 -1z m-1452
-35 c14 -13 25 -36 25 -50 0 -33 -33 -65 -67 -65 -63 0 -87 80 -37 119 34 27
50 26 79 -4z m356 15 c15 -9 19 -22 19 -70 0 -47 -3 -60 -15 -60 -12 0 -15 13
-15 55 0 51 -2 55 -24 55 -28 0 -36 -16 -36 -71 0 -21 -4 -39 -10 -39 -6 0
-10 29 -10 66 0 51 3 65 13 61 8 -3 20 -1 28 4 18 11 26 11 50 -1z m227 -6
c27 -18 31 -84 6 -108 -21 -22 -67 -20 -88 3 -26 29 -18 92 14 108 33 16 41
16 68 -3z m153 -5 c11 -11 18 -27 15 -36 -3 -8 -6 -29 -6 -47 0 -31 -2 -32
-44 -34 -49 -2 -71 15 -61 48 4 14 18 22 46 26 50 8 46 30 -5 27 -40 -3 -48
13 -13 27 34 14 45 12 68 -11z m397 -1 c17 -15 15 -83 -4 -102 -8 -9 -28 -16
-44 -16 -38 0 -60 24 -60 64 0 65 58 93 108 54z m147 8 c24 -18 33 -126 10
-126 -10 0 -15 16 -17 53 -3 48 -5 52 -28 52 -23 0 -25 -4 -28 -52 -2 -38 -7
-53 -18 -53 -11 0 -14 15 -14 66 0 61 1 66 20 61 11 -3 23 -1 26 4 8 13 27 11
49 -5z m483 -2 c12 -8 22 -26 22 -40 0 -22 -4 -24 -46 -24 -47 0 -55 -13 -21
-34 12 -8 23 -7 38 2 25 16 37 8 19 -13 -7 -8 -27 -15 -46 -15 -62 0 -88 80
-38 119 32 25 43 26 72 5z m-1682 -39 c7 -51 14 -50 29 3 16 54 38 52 54 -5
l14 -48 11 44 c6 25 17 46 24 49 16 5 15 0 -4 -70 -10 -34 -22 -58 -30 -58 -7
0 -20 21 -28 48 -13 45 -14 46 -24 22 -5 -14 -11 -34 -13 -45 -3 -11 -11 -21
-20 -23 -11 -2 -20 13 -32 57 -20 73 -20 71 -3 71 10 0 17 -16 22 -45z m-912
-81 c43 -15 51 -15 89 0 54 20 100 20 143 0 55 -26 61 -40 30 -73 -59 -62 -55
-156 10 -210 l36 -29 -28 -53 c-16 -29 -42 -66 -58 -82 -27 -26 -34 -28 -75
-22 -63 9 -128 9 -181 0 -41 -6 -49 -4 -78 20 -17 14 -48 59 -68 100 -75 151
-49 303 61 351 40 18 62 17 119 -2z m706 -107 c0 -2 29 -83 65 -182 66 -180
69 -199 24 -188 -11 3 -24 24 -34 54 l-17 50 -71 -3 -71 -3 -15 -47 c-15 -48
-43 -70 -63 -50 -9 9 39 158 111 345 8 21 17 27 41 27 16 0 30 -1 30 -3z
m1090 -14 c33 -23 49 -44 50 -65 0 -27 -41 -22 -65 8 -28 35 -100 37 -127 4
-10 -12 -18 -26 -18 -31 0 -21 41 -47 91 -59 113 -26 152 -79 115 -157 -46
-96 -244 -79 -269 25 -8 34 38 30 73 -8 22 -23 37 -30 67 -30 48 0 83 23 83
55 0 31 -30 51 -97 65 -59 13 -100 41 -114 78 -14 37 7 90 45 113 40 25 132
26 166 2z m180 -53 c0 -25 4 -30 25 -30 20 0 25 -5 25 -25 0 -20 -5 -25 -25
-25 l-26 0 3 -87 c3 -83 4 -88 26 -91 16 -3 22 -10 22 -29 0 -24 -2 -25 -37
-20 -58 10 -67 25 -71 131 -4 82 -7 95 -23 99 -25 7 -24 37 1 44 14 4 20 14
20 34 0 26 4 29 30 29 27 0 30 -3 30 -30z m-1050 -49 c0 -19 1 -19 39 2 52 29
106 17 138 -32 28 -41 31 -126 8 -171 -16 -32 -61 -60 -94 -60 -25 0 -71 20
-71 32 0 4 -4 8 -10 8 -5 0 -7 -21 -3 -49 7 -65 1 -80 -31 -74 l-26 5 0 179 0
179 25 0 c18 0 25 -5 25 -19z m300 0 c0 -19 1 -19 39 2 83 45 161 -13 161
-120 0 -65 -20 -107 -60 -128 -39 -20 -69 -19 -107 5 l-33 20 0 -59 c0 -55 -2
-59 -25 -63 l-25 -5 0 183 0 184 25 0 c18 0 25 -5 25 -19z m1028 -1 c63 -38
81 -147 35 -209 -67 -88 -211 -50 -228 60 -18 125 92 210 193 149z m162 0 l0
-20 20 20 c19 19 50 26 62 14 12 -11 -5 -44 -23 -44 -11 0 -28 -9 -39 -20 -17
-17 -20 -33 -20 -110 0 -72 -3 -92 -15 -96 -33 -13 -43 13 -44 120 -2 131 3
156 35 156 17 0 24 -6 24 -20z m288 0 c35 -22 52 -54 52 -101 l0 -29 -95 0
c-61 0 -95 -4 -95 -11 0 -15 21 -53 34 -61 21 -14 73 -8 89 10 21 23 67 27 67
7 0 -20 -34 -53 -66 -65 -58 -22 -128 0 -157 49 -22 38 -22 124 0 162 34 57
112 75 171 39z"/>
<path d="M2177 863 c-13 -12 -7 -61 9 -74 33 -27 72 33 44 67 -13 15 -42 19
-53 7z"/>
<path d="M1100 844 l0 -66 32 6 c44 9 58 23 58 62 0 40 -22 64 -61 64 l-29 0
0 -66z"/>
<path d="M1287 864 c-13 -13 -7 -61 9 -75 24 -20 49 1 49 42 0 29 -4 34 -25
37 -14 2 -29 0 -33 -4z"/>
<path d="M1869 849 c-15 -29 3 -69 31 -69 28 0 46 40 31 69 -7 11 -20 21 -31
21 -11 0 -24 -10 -31 -21z"/>
<path d="M2027 813 c-14 -13 -7 -33 11 -33 19 0 42 18 42 32 0 10 -44 11 -53
1z"/>
<path d="M2411 848 c-11 -31 2 -62 27 -66 29 -4 49 36 33 67 -15 28 -49 27
-60 -1z"/>
<path d="M3057 863 c-15 -15 -5 -23 28 -23 26 0 33 3 29 15 -6 15 -45 21 -57
8z"/>
<path d="M1168 510 l-26 -80 54 0 c30 0 54 4 54 8 0 13 -42 136 -49 144 -4 4
-19 -28 -33 -72z"/>
<path d="M1480 490 c-15 -15 -20 -33 -20 -70 0 -80 56 -116 111 -72 30 25 33
109 5 141 -24 27 -70 27 -96 1z"/>
<path d="M1776 488 c-24 -38 -28 -73 -13 -111 39 -93 151 -35 131 69 -11 61
-88 88 -118 42z"/>
<path d="M2666 497 c-12 -9 -20 -31 -23 -63 -4 -40 -1 -54 17 -76 26 -34 71
-37 100 -8 25 25 27 105 4 138 -18 25 -69 30 -98 9z"/>
<path d="M3139 508 c-14 -5 -31 -20 -37 -33 l-12 -25 70 0 c39 0 70 3 70 8 0
15 -30 50 -47 54 -10 3 -30 1 -44 -4z"/>
</g>
</svg>
