<svg width="54" height="54" viewBox="0 0 54 54" fill="none" xmlns="http://www.w3.org/2000/svg">
<path d="M26.4759 18.815H50.6959V12.865L26.4759 0.334961L2.25586 12.865V18.815H26.4759Z" fill="#F7A48D"/>
<path d="M45.3258 18.8149H8.67578V42.9949H45.3258V18.8149Z" fill="#913E27"/>
<path d="M48.8955 42.9949H5.10547V47.6449H48.8955V42.9949Z" fill="#F7A48D"/>
<path d="M53.6659 47.655H0.335938V53.665H53.6659V47.655Z" fill="#F26841"/>
<path d="M13.7058 18.8149H8.67578V42.9949H13.7058V18.8149Z" fill="#F26841"/>
<path d="M14.7957 18.8149H7.5957V21.6649H14.7957V18.8149Z" fill="#FFCA39"/>
<path d="M34.7859 18.8149H29.7559V42.9949H34.7859V18.8149Z" fill="#F26841"/>
<path d="M45.3269 18.8149H40.2969V42.9949H45.3269V18.8149Z" fill="#F26841"/>
<path d="M27.0052 13.2351C28.6013 13.2351 29.8952 11.9412 29.8952 10.3451C29.8952 8.74899 28.6013 7.45508 27.0052 7.45508C25.4091 7.45508 24.1152 8.74899 24.1152 10.3451C24.1152 11.9412 25.4091 13.2351 27.0052 13.2351Z" fill="white"/>
<path d="M24.2468 18.8149H19.2168V42.9949H24.2468V18.8149Z" fill="#F26841"/>
<path d="M25.3367 18.8149H18.1367V21.6649H25.3367V18.8149Z" fill="#FFCA39"/>
<path d="M35.8758 18.8149H28.6758V21.6649H35.8758V18.8149Z" fill="#FFCA39"/>
<path d="M46.4168 18.8149H39.2168V21.6649H46.4168V18.8149Z" fill="#FFCA39"/>
<path d="M14.7957 40.145H7.5957V42.995H14.7957V40.145Z" fill="#FFCA39"/>
<path d="M25.3367 40.145H18.1367V42.995H25.3367V40.145Z" fill="#FFCA39"/>
<path d="M35.8758 40.145H28.6758V42.995H35.8758V40.145Z" fill="#FFCA39"/>
<path d="M46.4168 40.145H39.2168V42.995H46.4168V40.145Z" fill="#FFCA39"/>
</svg>
