<svg width="12" height="12" viewBox="0 0 12 12" fill="none" xmlns="http://www.w3.org/2000/svg">
<path fill-rule="evenodd" clip-rule="evenodd" d="M6 12C9.31371 12 12 9.31371 12 6C12 2.68629 9.31371 0 6 0C2.68629 0 0 2.68629 0 6C0 9.31371 2.68629 12 6 12ZM9.01183 3.92494C8.87787 3.79184 8.66096 3.79178 8.52693 3.9248L5.07504 7.3507L3.47344 5.75834C3.33952 5.6252 3.1226 5.62508 2.98854 5.75806C2.85403 5.89147 2.8539 6.10823 2.98825 6.2418L4.83223 8.07514C4.89664 8.13917 4.98387 8.17503 5.07467 8.17507C5.16548 8.17511 5.25274 8.13933 5.3172 8.07535L9.01168 4.40868C9.14615 4.27523 9.14621 4.05847 9.01183 3.92494Z" fill="#349E58"/>
</svg>
