<?xml version="1.0" encoding="UTF-8"?>
<svg version="1.1" xmlns="http://www.w3.org/2000/svg" width="95" height="95">
<path d="M0 0 C31.35 0 62.7 0 95 0 C95 31.35 95 62.7 95 95 C63.65 95 32.3 95 0 95 C0 63.65 0 32.3 0 0 Z " fill="#FB5656" transform="translate(0,0)"/>
<path d="M0 0 C31.35 0 62.7 0 95 0 C95 31.35 95 62.7 95 95 C63.65 95 32.3 95 0 95 C0 63.65 0 32.3 0 0 Z M11 22 C9.576875 22.928125 9.576875 22.928125 8.125 23.875 C3.24408455 28.75591545 2.2729038 34.86159871 1.796875 41.53515625 C1.77906922 44.26130934 1.77906922 44.26130934 4.25 46.625 C7.93602093 48.46801046 10.61623205 49.12150388 14.6875 49.0625 C15.49574219 49.05347656 16.30398437 49.04445312 17.13671875 49.03515625 C17.75160156 49.02355469 18.36648437 49.01195312 19 49 C18.566875 50.31484375 18.566875 50.31484375 18.125 51.65625 C15.48063451 60.41232575 14.61400171 68.66192332 14.625 77.8125 C14.62371094 78.86824219 14.62242188 79.92398438 14.62109375 81.01171875 C14.5549349 86.8471668 14.5549349 86.8471668 17 92 C19.64318464 92.46028417 19.64318464 92.46028417 22.77905273 92.38818359 C24.59620033 92.40236832 24.59620033 92.40236832 26.45005798 92.4168396 C27.76462479 92.41076691 29.07919159 92.40469421 30.43359375 92.3984375 C31.79118506 92.40045786 33.14877532 92.40336898 34.50636292 92.40713501 C37.35371213 92.41156172 40.20077925 92.40511757 43.0480957 92.39111328 C46.69795714 92.37403696 50.34715605 92.38384977 53.99699306 92.40183067 C56.80142708 92.41267332 59.60570415 92.40921979 62.4101429 92.4014473 C64.41043146 92.39847195 66.41072612 92.40758503 68.41099548 92.4168396 C69.62557938 92.40738312 70.84016327 92.39792664 72.09155273 92.38818359 C73.16251694 92.38579681 74.23348114 92.38341003 75.3368988 92.38095093 C78.02124632 92.21441345 78.02124632 92.21441345 79.84402466 90.61885071 C81.44862768 88.37173293 81.40343918 86.76608921 81.43359375 84.01953125 C81.4500293 82.53066406 81.4500293 82.53066406 81.46679688 81.01171875 C81.45712891 79.95597656 81.44746094 78.90023437 81.4375 77.8125 C81.43427734 76.74 81.43105469 75.6675 81.42773438 74.5625 C81.27180987 65.58339915 79.80089901 57.50272913 77 49 C77.72445312 49.04640625 78.44890625 49.0928125 79.1953125 49.140625 C85.53889959 49.37745225 89.14205065 49.20146971 94 45 C93.84150536 34.22234267 93.84150536 34.22234267 89 25 C69.08365601 8.25401281 32.23315855 7.405146 11 22 Z " fill="#FEFCFC" transform="translate(0,0)"/>
<path d="M0 0 C1.58264648 -0.02416992 1.58264648 -0.02416992 3.19726562 -0.04882812 C16.6515101 -0.05710766 31.57440346 3.82861026 41.5625 13.3125 C45.6946955 18.77766178 45.27814637 25.70372939 45.5625 32.3125 C40.15946035 36.98539916 35.51480941 36.75784366 28.5625 36.3125 C26.46801698 30.77708058 25.53467245 25.12485021 24.5625 19.3125 C23.44875 19.10625 22.335 18.9 21.1875 18.6875 C17.5625 17.3125 17.5625 17.3125 16.125 14.375 C15.5625 11.3125 15.5625 11.3125 15.5625 8.3125 C13.9125 8.3125 12.2625 8.3125 10.5625 8.3125 C10.2325 10.6225 9.9025 12.9325 9.5625 15.3125 C2.9625 15.3125 -3.6375 15.3125 -10.4375 15.3125 C-10.9325 11.8475 -10.9325 11.8475 -11.4375 8.3125 C-13.0875 8.3125 -14.7375 8.3125 -16.4375 8.3125 C-16.56125 9.59125 -16.685 10.87 -16.8125 12.1875 C-17.1875 16.0625 -17.1875 16.0625 -19.4375 18.3125 C-22.0625 18.9375 -22.0625 18.9375 -24.4375 19.3125 C-24.9214655 20.85266694 -25.39942387 22.39472194 -25.875 23.9375 C-26.14183594 24.79601562 -26.40867187 25.65453125 -26.68359375 26.5390625 C-27.47439248 29.44821846 -27.9875572 32.33326712 -28.4375 35.3125 C-30.49882142 35.42114945 -32.56181321 35.49838321 -34.625 35.5625 C-35.77355469 35.60890625 -36.92210937 35.6553125 -38.10546875 35.703125 C-42.13754452 35.23043147 -43.73950661 34.32551333 -46.4375 31.3125 C-47.3223766 25.2934956 -45.55111162 18.43489331 -42.4375 13.3125 C-31.40478024 2.08573743 -14.92474077 -0.04541917 0 0 Z " fill="#D33333" transform="translate(48.4375,12.6875)"/>
<path d="M0 0 C0.81319702 0.48699371 0.81319702 0.48699371 1.64282227 0.98382568 C4.49568869 2.21369034 6.61076788 2.25389597 9.71484375 2.25878906 C10.86283447 2.26509338 12.0108252 2.27139771 13.19360352 2.27789307 C14.42908936 2.2738446 15.6645752 2.26979614 16.9375 2.265625 C18.84583618 2.26849518 18.84583618 2.26849518 20.79272461 2.27142334 C23.48272307 2.27278442 26.17235815 2.27009817 28.86230469 2.26074219 C32.30562431 2.24934788 35.74863212 2.25591085 39.19194031 2.26788712 C42.48213797 2.27686267 45.77229826 2.27057353 49.0625 2.265625 C50.29798584 2.26967346 51.53347168 2.27372192 52.80639648 2.27789307 C53.95438721 2.27158875 55.10237793 2.26528442 56.28515625 2.25878906 C57.29457275 2.25719788 58.30398926 2.25560669 59.34399414 2.25396729 C62.04450757 1.99574419 63.69115901 1.38267974 66 0 C66.0809313 2.60478883 66.14045434 5.20706653 66.1875 7.8125 C66.21263672 8.55048828 66.23777344 9.28847656 66.26367188 10.04882812 C66.33762517 15.49672091 66.33762517 15.49672091 64.85096741 17.71279907 C62.22132927 19.54150369 60.27915765 19.38107961 57.09155273 19.38818359 C55.87696884 19.39764008 54.66238495 19.40709656 53.41099548 19.4168396 C52.09845291 19.41076691 50.78591034 19.40469421 49.43359375 19.3984375 C48.07503605 19.4004583 46.7164794 19.40336978 45.35792542 19.40713501 C42.51235616 19.41155667 39.66706959 19.4051318 36.8215332 19.39111328 C33.17048163 19.37400471 29.52009081 19.38387339 25.86906338 19.40183067 C23.06467182 19.4126592 20.26043757 19.40922686 17.45604134 19.4014473 C15.45404253 19.39846793 13.45203765 19.40759138 11.45005798 19.4168396 C10.23862625 19.40738312 9.02719452 19.39792664 7.77905273 19.38818359 C6.17379982 19.38460342 6.17379982 19.38460342 4.53611755 19.38095093 C3.28073936 19.19238022 3.28073936 19.19238022 2 19 C-0.52775351 15.20836973 -0.22443035 12.19125969 -0.125 7.8125 C-0.11597656 7.06291016 -0.10695313 6.31332031 -0.09765625 5.54101562 C-0.07412578 3.69387346 -0.03825561 1.84689588 0 0 Z " fill="#BA3222" transform="translate(15,73)"/>
<path d="M0 0 C0.99 0 1.98 0 3 0 C3 1.65 3 3.3 3 5 C6.3 5 9.6 5 13 5 C13 3.35 13 1.7 13 0 C13.99 0 14.98 0 16 0 C16.33 1.65 16.66 3.3 17 5 C19.97 5 22.94 5 26 5 C26.495 6.485 26.495 6.485 27 8 C23.7 8 20.4 8 17 8 C17 9.98 17 11.96 17 14 C20.63 14 24.26 14 28 14 C28 14.99 28 15.98 28 17 C25.03 17 22.06 17 19 17 C19 19.31 19 21.62 19 24 C22.3 24 25.6 24 29 24 C29 25.32 29 26.64 29 28 C15.14 28 1.28 28 -13 28 C-13 26.68 -13 25.36 -13 24 C-9.7 23.67 -6.4 23.34 -3 23 C-3 21.35 -3 19.7 -3 18 C-5.97 17.67 -8.94 17.34 -12 17 C-12 16.01 -12 15.02 -12 14 C-8.37 14 -4.74 14 -1 14 C-1 12.02 -1 10.04 -1 8 C-4.3 8 -7.6 8 -11 8 C-10.67 7.01 -10.34 6.02 -10 5 C-6.7 5 -3.4 5 0 5 C0 3.35 0 1.7 0 0 Z " fill="#5E403B" transform="translate(40,40)"/>
<path d="M0 0 C0.1953125 6.0546875 0.1953125 6.0546875 0 8 C-2.35953094 10.35953094 -3.77895617 10.49141413 -7 11 C-7.4839655 12.54016694 -7.96192387 14.08222194 -8.4375 15.625 C-8.70433594 16.48351562 -8.97117187 17.34203125 -9.24609375 18.2265625 C-10.03689248 21.13571846 -10.5500572 24.02076712 -11 27 C-13.06132142 27.10864945 -15.12431321 27.18588321 -17.1875 27.25 C-18.91033203 27.31960937 -18.91033203 27.31960937 -20.66796875 27.390625 C-24.70004154 26.91793182 -26.29226252 26.00183631 -29 23 C-29.90080898 18.28356923 -28.94199539 13.65366773 -26.578125 9.50390625 C-25.13200973 7.57230943 -23.64908243 5.76002987 -22 4 C-21.34 4.33 -20.68 4.66 -20 5 C-20.33 5.33 -20.66 5.66 -21 6 C-19.948125 6.103125 -18.89625 6.20625 -17.8125 6.3125 C-14.12569246 6.97733415 -12.03361401 7.88566296 -9 10 C-9 7.36 -9 4.72 -9 2 C-5.62902617 0.50178941 -3.79557881 0 0 0 Z " fill="#D22F2F" transform="translate(31,21)"/>
<path d="M0 0 C0.89460938 -0.00128906 1.78921875 -0.00257812 2.7109375 -0.00390625 C3.65195312 -0.00003906 4.59296875 0.00382812 5.5625 0.0078125 C6.97402344 0.00201172 6.97402344 0.00201172 8.4140625 -0.00390625 C9.75597656 -0.00197266 9.75597656 -0.00197266 11.125 0 C11.95128906 0.00112793 12.77757813 0.00225586 13.62890625 0.00341797 C15.5625 0.1328125 15.5625 0.1328125 16.5625 1.1328125 C16.2325 3.7728125 15.9025 6.4128125 15.5625 9.1328125 C8.9625 9.1328125 2.3625 9.1328125 -4.4375 9.1328125 C-4.7675 6.4928125 -5.0975 3.8528125 -5.4375 1.1328125 C-3.84812444 -0.45656306 -2.19850154 0.00300107 0 0 Z " fill="#A71C1C" transform="translate(42.4375,18.8671875)"/>
<path d="M0 0 C0.33 1.32 0.66 2.64 1 4 C-3.85359495 8.01676824 -9.04972335 7.28136159 -15 7 C-15.33 5.68 -15.66 4.36 -16 3 C-14.51886719 2.80083984 -14.51886719 2.80083984 -13.0078125 2.59765625 C-11.72648437 2.42105469 -10.44515625 2.24445312 -9.125 2.0625 C-7.21074219 1.80146484 -7.21074219 1.80146484 -5.2578125 1.53515625 C-2.12440546 1.18566773 -2.12440546 1.18566773 0 0 Z " fill="#A72020" transform="translate(92,42)"/>
<path d="M0 0 C1.04220703 0.47566406 1.04220703 0.47566406 2.10546875 0.9609375 C5.26188644 2.09401052 7.97280167 2.40480011 11.3125 2.625 C12.91544922 2.73714844 12.91544922 2.73714844 14.55078125 2.8515625 C15.35902344 2.90054688 16.16726562 2.94953125 17 3 C17 4.32 17 5.64 17 7 C14.91731407 7.08126087 12.83371342 7.13930839 10.75 7.1875 C9.00976562 7.23970703 9.00976562 7.23970703 7.234375 7.29296875 C3.74747837 6.97712666 2.34250632 6.58023592 0 4 C0 2.68 0 1.36 0 0 Z " fill="#A71F1F" transform="translate(3,41)"/>
<path d="M0 0 C2.45840605 -0.02691685 4.91651882 -0.04679802 7.375 -0.0625 C8.07367188 -0.07087891 8.77234375 -0.07925781 9.4921875 -0.08789062 C14.7734375 -0.11328125 14.7734375 -0.11328125 17 1 C17 1.99 17 2.98 17 4 C11.06 4 5.12 4 -1 4 C-0.67 2.68 -0.34 1.36 0 0 Z " fill="#F6E2E2" transform="translate(40,27)"/>
<path d="M0 0 C3.63 0 7.26 0 11 0 C11 1.65 11 3.3 11 5 C10 6 10 6 7.71484375 6.09765625 C6.34005859 6.08025391 6.34005859 6.08025391 4.9375 6.0625 C4.01839844 6.05347656 3.09929688 6.04445313 2.15234375 6.03515625 C1.44207031 6.02355469 0.73179688 6.01195313 0 6 C0 4.02 0 2.04 0 0 Z " fill="#E8E4E3" transform="translate(27,58)"/>
<path d="M0 0 C0 2.64 0 5.28 0 8 C-1.98 8.99 -1.98 8.99 -4 10 C-6.5 7.6875 -6.5 7.6875 -9 5 C-9 4.01 -9 3.02 -9 2 C-5.62902617 0.50178941 -3.79557881 0 0 0 Z " fill="#A71B1A" transform="translate(31,21)"/>
<path d="M0 0 C3.3 0 6.6 0 10 0 C10 1.98 10 3.96 10 6 C6.7 6 3.4 6 0 6 C0 4.02 0 2.04 0 0 Z " fill="#EEEAEA" transform="translate(59,58)"/>
<path d="M0 0 C3.3 0 6.6 0 10 0 C10 1.98 10 3.96 10 6 C6.7 6 3.4 6 0 6 C0 4.02 0 2.04 0 0 Z " fill="#EFEEED" transform="translate(43,58)"/>
<path d="M0 0 C3.3 0 6.6 0 10 0 C10 1.98 10 3.96 10 6 C6.7 6 3.4 6 0 6 C0 4.02 0 2.04 0 0 Z " fill="#EDEBEB" transform="translate(57,48)"/>
<path d="M0 0 C3.3 0 6.6 0 10 0 C10 1.98 10 3.96 10 6 C6.7 6 3.4 6 0 6 C0 4.02 0 2.04 0 0 Z " fill="#EFEEEE" transform="translate(43,48)"/>
<path d="M0 0 C3.3 0 6.6 0 10 0 C10 1.98 10 3.96 10 6 C6.7 6 3.4 6 0 6 C0 4.02 0 2.04 0 0 Z " fill="#EEEDED" transform="translate(29,48)"/>
<path d="M0 0 C3.12290635 0.48578543 5.99580359 0.9986012 9 2 C8.60000283 4.31998359 8.09432121 5.86323424 6.75 7.8125 C5 9 5 9 2.3125 8.6875 C1.549375 8.460625 0.78625 8.23375 0 8 C0 5.36 0 2.72 0 0 Z " fill="#A61A1A" transform="translate(65,21)"/>
<path d="M0 0 C2.97 0 5.94 0 9 0 C9 1.98 9 3.96 9 6 C5.7 6 2.4 6 -1 6 C-0.67 4.02 -0.34 2.04 0 0 Z " fill="#F0ECEC" transform="translate(31,39)"/>
<path d="M0 0 C2.97 0 5.94 0 9 0 C9.33 1.98 9.66 3.96 10 6 C7.03 6 4.06 6 1 6 C0.67 4.02 0.34 2.04 0 0 Z " fill="#F3EFEF" transform="translate(56,39)"/>
<path d="M0 0 C2.64 0 5.28 0 8 0 C8 1.98 8 3.96 8 6 C5.36 6 2.72 6 0 6 C0 4.02 0 2.04 0 0 Z " fill="#F4F4F4" transform="translate(44,39)"/>
<path d="M0 0 C3.47691229 0.29802105 5.01512296 1.0117623 7.8125 3.1875 C10.35683282 6.45878506 10.46963359 7.96115115 10 12 C9.46375 11.236875 8.9275 10.47375 8.375 9.6875 C5.79794186 6.77135526 3.54185596 5.5294378 0 4 C0 2.68 0 1.36 0 0 Z " fill="#FA4E4E" transform="translate(80,24)"/>
<path d="M0 0 C3.71480543 -0.41275616 6.11461964 -0.47674327 9.4375 1.3125 C11 3 11 3 11 6 C7.125 5.125 7.125 5.125 6 4 C4.65252916 3.76924918 3.29622435 3.58846937 1.9375 3.4375 C0.638125 3.293125 -0.66125 3.14875 -2 3 C-1.34 2.01 -0.68 1.02 0 0 Z " fill="#F94E4E" transform="translate(11,25)"/>
<path d="M0 0 C3.12886338 1.07891841 4.02646902 2.04058583 5.875 4.875 C7 8 7 8 6.1875 10.375 C5.795625 10.91125 5.40375 11.4475 5 12 C4.67 12 4.34 12 4 12 C3.731875 10.9275 3.46375 9.855 3.1875 8.75 C2.13772173 5.43491072 1.25387672 3.56122354 -1 1 C-0.67 0.67 -0.34 0.34 0 0 Z " fill="#DC4645" transform="translate(86,24)"/>
</svg>
