<svg width="24" height="24" viewBox="0 0 24 24" fill="none" xmlns="http://www.w3.org/2000/svg">
<path d="M19.6875 2.36959V2.36961V21.6304C19.6875 22.0044 19.3788 22.3125 18.9918 22.3125H5.00824C4.62123 22.3125 4.3125 22.0044 4.3125 21.6304V2.36961C4.3125 1.99562 4.62123 1.6875 5.00824 1.6875H18.9918C19.3788 1.6875 19.6875 1.99562 19.6875 2.36959Z" fill="url(#paint0_linear_18898_32712)" stroke="url(#paint1_linear_18898_32712)" stroke-width="0.375"/>
<path d="M5.36719 9.93481C5.36719 6.3594 8.33667 3.46094 11.9997 3.46094C15.6627 3.46094 18.6322 6.3594 18.6322 9.93481H5.36719Z" fill="white"/>
<path d="M16.491 5.55078L13.8242 8.15378C14.2911 8.60946 14.5798 9.2389 14.5798 9.93423H18.1917H18.3511C18.3511 8.34769 17.7311 6.76116 16.491 5.55078Z" fill="#66BA25"/>
<path d="M16.4902 5.55078C16.5273 5.58703 16.5638 5.62358 16.5999 5.66063C16.5639 5.62368 16.5274 5.58703 16.4902 5.55078Z" fill="#91BA20"/>
<path d="M16.4908 5.55009C15.3415 4.42822 13.7537 3.73438 12 3.73438V7.41558C12.7124 7.41558 13.3572 7.69741 13.8241 8.15309L16.4908 5.55009Z" fill="#91BA20"/>
<path d="M12 3.73438C12.0524 3.73448 12.1047 3.73508 12.1572 3.7364C12.1049 3.73508 12.0526 3.73438 12 3.73438Z" fill="#FFB700"/>
<path d="M12.0006 7.41548V3.73438C10.3752 3.73438 8.7499 4.33951 7.50977 5.54999L10.1765 8.15299C10.6434 7.69731 11.2884 7.41548 12.0006 7.41548Z" fill="#FFB700"/>
<path d="M7.50781 5.55239C7.54495 5.51624 7.5824 5.48058 7.62035 5.44531C7.5825 5.48048 7.54495 5.51604 7.50781 5.55239Z" fill="#E01D1D"/>
<path d="M7.50864 5.55078C6.35928 6.67255 5.64844 8.22234 5.64844 9.93423H9.41984C9.41984 9.2389 9.70858 8.60946 10.1754 8.15378L7.50864 5.55078Z" fill="#E03838"/>
<path opacity="0.14" d="M17.0566 7.18359L11.9015 9.74234C11.6919 9.84636 11.6166 10.102 11.7375 10.2989C11.8585 10.4957 12.1251 10.5512 12.3177 10.4196L17.0566 7.18359Z" fill="#232323"/>
<path d="M16.9628 7.03125L11.806 9.58693C11.5963 9.69085 11.5209 9.9464 11.6417 10.1434C11.7626 10.3402 12.0291 10.3959 12.2218 10.2644L16.9628 7.03125Z" fill="#474747"/>
<path d="M6.73484 9.3108V9.51814H6.60742V8.9375H6.86235C6.9757 8.9375 7.03227 8.99282 7.03227 9.10345V9.14494C7.03227 9.25558 6.9756 9.3109 6.86235 9.3109H6.73484V9.3108ZM6.73484 9.06196V9.18633H6.86235C6.89069 9.18633 6.90486 9.1725 6.90486 9.14484V9.10335C6.90486 9.07569 6.89069 9.06187 6.86235 9.06187H6.73484V9.06196Z" fill="white"/>
<path d="M7.56339 9.35228C7.56339 9.46292 7.50671 9.51824 7.39337 9.51824H7.28711C7.17376 9.51824 7.11719 9.46292 7.11719 9.35228V9.10345C7.11719 8.99292 7.17386 8.9375 7.28711 8.9375H7.39337C7.50671 8.9375 7.56339 8.99282 7.56339 9.10345V9.35228ZM7.2446 9.35228C7.2446 9.37994 7.25877 9.39377 7.28711 9.39377H7.39337C7.4217 9.39377 7.43587 9.37994 7.43587 9.35228V9.10345C7.43587 9.07579 7.4217 9.06196 7.39337 9.06196H7.28711C7.25877 9.06196 7.2446 9.07579 7.2446 9.10345V9.35228Z" fill="white"/>
<path d="M8.09464 9.35228C8.09464 9.46292 8.03796 9.51824 7.92462 9.51824H7.81836C7.70501 9.51824 7.64844 9.46292 7.64844 9.35228V9.10345C7.64844 8.99292 7.70511 8.9375 7.81836 8.9375H7.92462C8.03796 8.9375 8.09464 8.99282 8.09464 9.10345V9.35228ZM7.77585 9.35228C7.77585 9.37994 7.79002 9.39377 7.81836 9.39377H7.92462C7.95295 9.39377 7.96712 9.37994 7.96712 9.35228V9.10345C7.96712 9.07579 7.95295 9.06196 7.92462 9.06196H7.81836C7.79002 9.06196 7.77585 9.07579 7.77585 9.10345V9.35228Z" fill="white"/>
<path d="M8.39211 9.3108H8.3071V9.51814H8.17969V8.9375H8.43462C8.54786 8.9375 8.60453 8.99282 8.60453 9.10345V9.14494C8.60453 9.21271 8.57853 9.26052 8.52631 9.28847L8.60453 9.51824H8.47702L8.39211 9.3108ZM8.3071 9.06196V9.18633H8.43462C8.46295 9.18633 8.47712 9.1725 8.47712 9.14484V9.10335C8.47712 9.07569 8.46295 9.06187 8.43462 9.06187H8.3071V9.06196Z" fill="white"/>
<path d="M15.6002 9.35238C15.6002 9.38004 15.6143 9.39387 15.6427 9.39387H15.7277C15.756 9.39387 15.7702 9.38004 15.7702 9.35238V9.29015H15.6852V9.16569H15.8976V9.35229C15.8976 9.46292 15.8409 9.51824 15.7277 9.51824H15.6427C15.5293 9.51824 15.4727 9.46292 15.4727 9.35229V9.10345C15.4727 8.99292 15.5293 8.9375 15.6427 8.9375H15.8976V9.06196H15.6427C15.6143 9.06196 15.6002 9.07579 15.6002 9.10345V9.35238Z" fill="white"/>
<path d="M16.4287 9.35228C16.4287 9.46292 16.3721 9.51824 16.2587 9.51824H16.1524C16.0391 9.51824 15.9824 9.46292 15.9824 9.35228V9.10345C15.9824 8.99292 16.0391 8.9375 16.1524 8.9375H16.2587C16.372 8.9375 16.4287 8.99282 16.4287 9.10345V9.35228ZM16.1099 9.35228C16.1099 9.37994 16.1241 9.39377 16.1524 9.39377H16.2587C16.287 9.39377 16.3012 9.37994 16.3012 9.35228V9.10345C16.3012 9.07579 16.287 9.06196 16.2587 9.06196H16.1524C16.1241 9.06196 16.1099 9.07579 16.1099 9.10345V9.35228Z" fill="white"/>
<path d="M16.96 9.35228C16.96 9.46292 16.9033 9.51824 16.79 9.51824H16.6837C16.5703 9.51824 16.5137 9.46292 16.5137 9.35228V9.10345C16.5137 8.99292 16.5703 8.9375 16.6837 8.9375H16.79C16.9033 8.9375 16.96 8.99282 16.96 9.10345V9.35228ZM16.6413 9.35228C16.6413 9.37994 16.6555 9.39377 16.6838 9.39377H16.7901C16.8184 9.39377 16.8326 9.37994 16.8326 9.35228V9.10345C16.8326 9.07579 16.8184 9.06196 16.7901 9.06196H16.6838C16.6555 9.06196 16.6413 9.07579 16.6413 9.10345V9.35228Z" fill="white"/>
<path d="M17.2998 8.9375C17.4131 8.9375 17.4699 8.99282 17.4699 9.10345V9.35228C17.4699 9.46292 17.4132 9.51824 17.2998 9.51824H17.0449V8.9376L17.2998 8.9375ZM17.3424 9.10345C17.3424 9.07579 17.3282 9.06196 17.2998 9.06196H17.1723V9.39377H17.2998C17.3282 9.39377 17.3424 9.37994 17.3424 9.35228V9.10345Z" fill="white"/>
<rect x="5.64844" y="12" width="9.75" height="1.5" rx="0.75" fill="white"/>
<rect x="5.64844" y="15" width="9.75" height="1.5" rx="0.75" fill="white"/>
<rect x="5.64844" y="18" width="7.5" height="1.5" rx="0.75" fill="white"/>
<defs>
<linearGradient id="paint0_linear_18898_32712" x1="12" y1="1.5" x2="12" y2="22.5" gradientUnits="userSpaceOnUse">
<stop stop-color="#EBEEF0"/>
<stop offset="1" stop-color="#AFB9C3"/>
</linearGradient>
<linearGradient id="paint1_linear_18898_32712" x1="4.875" y1="1.875" x2="19.875" y2="21" gradientUnits="userSpaceOnUse">
<stop stop-color="white"/>
<stop offset="1" stop-color="white" stop-opacity="0"/>
</linearGradient>
</defs>
</svg>
