<?xml version="1.0" encoding="UTF-8"?>
<svg version="1.1" xmlns="http://www.w3.org/2000/svg" width="30" height="31">
<path d="M0 0 C2.43816585 -0.0809723 4.87364384 -0.14046972 7.3125 -0.1875 C8.34793945 -0.22520508 8.34793945 -0.22520508 9.40429688 -0.26367188 C14.48720565 -0.33733722 14.48720565 -0.33733722 16.91796875 1.26171875 C18.48304007 3.77600299 18.85135471 6.18245092 19.375 9.0625 C19.83727037 11.09657747 19.83727037 11.09657747 21.51953125 12.23828125 C23.93725185 15.11530498 23.57735135 18.58406549 23.6875 22.1875 C23.73874023 23.31188477 23.73874023 23.31188477 23.79101562 24.45898438 C23.87334294 26.30546838 23.93835281 28.15270994 24 30 C21.69 30 19.38 30 17 30 C17 29.01 17 28.02 17 27 C11.72 27 6.44 27 1 27 C1 27.99 1 28.98 1 30 C-1.31 30 -3.62 30 -6 30 C-5.93971999 27.43508544 -5.85262053 24.87578243 -5.75 22.3125 C-5.73582031 21.59126953 -5.72164063 20.87003906 -5.70703125 20.12695312 C-5.47637552 15.07559265 -4.40651981 12.88556166 -1 9 C-0.32109939 6.58241784 -0.32109939 6.58241784 -0.25 4.1875 C-0.19328125 3.39730469 -0.1365625 2.60710937 -0.078125 1.79296875 C-0.05234375 1.20128906 -0.0265625 0.60960938 0 0 Z " fill="#E0EEFD" transform="translate(6,1)"/>
<path d="M0 0 C3.6196875 -0.0928125 3.6196875 -0.0928125 7.3125 -0.1875 C8.44619019 -0.22846802 8.44619019 -0.22846802 9.6027832 -0.27026367 C12.39187013 -0.30500119 14.51848558 -0.2751511 16.96875 1.125 C18.47436282 3.86247786 18.28741783 6.09004741 18.1875 9.1875 C18.16042969 10.27417969 18.13335938 11.36085938 18.10546875 12.48046875 C18.07066406 13.31191406 18.03585938 14.14335937 18 15 C16.02 15.99 16.02 15.99 14 17 C14.33 15.68 14.66 14.36 15 13 C11.04 13 7.08 13 3 13 C3.33 14.32 3.66 15.64 4 17 C3.34 17 2.68 17 2 17 C2 16.34 2 15.68 2 15 C1.34 15 0.68 15 0 15 C0 10.05 0 5.1 0 0 Z " fill="#DFEDFD" transform="translate(6,1)"/>
<path d="M0 0 C4.67764998 3.78240597 4.67764998 3.78240597 5.50634766 6.91259766 C5.71355643 9.05577159 5.79518397 11.15953984 5.8125 13.3125 C5.85020508 14.42334961 5.85020508 14.42334961 5.88867188 15.55664062 C5.94718443 17.37052969 5.97654349 19.18531903 6 21 C3.69 21 1.38 21 -1 21 C-0.979375 20.05125 -0.95875 19.1025 -0.9375 18.125 C-0.77448174 15.09333717 -0.77448174 15.09333717 -2 13 C-2.04022391 10.6670134 -2.04320247 8.33293334 -2 6 C-1.34 6 -0.68 6 0 6 C0 4.02 0 2.04 0 0 Z " fill="#DB9B98" transform="translate(24,10)"/>
<path d="M0 0 C0 1.98 0 3.96 0 6 C0.66 6 1.32 6 2 6 C2.08192424 10.1781363 1.90557802 13.92489892 1 18 C1 18.99 1 19.98 1 21 C-1.31 21 -3.62 21 -6 21 C-5.93971999 18.43508544 -5.85262053 15.87578243 -5.75 13.3125 C-5.73582031 12.59126953 -5.72164063 11.87003906 -5.70703125 11.12695312 C-5.54589079 7.5979771 -4.88798083 0 0 0 Z " fill="#DB9B98" transform="translate(6,10)"/>
<path d="M0 0 C3.96 0 7.92 0 12 0 C12 1.32 12 2.64 12 4 C8.04 4 4.08 4 0 4 C0 2.68 0 1.36 0 0 Z " fill="#C0D5E6" transform="translate(9,9)"/>
<path d="M0 0 C3.96 0 7.92 0 12 0 C11.67 1.32 11.34 2.64 11 4 C7.7 4 4.4 4 1 4 C0.67 2.68 0.34 1.36 0 0 Z " fill="#C0D5E6" transform="translate(9,14)"/>
<path d="M0 0 C1.32 0.66 2.64 1.32 4 2 C4 2.66 4 3.32 4 4 C3.34 4 2.68 4 2 4 C2 4.66 2 5.32 2 6 C-2.29 6 -6.58 6 -11 6 C-11 5.34 -11 4.68 -11 4 C-5.555 3.505 -5.555 3.505 0 3 C0 2.01 0 1.02 0 0 Z " fill="#C2D7E8" transform="translate(20,2)"/>
<path d="M0 0 C1.51400391 0.01740234 1.51400391 0.01740234 3.05859375 0.03515625 C4.07050781 0.04417969 5.08242188 0.05320312 6.125 0.0625 C7.29869141 0.07990234 7.29869141 0.07990234 8.49609375 0.09765625 C8.49609375 0.75765625 8.49609375 1.41765625 8.49609375 2.09765625 C6.84609375 2.09765625 5.19609375 2.09765625 3.49609375 2.09765625 C3.49609375 2.75765625 3.49609375 3.41765625 3.49609375 4.09765625 C1.51609375 4.09765625 -0.46390625 4.09765625 -2.50390625 4.09765625 C-2.83390625 3.10765625 -3.16390625 2.11765625 -3.50390625 1.09765625 C-2.50390625 0.09765625 -2.50390625 0.09765625 0 0 Z " fill="#C3D7E8" transform="translate(11.50390625,18.90234375)"/>
</svg>
