<?xml version="1.0" encoding="UTF-8"?>
<svg version="1.1" xmlns="http://www.w3.org/2000/svg" width="96" height="96">
<path d="M0 0 C5.23855969 0.52343655 9.45740389 1.82943613 14.2109375 4.125 C14.86454254 4.43195801 15.51814758 4.73891602 16.19155884 5.05517578 C18.25694496 6.02809689 20.31580454 7.01405586 22.375 8 C23.77956626 8.66226838 25.18451106 9.32373455 26.58984375 9.984375 C27.9222137 10.61386695 29.25425719 11.24405044 30.5859375 11.875 C31.21503021 12.17293457 31.84412292 12.47086914 32.49227905 12.77783203 C36.88129026 14.88129026 36.88129026 14.88129026 38 16 C39.20063603 25.92000919 35.65202959 33.12753021 30 41 C34.48449097 41.16553429 34.48449097 41.16553429 38.890625 40.51171875 C41.46424069 39.88737865 43.85306221 39.79363084 46.5 39.75 C47.4384375 39.72421875 48.376875 39.6984375 49.34375 39.671875 C52.44426446 40.05487973 53.77412626 40.84095388 56 43 C56.5625 45.5 56.5625 45.5 56 48 C54.34467377 49.01866229 52.67739862 50.01810813 51 51 C50.18828772 53.55519921 50.18828772 53.55519921 50 56 C49.67 56.33 49.34 56.66 49 57 C47.88625 56.979375 46.7725 56.95875 45.625 56.9375 C41.90193585 56.67517806 41.90193585 56.67517806 39 59 C34.86747459 59.35170429 32.62174785 58.81087392 29 57 C28.01 57 27.02 57 26 57 C22.89448334 57 21.64738916 56.4606285 19 55 C15.26646758 61.93873478 12.29978351 68.20129894 11 76 C6.21196954 75.48060019 2.44984768 74.54256512 -1.875 72.4375 C-3.53595703 71.63892578 -3.53595703 71.63892578 -5.23046875 70.82421875 C-6.12644775 70.38795166 -6.12644775 70.38795166 -7.04052734 69.94287109 C-9.20034771 68.90359546 -11.37367339 67.89706866 -13.55078125 66.89453125 C-15.09636191 66.17970424 -16.64193491 65.46486067 -18.1875 64.75 C-19.3019751 64.2384436 -19.3019751 64.2384436 -20.43896484 63.71655273 C-25.7738396 61.2261604 -25.7738396 61.2261604 -28 59 C-28.36733514 53.20834932 -26.44591962 48.20007405 -23.98828125 43.0703125 C-22.00132901 38.90792244 -21 35.61726919 -21 31 C-22.11375 30.896875 -23.2275 30.79375 -24.375 30.6875 C-26.169375 30.3471875 -26.169375 30.3471875 -28 30 C-30 27 -30 27 -30.4375 25 C-30.84097815 22.89379787 -30.84097815 22.89379787 -32.5625 21.5625 C-34 20 -34 20 -34.375 17.4375 C-34.25125 16.633125 -34.1275 15.82875 -34 15 C-33.01 14.34 -32.02 13.68 -31 13 C-31.66 12.01 -32.32 11.02 -33 10 C-32.64111965 7.03923709 -32.15341979 6.15341979 -30 4 C-26.37085636 4.08064764 -24.4507936 4.65323569 -21.5625 6.875 C-18.33732635 10.38107587 -16.09948302 14.65517634 -13.74609375 18.76953125 C-12.88177734 19.87361328 -12.88177734 19.87361328 -12 21 C-10.68 21 -9.36 21 -8 21 C-4.26646758 14.06126522 -1.29978351 7.79870106 0 0 Z " fill="#B2BABB" transform="translate(37,9)"/>
<path d="M0 0 C5.23855969 0.52343655 9.45740389 1.82943613 14.2109375 4.125 C14.86454254 4.43195801 15.51814758 4.73891602 16.19155884 5.05517578 C18.25694496 6.02809689 20.31580454 7.01405586 22.375 8 C23.77956626 8.66226838 25.18451106 9.32373455 26.58984375 9.984375 C27.9222137 10.61386695 29.25425719 11.24405044 30.5859375 11.875 C31.21503021 12.17293457 31.84412292 12.47086914 32.49227905 12.77783203 C36.88129026 14.88129026 36.88129026 14.88129026 38 16 C39.27744153 26.55459884 35.24389136 33.84825294 29 42 C24.25 41.25 24.25 41.25 22 39 C19.48824187 38.00981558 16.98281149 37.0820092 14.4375 36.1875 C8.92693801 34.19527186 3.80591796 32.05291904 -1.23046875 29.01953125 C-3.13876194 27.84882643 -3.13876194 27.84882643 -6 26.9375 C-8 26 -8 26 -8.76953125 24.1875 C-9.06967909 21.33863916 -8.31643113 20.37971188 -6.6875 18.0625 C-2.84244255 12.28429213 -1.38111658 6.7439629 0 0 Z " fill="#1E9E42" transform="translate(37,9)"/>
<path d="M0 0 C2.12093023 0.81164833 4.22518699 1.66793728 6.3125 2.5625 C7.38113281 3.01753906 8.44976562 3.47257812 9.55078125 3.94140625 C10.76314453 4.46541016 10.76314453 4.46541016 12 5 C12 5.66 12 6.32 12 7 C12.69996094 7.11859375 13.39992188 7.2371875 14.12109375 7.359375 C17.25734162 8.05726462 20.07912543 9.05815883 23.0625 10.25 C24.08472656 10.64703125 25.10695312 11.0440625 26.16015625 11.453125 C29.34920531 13.19021362 30.93447819 15.04783933 33 18 C32.60167969 18.58265625 32.20335937 19.1653125 31.79296875 19.765625 C27.57984207 26.28520789 25.4878231 32.40427153 24 40 C19.21196954 39.48060019 15.44984768 38.54256512 11.125 36.4375 C10.01769531 35.90511719 8.91039062 35.37273437 7.76953125 34.82421875 C7.17221191 34.53337402 6.57489258 34.2425293 5.95947266 33.94287109 C3.79965229 32.90359546 1.62632661 31.89706866 -0.55078125 30.89453125 C-2.09636191 30.17970424 -3.64193491 29.46486067 -5.1875 28.75 C-5.9304834 28.4089624 -6.6734668 28.0679248 -7.43896484 27.71655273 C-12.7738396 25.2261604 -12.7738396 25.2261604 -15 23 C-15.52250954 14.76176622 -11.56096786 6.63413507 -7 0 C-4.24645846 -1.37677077 -2.96306014 -0.77315392 0 0 Z " fill="#029A36" transform="translate(24,45)"/>
<path d="M0 0 C0.73863281 0.23847656 1.47726563 0.47695313 2.23828125 0.72265625 C4.70047445 1.62978006 6.81199954 2.54859731 9 4 C10.5625 7.4375 10.5625 7.4375 11 11 C11.144375 11.804375 11.28875 12.60875 11.4375 13.4375 C10.52215958 18.79877963 6.88661161 23.32994446 3 27 C-3.59831971 24.37630265 -9.93542127 21.62642916 -16.0859375 18.0703125 C-18.31648276 16.82302801 -20.5925802 15.85424573 -23 15 C-22.09121094 14.85304688 -22.09121094 14.85304688 -21.1640625 14.703125 C-18.55015048 13.85383951 -17.8921967 13.00132413 -16.375 10.75 C-15.94703125 10.1209375 -15.5190625 9.491875 -15.078125 8.84375 C-13.86514518 6.92401404 -13.86514518 6.92401404 -13.125 4.25 C-12 2 -12 2 -8.6875 0.125 C-4.83844519 -1.04928791 -3.68932224 -1.31761508 0 0 Z " fill="#36B75A" transform="translate(52,20)"/>
<path d="M0 0 C3.62914364 0.08064764 5.5492064 0.65323569 8.4375 2.875 C11.56935717 6.32004289 13.8661209 10.40294035 16.25390625 14.37890625 C17.95441225 16.93156739 19.75993341 18.91678709 22 21 C18.57894737 30.21052632 18.57894737 30.21052632 15 32 C13.33380554 32.0396713 11.66608987 32.04384447 10 32 C9.67 30.35 9.34 28.7 9 27 C7.88625 26.896875 6.7725 26.79375 5.625 26.6875 C3.830625 26.3471875 3.830625 26.3471875 2 26 C0 23 0 23 -0.4375 21 C-0.84097815 18.89379787 -0.84097815 18.89379787 -2.5625 17.5625 C-4 16 -4 16 -4.375 13.4375 C-4.25125 12.633125 -4.1275 11.82875 -4 11 C-3.01 10.34 -2.02 9.68 -1 9 C-1.66 8.01 -2.32 7.02 -3 6 C-2.64111965 3.03923709 -2.15341979 2.15341979 0 0 Z " fill="#CBD4D7" transform="translate(7,13)"/>
<path d="M0 0 C4.73847974 1.46475417 9.10398603 3.36241758 13.5625 5.5 C18.61706567 7.91577751 18.61706567 7.91577751 23.77734375 10.09375 C26 11 26 11 29 13 C28.67609598 15.91513618 28.35764922 18.34781613 26.9375 20.9375 C23.64527068 22.74291608 20.47359542 21.88144658 17 21 C13.60386976 19.80193414 10.29502157 18.45170008 7 17 C7 16.34 7 15.68 7 15 C6.22914062 14.82984375 5.45828125 14.6596875 4.6640625 14.484375 C3.15972656 14.12085938 3.15972656 14.12085938 1.625 13.75 C0.12839844 13.40195312 0.12839844 13.40195312 -1.3984375 13.046875 C-4 12 -4 12 -6 8 C-4.02 5.36 -2.04 2.72 0 0 Z " fill="#EFEAA7" transform="translate(29,35)"/>
<path d="M0 0 C1.62566606 0.47690204 3.25051311 0.95659666 4.875 1.4375 C5.77992187 1.70433594 6.68484375 1.97117188 7.6171875 2.24609375 C10 3 10 3 12 4 C12 4.66 12 5.32 12 6 C12.66 6.103125 13.32 6.20625 14 6.3125 C17.83841009 7.19213564 21.33096691 8.56969896 25 10 C19.03416856 18.6309795 19.03416856 18.6309795 14 21 C13.67 20.67 13.34 20.34 13 20 C10.66702567 19.95907063 8.33294775 19.95758277 6 20 C5.67 19.01 5.34 18.02 5 17 C3.35 17 1.7 17 0 17 C-1.4606285 14.35261084 -2 13.10551666 -2 10 C-2.66 10 -3.32 10 -4 10 C-4 9.01 -4 8.02 -4 7 C-1.69 6.01 0.62 5.02 3 4 C1.68 3.01 0.36 2.02 -1 1 C-0.67 0.67 -0.34 0.34 0 0 Z " fill="#20AD4B" transform="translate(24,46)"/>
<path d="M0 0 C0 0.66 0 1.32 0 2 C1.32 2.66 2.64 3.32 4 4 C3.67 4.66 3.34 5.32 3 6 C0.6859378 6.73075648 -1.64828869 7.40138258 -4 8 C-4 8.99 -4 9.98 -4 11 C-3.34 11 -2.68 11 -2 11 C-1.34 13.31 -0.68 15.62 0 18 C1.65 18 3.3 18 5 18 C5.33 18.66 5.66 19.32 6 20 C7.2375 20 8.475 20 9.75 20 C12.5 20 15.25 20 18 20 C17.5 22.875 17.5 22.875 16 26 C10.59643434 28.75275986 6.93077092 28.06881276 1.1875 26.3125 C-2.64906675 24.72281146 -4.51594017 23.90004875 -6.5 20.2109375 C-7.24117036 17.45292855 -7.74615971 14.84201584 -8 12 C-8.16687448 14.41645782 -8.16687448 14.41645782 -8 17 C-7.34 17.66 -6.68 18.32 -6 19 C-5.875 21.625 -5.875 21.625 -6 24 C-9 24 -9 24 -12 22 C-11.59634445 15.74333895 -10.39461967 10.89185193 -7.83984375 5.1640625 C-6.81910174 2.92075731 -6.81910174 2.92075731 -7 0 C-4.3333581 -1.33332095 -2.83319697 -0.67102033 0 0 Z " fill="#06A13D" transform="translate(24,45)"/>
<path d="M0 0 C0.79921875 0.00902344 1.5984375 0.01804688 2.421875 0.02734375 C3.02515625 0.03894531 3.6284375 0.05054688 4.25 0.0625 C4.58 1.3825 4.91 2.7025 5.25 4.0625 C3.27 4.3925 1.29 4.7225 -0.75 5.0625 C-0.564375 5.866875 -0.37875 6.67125 -0.1875 7.5 C-0.043125 8.345625 0.10125 9.19125 0.25 10.0625 C-0.75 11.0625 -0.75 11.0625 -3.8125 11.125 C-4.781875 11.104375 -5.75125 11.08375 -6.75 11.0625 C-6.75 10.4025 -6.75 9.7425 -6.75 9.0625 C-7.41 9.0625 -8.07 9.0625 -8.75 9.0625 C-8.75 10.0525 -8.75 11.0425 -8.75 12.0625 C-10.73 12.3925 -12.71 12.7225 -14.75 13.0625 C-15.41 11.4125 -16.07 9.7625 -16.75 8.0625 C-17.74 8.0625 -18.73 8.0625 -19.75 8.0625 C-19.75 9.0525 -19.75 10.0425 -19.75 11.0625 C-21.4 11.0625 -23.05 11.0625 -24.75 11.0625 C-25.08 8.0925 -25.41 5.1225 -25.75 2.0625 C-24.56921875 2.00191406 -23.3884375 1.94132812 -22.171875 1.87890625 C-20.6145723 1.79447418 -19.05728121 1.70982751 -17.5 1.625 C-16.72269531 1.58568359 -15.94539063 1.54636719 -15.14453125 1.50585938 C-14.39042969 1.46396484 -13.63632813 1.42207031 -12.859375 1.37890625 C-12.16811523 1.34224854 -11.47685547 1.30559082 -10.76464844 1.26782227 C-7.04598308 0.88883565 -3.79439422 -0.05579991 0 0 Z " fill="#CBD5D8" transform="translate(84.75,51.9375)"/>
<path d="M0 0 C2.87286556 0.21439295 4.33854822 0.69758742 7 2 C9.90120838 5.60453162 10.17475592 9.00811701 10.0625 13.5625 C9.77264486 14.90595558 9.45192202 16.24445623 9.0625 17.5625 C5.23866445 17.05936374 1.53499835 16.24266623 -2.1875 15.25 C-3.03828125 15.02699219 -3.8890625 14.80398437 -4.765625 14.57421875 C-6.9375 13.5625 -6.9375 13.5625 -8.2421875 11.578125 C-9.12627696 9.01525892 -8.99570555 8.05684165 -7.9375 5.5625 C-5.63565338 1.51124995 -4.6975358 0.67107654 0 0 Z " fill="#089C3C" transform="translate(45.9375,26.4375)"/>
<path d="M0 0 C3.31726155 0.57194165 4.72635823 1.57000464 7 4 C6.60167969 4.58265625 6.20335938 5.1653125 5.79296875 5.765625 C1.57984207 12.28520789 -0.5121769 18.40427153 -2 26 C-7.21745066 25.47493172 -11.22651111 24.2201441 -15.9375 21.9375 C-17.08089844 21.38964844 -18.22429688 20.84179688 -19.40234375 20.27734375 C-20.25957031 19.85582031 -21.11679687 19.43429688 -22 19 C-22 18.67 -22 18.34 -22 18 C-16.25 17.875 -16.25 17.875 -14 19 C-14 19.66 -14 20.32 -14 21 C-12.02 21.33 -10.04 21.66 -8 22 C-8 19.69 -8 17.38 -8 15 C-7.34 15 -6.68 15 -6 15 C-5.87882812 14.38511719 -5.75765625 13.77023438 -5.6328125 13.13671875 C-5.46523438 12.32847656 -5.29765625 11.52023438 -5.125 10.6875 C-4.88136719 9.48673828 -4.88136719 9.48673828 -4.6328125 8.26171875 C-4 6 -4 6 -2 3 C-1.34 3 -0.68 3 0 3 C0 2.01 0 1.02 0 0 Z " fill="#028426" transform="translate(50,59)"/>
<path d="M0 0 C4.875 0.875 4.875 0.875 6 2 C7.27744153 12.55459884 3.24389136 19.84825294 -3 28 C-4.65 27.67 -6.3 27.34 -8 27 C-8 23 -8 23 -7 21 C-6.34 21 -5.68 21 -5 21 C-4.896875 20.319375 -4.79375 19.63875 -4.6875 18.9375 C-4 16 -4 16 -2.5 12.75 C-0.63215654 8.62252152 -0.29468496 4.48124366 0 0 Z " fill="#087424" transform="translate(69,23)"/>
<path d="M0 0 C3.73647845 0.16245558 5.52538742 0.58783644 8.375 3.0625 C8.91125 3.701875 9.4475 4.34125 10 5 C5.545 4.01 5.545 4.01 1 3 C1.474375 4.093125 1.94875 5.18625 2.4375 6.3125 C3.40187809 8.53476255 4.23166828 10.69500485 5 13 C3.02 13 1.04 13 -1 13 C1.05233685 15.2477975 2.00667261 16.0022242 5 17 C5 19.31 5 21.62 5 24 C7.64 24.33 10.28 24.66 13 25 C13 26.32 13 27.64 13 29 C13.66 29.66 14.32 30.32 15 31 C13.35 31.33 11.7 31.66 10 32 C9.67 30.35 9.34 28.7 9 27 C7.88625 26.896875 6.7725 26.79375 5.625 26.6875 C3.830625 26.3471875 3.830625 26.3471875 2 26 C0 23 0 23 -0.4375 21 C-0.84097815 18.89379787 -0.84097815 18.89379787 -2.5625 17.5625 C-4 16 -4 16 -4.375 13.4375 C-4.25125 12.633125 -4.1275 11.82875 -4 11 C-3.01 10.34 -2.02 9.68 -1 9 C-1.66 8.01 -2.32 7.02 -3 6 C-2.64111965 3.03923709 -2.15341979 2.15341979 0 0 Z " fill="#AEB5B5" transform="translate(7,13)"/>
<path d="M0 0 C2.86724686 0.57344937 3.8614515 0.8614515 6 3 C11.97477465 3.52771213 18.13869293 3.30251268 24 2 C24 2.66 24 3.32 24 4 C26.64 4 29.28 4 32 4 C32 4.33 32 4.66 32 5 C22.2648233 7.10084738 12.89613084 7.21105492 3 7 C3.11362262 8.4800841 3.24122908 9.95910074 3.375 11.4375 C3.44460937 12.26121094 3.51421875 13.08492187 3.5859375 13.93359375 C3.72257812 14.61550781 3.85921875 15.29742187 4 16 C4.66 16.33 5.32 16.66 6 17 C2.21213403 16.4739075 -0.17152224 15.61896089 -3 13 C-3 12.34 -3 11.68 -3 11 C-3.99 10.67 -4.98 10.34 -6 10 C-4.02 9.67 -2.04 9.34 0 9 C0.66 6.36 1.32 3.72 2 1 C1.34 0.67 0.68 0.34 0 0 Z " fill="#BAC3C3" transform="translate(56,47)"/>
<path d="M0 0 C0.66 0 1.32 0 2 0 C1.52309796 1.62566606 1.04340334 3.25051311 0.5625 4.875 C0.29566406 5.77992187 0.02882813 6.68484375 -0.24609375 7.6171875 C-1 10 -1 10 -2 12 C-2.22467831 13.53668865 -2.40796805 15.07968054 -2.5625 16.625 C-2.64628906 17.44226563 -2.73007813 18.25953125 -2.81640625 19.1015625 C-2.87699219 19.72804688 -2.93757812 20.35453125 -3 21 C-1.68 21.66 -0.36 22.32 1 23 C1.16687448 20.58354218 1.16687448 20.58354218 1 18 C0.34 17.34 -0.32 16.68 -1 16 C-1.125 13.375 -1.125 13.375 -1 11 C-0.34 10.67 0.32 10.34 1 10 C2.29243536 14.1196377 3.26252625 17.66831683 3 22 C3.763125 22.103125 4.52625 22.20625 5.3125 22.3125 C8.17059424 23.04364039 9.15742885 23.76951913 11 26 C6.25 25.125 6.25 25.125 4 24 C4 24.66 4 25.32 4 26 C5.32 26.66 6.64 27.32 8 28 C7.67 28.66 7.34 29.32 7 30 C4.84162452 28.95833617 2.70081442 27.89397211 0.5625 26.8125 C-0.04916016 26.52052734 -0.66082031 26.22855469 -1.29101562 25.92773438 C-4.06100519 24.50448007 -5.75013454 23.57153134 -7.01953125 20.66796875 C-6.99510496 17.33133779 -6.27390822 14.67559942 -5.25 11.5 C-4.90453125 10.3965625 -4.5590625 9.293125 -4.203125 8.15625 C-3.05928891 5.15553714 -1.85649171 2.61863041 0 0 Z " fill="#028C2C" transform="translate(16,46)"/>
<path d="M0 0 C2.97 0.495 2.97 0.495 6 1 C5.67 1.99 5.34 2.98 5 4 C6.65 4.33 8.3 4.66 10 5 C10.33 5.99 10.66 6.98 11 8 C8.64031256 10.09749995 7.45383006 10.96905704 4.25 11.1875 C3.5075 11.125625 2.765 11.06375 2 11 C1.566875 12.6396875 1.566875 12.6396875 1.125 14.3125 C0 18 0 18 -2 21 C-2.66 21 -3.32 21 -4 21 C-3.52626501 17.87415123 -3.04509049 14.74949284 -2.5625 11.625 C-2.42779297 10.73554688 -2.29308594 9.84609375 -2.15429688 8.9296875 C-2.02216797 8.07890625 -1.89003906 7.228125 -1.75390625 6.3515625 C-1.63345947 5.56604004 -1.5130127 4.78051758 -1.38891602 3.97119141 C-1 2 -1 2 0 0 Z " fill="#319F51" transform="translate(37,9)"/>
<path d="M0 0 C0 0.66 0 1.32 0 2 C-0.99 2.495 -0.99 2.495 -2 3 C1.3 3 4.6 3 8 3 C8.66 5.31 9.32 7.62 10 10 C7 12 7 12 3 12 C3.33 11.01 3.66 10.02 4 9 C1.03 9 -1.94 9 -5 9 C-8 3.25 -8 3.25 -8 1 C-5.07175348 0.02391783 -3.04386724 -0.08226668 0 0 Z " fill="#A9E9BD" transform="translate(29,53)"/>
<path d="M0 0 C1.65 1.32 3.3 2.64 5 4 C4.60167969 4.58265625 4.20335938 5.1653125 3.79296875 5.765625 C-0.42015793 12.28520789 -2.5121769 18.40427153 -4 26 C-10.75 25.25 -10.75 25.25 -13 23 C-10.69 23 -8.38 23 -6 23 C-6.0928125 21.7625 -6.0928125 21.7625 -6.1875 20.5 C-5.90077651 15.14782812 -4.10247013 10.79661798 -1.3125 6.25 C0.33591402 3.85828627 0.33591402 3.85828627 0 0 Z " fill="#076E1D" transform="translate(52,59)"/>
<path d="M0 0 C2.475 0.99 2.475 0.99 5 2 C5.55253221 9.35174806 4.51064108 14.511583 1 21 C-1 18 -1 18 -0.6875 14.875 C0 12 0 12 1 11 C1.04080783 9.00041636 1.04254356 6.99954746 1 5 C0.67 5 0.34 5 0 5 C0 3.35 0 1.7 0 0 Z " fill="#026819" transform="translate(70,23)"/>
<path d="M0 0 C2.475 0.495 2.475 0.495 5 1 C5 3.31 5 5.62 5 8 C7.64 8.33 10.28 8.66 13 9 C13 10.32 13 11.64 13 13 C13.66 13.66 14.32 14.32 15 15 C13.35 15.33 11.7 15.66 10 16 C9.67 14.35 9.34 12.7 9 11 C7.88625 10.896875 6.7725 10.79375 5.625 10.6875 C3.830625 10.3471875 3.830625 10.3471875 2 10 C0 7 0 7 0.4375 4.4375 C0.623125 3.633125 0.80875 2.82875 1 2 C0.67 1.34 0.34 0.68 0 0 Z " fill="#BABFC2" transform="translate(7,29)"/>
<path d="M0 0 C3.87132028 0.57352893 6.08172796 2.48704352 9 5 C7.02 5.33 5.04 5.66 3 6 C2.46326107 11.36090593 2.46326107 11.36090593 4.5 16 C4.995 16.33 5.49 16.66 6 17 C2.21213403 16.4739075 -0.17152224 15.61896089 -3 13 C-3 12.34 -3 11.68 -3 11 C-3.99 10.67 -4.98 10.34 -6 10 C-4.02 9.67 -2.04 9.34 0 9 C0.66 6.36 1.32 3.72 2 1 C1.34 0.67 0.68 0.34 0 0 Z " fill="#C2C58C" transform="translate(56,47)"/>
<path d="M0 0 C2.40438664 2.50456942 2.98543735 3.86893618 3.375 7.375 C2.97567245 11.23516636 1.94699617 13.67388155 0 17 C-0.99 17 -1.98 17 -3 17 C-3.33 18.32 -3.66 19.64 -4 21 C-4.625 19.125 -4.625 19.125 -5 17 C-4.34 16.34 -3.68 15.68 -3 15 C-0.96561958 10.09355311 -0.44246594 5.23972818 0 0 Z M-7 21 C-6.01 21.495 -6.01 21.495 -5 22 C-5.99 22.495 -5.99 22.495 -7 23 C-7 22.34 -7 21.68 -7 21 Z " fill="#058427" transform="translate(69,23)"/>
<path d="M0 0 C1.485 0.99 1.485 0.99 3 2 C2.67 2.66 2.34 3.32 2 4 C3.65 4.33 5.3 4.66 7 5 C7.33 5.99 7.66 6.98 8 8 C5.64031256 10.09749995 4.45383006 10.96905704 1.25 11.1875 C0.5075 11.125625 -0.235 11.06375 -1 11 C-1.14285714 3.57142857 -1.14285714 3.57142857 0 0 Z " fill="#39B95B" transform="translate(40,9)"/>
<path d="M0 0 C0.99 0.33 1.98 0.66 3 1 C5.00884362 6.02210906 5.37465102 9.77632611 4 15 C2.5045796 17.79407495 0.82326813 20.40974824 -1 23 C-1.99 22.67 -2.98 22.34 -4 22 C-3.566875 21.62875 -3.13375 21.2575 -2.6875 20.875 C-0.43692306 18.37435895 0.78909704 16.14834769 2 13 C1.83003243 9.47677815 1.83003243 9.47677815 1 6 C0.7215625 4.2984375 0.7215625 4.2984375 0.4375 2.5625 C0.293125 1.716875 0.14875 0.87125 0 0 Z " fill="#149839" transform="translate(60,23)"/>
<path d="M0 0 C0.66 0 1.32 0 2 0 C1.57316761 1.58624235 1.13303842 3.1689098 0.6875 4.75 C0.44386719 5.63171875 0.20023438 6.5134375 -0.05078125 7.421875 C-1.02593363 10.07043703 -2.31849911 11.76259307 -4 14 C-4.35543427 16.33006911 -4.6913753 18.66327016 -5 21 C-5.66 21.33 -6.32 21.66 -7 22 C-6.56594156 15.16357954 -5.08596726 10.09041839 -2 4 C-1.62746094 3.25363281 -1.25492188 2.50726563 -0.87109375 1.73828125 C-0.58363281 1.16464844 -0.29617187 0.59101562 0 0 Z " fill="#08752C" transform="translate(16,46)"/>
<path d="M0 0 C3.72433382 1.2125738 7.37802806 2.50859979 11 4 C11 4.33 11 4.66 11 5 C7.80097361 5.08886184 5.07322544 4.91058531 2 4 C2 3.34 2 2.68 2 2 C1.01 1.67 0.02 1.34 -1 1 C-0.67 0.67 -0.34 0.34 0 0 Z M-9 1 C-8.67 1.66 -8.34 2.32 -8 3 C-6.081875 2.938125 -6.081875 2.938125 -4.125 2.875 C-1.9453125 2.8046875 -1.9453125 2.8046875 0 3 C0.66 3.66 1.32 4.32 2 5 C1.625 7.625 1.625 7.625 1 10 C0.67 10 0.34 10 0 10 C-0.33 8.35 -0.66 6.7 -1 5 C-4.3 5 -7.6 5 -11 5 C-11.33 4.34 -11.66 3.68 -12 3 C-11.01 3 -10.02 3 -9 3 C-9 2.34 -9 1.68 -9 1 Z " fill="#3FB25E" transform="translate(38,52)"/>
<path d="M0 0 C0 0.66 0 1.32 0 2 C-0.99 2.495 -0.99 2.495 -2 3 C-0.68 3.66 0.64 4.32 2 5 C1.01 5 0.02 5 -1 5 C-1 5.66 -1 6.32 -1 7 C-2.65 7.33 -4.3 7.66 -6 8 C-6.66 5.69 -7.32 3.38 -8 1 C-5.07175348 0.02391783 -3.04386724 -0.08226668 0 0 Z " fill="#A7EAB9" transform="translate(29,53)"/>
<path d="M0 0 C3.79949465 1.26649822 4.10647669 2.50055794 6 5.9375 C7.86725214 9.31703187 8.73092183 10.82061455 12 13 C11.67 13.99 11.34 14.98 11 16 C10.01 15.67 9.02 15.34 8 15 C8 14.34 8 13.68 8 13 C7.34 13 6.68 13 6 13 C6 12.01 6 11.02 6 10 C5.34 10 4.68 10 4 10 C3.32845067 8.71086513 2.66291141 7.41859796 2 6.125 C1.62875 5.40570312 1.2575 4.68640625 0.875 3.9453125 C0 2 0 2 0 0 Z " fill="#B2B2B5" transform="translate(16,19)"/>
<path d="M0 0 C1.58409994 0.11487748 3.16728963 0.24234508 4.75 0.375 C6.07257812 0.47941406 6.07257812 0.47941406 7.421875 0.5859375 C10 1 10 1 14 3 C14 6.3 14 9.6 14 13 C13.67 13 13.34 13 13 13 C12.87625 11.88625 12.7525 10.7725 12.625 9.625 C12.3534187 5.96896323 12.3534187 5.96896323 10 4 C8.2984375 4.2784375 8.2984375 4.2784375 6.5625 4.5625 C3 5 3 5 1.0625 3.6875 C0 2 0 2 0 0 Z " fill="#2D9C4A" transform="translate(55,19)"/>
<path d="M0 0 C2.86724686 0.57344937 3.8614515 0.8614515 6 3 C6.125 6.625 6.125 6.625 6 10 C5.34 10 4.68 10 4 10 C4 9.34 4 8.68 4 8 C3.01 8 2.02 8 1 8 C0.67 5.36 0.34 2.72 0 0 Z " fill="#3AB75E" transform="translate(62,22)"/>
<path d="M0 0 C2.00720923 0.28674418 4.0085944 0.61866701 6 1 C5.01 1.33 4.02 1.66 3 2 C3 2.99 3 3.98 3 5 C1.625 6.5625 1.625 6.5625 0 8 C-0.66 8.66 -1.32 9.32 -2 10 C-3.01136941 7.26930259 -3.04557718 6.13998707 -2.125 3.3125 C-1 1 -1 1 0 0 Z " fill="#12A03B" transform="translate(47,57)"/>
<path d="M0 0 C1.32031595 0.56542004 2.6311301 1.15306472 3.9375 1.75 C4.66839844 2.07484375 5.39929687 2.3996875 6.15234375 2.734375 C8.46320032 4.31728732 8.48469618 5.33126866 9 8 C9.66 8.33 10.32 8.66 11 9 C6.57423225 8.49419797 4.33236314 6.8820438 1 4 C0.34 3.67 -0.32 3.34 -1 3 C-0.67 2.01 -0.34 1.02 0 0 Z " fill="#339D4C" transform="translate(43,10)"/>
<path d="M0 0 C-0.99 0.495 -0.99 0.495 -2 1 C-2 1.66 -2 2.32 -2 3 C0.64 2.01 3.28 1.02 6 0 C6 0.66 6 1.32 6 2 C2.3558226 4.4294516 0.28758728 4.16179575 -4 4 C-4.33 3.01 -4.66 2.02 -5 1 C-6.65 1 -8.3 1 -10 1 C-10 0.67 -10 0.34 -10 0 C-6.30458414 -0.95024979 -3.69541586 -0.95024979 0 0 Z " fill="#41B86B" transform="translate(34,62)"/>
<path d="M0 0 C2.31 0 4.62 0 7 0 C7 1.32 7 2.64 7 4 C7.66 4.66 8.32 5.32 9 6 C7.35 6.33 5.7 6.66 4 7 C3.67 5.35 3.34 3.7 3 2 C2.01 2 1.02 2 0 2 C0 1.34 0 0.68 0 0 Z " fill="#A9B8B4" transform="translate(13,38)"/>
<path d="M0 0 C5.94 2.475 5.94 2.475 12 5 C8.1496895 7.56687367 6.41430237 6.83288724 2 6 C1.34 4.02 0.68 2.04 0 0 Z " fill="#25943D" transform="translate(51,14)"/>
<path d="M0 0 C1.32 0.66 2.64 1.32 4 2 C4 3.65 4 5.3 4 7 C1 7 1 7 -2 5 C-1.34 3.35 -0.68 1.7 0 0 Z " fill="#03A438" transform="translate(14,62)"/>
<path d="M0 0 C2.875 0.25 2.875 0.25 6 1 C6.66 2.32 7.32 3.64 8 5 C4.7 4.67 1.4 4.34 -2 4 C-2 3.34 -2 2.68 -2 2 C-1.34 2 -0.68 2 0 2 C0 1.34 0 0.68 0 0 Z " fill="#18A843" transform="translate(32,51)"/>
<path d="M0 0 C0.33 0 0.66 0 1 0 C1.66 2.64 2.32 5.28 3 8 C1.51800098 7.55090939 0.03944764 7.09043436 -1.4375 6.625 C-2.26121094 6.36976562 -3.08492187 6.11453125 -3.93359375 5.8515625 C-6 5 -6 5 -7 3 C-6.21625 2.87625 -5.4325 2.7525 -4.625 2.625 C-1.85942178 2.20882007 -1.85942178 2.20882007 0 0 Z " fill="#3BAF50" transform="translate(36,31)"/>
<path d="M0 0 C1.60080151 4.00200378 0.29279692 7.04556236 -1 11 C-1.99 11 -2.98 11 -4 11 C-3.71758359 9.53984709 -3.42373386 8.08190207 -3.125 6.625 C-2.96257813 5.81289062 -2.80015625 5.00078125 -2.6328125 4.1640625 C-2 2 -2 2 0 0 Z " fill="#007D1D" transform="translate(47,71)"/>
<path d="M0 0 C0.33 0.66 0.66 1.32 1 2 C1.66 2 2.32 2 3 2 C3.66 3.98 4.32 5.96 5 8 C4.01 8.495 4.01 8.495 3 9 C2.34 7.68 1.68 6.36 1 5 C0.01 5.33 -0.98 5.66 -2 6 C-1.125 1.125 -1.125 1.125 0 0 Z " fill="#13A748" transform="translate(19,54)"/>
<path d="M0 0 C1.98 0 3.96 0 6 0 C6 0.66 6 1.32 6 2 C5.01 2.495 5.01 2.495 4 3 C4 4.32 4 5.64 4 7 C3.34 7 2.68 7 2 7 C2 6.01 2 5.02 2 4 C1.34 4 0.68 4 0 4 C0 2.68 0 1.36 0 0 Z " fill="#A5ABAE" transform="translate(84,57)"/>
<path d="M0 0 C0.66 0 1.32 0 2 0 C-1.42105263 9.21052632 -1.42105263 9.21052632 -5 11 C-5.33 10.01 -5.66 9.02 -6 8 C-4.1875 5.5 -4.1875 5.5 -2 3 C-1.34 2.01 -0.68 1.02 0 0 Z " fill="#CBCCA4" transform="translate(27,34)"/>
<path d="M0 0 C4.7517398 0.43197635 6.92000054 1.32769295 10 5 C8.51793505 4.745504 7.03931385 4.47088238 5.5625 4.1875 C4.73878906 4.03667969 3.91507813 3.88585937 3.06640625 3.73046875 C2.38449219 3.48941406 1.70257813 3.24835937 1 3 C0.67 2.01 0.34 1.02 0 0 Z " fill="#A5A9AA" transform="translate(7,13)"/>
<path d="M0 0 C0.99 0.66 1.98 1.32 3 2 C2.01 4.31 1.02 6.62 0 9 C-0.66 8.67 -1.32 8.34 -2 8 C-1.125 1.125 -1.125 1.125 0 0 Z " fill="#05601D" transform="translate(50,67)"/>
<path d="M0 0 C0.33 0 0.66 0 1 0 C1 1.65 1 3.3 1 5 C1.66 5 2.32 5 3 5 C3.66 6.32 4.32 7.64 5 9 C2.13275314 8.42655063 1.1385485 8.1385485 -1 6 C-1.1875 3.4375 -1.1875 3.4375 -1 1 C-0.67 0.67 -0.34 0.34 0 0 Z " fill="#9EADAE" transform="translate(4,23)"/>
<path d="M0 0 C0 0.66 0 1.32 0 2 C-1.98 2 -3.96 2 -6 2 C-6.33 2.66 -6.66 3.32 -7 4 C-7 2.35 -7 0.7 -7 -1 C-3.51418144 -2.2020064 -3.32007656 -2.21338437 0 0 Z " fill="#B3BDC0" transform="translate(12,24)"/>
<path d="M0 0 C1.65 0 3.3 0 5 0 C5 0.99 5 1.98 5 3 C2.69 3.33 0.38 3.66 -2 4 C-1.34 2.68 -0.68 1.36 0 0 Z " fill="#0EAD4A" transform="translate(22,48)"/>
<path d="M0 0 C0.33 0.99 0.66 1.98 1 3 C-2.22791555 5.1519437 -3.28400809 5.20086443 -7 5 C-7 4.34 -7 3.68 -7 3 C-5.68 3 -4.36 3 -3 3 C-3 2.34 -3 1.68 -3 1 C-2.01 0.67 -1.02 0.34 0 0 Z " fill="#CAF7DB" transform="translate(31,57)"/>
<path d="M0 0 C2.64 0.33 5.28 0.66 8 1 C7.67 1.99 7.34 2.98 7 4 C5.125 4.875 5.125 4.875 3 5 C1.25 3.6875 1.25 3.6875 0 2 C0 1.34 0 0.68 0 0 Z " fill="#2FA753" transform="translate(55,19)"/>
<path d="M0 0 C1.485 0.99 1.485 0.99 3 2 C2.39816251 4.02045442 1.72693904 6.02111039 1 8 C0.01 8.495 0.01 8.495 -1 9 C-0.67 6.03 -0.34 3.06 0 0 Z " fill="#40B35F" transform="translate(40,9)"/>
<path d="M0 0 C1.32 0 2.64 0 4 0 C3.67 0.99 3.34 1.98 3 3 C2.34 3 1.68 3 1 3 C0.67 3.99 0.34 4.98 0 6 C-0.66 5.01 -1.32 4.02 -2 3 C-1.34 2.01 -0.68 1.02 0 0 Z " fill="#21B354" transform="translate(38,27)"/>
<path d="M0 0 C4 0 4 0 6.75 2.5 C7.86375 3.7375 7.86375 3.7375 9 5 C4.68607774 4.5206753 2.83430453 3.2542015 0 0 Z " fill="#A3B38E" transform="translate(53,59)"/>
<path d="M0 0 C0.66 0.33 1.32 0.66 2 1 C-1.75 7.875 -1.75 7.875 -4 9 C-3.67 7.35 -3.34 5.7 -3 4 C-2.01 3.67 -1.02 3.34 0 3 C0 2.01 0 1.02 0 0 Z " fill="#058C2B" transform="translate(50,59)"/>
</svg>
