<?xml version="1.0" encoding="UTF-8"?>
<svg version="1.1" xmlns="http://www.w3.org/2000/svg" width="96" height="96">
<path d="M0 0 C1.81829702 1.81829702 1.34389022 4.38954616 1.54418945 6.82885742 C2.40580538 16.96485404 3.82195073 27.00588498 10.55737305 35.05688477 C13.77565478 39.53717036 13.6921219 43.61416368 13.59375 48.984375 C13.59379028 49.92178528 13.59383057 50.85919556 13.59387207 51.82501221 C13.58853516 53.79503124 13.57103119 55.76505105 13.54199219 57.73486328 C13.49993191 60.75488921 13.5009449 63.77269766 13.5078125 66.79296875 C13.49732624 68.71095303 13.48439119 70.62892583 13.46875 72.546875 C13.46844788 73.90156891 13.46844788 73.90156891 13.46813965 75.28363037 C13.45222778 76.12170227 13.43631592 76.95977417 13.41992188 77.82324219 C13.41150269 78.5593573 13.4030835 79.29547241 13.39440918 80.05389404 C12.88425796 82.57109796 12.03433928 83.46668751 10 85 C6.78540039 85.37231445 6.78540039 85.37231445 2.84765625 85.36328125 C2.15111435 85.36377975 1.45457245 85.36427826 0.73692322 85.36479187 C-0.73490249 85.36245363 -2.20673237 85.35273966 -3.6784668 85.33618164 C-5.92598435 85.31262072 -8.17231244 85.31561808 -10.41992188 85.32226562 C-22.4177159 85.27551759 -22.4177159 85.27551759 -26 83 C-26 82.34 -26 81.68 -26 81 C-26.66 81 -27.32 81 -28 81 C-28 81.66 -28 82.32 -28 83 C-33.25918914 86.34071142 -39.80034905 85.33344458 -45.80883789 85.31567383 C-48.05859448 85.3125055 -50.30704568 85.33601865 -52.55664062 85.36132812 C-53.98697751 85.36360046 -55.41731793 85.36430492 -56.84765625 85.36328125 C-58.14711182 85.36626221 -59.44656738 85.36924316 -60.78540039 85.37231445 C-64 85 -64 85 -65.67268372 83.73381042 C-67.28888826 81.62263894 -67.39901828 80.52416856 -67.45166016 77.88671875 C-67.4740274 77.06155762 -67.49639465 76.23639648 -67.5194397 75.38623047 C-67.52591522 74.49564941 -67.53239075 73.60506836 -67.5390625 72.6875 C-67.55141937 71.76340332 -67.56377625 70.83930664 -67.57650757 69.88720703 C-67.5960908 67.92698499 -67.6073089 65.96666434 -67.61083984 64.00634766 C-67.62482262 61.03765935 -67.69200958 58.07329954 -67.76171875 55.10546875 C-67.88730286 44.05832548 -67.30727608 36.79475693 -60 28 C-56.71858914 21.45703887 -56.36149682 14.32030468 -55.90893555 7.11889648 C-55.44508126 1.38546299 -55.44508126 1.38546299 -53.30859375 -0.46484375 C-35.75940527 -4.53292974 -17.48302543 -4.2336561 0 0 Z " fill="#A95C2B" transform="translate(75,7)"/>
<path d="M0 0 C0 16.17 0 32.34 0 49 C-6.27 49 -12.54 49 -19 49 C-19.81970113 40.92008888 -18.30819124 37.24172922 -13.75 30.625 C-8.94093861 23.41140792 -8.44045341 15.57670623 -7.90893555 7.11889648 C-7.44447266 1.37794037 -7.44447266 1.37794037 -5.12109375 -0.59765625 C-3 -1 -3 -1 0 0 Z " fill="#F87804" transform="translate(27,7)"/>
<path d="M0 0 C2.625 0.9375 2.625 0.9375 5 2 C5.08636719 3.14855469 5.17273438 4.29710937 5.26171875 5.48046875 C6.21843914 16.59499081 7.51176902 27.72751197 14.8125 36.6875 C17.89466091 41.35477224 17.37751197 44.48832527 17 50 C10.73 50 4.46 50 -2 50 C-2 33.83 -2 17.66 -2 1 C-1.34 0.67 -0.68 0.34 0 0 Z " fill="#F57707" transform="translate(71,6)"/>
<path d="M0 0 C12.21 0 24.42 0 37 0 C37 10 37 10 34 14 C31.28369557 14.35632458 28.97857076 14.46742617 26.26953125 14.390625 C25.51911057 14.38496521 24.76868988 14.37930542 23.99552917 14.37347412 C21.60053496 14.35109668 19.20704131 14.30090171 16.8125 14.25 C15.18817266 14.22993659 13.56382185 14.21168553 11.93945312 14.1953125 C7.95905793 14.15122794 3.97978329 14.08219427 0 14 C0 9.38 0 4.76 0 0 Z " fill="#F8670A" transform="translate(9,74)"/>
<path d="M0 0 C12.21 0 24.42 0 37 0 C37 4.62 37 9.24 37 14 C32.37359847 14.09901748 27.74781613 14.17153649 23.12060547 14.21972656 C21.54725396 14.2398188 19.97397692 14.26709799 18.40087891 14.30175781 C16.13685728 14.35038494 13.87382427 14.37299135 11.609375 14.390625 C10.90818542 14.41127014 10.20699585 14.43191528 9.48455811 14.45318604 C6.36698048 14.45461232 4.25183719 14.14236004 1.52441406 12.60058594 C0 10 0 10 0 0 Z " fill="#F9680B" transform="translate(50,74)"/>
<path d="M0 0 C0.99 0 1.98 0 3 0 C3.41666667 1.66666667 3.83333333 3.33333333 4.25 5 C4.52070312 6.07894531 4.79140625 7.15789063 5.0703125 8.26953125 C5.73903805 10.95286275 6.40040712 13.63737882 7.0546875 16.32421875 C7.23225586 17.04802734 7.40982422 17.77183594 7.59277344 18.51757812 C7.94518755 19.9543931 8.29483679 21.39188928 8.64160156 22.83007812 C9.25704416 26.19518357 9.25704416 26.19518357 11 29 C12.26516842 35.32584211 12.07231781 41.56371477 12 48 C7.71 48 3.42 48 -1 48 C-1.02466745 41.48551715 -1.04284444 34.97106133 -1.05493164 28.45654297 C-1.05996909 26.23909024 -1.06679922 24.02164084 -1.07543945 21.80419922 C-1.08753072 18.62206195 -1.0932341 15.43996849 -1.09765625 12.2578125 C-1.10281754 11.26194122 -1.10797882 10.26606995 -1.11329651 9.24002075 C-1.11337204 8.31921722 -1.11344757 7.3984137 -1.11352539 6.44970703 C-1.115746 5.6369632 -1.11796661 4.82421936 -1.12025452 3.98684692 C-1 2 -1 2 0 0 Z " fill="#F87C08" transform="translate(35,8)"/>
<path d="M0 0 C1.32 0.33 2.64 0.66 4 1 C4 16.51 4 32.02 4 48 C0.04 48 -3.92 48 -8 48 C-9.33517703 31.63171863 -5.28596438 15.42475752 0 0 Z " fill="#FB7B04" transform="translate(58,8)"/>
<path d="M0 0 C0.66 0 1.32 0 2 0 C2 7.26 2 14.52 2 22 C2.66 22 3.32 22 4 22 C4 30.58 4 39.16 4 48 C8.62 47.67 13.24 47.34 18 47 C18 48.98 18 50.96 18 53 C5.46 53 -7.08 53 -20 53 C-20 51.35 -20 49.7 -20 48 C-13.73 48 -7.46 48 -1 48 C-1.01160156 46.12699219 -1.02320312 44.25398438 -1.03515625 42.32421875 C-1.09530022 28.17817014 -0.98431295 14.11434465 0 0 Z " fill="#D7CCC7" transform="translate(29,9)"/>
<path d="M0 0 C1.32 0.66 2.64 1.32 4 2 C4 17.18 4 32.36 4 48 C10.27 48 16.54 48 23 48 C23 49.65 23 51.3 23 53 C10.46 53 -2.08 53 -15 53 C-15 51.35 -15 49.7 -15 48 C-10.05 48 -5.1 48 0 48 C0 32.16 0 16.32 0 0 Z " fill="#E0DDD9" transform="translate(64,9)"/>
<path d="M0 0 C0.33 0 0.66 0 1 0 C1 4.62 1 9.24 1 14 C5.78802359 13.98060297 10.57420311 13.9289629 15.36157227 13.84741211 C16.99005077 13.82421533 18.61867966 13.8098324 20.24731445 13.80444336 C22.58900841 13.79516508 24.92833208 13.75420744 27.26953125 13.70703125 C27.99775589 13.7109639 28.72598053 13.71489655 29.47627258 13.71894836 C31.78765918 13.70681523 31.78765918 13.70681523 35 13 C36.82999949 10.5493507 36.82999949 10.5493507 38 8 C38.99 8 39.98 8 41 8 C41.39292236 8.81041748 41.78584473 9.62083496 42.19067383 10.45581055 C43.83750498 13.39594477 43.83750498 13.39594477 47.5534668 13.65942383 C49.0182276 13.70049799 50.48390231 13.71471367 51.94921875 13.70703125 C52.72183548 13.72215256 53.49445221 13.73727386 54.29048157 13.75285339 C56.75644923 13.79581689 59.22119498 13.80457594 61.6875 13.8125 C63.36005872 13.83563784 65.03258824 13.8610017 66.70507812 13.88867188 C70.80349381 13.95160873 74.90114356 13.98387646 79 14 C79 9.38 79 4.76 79 0 C79.33 0 79.66 0 80 0 C80.0809723 2.43816585 80.14046972 4.87364384 80.1875 7.3125 C80.21263672 8.00279297 80.23777344 8.69308594 80.26367188 9.40429688 C80.33701517 14.46498457 80.33701517 14.46498457 78.92871094 16.70068359 C75.96282127 18.69871711 73.38749769 18.37140166 69.84765625 18.36328125 C69.15111435 18.36377975 68.45457245 18.36427826 67.73692322 18.36479187 C66.26509751 18.36245363 64.79326763 18.35273966 63.3215332 18.33618164 C61.07401565 18.31262072 58.82768756 18.31561808 56.58007812 18.32226562 C44.5822841 18.27551759 44.5822841 18.27551759 41 16 C41 15.34 41 14.68 41 14 C40.34 14 39.68 14 39 14 C39 14.66 39 15.32 39 16 C33.74081086 19.34071142 27.19965095 18.33344458 21.19116211 18.31567383 C18.94140552 18.3125055 16.69295432 18.33601865 14.44335938 18.36132812 C13.01302249 18.36360046 11.58268207 18.36430492 10.15234375 18.36328125 C8.85288818 18.36626221 7.55343262 18.36924316 6.21459961 18.37231445 C3 18 3 18 1.07128906 16.70068359 C-0.7472697 13.81370084 -0.30744905 10.60648547 -0.1875 7.3125 C-0.17396484 6.61060547 -0.16042969 5.90871094 -0.14648438 5.18554688 C-0.11120182 3.45670171 -0.05739583 1.72825235 0 0 Z " fill="#6B4C3C" transform="translate(8,74)"/>
<path d="M0 0 C6.15234375 -0.09765625 6.15234375 -0.09765625 8 0 C9 1 9 1 9.12025452 2.98048401 C9.1169236 4.2828727 9.1169236 4.2828727 9.11352539 5.61157227 C9.11344986 6.59251358 9.11337433 7.5734549 9.11329651 8.5841217 C9.10813522 9.6507756 9.10297394 10.7174295 9.09765625 11.81640625 C9.0962413 12.9025975 9.09482635 13.98878876 9.09336853 15.1078949 C9.08775048 18.59279075 9.07519492 22.07762342 9.0625 25.5625 C9.05748733 27.91861887 9.05292402 30.27473874 9.04882812 32.63085938 C9.03777518 38.42059743 9.02049846 44.21028799 9 50 C12.96 50 16.92 50 21 50 C21 50.33 21 50.66 21 51 C16.71 51 12.42 51 8 51 C8 42.42 8 33.84 8 25 C7.34 25 6.68 25 6 25 C6 17.74 6 10.48 6 3 C5.34 3 4.68 3 4 3 C4.01160156 4.03511719 4.02320312 5.07023438 4.03515625 6.13671875 C4.14398771 21.10614534 3.57643676 36.04352477 3 51 C-3.27 51 -9.54 51 -16 51 C-16 52.65 -16 54.3 -16 56 C-3.46 56 9.08 56 22 56 C21.67 57.65 21.34 59.3 21 61 C20.67 60.01 20.34 59.02 20 58 C18.37203491 58.00785522 18.37203491 58.00785522 16.71118164 58.01586914 C12.69882018 58.03391836 8.68646233 58.04543171 4.67407227 58.05493164 C2.93480832 58.05997204 1.19554864 58.0668043 -0.54370117 58.07543945 C-3.03825937 58.08751792 -5.53276173 58.09323108 -8.02734375 58.09765625 C-8.80963852 58.10281754 -9.59193329 58.10797882 -10.39793396 58.11329651 C-12.26567114 58.11349226 -14.13329204 58.06199694 -16 58 C-16.33 57.67 -16.66 57.34 -17 57 C-17 54.69 -17 52.38 -17 50 C-10.73 50 -4.46 50 2 50 C2 33.83 2 17.66 2 1 C1.34 0.67 0.68 0.34 0 0 Z " fill="#E69249" transform="translate(25,6)"/>
<path d="M0 0 C2.05078125 0.03255208 4.1015625 0.06510417 6.15234375 0.09765625 C5.16234375 0.59265625 5.16234375 0.59265625 4.15234375 1.09765625 C4.15234375 17.26765625 4.15234375 33.43765625 4.15234375 50.09765625 C10.42234375 50.09765625 16.69234375 50.09765625 23.15234375 50.09765625 C23.15234375 52.40765625 23.15234375 54.71765625 23.15234375 57.09765625 C10.61234375 57.09765625 -1.92765625 57.09765625 -14.84765625 57.09765625 C-14.84765625 56.76765625 -14.84765625 56.43765625 -14.84765625 56.09765625 C-2.63765625 56.09765625 9.57234375 56.09765625 22.15234375 56.09765625 C22.15234375 54.44765625 22.15234375 52.79765625 22.15234375 51.09765625 C15.88234375 51.09765625 9.61234375 51.09765625 3.15234375 51.09765625 C2.82234375 35.91765625 2.49234375 20.73765625 2.15234375 5.09765625 C1.49234375 4.76765625 0.83234375 4.43765625 0.15234375 4.09765625 C0.16019897 5.22071167 0.16019897 5.22071167 0.16821289 6.36645508 C0.25863885 21.31420937 0.18102925 36.18171657 -0.84765625 51.09765625 C-5.79765625 51.09765625 -10.74765625 51.09765625 -15.84765625 51.09765625 C-15.84765625 50.76765625 -15.84765625 50.43765625 -15.84765625 50.09765625 C-11.55765625 50.09765625 -7.26765625 50.09765625 -2.84765625 50.09765625 C-2.85289307 48.6185376 -2.85812988 47.13941895 -2.86352539 45.61547852 C-2.88156863 40.14950155 -2.89308577 34.68352724 -2.90258789 29.2175293 C-2.90762966 26.84773313 -2.9144629 24.4779401 -2.9230957 22.1081543 C-2.93516815 18.71011586 -2.94088596 15.3121184 -2.9453125 11.9140625 C-2.95047379 10.8474086 -2.95563507 9.7807547 -2.96095276 8.68177795 C-2.96102829 7.70083664 -2.96110382 6.71989532 -2.96118164 5.70922852 C-2.96340225 4.84096939 -2.96562286 3.97271027 -2.96791077 3.07814026 C-2.81021062 0.48096037 -2.60565293 0.1377195 0 0 Z " fill="#E1A66E" transform="translate(64.84765625,5.90234375)"/>
<path d="M0 0 C4.62 0 9.24 0 14 0 C13.25 11.625 13.25 11.625 11 15 C10.55296766 17.21584546 10.18536758 19.44841961 9.875 21.6875 C9.62363281 23.45673828 9.62363281 23.45673828 9.3671875 25.26171875 C9.24601562 26.16535156 9.12484375 27.06898437 9 28 C7.68 28 6.36 28 5 28 C4.855625 26.865625 4.71125 25.73125 4.5625 24.5625 C4.38828522 21.19222799 4.38828522 21.19222799 3 20 C2.43321559 17.21012856 1.91646197 14.4300213 1.4375 11.625 C1.29892578 10.84382813 1.16035156 10.06265625 1.01757812 9.2578125 C0.46977011 6.10589248 0 3.20880083 0 0 Z " fill="#EB4205" transform="translate(41,8)"/>
<path d="M0 0 C12.87 0 25.74 0 39 0 C39 1.98 39 3.96 39 6 C26.13 6 13.26 6 0 6 C0 4.02 0 2.04 0 0 Z " fill="#E4DED5" transform="translate(8,68)"/>
<path d="M0 0 C12.87 0 25.74 0 39 0 C39 1.98 39 3.96 39 6 C26.13 6 13.26 6 0 6 C0 4.02 0 2.04 0 0 Z " fill="#E4DDD9" transform="translate(49,68)"/>
<path d="M0 0 C19.305 0.495 19.305 0.495 39 1 C39 2.65 39 4.3 39 6 C26.13 6 13.26 6 0 6 C0 4.02 0 2.04 0 0 Z " fill="#F16F0E" transform="translate(49,62)"/>
<path d="M0 0 C1.40835462 2.81670923 0.90000548 4.94453246 0.625 8.0625 C0.53476562 9.14660156 0.44453125 10.23070312 0.3515625 11.34765625 C0 14 0 14 -1 15 C-1.04125 16.216875 -1.0825 17.43375 -1.125 18.6875 C-1.97370853 27.35545764 -7.21092855 36.64992575 -13 43 C-13.66 43 -14.32 43 -15 43 C-15 45.31 -15 47.62 -15 50 C-15.33 50 -15.66 50 -16 50 C-17.07018247 42.16898222 -15.16072852 38.02767044 -10.75 31.625 C-5.94093861 24.41140792 -5.44045341 16.57670623 -4.90893555 8.11889648 C-4.72265625 5.81640625 -4.72265625 5.81640625 -4 2 C-1.93359375 0.46484375 -1.93359375 0.46484375 0 0 Z " fill="#614F3B" transform="translate(24,6)"/>
<path d="M0 0 C2.475 0.99 2.475 0.99 5 2 C5.08636719 3.14855469 5.17273438 4.29710937 5.26171875 5.48046875 C6.21843914 16.59499081 7.51176902 27.72751197 14.8125 36.6875 C17.77723955 41.17696274 17.47326513 44.77304955 17 50 C16.67 50 16.34 50 16 50 C16 47.69 16 45.38 16 43 C15.01 42.67 14.02 42.34 13 42 C11.01066674 39.54221084 9.56985682 36.73868932 8 34 C7.57549561 33.27756104 7.15099121 32.55512207 6.71362305 31.81079102 C3.03708765 25.10301288 1.90857956 18.93485321 1.1875 11.375 C1.06697266 10.27542969 0.94644531 9.17585937 0.82226562 8.04296875 C0.53099745 5.36330151 0.25728849 2.68310558 0 0 Z " fill="#644C33" transform="translate(71,6)"/>
<path d="M0 0 C1.11036621 0.03552979 2.22073242 0.07105957 3.36474609 0.10766602 C7.47575866 0.2378213 11.58695435 0.36105649 15.69824219 0.48217773 C17.47922457 0.5356202 19.26015131 0.59095129 21.04101562 0.64819336 C23.59753417 0.73004181 26.15417445 0.8051453 28.7109375 0.87890625 C29.50994476 0.90594131 30.30895203 0.93297638 31.13217163 0.96083069 C35.1945979 1.18152253 35.1945979 1.18152253 39 0 C39 1.65 39 3.3 39 5 C26.13 5 13.26 5 0 5 C0 3.35 0 1.7 0 0 Z " fill="#ED690F" transform="translate(8,63)"/>
<path d="M0 0 C1.98 0.99 1.98 0.99 4 2 C4 17.18 4 32.36 4 48 C3.67 48 3.34 48 3 48 C2.67 46.35 2.34 44.7 2 43 C1.34 44.32 0.68 45.64 0 47 C0 31.49 0 15.98 0 0 Z " fill="#D7CCC6" transform="translate(64,9)"/>
<path d="M0 0 C1.65 0 3.3 0 5 0 C6 1 6 1 6.12025452 2.98048401 C6.11803391 3.84874313 6.11581329 4.71700226 6.11352539 5.61157227 C6.11341209 7.08298424 6.11341209 7.08298424 6.11329651 8.5841217 C6.10813522 9.6507756 6.10297394 10.7174295 6.09765625 11.81640625 C6.0962413 12.9025975 6.09482635 13.98878876 6.09336853 15.1078949 C6.08775048 18.59279075 6.07519492 22.07762342 6.0625 25.5625 C6.05748733 27.91861887 6.05292402 30.27473874 6.04882812 32.63085938 C6.03777518 38.42059743 6.02049846 44.21028799 6 50 C9.96 50 13.92 50 18 50 C18 50.33 18 50.66 18 51 C13.71 51 9.42 51 5 51 C5 42.42 5 33.84 5 25 C4.34 25 3.68 25 3 25 C3 17.74 3 10.48 3 3 C2.34 3 1.68 3 1 3 C1 9.27 1 15.54 1 22 C0.67 22 0.34 22 0 22 C0 14.74 0 7.48 0 0 Z " fill="#D9AF87" transform="translate(28,6)"/>
<path d="M0 0 C0.66 0.33 1.32 0.66 2 1 C2.31241371 3.54941373 2.51303421 6.00361513 2.625 8.5625 C2.66367187 9.27341797 2.70234375 9.98433594 2.7421875 10.71679688 C2.83671783 12.47742425 2.91945817 14.23867728 3 16 C7.62 16 12.24 16 17 16 C17 16.99 17 17.98 17 19 C5.78 19 -5.44 19 -17 19 C-17 18.01 -17 17.02 -17 16 C-11.72 16 -6.44 16 -1 16 C-0.67 10.72 -0.34 5.44 0 0 Z " fill="#E0DCDA" transform="translate(29,42)"/>
<path d="M0 0 C0.92232422 0.00451172 1.84464844 0.00902344 2.79492188 0.01367188 C5.05085048 0.02536062 7.30663967 0.04174545 9.5625 0.0625 C9.5625 1.0525 9.5625 2.0425 9.5625 3.0625 C3.6225 3.0625 -2.3175 3.0625 -8.4375 3.0625 C-8.4375 5.0425 -8.4375 7.0225 -8.4375 9.0625 C-7.7775 9.0625 -7.1175 9.0625 -6.4375 9.0625 C-4.86320158 14.10025493 -4.03900407 18.82082169 -3.4375 24.0625 C-3.13580934 25.40334736 -2.82232319 26.7431062 -2.4375 28.0625 C-6.28566048 24.84908764 -7.18183099 22.2434967 -8.125 17.375 C-8.60813971 13.40165936 -8.60813971 13.40165936 -10.4375 10.0625 C-10.47830783 8.06291636 -10.48004356 6.06204746 -10.4375 4.0625 C-11.4275 4.0625 -12.4175 4.0625 -13.4375 4.0625 C-13.7675 4.7225 -14.0975 5.3825 -14.4375 6.0625 C-14.7675 5.0725 -15.0975 4.0825 -15.4375 3.0625 C-16.0975 2.4025 -16.7575 1.7425 -17.4375 1.0625 C-11.58861957 0.04355924 -5.92830831 -0.05548453 0 0 Z " fill="#A25F2B" transform="translate(48.4375,3.9375)"/>
<path d="M0 0 C0.66 0 1.32 0 2 0 C2 16.17 2 32.34 2 49 C-3.94 49 -9.88 49 -16 49 C-16 48.67 -16 48.34 -16 48 C-10.39 48 -4.78 48 1 48 C0.67 38.1 0.34 28.2 0 18 C-0.66 20.31 -1.32 22.62 -2 25 C-2.66 25 -3.32 25 -4 25 C-3.85962479 23.18706911 -3.71255111 21.3746557 -3.5625 19.5625 C-3.48128906 18.55316406 -3.40007813 17.54382813 -3.31640625 16.50390625 C-3 14 -3 14 -2 13 C-1.79111292 11.00396794 -1.63224523 9.00257059 -1.5 7 C-1.11111111 1.11111111 -1.11111111 1.11111111 0 0 Z " fill="#E98113" transform="translate(25,7)"/>
<path d="M0 0 C1.32 0.33 2.64 0.66 4 1 C4 16.51 4 32.02 4 48 C0.04 48 -3.92 48 -8 48 C-8 42.72 -8 37.44 -8 32 C-7.67 32 -7.34 32 -7 32 C-7 36.95 -7 41.9 -7 47 C-3.7 47 -0.4 47 3 47 C2.505 26.21 2.505 26.21 2 5 C1.67 5.99 1.34 6.98 1 8 C0.34 8 -0.32 8 -1 8 C-0.938125 9.27875 -0.87625 10.5575 -0.8125 11.875 C-0.70703125 14.0546875 -0.70703125 14.0546875 -1 16 C-1.99 16.66 -2.98 17.32 -4 18 C-3.31195504 11.80759538 -1.71951285 5.98044406 0 0 Z " fill="#EE8018" transform="translate(58,8)"/>
<path d="M0 0 C0.33 0 0.66 0 1 0 C1 8.58 1 17.16 1 26 C5.62 25.67 10.24 25.34 15 25 C15 26.98 15 28.96 15 31 C2.46 31 -10.08 31 -23 31 C-23 29.35 -23 27.7 -23 26 C-16.73 26 -10.46 26 -4 26 C-4 26.33 -4 26.66 -4 27 C-9.28 27 -14.56 27 -20 27 C-20 27.99 -20 28.98 -20 30 C-8.78 30 2.44 30 14 30 C14 29.01 14 28.02 14 27 C9.38 27 4.76 27 0 27 C0 18.09 0 9.18 0 0 Z " fill="#ECCDB4" transform="translate(32,31)"/>
<path d="M0 0 C0.66 0.33 1.32 0.66 2 1 C2.02505615 1.79583496 2.0501123 2.59166992 2.07592773 3.41162109 C2.19296986 7.06620168 2.31519962 10.72059175 2.4375 14.375 C2.47681641 15.62667969 2.51613281 16.87835938 2.55664062 18.16796875 C2.74388141 23.66996709 2.94536035 29.17307637 3.34765625 34.6640625 C3.40058838 35.41381348 3.45352051 36.16356445 3.50805664 36.93603516 C4.1184686 39.49703897 5.31715995 41.00604429 7 43 C5.0625 42.25 5.0625 42.25 3 41 C2.25 38.875 2.25 38.875 2 37 C1.01 37 0.02 37 -1 37 C-0.67 24.79 -0.34 12.58 0 0 Z " fill="#916846" transform="translate(47,45)"/>
<path d="M0 0 C12.87 0 25.74 0 39 0 C39 1.98 39 3.96 39 6 C26.13 6 13.26 6 0 6 C0 4.02 0 2.04 0 0 Z M1 1 C1 2.32 1 3.64 1 5 C12.22 5 23.44 5 35 5 C35 3.68 35 2.36 35 1 C23.78 1 12.56 1 1 1 Z " fill="#E4BCA1" transform="translate(49,68)"/>
<path d="M0 0 C12.87 0 25.74 0 39 0 C39 1.98 39 3.96 39 6 C26.13 6 13.26 6 0 6 C0 4.02 0 2.04 0 0 Z M4 1 C4 2.32 4 3.64 4 5 C15.22 5 26.44 5 38 5 C38 3.68 38 2.36 38 1 C26.78 1 15.56 1 4 1 Z " fill="#E4BDA1" transform="translate(8,68)"/>
<path d="M0 0 C0.99 0.33 1.98 0.66 3 1 C3.33 6.28 3.66 11.56 4 17 C3.34 17.33 2.68 17.66 2 18 C1.67 27.9 1.34 37.8 1 48 C0.67 48 0.34 48 0 48 C0 32.16 0 16.32 0 0 Z " fill="#F48510" transform="translate(69,7)"/>
<path d="M0 0 C4.62 0 9.24 0 14 0 C14 0.33 14 0.66 14 1 C9.71 1 5.42 1 1 1 C1 1.99 1 2.98 1 4 C12.22 4 23.44 4 35 4 C35 3.01 35 2.02 35 1 C29.72 1 24.44 1 19 1 C19 0.67 19 0.34 19 0 C25.27 0 31.54 0 38 0 C38 1.65 38 3.3 38 5 C25.46 5 12.92 5 0 5 C0 3.35 0 1.7 0 0 Z " fill="#ECD1B8" transform="translate(49,57)"/>
<path d="M0 0 C2.46249145 4.92498291 0.37811155 12.66548863 -1.0625 17.75 C-1.371875 18.4925 -1.68125 19.235 -2 20 C-2.33 20 -2.66 20 -3 20 C-3 18.35 -3 16.7 -3 15 C-3.66 15 -4.32 15 -5 15 C-4.94011859 12.87420987 -4.85137256 10.74921587 -4.75 8.625 C-4.70359375 7.44164062 -4.6571875 6.25828125 -4.609375 5.0390625 C-4 2 -4 2 -1.953125 0.5859375 C-0.98632812 0.29589844 -0.98632812 0.29589844 0 0 Z " fill="#64503A" transform="translate(24,6)"/>
<path d="M0 0 C6.6 0 13.2 0 20 0 C20 0.99 20 1.98 20 3 C13.73 3 7.46 3 1 3 C0.67 2.01 0.34 1.02 0 0 Z " fill="#5B4137" transform="translate(38,4)"/>
<path d="M0 0 C0.99 0.33 1.98 0.66 3 1 C3.13277344 2.25296875 3.26554687 3.5059375 3.40234375 4.796875 C3.58058291 6.44793246 3.7589764 8.09897327 3.9375 9.75 C4.02451172 10.575 4.11152344 11.4 4.20117188 12.25 C4.28818359 13.04921875 4.37519531 13.8484375 4.46484375 14.671875 C4.543396 15.4050293 4.62194824 16.13818359 4.70288086 16.89355469 C4.9973877 18.98147994 5.45117496 20.96552768 6 23 C4.078125 22.41796875 4.078125 22.41796875 2 21 C1.171875 17.98828125 1.171875 17.98828125 0.75 14.3125 C0.60046875 13.11238281 0.4509375 11.91226562 0.296875 10.67578125 C0.00792073 7.0980711 -0.05526347 3.58752037 0 0 Z " fill="#4C4A44" transform="translate(73,7)"/>
<path d="M0 0 C1.65 0 3.3 0 5 0 C5 1.65 5 3.3 5 5 C3.68 4.34 2.36 3.68 1 3 C1 11.91 1 20.82 1 30 C0.67 30 0.34 30 0 30 C0 20.1 0 10.2 0 0 Z " fill="#CFB399" transform="translate(63,6)"/>
<path d="M0 0 C1.32 0 2.64 0 4 0 C4.03738281 0.67546875 4.07476562 1.3509375 4.11328125 2.046875 C4.17902344 2.93890625 4.24476562 3.8309375 4.3125 4.75 C4.37050781 5.63171875 4.42851563 6.5134375 4.48828125 7.421875 C5.0641181 10.32303774 6.07596148 11.79225607 8 14 C6.0625 13.25 6.0625 13.25 4 12 C3.25 9.875 3.25 9.875 3 8 C2.01 8 1.02 8 0 8 C0 5.36 0 2.72 0 0 Z " fill="#A36031" transform="translate(46,74)"/>
<path d="M0 0 C0.66 0 1.32 0 2 0 C2.12375 1.03125 2.2475 2.0625 2.375 3.125 C2.94240858 6.64293321 3.66518398 9.70221925 5 13 C5.66 13.33 6.32 13.66 7 14 C7 15.32 7 16.64 7 18 C5.68 18 4.36 18 3 18 C2.855625 16.865625 2.71125 15.73125 2.5625 14.5625 C2.38828522 11.19222799 2.38828522 11.19222799 1 10 C0.76712992 8.31816052 0.58735834 6.6287584 0.4375 4.9375 C0.35371094 4.01839844 0.26992188 3.09929688 0.18359375 2.15234375 C0.09271484 1.08693359 0.09271484 1.08693359 0 0 Z " fill="#C73F14" transform="translate(43,18)"/>
<path d="M0 0 C0.99 0 1.98 0 3 0 C3 3.96 3 7.92 3 12 C2.01 12 1.02 12 0 12 C0 8.04 0 4.08 0 0 Z " fill="#ED5603" transform="translate(84,75)"/>
<path d="M0 0 C0.99 0 1.98 0 3 0 C3 3.96 3 7.92 3 12 C2.01 12 1.02 12 0 12 C0 8.04 0 4.08 0 0 Z " fill="#ED5500" transform="translate(9,75)"/>
<path d="M0 0 C4.99184736 -0.29363808 7.97444744 -0.07836372 12 3 C12.33 3.66 12.66 4.32 13 5 C6.25 4.125 6.25 4.125 4 3 C4 2.34 4 1.68 4 1 C3.34 1 2.68 1 2 1 C2 1.66 2 2.32 2 3 C1.34 3 0.68 3 0 3 C0 2.01 0 1.02 0 0 Z " fill="#4E4846" transform="translate(45,87)"/>
<path d="M0 0 C0.33 0 0.66 0 1 0 C6 19.4 6 19.4 6 24 C5.34 24 4.68 24 4 24 C3.77213542 21.94921875 3.54427083 19.8984375 3.31640625 17.84765625 C3.18113386 15.98859771 3.18113386 15.98859771 2 15 C1.95907063 12.66702567 1.95758277 10.33294775 2 8 C1.34 8 0.68 8 0 8 C0 5.36 0 2.72 0 0 Z " fill="#E4851B" transform="translate(37,8)"/>
<path d="M0 0 C6.27 0 12.54 0 19 0 C19 1.65 19 3.3 19 5 C18.01 5 17.02 5 16 5 C16 3.68 16 2.36 16 1 C10.72 1 5.44 1 0 1 C0 0.67 0 0.34 0 0 Z " fill="#E0C6B3" transform="translate(68,57)"/>
<path d="M0 0 C6.27 0 12.54 0 19 0 C19 0.33 19 0.66 19 1 C13.72 1 8.44 1 3 1 C3 2.32 3 3.64 3 5 C2.01 5 1.02 5 0 5 C0 3.35 0 1.7 0 0 Z " fill="#DCC4B1" transform="translate(9,57)"/>
<path d="M0 0 C0.99 0 1.98 0 3 0 C3.66 1.65 4.32 3.3 5 5 C3.02 5 1.04 5 -1 5 C-1 5.99 -1 6.98 -1 8 C-2.32 7.34 -3.64 6.68 -5 6 C-4.360625 5.38125 -3.72125 4.7625 -3.0625 4.125 C-0.96116416 2.17402388 -0.96116416 2.17402388 0 0 Z " fill="#6B4F41" transform="translate(46,82)"/>
<path d="M0 0 C1.21173548 3.58327493 0.85034764 6.42285625 0.25 10.125 C0.09015625 11.17945313 -0.0696875 12.23390625 -0.234375 13.3203125 C-1 16 -1 16 -4 18 C-3.31195504 11.80759538 -1.71951285 5.98044406 0 0 Z " fill="#D9801B" transform="translate(58,8)"/>
<path d="M0 0 C0.66 0 1.32 0 2 0 C2 2.31 2 4.62 2 7 C1.34 7 0.68 7 0 7 C0 8.65 0 10.3 0 12 C-0.99 12.33 -1.98 12.66 -3 13 C-2.01 8.71 -1.02 4.42 0 0 Z " fill="#4B4948" transform="translate(19,21)"/>
<path d="M0 0 C2.64 0 5.28 0 8 0 C8 0.99 8 1.98 8 3 C5.03 3 2.06 3 -1 3 C-0.67 2.01 -0.34 1.02 0 0 Z " fill="#FD6C04" transform="translate(37,64)"/>
<path d="M0 0 C2.125 0.375 2.125 0.375 4 1 C2.625 3 2.625 3 1 5 C0.34 5 -0.32 5 -1 5 C-1 7.31 -1 9.62 -1 12 C-1.33 12 -1.66 12 -2 12 C-2.05395478 10.37536158 -2.09277195 8.75021459 -2.125 7.125 C-2.14820313 6.22007813 -2.17140625 5.31515625 -2.1953125 4.3828125 C-2 2 -2 2 0 0 Z " fill="#623621" transform="translate(10,44)"/>
<path d="M0 0 C0.66 0.33 1.32 0.66 2 1 C1.719172 2.98073365 1.42503386 4.95958448 1.125 6.9375 C0.88136719 8.59072266 0.88136719 8.59072266 0.6328125 10.27734375 C0.42398438 11.17582031 0.21515625 12.07429688 0 13 C-0.99 13.495 -0.99 13.495 -2 14 C-2.1799928 8.78020872 -1.97094808 4.92737019 0 0 Z " fill="#9C5B29" transform="translate(54,15)"/>
<path d="M0 0 C0.99 0.33 1.98 0.66 3 1 C3.33 6.28 3.66 11.56 4 17 C2.06604999 13.13209997 1.76710647 11.8499541 1.875 7.75 C1.90207031 6.41195313 1.90207031 6.41195313 1.9296875 5.046875 C1.95289062 4.37140625 1.97609375 3.6959375 2 3 C1.34 3 0.68 3 0 3 C0 2.01 0 1.02 0 0 Z " fill="#DA801E" transform="translate(69,7)"/>
<path d="M0 0 C0.99 0.33 1.98 0.66 3 1 C3 2.98 3 4.96 3 7 C2.01 7 1.02 7 0 7 C0 4.69 0 2.38 0 0 Z " fill="#E86309" transform="translate(84,48)"/>
<path d="M0 0 C0 2.31 0 4.62 0 7 C-0.99 7 -1.98 7 -3 7 C-3 5.02 -3 3.04 -3 1 C-1 0 -1 0 0 0 Z " fill="#E56407" transform="translate(12,48)"/>
<path d="M0 0 C1.32 0 2.64 0 4 0 C4 1.65 4 3.3 4 5 C2.68 4.67 1.36 4.34 0 4 C0 2.68 0 1.36 0 0 Z " fill="#C64B02" transform="translate(84,63)"/>
</svg>
