<?xml version="1.0" encoding="UTF-8"?>
<svg version="1.1" xmlns="http://www.w3.org/2000/svg" width="96" height="96">
<path d="M0 0 C2.64799747 0.62305823 4.50229114 0.12116789 7.125 -0.5 C9.125 -0.5 9.125 -0.5 11.5 0.0625 C14.18537683 0.51006281 15.56644696 0.26756591 18.125 -0.5 C21.125 -0.5 21.125 -0.5 23.5625 0.0625 C26.21383682 0.51516726 27.59405873 0.25928238 30.125 -0.5 C33.125 -0.5 33.125 -0.5 35.5625 0.0625 C38.21383682 0.51516726 39.59405873 0.25928238 42.125 -0.5 C45.125 -0.5 45.125 -0.5 48 0.0625 C51.08611492 0.49455609 53.12756397 0.18512824 56.125 -0.5 C58.00674638 1.38174638 57.27254407 4.61981973 57.28613281 7.12426758 C57.29358017 8.16358932 57.29358017 8.16358932 57.30117798 9.22390747 C57.31585276 11.53079204 57.32261537 13.83760753 57.328125 16.14453125 C57.33387837 17.75103253 57.33963608 19.35753379 57.34539795 20.96403503 C57.35592727 24.34443482 57.3617552 27.72481072 57.36523438 31.10522461 C57.37068002 35.40768455 57.3946143 39.70982171 57.42320633 44.01218128 C57.44197863 47.33850469 57.44704631 50.66475324 57.44857025 53.99112511 C57.45157177 55.57493515 57.45951428 57.15874468 57.47275543 58.74250221 C57.64445857 80.88673744 57.64445857 80.88673744 52.37684631 87.79145813 C49.52185375 89.95762475 47.92724544 90.00644665 44.3659668 90.01757812 C43.2076384 90.03018677 42.04931 90.04279541 40.85588074 90.05578613 C39.60793228 90.04768921 38.35998383 90.03959229 37.07421875 90.03125 C35.7869136 90.0350769 34.49960846 90.03890381 33.17329407 90.04284668 C30.44874867 90.04873889 27.72472838 90.04019309 25.00024414 90.02148438 C21.52326926 89.9987617 18.04753408 90.01177497 14.57060528 90.03577423 C11.23837993 90.05379166 7.90647922 90.04113412 4.57421875 90.03125 C3.33234299 90.03934692 2.09046722 90.04744385 0.81095886 90.05578613 C-5.96236185 89.98265419 -10.41139916 89.63867407 -15.875 85.5 C-19.82747007 81.23549282 -21.01677493 78.12879929 -21 72.375 C-21.00257812 71.48554687 -21.00515625 70.59609375 -21.0078125 69.6796875 C-20.875 67.5 -20.875 67.5 -19.875 66.5 C-15.915 66.5 -11.955 66.5 -7.875 66.5 C-8.205 45.05 -8.535 23.6 -8.875 1.5 C-7.555 1.17 -6.235 0.84 -4.875 0.5 C-1.875 -0.5 -1.875 -0.5 0 0 Z " fill="#DFDFDF" transform="translate(29.875,3.5)"/>
<path d="M0 0 C0.9215538 0.0199855 1.8431076 0.03997101 2.79258728 0.06056213 C3.83359085 0.08065842 4.87459442 0.1007547 5.94714355 0.12145996 C7.64555641 0.16201256 7.64555641 0.16201256 9.37828064 0.2033844 C10.53106003 0.22699539 11.68383942 0.25060638 12.87155151 0.27493286 C16.57052753 0.35179368 20.26930585 0.43572115 23.96812439 0.51979065 C26.46876561 0.5729889 28.96941661 0.62572942 31.47007751 0.67799377 C37.61538337 0.80743899 43.76054122 0.94269358 49.90562439 1.08229065 C50.0151947 1.99752502 50.12476501 2.9127594 50.23765564 3.85572815 C50.39621033 5.04424377 50.55476501 6.2327594 50.71812439 7.45729065 C50.8689447 8.64065002 51.01976501 9.8240094 51.17515564 11.04322815 C51.61261773 14.37761149 51.61261773 14.37761149 54.90562439 16.08229065 C55.40062439 17.56729065 55.40062439 17.56729065 55.90562439 19.08229065 C57.77094889 20.09983933 57.77094889 20.09983933 59.96812439 20.76979065 C60.70160095 21.02115784 61.43507751 21.27252502 62.19078064 21.5315094 C62.75667908 21.71326721 63.32257751 21.89502502 63.90562439 22.08229065 C63.90562439 22.41229065 63.90562439 22.74229065 63.90562439 23.08229065 C56.20106804 23.18390211 48.49668521 23.25384544 40.79161072 23.30201721 C38.17175336 23.32210392 35.55194067 23.34937854 32.93223572 23.38404846 C29.16153422 23.43269344 25.39142672 23.45528973 21.62046814 23.47291565 C20.45353928 23.49356079 19.28661041 23.51420593 18.08432007 23.53547668 C11.44189772 23.53730006 7.2782433 23.10313676 1.90562439 19.08229065 C-2.04684568 14.81778347 -3.23615054 11.71108994 -3.21937561 5.95729065 C-3.22195374 5.06783752 -3.22453186 4.1783844 -3.22718811 3.26197815 C-3.05111322 0.37227848 -2.89643131 0.11380443 0 0 Z " fill="#9AACB3" transform="translate(12.094375610351563,69.91770935058594)"/>
<path d="M0 0 C0.7425 0.185625 1.485 0.37125 2.25 0.5625 C5.00356798 1.00056763 6.38672389 0.78398283 9 0 C12 0 12 0 14.875 0.5625 C17.96111492 0.99455609 20.00256397 0.68512824 23 0 C24.88174638 1.88174638 24.14754407 5.11981973 24.16113281 7.62426758 C24.16609772 8.31714874 24.17106262 9.01002991 24.17617798 9.72390747 C24.19085276 12.03079204 24.19761537 14.33760753 24.203125 16.64453125 C24.20887837 18.25103253 24.21463608 19.85753379 24.22039795 21.46403503 C24.23092727 24.84443482 24.2367552 28.22481072 24.24023438 31.60522461 C24.24568002 35.90768455 24.2696143 40.20982171 24.29820633 44.51218128 C24.31697863 47.83850469 24.32204631 51.16475324 24.32357025 54.49112511 C24.32657177 56.07493515 24.33451428 57.65874468 24.34775543 59.24250221 C24.52232884 81.7569116 24.52232884 81.7569116 19.06768799 88.32771301 C17 90 17 90 14.1875 89.9375 C10.61168525 88.88578978 7.38505849 87.55712691 4 86 C7.01490557 84.99503148 9.04181692 84.89664697 12.1875 84.9375 C13.03739502 84.9485376 13.88729004 84.9595752 14.76293945 84.97094727 C15.50116943 84.98053467 16.23939941 84.99012207 17 85 C18.51152671 74.44690639 19.32043788 64.11478763 19.4140625 53.4375 C19.43284803 52.02546146 19.45242639 50.61343328 19.4727478 49.20141602 C19.52329759 45.54547332 19.5633271 41.88949452 19.60089111 38.23339844 C19.6414249 34.47843068 19.69228743 30.7236029 19.7421875 26.96875 C19.83802848 19.64593059 19.92271577 12.32304133 20 5 C19.37609375 5.33773438 18.7521875 5.67546875 18.109375 6.0234375 C15.45506345 7.25228544 14.77364312 6.77045642 12 6 C10.68 6 9.36 6 8 6 C4.9672996 6 2.81853156 5.93951052 0 5 C0 3.35 0 1.7 0 0 Z " fill="#CDCDCD" transform="translate(63,3)"/>
<path d="M0 0 C2.64799747 0.62305823 4.50229114 0.12116789 7.125 -0.5 C9.125 -0.5 9.125 -0.5 11.5 0.0625 C14.18537683 0.51006281 15.56644696 0.26756591 18.125 -0.5 C21.125 -0.5 21.125 -0.5 23.5625 0.0625 C26.07646218 0.67125451 26.07646218 0.67125451 28.3125 -0.0625 C28.910625 -0.206875 29.50875 -0.35125 30.125 -0.5 C32.125 1.5 32.125 1.5 32.125 4.5 C23.3774643 5.48366728 14.81696988 5.54008866 6.02734375 5.28515625 C5.04894531 5.27097656 4.07054687 5.25679687 3.0625 5.2421875 C2.18464844 5.2201123 1.30679687 5.19803711 0.40234375 5.17529297 C-2.467735 5.58451303 -3.14457553 6.19885006 -4.875 8.5 C-5.31064567 11.14333794 -5.31064567 11.14333794 -5.21557617 14.16479492 C-5.21534958 15.32577194 -5.21512299 16.48674896 -5.21488953 17.6829071 C-5.19940567 18.93610245 -5.18392181 20.18929779 -5.16796875 21.48046875 C-5.16372391 22.76359451 -5.15947906 24.04672028 -5.15510559 25.36872864 C-5.14366162 28.77686138 -5.11419896 32.1846094 -5.08099365 35.59259033 C-5.05028273 39.07143862 -5.03643368 42.55035103 -5.02148438 46.02929688 C-4.99092044 52.85320415 -4.93220165 59.67605554 -4.875 66.5 C7.665 66.5 20.205 66.5 33.125 66.5 C33.125 69.8 33.125 73.1 33.125 76.5 C32.795 76.5 32.465 76.5 32.125 76.5 C32.125 73.53 32.125 70.56 32.125 67.5 C30.36071655 67.50785522 30.36071655 67.50785522 28.56079102 67.51586914 C24.21297969 67.53391663 19.8651717 67.54543108 15.51733398 67.55493164 C13.6325627 67.55997244 11.74779535 67.56680498 9.86303711 67.57543945 C7.15998364 67.58751617 4.45698169 67.59323068 1.75390625 67.59765625 C0.48203209 67.60539818 0.48203209 67.60539818 -0.8155365 67.61329651 C-2.83571068 67.61349195 -4.85577934 67.56206211 -6.875 67.5 C-8.68997382 65.68502618 -8.04735393 62.86404428 -8.08032227 60.41967773 C-8.10026749 59.11840439 -8.12021271 57.81713104 -8.14076233 56.47642517 C-8.15774799 55.0454826 -8.17462675 53.61453875 -8.19140625 52.18359375 C-8.21196906 50.7277008 -8.23296534 49.27181391 -8.25437927 47.81593323 C-8.30966961 43.97727353 -8.35904802 40.13855935 -8.40722656 36.29980469 C-8.45739091 32.38536712 -8.51310336 28.47100904 -8.56835938 24.55664062 C-8.67602603 16.87116099 -8.77745193 9.18561543 -8.875 1.5 C-8.276875 1.355625 -7.67875 1.21125 -7.0625 1.0625 C-1.43863636 -0.38363636 -1.43863636 -0.38363636 0 0 Z " fill="#BFC1C1" transform="translate(29.875,3.5)"/>
<path d="M0 0 C0.9215538 0.0199855 1.8431076 0.03997101 2.79258728 0.06056213 C3.83359085 0.08065842 4.87459442 0.1007547 5.94714355 0.12145996 C7.64555641 0.16201256 7.64555641 0.16201256 9.37828064 0.2033844 C10.53106003 0.22699539 11.68383942 0.25060638 12.87155151 0.27493286 C16.57052753 0.35179368 20.26930585 0.43572115 23.96812439 0.51979065 C26.46876561 0.5729889 28.96941661 0.62572942 31.47007751 0.67799377 C37.6153861 0.80743905 43.7605263 0.94322418 49.90562439 1.08229065 C50.56562439 5.70229065 51.22562439 10.32229065 51.90562439 15.08229065 C51.24562439 15.41229065 50.58562439 15.74229065 49.90562439 16.08229065 C48.12152637 13.01982318 47.67682418 10.86149792 47.78062439 7.33229065 C47.79867126 6.5330719 47.81671814 5.73385315 47.83531189 4.91041565 C47.85851501 4.3071344 47.88171814 3.70385315 47.90562439 3.08229065 C47.34630219 3.08451126 46.78697998 3.08673187 46.21070862 3.08901978 C40.40361671 3.11109647 34.59653667 3.12620726 28.78941345 3.13722229 C26.62046322 3.14225956 24.45151639 3.14908956 22.28257751 3.1577301 C19.16993876 3.16982216 16.05734479 3.17552493 12.94468689 3.1799469 C11.97068939 3.18510818 10.99669189 3.19026947 9.99317932 3.19558716 C9.09239655 3.19566269 8.19161377 3.19573822 7.26353455 3.19581604 C6.4685556 3.19803665 5.67357666 3.20025726 4.85450745 3.20254517 C2.90562439 3.08229065 2.90562439 3.08229065 0.90562439 2.08229065 C1.0813022 3.98142838 1.2977136 5.87681961 1.53062439 7.76979065 C1.64664001 8.82553284 1.76265564 9.88127502 1.88218689 10.9690094 C3.20208169 14.98410923 5.25750648 17.09739133 8.90562439 19.08229065 C12.31274602 19.80252899 15.64310352 19.80398664 19.11656189 19.7893219 C20.08469818 19.80444321 21.05283447 19.81956451 22.05030823 19.83514404 C25.12731834 19.8779601 28.20334628 19.88685332 31.28062439 19.89479065 C33.37309831 19.91793963 35.46554895 19.9433058 37.55796814 19.97096252 C42.67394016 20.03375503 47.78930112 20.06613784 52.90562439 20.08229065 C52.90562439 19.42229065 52.90562439 18.76229065 52.90562439 18.08229065 C54.36629638 18.53311534 55.82410471 18.99322602 57.28062439 19.45729065 C58.49878845 19.84014221 58.49878845 19.84014221 59.74156189 20.23072815 C61.90562439 21.08229065 61.90562439 21.08229065 63.90562439 23.08229065 C56.20106804 23.18390211 48.49668521 23.25384544 40.79161072 23.30201721 C38.17175336 23.32210392 35.55194067 23.34937854 32.93223572 23.38404846 C29.16153422 23.43269344 25.39142672 23.45528973 21.62046814 23.47291565 C20.45353928 23.49356079 19.28661041 23.51420593 18.08432007 23.53547668 C11.44189772 23.53730006 7.2782433 23.10313676 1.90562439 19.08229065 C-2.04684568 14.81778347 -3.23615054 11.71108994 -3.21937561 5.95729065 C-3.22195374 5.06783752 -3.22453186 4.1783844 -3.22718811 3.26197815 C-3.05111322 0.37227848 -2.89643131 0.11380443 0 0 Z " fill="#87949A" transform="translate(12.094375610351563,69.91770935058594)"/>
<path d="M0 0 C0.33 0 0.66 0 1 0 C1.06985741 9.31073134 1.12299123 18.62137088 1.15543652 27.9323082 C1.17101747 32.25688764 1.19211533 36.58128629 1.22631836 40.90576172 C1.25918454 45.08792113 1.27690976 49.26990788 1.28463173 53.45218658 C1.29012677 55.03879764 1.30085557 56.62540046 1.31719017 58.21193695 C1.53963772 80.73661544 1.53963772 80.73661544 -3.93244934 87.32757568 C-6 89 -6 89 -8.8125 88.9375 C-12.38831475 87.88578978 -15.61494151 86.55712691 -19 85 C-16 84 -16 84 -6 84 C-5.01 76.41 -4.02 68.82 -3 61 C-1.515 60.505 -1.515 60.505 0 60 C0 40.2 0 20.4 0 0 Z " fill="#BFBFBF" transform="translate(86,4)"/>
<path d="M0 0 C1.67004829 0.31595508 3.33637583 0.65179959 5 1 C7.63804589 0.60602665 7.63804589 0.60602665 10 0 C12 0 12 0 14.375 0.5625 C17.06037683 1.01006281 18.44144696 0.76756591 21 0 C23.62113708 0 25.50935112 0.31292445 28 1 C28.33 2.32 28.66 3.64 29 5 C18.37719894 6.39315424 7.68873373 6.09675083 -3 6 C-2.42655063 3.13275314 -2.1385485 2.1385485 0 0 Z " fill="#CECECE" transform="translate(33,3)"/>
<path d="M0 0 C0 1.98 0 3.96 0 6 C-0.66 6 -1.32 6 -2 6 C-2 7.32 -2 8.64 -2 10 C1.465 9.505 1.465 9.505 5 9 C5 9.99 5 10.98 5 12 C-4.57 12 -14.14 12 -24 12 C-22 10 -22 10 -20.12060547 9.77294922 C-19.37697754 9.78342285 -18.63334961 9.79389648 -17.8671875 9.8046875 C-16.65869141 9.81435547 -16.65869141 9.81435547 -15.42578125 9.82421875 C-14.16314453 9.84935547 -14.16314453 9.84935547 -12.875 9.875 C-11.60076172 9.88853516 -11.60076172 9.88853516 -10.30078125 9.90234375 C-8.20040116 9.92594353 -6.10016556 9.96181517 -4 10 C-5.70096281 4.07062539 -5.70096281 4.07062539 -10 0 C-6.30581799 -1.231394 -3.7943739 -0.64432764 0 0 Z " fill="#EEEEEE" transform="translate(73,32)"/>
<path d="M0 0 C0.7425 0.185625 1.485 0.37125 2.25 0.5625 C5.00356798 1.00056763 6.38672389 0.78398283 9 0 C12 0 12 0 14.9375 0.5625 C17.7763767 0.96805381 19.33886482 0.92116218 22 0 C20 3 20 3 17 5 C11.30295529 6.02850886 5.66011217 6.37678404 0 5 C0 3.35 0 1.7 0 0 Z " fill="#C5C5C5" transform="translate(63,3)"/>
<path d="M0 0 C5.28 0 10.56 0 16 0 C15.67 0.99 15.34 1.98 15 3 C13.35 3 11.7 3 10 3 C10 3.99 10 4.98 10 6 C11.32 6 12.64 6 14 6 C14 6.66 14 7.32 14 8 C9.38 8 4.76 8 0 8 C0 7.34 0 6.68 0 6 C1.65 6 3.3 6 5 6 C4.33131686 2.88667752 4.33131686 2.88667752 1.9375 1.8125 C1.298125 1.544375 0.65875 1.27625 0 1 C0 0.67 0 0.34 0 0 Z " fill="#EBEBEB" transform="translate(49,48)"/>
<path d="M0 0 C0.33 0 0.66 0 1 0 C0.65920651 7.97456765 0.65920651 7.97456765 -1.6875 11.625 C-4 13 -4 13 -6.8125 12.9375 C-10.38831475 11.88578978 -13.61494151 10.55712691 -17 9 C-13.98509443 7.99503148 -11.95818308 7.89664697 -8.8125 7.9375 C-7.91144531 7.94652344 -7.01039062 7.95554687 -6.08203125 7.96484375 C-5.39496094 7.97644531 -4.70789063 7.98804687 -4 8 C-3.8659375 7.38640625 -3.731875 6.7728125 -3.59375 6.140625 C-2.88201268 3.57462466 -1.72243294 2.0095051 0 0 Z " fill="#BCBDBD" transform="translate(84,80)"/>
<path d="M0 0 C1.32 0.33 2.64 0.66 4 1 C4 1.66 4 2.32 4 3 C3.34 3 2.68 3 2 3 C2 3.66 2 4.32 2 5 C-12.52 5 -27.04 5 -42 5 C-42 4.67 -42 4.34 -42 4 C-27.81 4 -13.62 4 1 4 C0.505 2.02 0.505 2.02 0 0 Z " fill="#939FA8" transform="translate(63,85)"/>
<path d="M0 0 C4.29 0 8.58 0 13 0 C13.33 0.99 13.66 1.98 14 3 C9.38 3 4.76 3 0 3 C0 2.01 0 1.02 0 0 Z " fill="#AEAEAE" transform="translate(48,56)"/>
<path d="M0 0 C0.33 0 0.66 0 1 0 C1 1.98 1 3.96 1 6 C1.66 6 2.32 6 3 6 C3 8.31 3 10.62 3 13 C2.01 13 1.02 13 0 13 C-0.99 13.495 -0.99 13.495 -2 14 C-1.85923685 12.0412957 -1.7122324 10.08303907 -1.5625 8.125 C-1.48128906 7.03445312 -1.40007812 5.94390625 -1.31640625 4.8203125 C-1 2 -1 2 0 0 Z " fill="#C9C9C9" transform="translate(83,70)"/>
<path d="M0 0 C0.556875 0.185625 1.11375 0.37125 1.6875 0.5625 C4.399133 1.07551165 6.34371039 0.6640724 9 0 C8.67 1.32 8.34 2.64 8 4 C5.03 4 2.06 4 -1 4 C-0.67 2.68 -0.34 1.36 0 0 Z " fill="#B9B9B9" transform="translate(34,3)"/>
<path d="M0 0 C3.3 0 6.6 0 10 0 C10 0.99 10 1.98 10 3 C6.7 3 3.4 3 0 3 C0 2.01 0 1.02 0 0 Z " fill="#B8B8B8" transform="translate(67,56)"/>
<path d="M0 0 C1.98 0 3.96 0 6 0 C6 1.32 6 2.64 6 4 C3.69 4.66 1.38 5.32 -1 6 C-0.67 4.02 -0.34 2.04 0 0 Z " fill="#BEBCBD" transform="translate(29,62)"/>
<path d="M0 0 C-1.125 1.5625 -1.125 1.5625 -3 3 C-6.85248595 2.75921963 -8.76039934 2.15973378 -12 0 C-10.56359829 -0.19573608 -9.12580496 -0.38127816 -7.6875 -0.5625 C-6.88699219 -0.66691406 -6.08648437 -0.77132812 -5.26171875 -0.87890625 C-3 -1 -3 -1 0 0 Z " fill="#ACADAD" transform="translate(83,90)"/>
<path d="M0 0 C2.31 0 4.62 0 7 0 C7 0.99 7 1.98 7 3 C4.69 3 2.38 3 0 3 C0 2.01 0 1.02 0 0 Z " fill="#AEAEAE" transform="translate(29,56)"/>
<path d="M0 0 C0.99 0 1.98 0 3 0 C3 1.98 3 3.96 3 6 C2.01 6.33 1.02 6.66 0 7 C0 4.69 0 2.38 0 0 Z " fill="#778A89" transform="translate(9,71)"/>
<path d="M0 0 C1.98 0 3.96 0 6 0 C5.67 0.99 5.34 1.98 5 3 C3.35 3 1.7 3 0 3 C0 2.01 0 1.02 0 0 Z " fill="#B4B4B4" transform="translate(29,34)"/>
</svg>
