<?xml version="1.0" encoding="UTF-8"?>
<svg version="1.1" xmlns="http://www.w3.org/2000/svg" width="96" height="96">
<path d="M0 0 C1.12792969 -0.01417969 2.25585938 -0.02835937 3.41796875 -0.04296875 C6.92395175 0.19506692 9.60469629 0.75705716 12.8125 2.1875 C13.3075 3.6725 13.3075 3.6725 13.8125 5.1875 C12.53060412 7.22085209 11.19093192 9.21831154 9.8125 11.1875 C7.80425171 14.8214731 7.30874447 18.0750545 7.94921875 22.2265625 C9.41178889 25.54878065 12.36927823 26.66876172 15.41015625 28.44140625 C19.03920123 31.07910236 20.81656365 34.48073842 23.05078125 38.30859375 C24.8563738 41.25919621 26.85785061 43.83755457 29.0625 46.5 C34.39009036 53.09753922 36.48708197 57.63031481 36.2109375 66.22265625 C35.43142645 72.02313553 32.97002242 75.38524714 28.53515625 79.08984375 C16.06039977 88.18161542 4.15227033 91.59471454 -11.1875 90.1875 C-21.42388324 88.1858975 -29.15409903 80.32404728 -35.1875 72.1875 C-37.88793536 65.50070769 -37.6375883 59.97326623 -35.09375 53.33203125 C-30.54975897 43.57507274 -22.2057877 30.19664385 -12.1875 25.1875 C-10.52666597 19.49321191 -11.67558544 16.54881902 -14.2578125 11.33984375 C-15.47420191 8.52374894 -15.56552978 6.21173825 -15.1875 3.1875 C-13.25479418 1.25479418 -9.80108612 1.56086945 -7.1875 1.1875 C-5.34735568 -0.65264432 -2.4676214 0.01394136 0 0 Z " fill="#FCC25F" transform="translate(48.1875,2.8125)"/>
<path d="M0 0 C1.12792969 -0.01417969 2.25585938 -0.02835937 3.41796875 -0.04296875 C6.92395175 0.19506692 9.60469629 0.75705716 12.8125 2.1875 C13.3075 3.6725 13.3075 3.6725 13.8125 5.1875 C12.53060412 7.22085209 11.19093192 9.21831154 9.8125 11.1875 C7.80425171 14.8214731 7.30874447 18.0750545 7.94921875 22.2265625 C9.41178889 25.54878065 12.36927823 26.66876172 15.41015625 28.44140625 C19.03920123 31.07910236 20.81656365 34.48073842 23.05078125 38.30859375 C24.8563738 41.25919621 26.85785061 43.83755457 29.0625 46.5 C34.39009036 53.09753922 36.48708197 57.63031481 36.2109375 66.22265625 C35.43142645 72.02313553 32.97002242 75.38524714 28.53515625 79.08984375 C16.06039977 88.18161542 4.15227033 91.59471454 -11.1875 90.1875 C-21.42388324 88.1858975 -29.15409903 80.32404728 -35.1875 72.1875 C-37.88793536 65.50070769 -37.6375883 59.97326623 -35.09375 53.33203125 C-30.54975897 43.57507274 -22.2057877 30.19664385 -12.1875 25.1875 C-10.52666597 19.49321191 -11.67558544 16.54881902 -14.2578125 11.33984375 C-15.47420191 8.52374894 -15.56552978 6.21173825 -15.1875 3.1875 C-13.25479418 1.25479418 -9.80108612 1.56086945 -7.1875 1.1875 C-5.34735568 -0.65264432 -2.4676214 0.01394136 0 0 Z M-10.1875 30.1875 C-12.79966181 31.63815647 -15.48025556 32.92456711 -18.1875 34.1875 C-18.1875 35.1775 -18.1875 36.1675 -18.1875 37.1875 C-18.8475 37.1875 -19.5075 37.1875 -20.1875 37.1875 C-20.1875 37.8475 -20.1875 38.5075 -20.1875 39.1875 C-20.8475 39.1875 -21.5075 39.1875 -22.1875 39.1875 C-23.55387653 40.90551282 -23.55387653 40.90551282 -24.8125 43.0625 C-25.25851563 43.78179687 -25.70453125 44.50109375 -26.1640625 45.2421875 C-27.34269998 47.11614762 -27.34269998 47.11614762 -27.1875 49.1875 C-27.8475 49.1875 -28.5075 49.1875 -29.1875 49.1875 C-29.5175 50.1775 -29.8475 51.1675 -30.1875 52.1875 C-30.6825 52.620625 -31.1775 53.05375 -31.6875 53.5 C-34.93437459 57.15273391 -34.29797337 62.54761865 -34.1875 67.1875 C-33.5275 67.1875 -32.8675 67.1875 -32.1875 67.1875 C-31.94 67.909375 -31.6925 68.63125 -31.4375 69.375 C-30.05608872 72.48317538 -28.51896746 74.71473148 -26.1875 77.1875 C-25.1975 77.1875 -24.2075 77.1875 -23.1875 77.1875 C-22.9090625 78.05375 -22.9090625 78.05375 -22.625 78.9375 C-20.530553 82.21576486 -17.6986559 83.74010043 -14.1875 85.1875 C-11.38566471 85.73868071 -8.99929083 86.05409387 -6.1875 86.1875 C-5.46046875 86.26226562 -4.7334375 86.33703125 -3.984375 86.4140625 C1.69957165 86.77166179 6.51825759 85.61256199 11.875 83.875 C12.54281494 83.66214355 13.21062988 83.44928711 13.89868164 83.22998047 C16.00673246 82.53062211 16.00673246 82.53062211 18.8125 81.1875 C19.1425 80.1975 19.4725 79.2075 19.8125 78.1875 C20.51375 77.94 21.215 77.6925 21.9375 77.4375 C26.23055061 75.57095626 29.27891017 73.15773434 31.8125 69.1875 C33.01177454 63.74279361 32.55226908 58.87619551 29.8125 54 C29.1525 53.071875 28.4925 52.14375 27.8125 51.1875 C27.1525 51.1875 26.4925 51.1875 25.8125 51.1875 C25.60625 50.32125 25.4 49.455 25.1875 48.5625 C23.69291012 44.8939612 22.10979726 43.26389067 19.265625 40.640625 C17.35679846 38.73179846 16.19498263 36.49163772 14.8125 34.1875 C13.8225 33.8575 12.8325 33.5275 11.8125 33.1875 C11.3175 31.7025 11.3175 31.7025 10.8125 30.1875 C8.9471755 29.16995132 8.9471755 29.16995132 6.75 28.5 C6.01652344 28.24863281 5.28304687 27.99726563 4.52734375 27.73828125 C3.96144531 27.55652344 3.39554688 27.37476562 2.8125 27.1875 C2.8125 26.8575 2.8125 26.5275 2.8125 26.1875 C-3.29955294 25.77312353 -5.52821713 25.99414542 -10.1875 30.1875 Z " fill="#E19D31" transform="translate(48.1875,2.8125)"/>
<path d="M0 0 C0.99 0 1.98 0 3 0 C3.061875 1.11375 3.061875 1.11375 3.125 2.25 C4.35094737 6.10297744 6.59490627 7.01369533 10 9 C11 10 11 10 11.0625 13.0625 C11.041875 14.031875 11.02125 15.00125 11 16 C9.68 16 8.36 16 7 16 C6.67 14.02 6.34 12.04 6 10 C5.01 10 4.02 10 3 10 C3.06962051 13.72786186 3.24266583 17.34315786 4 21 C6.28489247 23.17341087 6.28489247 23.17341087 9 24 C11.40450178 26.40450178 11.29609139 27.08233942 11.3125 30.375 C11.2380276 33.27011463 11.06896691 34.85480651 9.8125 37.5 C7.58286148 39.34521809 5.84809926 39.69209738 3 40 C3 41.65 3 43.3 3 45 C1.68 45 0.36 45 -1 45 C-1 43.35 -1 41.7 -1 40 C-2.11375 39.9071875 -2.11375 39.9071875 -3.25 39.8125 C-6.91859961 38.72859557 -8.02052923 37.22580421 -10 34 C-10.25 31.1875 -10.25 31.1875 -10 29 C-8.35 29.33 -6.7 29.66 -5 30 C-4.67 31.98 -4.34 33.96 -4 36 C-3.01 36 -2.02 36 -1 36 C-1 32.04 -1 28.08 -1 24 C-2.32 23.34 -3.64 22.68 -5 22 C-7.25 20.3125 -7.25 20.3125 -9 18 C-9.45746657 14.34026746 -9.46134558 11.97395179 -7.875 8.625 C-5.36934592 6.45343313 -3.24917885 6.2888159 0 6 C0 4.02 0 2.04 0 0 Z " fill="#714830" transform="translate(46,38)"/>
<path d="M0 0 C1.12792969 -0.01417969 2.25585938 -0.02835937 3.41796875 -0.04296875 C6.92395175 0.19506692 9.60469629 0.75705716 12.8125 2.1875 C13.1425 3.1775 13.4725 4.1675 13.8125 5.1875 C12.90057147 6.57228036 11.9785363 7.95157897 11.00390625 9.29296875 C8.68975354 12.97285092 7.32132629 17.1265101 5.8125 21.1875 C3.39313683 21.34999454 0.98468141 21.46847817 -1.4375 21.5625 C-2.11941406 21.61277344 -2.80132812 21.66304687 -3.50390625 21.71484375 C-5.515625 21.7734375 -5.515625 21.7734375 -9.1875 21.1875 C-13.73028022 15.83350903 -15.67613264 10.19123452 -15.1875 3.1875 C-13.25479418 1.25479418 -9.80108612 1.56086945 -7.1875 1.1875 C-5.34735568 -0.65264432 -2.4676214 0.01394136 0 0 Z " fill="#E5C393" transform="translate(48.1875,2.8125)"/>
<path d="M0 0 C2.2477975 2.05233685 3.0022242 3.00667261 4 6 C5.63853141 7.05980926 5.63853141 7.05980926 7.625 8 C12.40086259 10.80731708 14.62722717 14.55967414 17.359375 19.28125 C18.9526489 22.08013675 18.9526489 22.08013675 21.1875 24.60546875 C23.61476682 27.81218117 23.30728156 30.08216005 23 34 C22.67 33.34 22.34 32.68 22 32 C21.34 32 20.68 32 20 32 C18.8515625 30.390625 18.8515625 30.390625 17.625 28.25 C15.70151699 25.03099461 13.7022468 22.61217191 11 20 C10.525625 19.175 10.05125 18.35 9.5625 17.5 C6.15567172 12.04907475 1.97408597 10.40566729 -4 9 C-4 8.67 -4 8.34 -4 8 C-9.08824349 7.56090307 -9.08824349 7.56090307 -13.5 9.8125 C-14.325 10.534375 -15.15 11.25625 -16 12 C-17.23350903 12.55876905 -18.48503727 13.07914026 -19.75 13.5625 C-21.35875 14.2740625 -21.35875 14.2740625 -23 15 C-23.33 15.99 -23.66 16.98 -24 18 C-24.66 18 -25.32 18 -26 18 C-26 18.66 -26 19.32 -26 20 C-26.66 20 -27.32 20 -28 20 C-28.268125 20.721875 -28.53625 21.44375 -28.8125 22.1875 C-29.99901362 24.99766383 -31.27485639 27.48416557 -33 30 C-33.66 30 -34.32 30 -35 30 C-35.33 31.32 -35.66 32.64 -36 34 C-37.32 34 -38.64 34 -40 34 C-38.66570908 29.11737497 -36.49360799 25.53850131 -33.375 21.625 C-32.93349609 21.06135742 -32.49199219 20.49771484 -32.03710938 19.91699219 C-22.92225374 8.46112687 -22.92225374 8.46112687 -18 6 C-17.34 4.35 -16.68 2.7 -16 1 C-10.72 1.33 -5.44 1.66 0 2 C0 1.34 0 0.68 0 0 Z " fill="#DEB272" transform="translate(54,22)"/>
<path d="M0 0 C0.99 0 1.98 0 3 0 C3.061875 1.11375 3.061875 1.11375 3.125 2.25 C4.35094737 6.10297744 6.59490627 7.01369533 10 9 C11 10 11 10 11.0625 13.0625 C11.041875 14.031875 11.02125 15.00125 11 16 C9.68 16 8.36 16 7 16 C6.67 14.02 6.34 12.04 6 10 C5.01 10 4.02 10 3 10 C3 13.63 3 17.26 3 21 C2.67 21 2.34 21 2 21 C1.67 20.01 1.34 19.02 1 18 C0.67 23.94 0.34 29.88 0 36 C-0.33 36 -0.66 36 -1 36 C-1 32.04 -1 28.08 -1 24 C-2.32 23.34 -3.64 22.68 -5 22 C-7.25 20.3125 -7.25 20.3125 -9 18 C-9.45746657 14.34026746 -9.46134558 11.97395179 -7.875 8.625 C-5.36934592 6.45343313 -3.24917885 6.2888159 0 6 C0 4.02 0 2.04 0 0 Z " fill="#8A5C3D" transform="translate(46,38)"/>
<path d="M0 0 C0 0.66 0 1.32 0 2 C0.66 2 1.32 2 2 2 C1.57872639 4.31551097 1.13751879 6.62740355 0.6875 8.9375 C0.44386719 10.22527344 0.20023438 11.51304688 -0.05078125 12.83984375 C-0.36402344 13.88269531 -0.67726563 14.92554688 -1 16 C-1.99 16.33 -2.98 16.66 -4 17 C-4.28875 16.030625 -4.5775 15.06125 -4.875 14.0625 C-5.64214682 10.89335797 -5.64214682 10.89335797 -8 10 C-8.33 10.99 -8.66 11.98 -9 13 C-9.66 13 -10.32 13 -11 13 C-14.27037599 9.72962401 -14.56856013 6.4869746 -15 2 C-9.75614911 0.2520497 -5.52677733 -0.19392201 0 0 Z " fill="#FCD9A1" transform="translate(52,7)"/>
<path d="M0 0 C0.99 0.66 1.98 1.32 3 2 C3.78592387 5.99126044 3.55547292 9.83058333 1.8125 13.5 C-0.41713852 15.34521809 -2.15190074 15.69209738 -5 16 C-5 17.65 -5 19.3 -5 21 C-6.32 21 -7.64 21 -9 21 C-9 19.35 -9 17.7 -9 16 C-8.67 17.32 -8.34 18.64 -8 20 C-7.34 20 -6.68 20 -6 20 C-6.185625 19.2575 -6.37125 18.515 -6.5625 17.75 C-7.18327251 12.42909275 -6.55856674 7.31068067 -6 2 C-4.02 2 -2.04 2 0 2 C0 1.34 0 0.68 0 0 Z " fill="#835730" transform="translate(54,62)"/>
<path d="M0 0 C4.18463501 3.75174173 6.6741638 7.14206321 7.32421875 12.84375 C7.49548485 17.615578 7.33868794 21.18150414 5.5 25.625 C2.10965724 28.84582562 -0.42396819 29.23732803 -5 30 C-4.02133662 28.85373678 -3.04205413 27.70800212 -2.0625 26.5625 C-1.51722656 25.92441406 -0.97195312 25.28632812 -0.41015625 24.62890625 C0.36795695 23.73008851 1.15936528 22.84063472 2 22 C2.12562235 20.23252271 2.17576558 18.45939708 2.1875 16.6875 C2.20876953 15.23923828 2.20876953 15.23923828 2.23046875 13.76171875 C1.99474484 10.93702721 1.30533474 9.46221965 0 7 C-0.0777346 4.66796188 -0.08967728 2.33160941 0 0 Z " fill="#E0A653" transform="translate(77,50)"/>
<path d="M0 0 C1.31571603 0.2547514 2.62760376 0.52934141 3.9375 0.8125 C4.66839844 0.96332031 5.39929688 1.11414063 6.15234375 1.26953125 C6.76207031 1.51058594 7.37179688 1.75164063 8 2 C8.33 2.99 8.66 3.98 9 5 C8.08807147 6.38478036 7.1660363 7.76407897 6.19140625 9.10546875 C3.87725354 12.78535092 2.50882629 16.9390101 1 21 C-0.32 20.67 -1.64 20.34 -3 20 C-2.505 18.515 -2.505 18.515 -2 17 C-1.34 16.67 -0.68 16.34 0 16 C0.54672246 13.51954952 0.54672246 13.51954952 0.75 10.625 C0.84796875 9.64789063 0.9459375 8.67078125 1.046875 7.6640625 C1.23575896 4.76866397 1.23575896 4.76866397 -1 2 C-0.67 1.34 -0.34 0.68 0 0 Z " fill="#E7BE90" transform="translate(53,3)"/>
<path d="M0 0 C0.99 0.99 1.98 1.98 3 3 C2.67 3.99 2.34 4.98 2 6 C-4.27 6 -10.54 6 -17 6 C-16.67 4.35 -16.34 2.7 -16 1 C-10.72 1.33 -5.44 1.66 0 2 C0 1.34 0 0.68 0 0 Z " fill="#79523C" transform="translate(54,22)"/>
<path d="M0 0 C0 0.66 0 1.32 0 2 C-6.35181691 7.28450341 -13.86778387 12.17293823 -22 14 C-22 13.34 -22 12.68 -22 12 C-19 10 -19 10 -15 10 C-15 9.34 -15 8.68 -15 8 C-14.34 8 -13.68 8 -13 8 C-12.814375 7.05125 -12.62875 6.1025 -12.4375 5.125 C-11 2 -11 2 -7.625 0.625 C-4 0 -4 0 0 0 Z " fill="#E4A233" transform="translate(79,78)"/>
<path d="M0 0 C0.66 0 1.32 0 2 0 C2.98753178 9.14606357 2.89191731 17.84755626 2 27 C1.67 27 1.34 27 1 27 C1 23.04 1 19.08 1 15 C0.01 14.67 -0.98 14.34 -2 14 C-2 13.34 -2 12.68 -2 12 C-1.34 11.67 -0.68 11.34 0 11 C-0.66 10.01 -1.32 9.02 -2 8 C-2.25 4.9375 -2.25 4.9375 -2 2 C-1.34 1.34 -0.68 0.68 0 0 Z " fill="#9A6B46" transform="translate(44,47)"/>
<path d="M0 0 C1.13643966 3.40931897 0.86747764 4.00335456 -0.4375 7.1875 C-0.72496094 7.90292969 -1.01242188 8.61835937 -1.30859375 9.35546875 C-1.53675781 9.89816406 -1.76492187 10.44085938 -2 11 C-2.66 11 -3.32 11 -4 11 C-4.33 12.32 -4.66 13.64 -5 15 C-6.32 15 -7.64 15 -9 15 C-7.58399311 8.86397012 -3.9336625 4.73301638 0 0 Z " fill="#D8A65F" transform="translate(23,41)"/>
<path d="M0 0 C0.66 0 1.32 0 2 0 C10.57001235 9.51649966 10.57001235 9.51649966 10.5 15.1875 C10.335 16.115625 10.17 17.04375 10 18 C9.67 17.34 9.34 16.68 9 16 C8.34 16 7.68 16 7 16 C4.90411969 12.3671408 2.87535951 8.75071902 1 5 C0.34 4.01 -0.32 3.02 -1 2 C-0.67 1.34 -0.34 0.68 0 0 Z " fill="#DFAE62" transform="translate(67,38)"/>
<path d="M0 0 C0 0.66 0 1.32 0 2 C-0.66 2 -1.32 2 -2 2 C-2 2.66 -2 3.32 -2 4 C-4.31 4.66 -6.62 5.32 -9 6 C-9 6.66 -9 7.32 -9 8 C-9.99 8 -10.98 8 -12 8 C-12.33 7.34 -12.66 6.68 -13 6 C-13.89203125 6.02320312 -14.7840625 6.04640625 -15.703125 6.0703125 C-16.87359375 6.08835937 -18.0440625 6.10640625 -19.25 6.125 C-20.99023438 6.15980469 -20.99023438 6.15980469 -22.765625 6.1953125 C-25.82786046 6.0103949 -27.44202751 5.60823023 -30 4 C-28.97261719 4.04640625 -27.94523437 4.0928125 -26.88671875 4.140625 C-18.95367765 4.38622405 -12.54168679 4.14089708 -5.13671875 0.875 C-3 0 -3 0 0 0 Z " fill="#ECA730" transform="translate(66,84)"/>
<path d="M0 0 C0.99 0 1.98 0 3 0 C3.33 1.98 3.66 3.96 4 6 C5.65 6 7.3 6 9 6 C9.33 4.68 9.66 3.36 10 2 C10.33 3.32 10.66 4.64 11 6 C7.86501708 7.85776765 5.62528568 8.20140476 2 8 C1.67 8.66 1.34 9.32 1 10 C2.98 10.495 2.98 10.495 5 11 C5 11.99 5 12.98 5 14 C2.5 13.1875 2.5 13.1875 0 11 C-0.46346554 7.30318076 -0.28328381 3.70787035 0 0 Z " fill="#EABA6F" transform="translate(49,48)"/>
<path d="M0 0 C1.485 0.99 1.485 0.99 3 2 C3 2.66 3 3.32 3 4 C3.99 4 4.98 4 6 4 C8 5.8125 8 5.8125 10 8 C10.5775 8.5775 11.155 9.155 11.75 9.75 C12.1625 10.1625 12.575 10.575 13 11 C11.375 11.6875 11.375 11.6875 9 12 C5.53413396 10.5853608 2.11942449 9.17913674 0 6 C-0.1875 2.8125 -0.1875 2.8125 0 0 Z " fill="#EAA536" transform="translate(19,76)"/>
<path d="M0 0 C2 1.1875 2 1.1875 4 3 C4.25 5.6875 4.25 5.6875 4 8 C1.03 8 -1.94 8 -5 8 C-5.66 6.68 -6.32 5.36 -7 4 C-4.50907189 2.75453595 -3.58919267 3.2232422 -1 4 C-0.67 2.68 -0.34 1.36 0 0 Z " fill="#D8B47D" transform="translate(44,16)"/>
<path d="M0 0 C0.33 0 0.66 0 1 0 C2 6.625 2 6.625 2 10 C-0.3125 12.6875 -0.3125 12.6875 -3 15 C-3.99 15 -4.98 15 -6 15 C-6.99 15.495 -6.99 15.495 -8 16 C-8 14.68 -8 13.36 -8 12 C-7.05125 11.690625 -6.1025 11.38125 -5.125 11.0625 C-1.60238644 8.73757505 -1.46162802 8.22496633 -0.625 4.3125 C-0.39177118 2.87882872 -0.17532514 1.4418981 0 0 Z " fill="#E5A64D" transform="translate(57,66)"/>
<path d="M0 0 C1.32 0 2.64 0 4 0 C3.5625 2.3125 3.5625 2.3125 2 5 C-0.90755893 6.36075884 -3.89287788 7.21362959 -7 8 C-6.02133662 6.85373678 -5.04205413 5.70800212 -4.0625 4.5625 C-3.51722656 3.92441406 -2.97195312 3.28632812 -2.41015625 2.62890625 C-1.63204305 1.73008851 -0.84063472 0.84063472 0 0 Z " fill="#E49F3B" transform="translate(79,72)"/>
<path d="M0 0 C2.97 0 5.94 0 9 0 C9.66 2.31 10.32 4.62 11 7 C10.34 7 9.68 7 9 7 C8.608125 6.54625 8.21625 6.0925 7.8125 5.625 C5.19861396 3.28151596 2.35916371 2.82394582 -1 2 C-0.67 1.34 -0.34 0.68 0 0 Z " fill="#EABE7E" transform="translate(51,29)"/>
<path d="M0 0 C1.98 0.99 1.98 0.99 4 2 C4 3.98 4 5.96 4 8 C2.02 8.99 2.02 8.99 0 10 C0 6.7 0 3.4 0 0 Z " fill="#E6B161" transform="translate(49,64)"/>
<path d="M0 0 C0.33 0 0.66 0 1 0 C1 3.96 1 7.92 1 12 C0.01 12 -0.98 12 -2 12 C-2.66 9.69 -3.32 7.38 -4 5 C-3.01 4.67 -2.02 4.34 -1 4 C-0.26676204 1.98491642 -0.26676204 1.98491642 0 0 Z " fill="#E8B161" transform="translate(44,62)"/>
<path d="M0 0 C2.475 0.495 2.475 0.495 5 1 C5.33 2.65 5.66 4.3 6 6 C4.35 6.33 2.7 6.66 1 7 C0.67 4.69 0.34 2.38 0 0 Z " fill="#8C5E2F" transform="translate(36,67)"/>
<path d="M0 0 C0.99 0 1.98 0 3 0 C2.01 2.97 1.02 5.94 0 9 C-1.32 8.67 -2.64 8.34 -4 8 C-3.67 7.01 -3.34 6.02 -3 5 C-2.34 4.67 -1.68 4.34 -1 4 C-0.34786708 1.97536745 -0.34786708 1.97536745 0 0 Z " fill="#DDAE7E" transform="translate(54,15)"/>
<path d="M0 0 C0.99 0 1.98 0 3 0 C3.33 0.99 3.66 1.98 4 3 C2.35 4.32 0.7 5.64 -1 7 C-2.32 6.34 -3.64 5.68 -5 5 C-4.360625 4.731875 -3.72125 4.46375 -3.0625 4.1875 C-0.66868314 3.11332248 -0.66868314 3.11332248 0 0 Z " fill="#F9B549" transform="translate(50,79)"/>
<path d="M0 0 C1.485 0.99 1.485 0.99 3 2 C3.6875 5.625 3.6875 5.625 4 9 C2.68 9 1.36 9 0 9 C0 6.03 0 3.06 0 0 Z " fill="#EAA94C" transform="translate(80,63)"/>
<path d="M0 0 C0.99 0.66 1.98 1.32 3 2 C3 2.99 3 3.98 3 5 C2.34 5 1.68 5 1 5 C1 6.65 1 8.3 1 10 C0.01 10 -0.98 10 -2 10 C-1.979375 9.05125 -1.95875 8.1025 -1.9375 7.125 C-1.77448174 4.09333717 -1.77448174 4.09333717 -3 2 C-2.01 2 -1.02 2 0 2 C0 1.34 0 0.68 0 0 Z " fill="#885B36" transform="translate(54,62)"/>
<path d="M0 0 C0.99 0.33 1.98 0.66 3 1 C2.67 2.32 2.34 3.64 2 5 C1.34 5 0.68 5 0 5 C-0.66 6.65 -1.32 8.3 -2 10 C-3.39195915 5.82412255 -1.82323219 3.86525224 0 0 Z " fill="#E0AE68" transform="translate(26,37)"/>
<path d="M0 0 C1.9375 0.3125 1.9375 0.3125 4 1 C4.33 1.99 4.66 2.98 5 4 C3.1875 6.6875 3.1875 6.6875 1 9 C0.34 9 -0.32 9 -1 9 C-0.42655063 6.13275314 -0.1385485 5.1385485 2 3 C1.34 2.67 0.68 2.34 0 2 C0 1.34 0 0.68 0 0 Z " fill="#CEAB7D" transform="translate(57,4)"/>
<path d="M0 0 C2.64 0.33 5.28 0.66 8 1 C7.01 1.495 7.01 1.495 6 2 C6 2.99 6 3.98 6 5 C4.125 4.75 4.125 4.75 2 4 C0.75 1.9375 0.75 1.9375 0 0 Z " fill="#794D2A" transform="translate(38,73)"/>
<path d="M0 0 C1.32 0.33 2.64 0.66 4 1 C4 4.3 4 7.6 4 11 C3.67 11 3.34 11 3 11 C1.72746564 7.35206816 0.67170806 3.8063457 0 0 Z " fill="#D1A04B" transform="translate(80,59)"/>
<path d="M0 0 C2 1.3125 2 1.3125 4 3 C4 3.99 4 4.98 4 6 C3.34 6 2.68 6 2 6 C1.67 5.34 1.34 4.68 1 4 C0.67 4.99 0.34 5.98 0 7 C-0.99 6.67 -1.98 6.34 -3 6 C-3 5.34 -3 4.68 -3 4 C-2.34 4 -1.68 4 -1 4 C-0.67 2.68 -0.34 1.36 0 0 Z " fill="#EDC58D" transform="translate(44,16)"/>
<path d="M0 0 C0.99 0 1.98 0 3 0 C2.67 1.32 2.34 2.64 2 4 C1.34 4 0.68 4 0 4 C0 6.64 0 9.28 0 12 C-0.66 12 -1.32 12 -2 12 C-1.85831863 10.56208484 -1.71148957 9.1246763 -1.5625 7.6875 C-1.48128906 6.88699219 -1.40007813 6.08648437 -1.31640625 5.26171875 C-1 3 -1 3 0 0 Z " fill="#D59A49" transform="translate(13,56)"/>
<path d="M0 0 C0.66 0 1.32 0 2 0 C2 2.64 2 5.28 2 8 C1.01 7.67 0.02 7.34 -1 7 C-1.04254356 5.00045254 -1.04080783 2.99958364 -1 1 C-0.67 0.67 -0.34 0.34 0 0 Z " fill="#ECBE75" transform="translate(43,48)"/>
<path d="M0 0 C1.2065625 0.0309375 1.2065625 0.0309375 2.4375 0.0625 C1.4475 0.7225 0.4575 1.3825 -0.5625 2.0625 C-1.13998803 4.02611864 -1.13998803 4.02611864 -1.25 6.1875 C-1.353125 7.46625 -1.45625 8.745 -1.5625 10.0625 C-3.85654844 6.62142734 -3.82543056 5.09410191 -3.5625 1.0625 C-2.5625 0.0625 -2.5625 0.0625 0 0 Z " fill="#D2B689" transform="translate(36.5625,4.9375)"/>
<path d="M0 0 C0.99 0.33 1.98 0.66 3 1 C0.3401439 4.44216672 -2.90288286 4.99504674 -7 6 C-7 5.34 -7 4.68 -7 4 C-4 2 -4 2 0 2 C0 1.34 0 0.68 0 0 Z " fill="#CD8F25" transform="translate(64,86)"/>
<path d="M0 0 C0.66 0.33 1.32 0.66 2 1 C-1.96 4.465 -1.96 4.465 -6 8 C-6.33 7.34 -6.66 6.68 -7 6 C-6.34 6 -5.68 6 -5 6 C-4.9175 5.38125 -4.835 4.7625 -4.75 4.125 C-4 2 -4 2 -2.0625 0.6875 C-1.381875 0.460625 -0.70125 0.23375 0 0 Z " fill="#F7C779" transform="translate(35,34)"/>
<path d="M0 0 C0 1.65 0 3.3 0 5 C-1.98 5.99 -3.96 6.98 -6 8 C-5.67 6.68 -5.34 5.36 -5 4 C-4.34 4 -3.68 4 -3 4 C-3 3.01 -3 2.02 -3 1 C-1 0 -1 0 0 0 Z " fill="#F9C986" transform="translate(45,38)"/>
<path d="M0 0 C1.32 0 2.64 0 4 0 C4 0.66 4 1.32 4 2 C2.03852126 3.38938077 0.03833424 4.7260411 -2 6 C-1.125 1.125 -1.125 1.125 0 0 Z " fill="#CE882C" transform="translate(75,78)"/>
<path d="M0 0 C0.99 0.33 1.98 0.66 3 1 C3.125 3.875 3.125 3.875 3 7 C2.34 7.66 1.68 8.32 1 9 C0.67 6.03 0.34 3.06 0 0 Z " fill="#724729" transform="translate(54,66)"/>
<path d="M0 0 C1.98 0.495 1.98 0.495 4 1 C4 1.99 4 2.98 4 4 C2.35 4.33 0.7 4.66 -1 5 C-0.67 3.35 -0.34 1.7 0 0 Z " fill="#603D31" transform="translate(38,23)"/>
<path d="M0 0 C0.66 0 1.32 0 2 0 C3.07525194 2.65228812 4.09456151 5.28368454 5 8 C4.01 7.67 3.02 7.34 2 7 C2 6.34 2 5.68 2 5 C1.34 5 0.68 5 0 5 C0 3.35 0 1.7 0 0 Z " fill="#EABF87" transform="translate(36,12)"/>
<path d="M0 0 C2.97 0 5.94 0 9 0 C8.67 0.99 8.34 1.98 8 3 C5.36 2.34 2.72 1.68 0 1 C0 0.67 0 0.34 0 0 Z " fill="#DC8D29" transform="translate(31,90)"/>
<path d="M0 0 C0.99 0.99 1.98 1.98 3 3 C2.67 3.99 2.34 4.98 2 6 C1.01 6 0.02 6 -1 6 C-0.67 4.02 -0.34 2.04 0 0 Z " fill="#553A23" transform="translate(54,22)"/>
</svg>
