<?xml version="1.0" encoding="UTF-8"?>
<svg version="1.1" xmlns="http://www.w3.org/2000/svg" width="24" height="25">
<path d="M0 0 C1.12535156 0.00580078 1.12535156 0.00580078 2.2734375 0.01171875 C3.02367187 0.00785156 3.77390625 0.00398438 4.546875 0 C10.14682697 0.01010822 10.14682697 0.01010822 11.2734375 1.13671875 C11.34549261 2.82280841 11.35729818 4.51172534 11.3359375 6.19921875 C11.32691406 7.11832031 11.31789063 8.03742187 11.30859375 8.984375 C11.29699219 9.69464844 11.28539063 10.40492187 11.2734375 11.13671875 C14.2434375 11.63171875 14.2434375 11.63171875 17.2734375 12.13671875 C17.2734375 13.78671875 17.2734375 15.43671875 17.2734375 17.13671875 C15.6234375 17.13671875 13.9734375 17.13671875 12.2734375 17.13671875 C12.2734375 16.47671875 12.2734375 15.81671875 12.2734375 15.13671875 C10.28852108 15.40348079 10.28852108 15.40348079 8.2734375 16.13671875 C7.9434375 17.12671875 7.6134375 18.11671875 7.2734375 19.13671875 C7.9334375 20.12671875 8.5934375 21.11671875 9.2734375 22.13671875 C12.96098507 21.63840151 14.87834412 21.03604232 17.2734375 18.13671875 C16.9609375 20.51171875 16.9609375 20.51171875 16.2734375 23.13671875 C13.2734375 25.13671875 13.2734375 25.13671875 10.2109375 24.82421875 C7.2734375 24.13671875 7.2734375 24.13671875 5.2734375 23.13671875 C3.23288745 23.06606258 1.19009493 23.05249899 -0.8515625 23.07421875 C-1.94726562 23.08324219 -3.04296875 23.09226562 -4.171875 23.1015625 C-5.43644531 23.11896484 -5.43644531 23.11896484 -6.7265625 23.13671875 C-6.75543762 19.49090188 -6.77331835 15.84511412 -6.7890625 12.19921875 C-6.79744141 11.15830078 -6.80582031 10.11738281 -6.81445312 9.04492188 C-6.81928711 7.56088867 -6.81928711 7.56088867 -6.82421875 6.046875 C-6.82945557 5.13043213 -6.83469238 4.21398926 -6.84008789 3.26977539 C-6.60705668 -1.10870569 -3.71490857 0.00670561 0 0 Z M-3.7265625 4.13671875 C-3.7265625 4.46671875 -3.7265625 4.79671875 -3.7265625 5.13671875 C-1.4165625 5.13671875 0.8934375 5.13671875 3.2734375 5.13671875 C3.2734375 4.80671875 3.2734375 4.47671875 3.2734375 4.13671875 C0.9634375 4.13671875 -1.3465625 4.13671875 -3.7265625 4.13671875 Z M-3.7265625 9.13671875 C-3.7265625 9.46671875 -3.7265625 9.79671875 -3.7265625 10.13671875 C-0.4265625 10.13671875 2.8734375 10.13671875 6.2734375 10.13671875 C6.2734375 9.80671875 6.2734375 9.47671875 6.2734375 9.13671875 C2.9734375 9.13671875 -0.3265625 9.13671875 -3.7265625 9.13671875 Z M4.2734375 15.13671875 C4.2734375 17.44671875 4.2734375 19.75671875 4.2734375 22.13671875 C4.6034375 22.13671875 4.9334375 22.13671875 5.2734375 22.13671875 C5.2734375 19.82671875 5.2734375 17.51671875 5.2734375 15.13671875 C4.9434375 15.13671875 4.6134375 15.13671875 4.2734375 15.13671875 Z " fill="#CDD3D9" transform="translate(6.7265625,-0.13671875)"/>
<path d="M0 0 C1.12535156 0.00580078 1.12535156 0.00580078 2.2734375 0.01171875 C3.02367187 0.00785156 3.77390625 0.00398438 4.546875 0 C10.14682697 0.01010822 10.14682697 0.01010822 11.2734375 1.13671875 C11.34549261 2.82280841 11.35729818 4.51172534 11.3359375 6.19921875 C11.32691406 7.11832031 11.31789063 8.03742187 11.30859375 8.984375 C11.29699219 9.69464844 11.28539063 10.40492187 11.2734375 11.13671875 C10.9434375 10.14671875 10.6134375 9.15671875 10.2734375 8.13671875 C4.9934375 8.13671875 -0.2865625 8.13671875 -5.7265625 8.13671875 C-5.7265625 10.11671875 -5.7265625 12.09671875 -5.7265625 14.13671875 C-6.0565625 14.13671875 -6.3865625 14.13671875 -6.7265625 14.13671875 C-6.75342188 11.99095238 -6.77289338 9.8450923 -6.7890625 7.69921875 C-6.80066406 6.50425781 -6.81226563 5.30929687 -6.82421875 4.078125 C-6.65481886 -1.02419976 -4.57651999 0.00826087 0 0 Z M-3.7265625 4.13671875 C-3.7265625 4.46671875 -3.7265625 4.79671875 -3.7265625 5.13671875 C-1.4165625 5.13671875 0.8934375 5.13671875 3.2734375 5.13671875 C3.2734375 4.80671875 3.2734375 4.47671875 3.2734375 4.13671875 C0.9634375 4.13671875 -1.3465625 4.13671875 -3.7265625 4.13671875 Z " fill="#E7EAEE" transform="translate(6.7265625,-0.13671875)"/>
<path d="M0 0 C0 1.65 0 3.3 0 5 C-1.65 5 -3.3 5 -5 5 C-5 4.34 -5 3.68 -5 3 C-6.98491642 3.26676204 -6.98491642 3.26676204 -9 4 C-9.33 4.99 -9.66 5.98 -10 7 C-9.01 8.485 -9.01 8.485 -8 10 C-4.31245243 9.50168276 -2.39509338 8.89932357 0 6 C-0.3125 8.375 -0.3125 8.375 -1 11 C-4 13 -4 13 -7.0625 12.75 C-10 12 -10 12 -12 10 C-12.66932271 3.86454183 -12.66932271 3.86454183 -10.5 1.0625 C-6.87802345 -0.47684003 -3.92037077 -0.19601854 0 0 Z " fill="#4ABE79" transform="translate(24,12)"/>
<path d="M0 0 C0.66 2.31 1.32 4.62 2 7 C-1.63 7 -5.26 7 -9 7 C-9 5.35 -9 3.7 -9 2 C-2.25 0 -2.25 0 0 0 Z " fill="#B9C1C7" transform="translate(10,16)"/>
<path d="M0 0 C0 3.3 0 6.6 0 10 C-0.33 9.01 -0.66 8.02 -1 7 C-4.96 7 -8.92 7 -13 7 C-12.01 6.67 -11.02 6.34 -10 6 C-10 5.34 -10 4.68 -10 4 C-8.68 4 -7.36 4 -6 4 C-6 3.01 -6 2.02 -6 1 C-3.92446352 0.4465236 -2.15634036 0 0 0 Z " fill="#E2E4E5" transform="translate(18,1)"/>
<path d="M0 0 C0.33 1.32 0.66 2.64 1 4 C-2.06117568 6.62386487 -2.73173127 7 -7 7 C-7 6.34 -7 5.68 -7 5 C-6.21625 4.731875 -5.4325 4.46375 -4.625 4.1875 C-1.71885077 3.15185568 -1.71885077 3.15185568 0 0 Z " fill="#4ABE6D" transform="translate(23,18)"/>
</svg>
