<?xml version="1.0" encoding="UTF-8"?>
<svg version="1.1" xmlns="http://www.w3.org/2000/svg" width="96" height="96">
<path d="M0 0 C0.82455688 0.41698151 1.64911377 0.83396301 2.49865723 1.26358032 C5.10284451 2.58684295 7.69153426 3.9377386 10.28125 5.2890625 C12.04858558 6.18925653 13.81680833 7.08771101 15.5859375 7.984375 C18.80402327 9.62724449 22.02161782 11.27073802 25.22460938 12.94287109 C25.86507202 13.27596283 26.50553467 13.60905457 27.16540527 13.95223999 C28.78125 14.9140625 28.78125 14.9140625 30.78125 16.9140625 C31.33145064 19.96622814 31.34859626 22.8638742 30.78125 25.9140625 C28.40625 27.7890625 28.40625 27.7890625 25.78125 28.9140625 C23.28854172 32.65312492 23.49245698 35.57826844 23.515625 39.90625 C23.51371155 40.68920441 23.5117981 41.47215881 23.50982666 42.27883911 C23.50846622 43.93475669 23.51215281 45.59068497 23.52050781 47.24658203 C23.5311809 49.77270705 23.52062285 52.29811628 23.5078125 54.82421875 C23.50913468 56.4348974 23.51169829 58.0455756 23.515625 59.65625 C23.51157654 60.40848846 23.50752808 61.16072693 23.50335693 61.9357605 C23.53971311 66.03419317 23.95303674 69.22586465 25.78125 72.9140625 C26.44125 72.9140625 27.10125 72.9140625 27.78125 72.9140625 C28.11125 74.8940625 28.44125 76.8740625 28.78125 78.9140625 C29.44125 78.9140625 30.10125 78.9140625 30.78125 78.9140625 C30.78125 81.2240625 30.78125 83.5340625 30.78125 85.9140625 C1.08125 85.9140625 -28.61875 85.9140625 -59.21875 85.9140625 C-59.21875 83.6040625 -59.21875 81.2940625 -59.21875 78.9140625 C-58.55875 78.9140625 -57.89875 78.9140625 -57.21875 78.9140625 C-56.88875 76.9340625 -56.55875 74.9540625 -56.21875 72.9140625 C-55.55875 72.9140625 -54.89875 72.9140625 -54.21875 72.9140625 C-52.05844241 68.54130752 -51.91215125 64.47290746 -51.91796875 59.69140625 C-51.91154106 58.51766197 -51.91154106 58.51766197 -51.90498352 57.32020569 C-51.89925939 55.67205775 -51.89872578 54.02388456 -51.90307617 52.37573242 C-51.90624421 49.8561713 -51.8827266 47.33777622 -51.85742188 44.81835938 C-51.85514946 43.21354314 -51.85444512 41.60872376 -51.85546875 40.00390625 C-51.846259 39.25278061 -51.83704926 38.50165497 -51.82756042 37.72776794 C-51.85584369 34.5297017 -52.0028045 32.29228095 -53.60473633 29.48657227 C-55.35360452 27.78267573 -56.97038738 26.84441944 -59.21875 25.9140625 C-59.43659569 24.52529624 -59.59086181 23.12648146 -59.71875 21.7265625 C-59.8115625 20.94925781 -59.904375 20.17195313 -60 19.37109375 C-58.67108029 15.19164127 -54.8868818 13.86613016 -51.21875 11.9140625 C-50.0647168 11.28910889 -48.91068359 10.66415527 -47.72167969 10.02026367 C-44.33359796 8.20388466 -40.9193513 6.44324538 -37.49267578 4.70092773 C-36.0592414 3.96759951 -34.6301594 3.22570118 -33.20556641 2.4753418 C-31.11803464 1.3763756 -29.01823048 0.30497947 -26.9140625 -0.76171875 C-26.29081085 -1.09601395 -25.6675592 -1.43030914 -25.02542114 -1.7747345 C-16.13405973 -6.17914956 -8.44559605 -4.47037625 0 0 Z " fill="#777777" transform="translate(62.21875,7.0859375)"/>
<path d="M0 0 C2.32168563 1.152283 4.63283123 2.32601874 6.93359375 3.51953125 C8.12017578 4.09767578 9.30675781 4.67582031 10.52929688 5.27148438 C17.01780083 8.56221561 17.01780083 8.56221561 19.37109375 10.33203125 C20.10131836 12.96606445 20.10131836 12.96606445 20.37109375 15.33203125 C22.11948519 16.6236855 22.11948519 16.6236855 24.37109375 17.33203125 C25.73234375 17.88890625 25.73234375 17.88890625 27.12109375 18.45703125 C27.86359375 18.74578125 28.60609375 19.03453125 29.37109375 19.33203125 C29.37109375 20.98203125 29.37109375 22.63203125 29.37109375 24.33203125 C20.77820738 25.86428125 12.50418656 26.63065523 3.78125 26.59765625 C2.63426132 26.5995697 1.48727264 26.60148315 0.30552673 26.60345459 C-2.10027284 26.60480484 -4.50608 26.60119037 -6.91186523 26.59277344 C-10.55404349 26.58206759 -14.19572749 26.59270387 -17.83789062 26.60546875 C-29.2481568 26.61132272 -40.40182366 26.61198465 -51.62890625 24.33203125 C-51.95890625 23.34203125 -52.28890625 22.35203125 -52.62890625 21.33203125 C-51.50920765 20.32609882 -50.38296505 19.32744635 -49.25390625 18.33203125 C-48.62742187 17.77515625 -48.0009375 17.21828125 -47.35546875 16.64453125 C-45.62890625 15.33203125 -45.62890625 15.33203125 -43.62890625 15.33203125 C-43.57597412 14.57575439 -43.52304199 13.81947754 -43.46850586 13.0402832 C-42.62890625 10.33203125 -42.62890625 10.33203125 -40.28735352 8.57104492 C-36.93133498 6.86587482 -33.57555949 5.16840982 -30.19140625 3.51953125 C-29.03962891 2.92205078 -27.88785156 2.32457031 -26.70117188 1.70898438 C-16.59256661 -3.30804887 -10.44227898 -4.57661392 0 0 Z " fill="#C2C2C2" transform="translate(59.62890625,5.66796875)"/>
<path d="M0 0 C3.96 0 7.92 0 12 0 C12 5.28 12 10.56 12 16 C15.96 16 19.92 16 24 16 C24 14.68 24 13.36 24 12 C26.70716242 11.09761253 28.23776768 10.88148698 31.01171875 10.90234375 C32.14770508 10.90717773 32.14770508 10.90717773 33.30664062 10.91210938 C34.48516602 10.92467773 34.48516602 10.92467773 35.6875 10.9375 C36.88342773 10.94426758 36.88342773 10.94426758 38.10351562 10.95117188 C40.06904257 10.9629415 42.03453085 10.98087652 44 11 C44.99 13.475 44.99 13.475 46 16 C46.66 16 47.32 16 48 16 C48.495 18.97 48.495 18.97 49 22 C49.66 22 50.32 22 51 22 C51 24.31 51 26.62 51 29 C21.3 29 -8.4 29 -39 29 C-39 26.69 -39 24.38 -39 22 C-38.34 22 -37.68 22 -37 22 C-36.67 20.02 -36.34 18.04 -36 16 C-32.39816685 14.79938895 -29.22311412 14.97814574 -25.48828125 15.12109375 C-24.76005661 15.14470474 -24.03183197 15.16831573 -23.28153992 15.19264221 C-20.9583216 15.2691435 -18.63544807 15.3532256 -16.3125 15.4375 C-14.73634493 15.49073427 -13.16017309 15.54347458 -11.58398438 15.59570312 C-7.7223747 15.7238134 -3.861324 15.8621713 0 16 C0 10.72 0 5.44 0 0 Z " fill="#C5C6C6" transform="translate(42,64)"/>
<path d="M0 0 C0.33 0 0.66 0 1 0 C1 3.96 1 7.92 1 12 C2.423125 11.814375 3.84625 11.62875 5.3125 11.4375 C8.47368607 11.02517138 9.90521121 10.96840374 13 12 C13 11.34 13 10.68 13 10 C14.32 10 15.64 10 17 10 C17 10.66 17 11.32 17 12 C18.98 12 20.96 12 23 12 C23 10.68 23 9.36 23 8 C23.66 8 24.32 8 25 8 C25.66 9.65 26.32 11.3 27 13 C28.98 12.67 30.96 12.34 33 12 C33 10.68 33 9.36 33 8 C33.99 8.33 34.98 8.66 36 9 C36 9.99 36 10.98 36 12 C37.32 12 38.64 12 40 12 C40.22531972 15.29073662 40.42735982 18.58249419 40.625 21.875 C40.68945312 22.81214844 40.75390625 23.74929687 40.8203125 24.71484375 C40.871875 25.61074219 40.9234375 26.50664063 40.9765625 27.4296875 C41.02893066 28.25710449 41.08129883 29.08452148 41.13525391 29.93701172 C41 32 41 32 39 34 C38.67 35.32 38.34 36.64 38 38 C34.04 38 30.08 38 26 38 C26 32.72 26 27.44 26 22 C22.04 22 18.08 22 14 22 C14 27.28 14 32.56 14 38 C10.04 38 6.08 38 2 38 C2 36.68 2 35.36 2 34 C1.34 34 0.68 34 0 34 C-1.19583104 30.41250689 -1.01782444 27.707443 -0.87890625 23.92578125 C-0.85529526 23.2419487 -0.83168427 22.55811615 -0.80735779 21.8535614 C-0.7308855 19.67298774 -0.64679119 17.49278405 -0.5625 15.3125 C-0.50926281 13.8327003 -0.45652252 12.35288262 -0.40429688 10.87304688 C-0.27529303 7.24847183 -0.13945273 3.62418977 0 0 Z " fill="#595A5B" transform="translate(28,42)"/>
<path d="M0 0 C0.33 1.32 0.66 2.64 1 4 C0.4225 4.39832031 -0.155 4.79664063 -0.75 5.20703125 C-1.4925 5.73683594 -2.235 6.26664063 -3 6.8125 C-3.7425 7.33457031 -4.485 7.85664063 -5.25 8.39453125 C-5.8275 8.92433594 -6.405 9.45414063 -7 10 C-7 10.99 -7 11.98 -7 13 C-5.205625 12.9690625 -5.205625 12.9690625 -3.375 12.9375 C-0.99914457 12.89653698 1.06633574 13.01376117 3.3996582 13.49780273 C8.5825401 14.22074218 13.71459769 14.14234913 18.94140625 14.1328125 C20.68030373 14.13424759 20.68030373 14.13424759 22.45433044 14.13571167 C24.906159 14.13639122 27.35798937 14.13455263 29.80981445 14.13037109 C33.52494458 14.12505375 37.23995192 14.13030613 40.95507812 14.13671875 C43.34635443 14.13605727 45.73763066 14.13477465 48.12890625 14.1328125 C49.77180382 14.13584885 49.77180382 14.13584885 51.44789124 14.13894653 C59.00462048 14.11649118 66.47404625 13.67377391 74 13 C73.68476681 10.53250045 73.68476681 10.53250045 73 8 C70.63813861 6.73854232 70.63813861 6.73854232 68 6 C67.01 5.34 66.02 4.68 65 4 C65.33 2.68 65.66 1.36 66 0 C67.8136477 0.97703921 69.62588817 1.95669105 71.4375 2.9375 C72.95150391 3.75541016 72.95150391 3.75541016 74.49609375 4.58984375 C77 6 77 6 78 7 C78.4251887 10.04921041 78.51126107 12.95992071 78 16 C75.5625 17.9375 75.5625 17.9375 73 19 C72.67 19.66 72.34 20.32 72 21 C65.4 21 58.8 21 52 21 C52.33 19.35 52.66 17.7 53 16 C39.8 16 26.6 16 13 16 C13 17.65 13 19.3 13 21 C8.05 21 3.1 21 -2 21 C-2 20.34 -2 19.68 -2 19 C-3.98 19.99 -3.98 19.99 -6 21 C-6.66 20.01 -7.32 19.02 -8 18 C-10.05003955 16.80767387 -10.05003955 16.80767387 -12 16 C-12.49032713 12.87416455 -12.68766047 10.10489119 -12 7 C-9.6511791 4.6511791 -7.00237752 3.36421898 -4 2 C-2.66574776 1.33517432 -1.33213105 0.66906582 0 0 Z " fill="#ABABAB" transform="translate(15,17)"/>
<path d="M0 0 C0.02891546 4.45831982 0.04676981 8.91661569 0.0625 13.375 C0.07087891 14.64601563 0.07925781 15.91703125 0.08789062 17.2265625 C0.09272461 19.04414062 0.09272461 19.04414062 0.09765625 20.8984375 C0.10551147 22.57945557 0.10551147 22.57945557 0.11352539 24.29443359 C0 27 0 27 -1 29 C-5.54653186 30.080271 -10.53493582 30.53486581 -15 29 C-16.3767748 26.2464504 -16.12969689 24.01159591 -16.1328125 20.93359375 C-16.13410156 19.72638672 -16.13539062 18.51917969 -16.13671875 17.27539062 C-16.13091797 15.37563477 -16.13091797 15.37563477 -16.125 13.4375 C-16.12886719 12.16712891 -16.13273437 10.89675781 -16.13671875 9.58789062 C-16.13542969 8.38197266 -16.13414063 7.17605469 -16.1328125 5.93359375 C-16.13168457 4.82040771 -16.13055664 3.70722168 -16.12939453 2.56030273 C-16 0 -16 0 -15 -1 C-13.14453125 -1.38671875 -13.14453125 -1.38671875 -10.8125 -1.6875 C-9.67748047 -1.84798828 -9.67748047 -1.84798828 -8.51953125 -2.01171875 C-5.38512739 -1.99714013 -2.94104877 -1.03390128 0 0 Z " fill="#ACACAC" transform="translate(85,43)"/>
<path d="M0 0 C1.93166016 0.01740234 1.93166016 0.01740234 3.90234375 0.03515625 C5.19269531 0.04417969 6.48304687 0.05320313 7.8125 0.0625 C8.81152344 0.07410156 9.81054688 0.08570313 10.83984375 0.09765625 C12.19685022 2.81166919 11.95222985 4.94611941 11.9375 7.98046875 C11.93427734 9.14707031 11.93105469 10.31367187 11.92773438 11.515625 C11.91935547 12.73894531 11.91097656 13.96226563 11.90234375 15.22265625 C11.89783203 16.45371094 11.89332031 17.68476562 11.88867188 18.953125 C11.87685705 22.00135017 11.86038403 25.04947939 11.83984375 28.09765625 C10.11170214 28.2943799 8.38225178 28.47962424 6.65234375 28.66015625 C5.68941406 28.76457031 4.72648437 28.86898437 3.734375 28.9765625 C0.89750998 29.09524376 -1.41439296 28.77531264 -4.16015625 28.09765625 C-4.18901963 23.61850297 -4.20690812 19.13937334 -4.22265625 14.66015625 C-4.23103516 13.38076172 -4.23941406 12.10136719 -4.24804688 10.78320312 C-4.25126953 9.56826172 -4.25449219 8.35332031 -4.2578125 7.1015625 C-4.26304932 5.97564697 -4.26828613 4.84973145 -4.27368164 3.68969727 C-4.10676181 -0.12145946 -3.88868243 0.12016942 0 0 Z " fill="#AFAFAF" transform="translate(15.16015625,41.90234375)"/>
<path d="M0 0 C2.31255891 1.14310999 4.61459111 2.30773459 6.90625 3.4921875 C8.08445313 4.06195313 9.26265625 4.63171875 10.4765625 5.21875 C11.59804687 5.7859375 12.71953125 6.353125 13.875 6.9375 C14.89013672 7.45070801 15.90527344 7.96391602 16.95117188 8.49267578 C20.01830555 10.83450676 20.57179772 12.65512031 21.40625 16.3671875 C21.40625 17.0271875 21.40625 17.6871875 21.40625 18.3671875 C17.24155325 17.06861406 13.44670656 15.49254887 9.5625 13.51171875 C8.48097656 12.97224609 7.39945313 12.43277344 6.28515625 11.87695312 C4.02783223 10.74307187 1.77520937 9.59978401 -0.47265625 8.44726562 C-1.55417969 7.91166016 -2.63570312 7.37605469 -3.75 6.82421875 C-5.21663086 6.0813562 -5.21663086 6.0813562 -6.71289062 5.32348633 C-12.04100937 3.55482183 -16.16242112 5.40422653 -21 7.80078125 C-21.99128906 8.28482422 -22.98257813 8.76886719 -24.00390625 9.26757812 C-25.02355469 9.77482422 -26.04320313 10.28207031 -27.09375 10.8046875 C-29.12338025 11.8066731 -31.15458678 12.80547328 -33.1875 13.80078125 C-34.08146484 14.24478271 -34.97542969 14.68878418 -35.89648438 15.14624023 C-38.74484651 16.43558302 -41.61369171 17.42731035 -44.59375 18.3671875 C-41.45058488 13.65243982 -37.82945799 11.29160584 -32.59375 9.3671875 C-31.60375 9.3671875 -30.61375 9.3671875 -29.59375 9.3671875 C-29.59375 8.7071875 -29.59375 8.0471875 -29.59375 7.3671875 C-28.60375 7.3671875 -27.61375 7.3671875 -26.59375 7.3671875 C-26.59375 5.7171875 -26.59375 4.0671875 -26.59375 2.3671875 C-25.15077123 1.50754058 -23.68808196 0.68097135 -22.21875 -0.1328125 C-21.40664063 -0.596875 -20.59453125 -1.0609375 -19.7578125 -1.5390625 C-12.5305831 -4.03736402 -6.93277936 -3.07390217 0 0 Z " fill="#D8D8D8" transform="translate(59.59375,5.6328125)"/>
<path d="M0 0 C3.96 0 7.92 0 12 0 C12 5.28 12 10.56 12 16 C15.96 16 19.92 16 24 16 C24 14.68 24 13.36 24 12 C26.70716242 11.09761253 28.23776768 10.88148698 31.01171875 10.90234375 C32.14770508 10.90717773 32.14770508 10.90717773 33.30664062 10.91210938 C34.48516602 10.92467773 34.48516602 10.92467773 35.6875 10.9375 C36.88342773 10.94426758 36.88342773 10.94426758 38.10351562 10.95117188 C40.06904257 10.9629415 42.03453085 10.98087652 44 11 C44.66 12.32 45.32 13.64 46 15 C43.877114 17.122886 39.31678412 16.42523934 36.375 16.5625 C35.08916016 16.6251001 35.08916016 16.6251001 33.77734375 16.68896484 C22.44926725 17.20445124 11.28921756 17.23717453 0 16 C0 10.72 0 5.44 0 0 Z " fill="#7E99A0" transform="translate(42,64)"/>
<path d="M0 0 C3 1 3 1 4 3 C32.05 3.33 60.1 3.66 89 4 C89.33 2.68 89.66 1.36 90 0 C90 2.31 90 4.62 90 7 C60.3 7 30.6 7 0 7 C0 4.69 0 2.38 0 0 Z " fill="#868686" transform="translate(3,86)"/>
<path d="M0 0 C1.70965187 0.03014442 1.70965187 0.03014442 3.45384216 0.06089783 C4.69634232 0.08793289 5.93884247 0.11496796 7.21899414 0.14282227 C9.18231683 0.17892869 11.14563956 0.2150334 13.10896397 0.25104618 C15.87611407 0.30310115 18.64315978 0.35989137 21.41021729 0.41662598 C27.49217868 0.54036775 33.57434137 0.65395755 39.65649414 0.76782227 C40.95227386 0.79242523 42.24805359 0.8170282 43.58309937 0.84237671 C53.57886028 1.02406849 63.56958919 1.08624624 73.56665039 1.02172852 C73.23665039 1.68172852 72.90665039 2.34172852 72.56665039 3.02172852 C47.81665039 3.35172852 23.06665039 3.68172852 -2.43334961 4.02172852 C-2.76334961 5.67172852 -3.09334961 7.32172852 -3.43334961 9.02172852 C22.96665039 9.35172852 49.36665039 9.68172852 76.56665039 10.02172852 C76.56665039 9.36172852 76.56665039 8.70172852 76.56665039 8.02172852 C77.22665039 8.02172852 77.88665039 8.02172852 78.56665039 8.02172852 C78.56665039 9.01172852 78.56665039 10.00172852 78.56665039 11.02172852 C50.51665039 11.02172852 22.46665039 11.02172852 -6.43334961 11.02172852 C-6.76334961 10.03172852 -7.09334961 9.04172852 -7.43334961 8.02172852 C-8.09334961 7.69172852 -8.75334961 7.36172852 -9.43334961 7.02172852 C-8.83151212 5.00127409 -8.16028865 3.00061812 -7.43334961 1.02172852 C-4.80761735 -0.29113761 -2.939129 -0.05849754 0 0 Z " fill="#AEB0B1" transform="translate(13.433349609375,78.978271484375)"/>
<path d="M0 0 C0 8.91 0 17.82 0 27 C-0.66 26.34 -1.32 25.68 -2 25 C-3.98 25.99 -3.98 25.99 -6 27 C-6.33 18.42 -6.66 9.84 -7 1 C-7.33 9.25 -7.66 17.5 -8 26 C-8.66 26.33 -9.32 26.66 -10 27 C-10 17.76 -10 8.52 -10 -1 C-6 -2 -6 -2 0 0 Z " fill="#B6B6B6" transform="translate(85,43)"/>
<path d="M0 0 C0.66 0.33 1.32 0.66 2 1 C2 11.89 2 22.78 2 34 C2.66 34 3.32 34 4 34 C4 35.32 4 36.64 4 38 C-2.93 38 -9.86 38 -17 38 C-17.33 37.34 -17.66 36.68 -18 36 C-17.34 35.01 -16.68 34.02 -16 33 C-15.29835358 31.01200182 -14.62627128 29.01301483 -14 27 C-13.38125 27.165 -12.7625 27.33 -12.125 27.5 C-7.80181364 28.19170982 -3.37817345 28 1 28 C0.505 14.14 0.505 14.14 0 0 Z " fill="#929292" transform="translate(26,42)"/>
<path d="M0 0 C2.32168563 1.152283 4.63283123 2.32601874 6.93359375 3.51953125 C8.12017578 4.09767578 9.30675781 4.67582031 10.52929688 5.27148438 C17.01780083 8.56221561 17.01780083 8.56221561 19.37109375 10.33203125 C20.21069336 13.0402832 20.21069336 13.0402832 20.37109375 15.33203125 C18.39109375 14.67203125 16.41109375 14.01203125 14.37109375 13.33203125 C14.37109375 12.67203125 14.37109375 12.01203125 14.37109375 11.33203125 C13.53191406 11.25082031 12.69273438 11.16960938 11.828125 11.0859375 C7.66338689 10.17769518 4.69154664 8.41769188 1.05859375 6.26953125 C-4.79623658 2.9886777 -8.78988986 1.13791728 -15.62890625 2.33203125 C-18.92991756 3.7312807 -18.92991756 3.7312807 -21.62890625 5.33203125 C-22.61890625 5.33203125 -23.60890625 5.33203125 -24.62890625 5.33203125 C-23.72570495 1.99018645 -22.96537999 0.57597471 -20.12890625 -1.48046875 C-12.7784034 -3.97438936 -7.05767696 -3.16961236 0 0 Z " fill="#C3C3C3" transform="translate(59.62890625,5.66796875)"/>
<path d="M0 0 C1.98036486 0.97674104 3.95926133 1.95645982 5.9375 2.9375 C7.03964844 3.48277344 8.14179687 4.02804688 9.27734375 4.58984375 C12 6 12 6 13 7 C13.07179964 8.51928038 13.08392007 10.04167482 13.0625 11.5625 C13.05347656 12.38878906 13.04445313 13.21507812 13.03515625 14.06640625 C13.02355469 14.70449219 13.01195313 15.34257813 13 16 C7.77518117 19.27169255 4.42867452 19.16877227 -1.375 18.1875 C-2.47908203 18.02411133 -2.47908203 18.02411133 -3.60546875 17.85742188 C-5.40624472 17.58847481 -7.20356516 17.2965611 -9 17 C-8.67 16.34 -8.34 15.68 -8 15 C-5.19921875 14.3671875 -5.19921875 14.3671875 -1.6875 13.875 C-0.53636719 13.70742188 0.61476563 13.53984375 1.80078125 13.3671875 C5 13 5 13 9 13 C8.89386164 10.54775306 8.89386164 10.54775306 8 8 C5.63813861 6.73854232 5.63813861 6.73854232 3 6 C2.01 5.34 1.02 4.68 0 4 C0 2.68 0 1.36 0 0 Z " fill="#A2A2A2" transform="translate(80,17)"/>
<path d="M0 0 C3.3 0 6.6 0 10 0 C10 4.62 10 9.24 10 14 C6.7 14 3.4 14 0 14 C0 9.38 0 4.76 0 0 Z " fill="#0ABEEE" transform="translate(43,66)"/>
<path d="M0 0 C0.66 0 1.32 0 2 0 C2.99 2.31 3.98 4.62 5 7 C5.66 4.69 6.32 2.38 7 0 C8.9375 0.8125 8.9375 0.8125 11 2 C11.33 2.99 11.66 3.98 12 5 C12.33 3.35 12.66 1.7 13 0 C13.66 0 14.32 0 15 0 C15 3.3 15 6.6 15 10 C13.68 9.67 12.36 9.34 11 9 C11 8.34 11 7.68 11 7 C10.34 7 9.68 7 9 7 C9 8.32 9 9.64 9 11 C7.02 11 5.04 11 3 11 C3 10.34 3 9.68 3 9 C1.68 9 0.36 9 -1 9 C-1 9.66 -1 10.32 -1 11 C-1.99 11 -2.98 11 -4 11 C-3.71758359 9.53984709 -3.42373386 8.08190207 -3.125 6.625 C-2.96257813 5.81289063 -2.80015625 5.00078125 -2.6328125 4.1640625 C-2 2 -2 2 0 0 Z " fill="#A0A0A0" transform="translate(42,43)"/>
<path d="M0 0 C0.33 0 0.66 0 1 0 C1.33 8.25 1.66 16.5 2 25 C3.65 25.33 5.3 25.66 7 26 C7.33 17.75 7.66 9.5 8 1 C8.66 0.67 9.32 0.34 10 0 C10 8.91 10 17.82 10 27 C11.65 26.01 13.3 25.02 15 24 C15 25.65 15 27.3 15 29 C5.08472437 30.404124 5.08472437 30.404124 1 29 C-0.38308781 26.23382437 -0.11210196 23.98982 -0.09765625 20.8984375 C-0.09443359 19.68671875 -0.09121094 18.475 -0.08789062 17.2265625 C-0.07951172 15.95554687 -0.07113281 14.68453125 -0.0625 13.375 C-0.05798828 12.09625 -0.05347656 10.8175 -0.04882812 9.5 C-0.03701203 6.33328708 -0.02053815 3.16666644 0 0 Z " fill="#9F9F9F" transform="translate(69,43)"/>
<path d="M0 0 C3 1 3 1 4 3 C31.72 3.33 59.44 3.66 88 4 C88 4.33 88 4.66 88 5 C76.96919289 5.02314739 65.93839154 5.04092736 54.90756512 5.05181217 C49.78578014 5.05703573 44.66401176 5.06412388 39.54223633 5.07543945 C34.60152332 5.08628697 29.6608263 5.09228081 24.72010231 5.09487724 C22.83301352 5.09672812 20.94592562 5.10034229 19.05884361 5.10573006 C16.42031321 5.11296518 13.78184924 5.11398989 11.14331055 5.11352539 C9.96727013 5.1189183 9.96727013 5.1189183 8.76747131 5.12442017 C5.5755228 5.11832022 3.05122864 5.01707621 0 4 C0 2.68 0 1.36 0 0 Z " fill="#929292" transform="translate(3,86)"/>
<path d="M0 0 C0.66 0 1.32 0 2 0 C2.495 2.475 2.495 2.475 3 5 C2.34 5 1.68 5 1 5 C1 5.66 1 6.32 1 7 C-24.08 7 -49.16 7 -75 7 C-75 6.67 -75 6.34 -75 6 C-50.91 6 -26.82 6 -2 6 C-2 5.34 -2 4.68 -2 4 C-1.01 4 -0.02 4 1 4 C0.505 2.02 0.505 2.02 0 0 Z " fill="#BEBEBE" transform="translate(89,82)"/>
<path d="M0 0 C0.99 0 1.98 0 3 0 C3 8.58 3 17.16 3 26 C2.01 26 1.02 26 0 26 C0 17.42 0 8.84 0 0 Z " fill="#A7A7A7" transform="translate(21,44)"/>
<path d="M0 0 C13.2 0 26.4 0 40 0 C39.34 1.32 38.68 2.64 38 4 C38 3.01 38 2.02 38 1 C26.12 1 14.24 1 2 1 C1.67 2.65 1.34 4.3 1 6 C-5.27 6 -11.54 6 -18 6 C-17.67 5.01 -17.34 4.02 -17 3 C-16.34 3 -15.68 3 -15 3 C-15 3.66 -15 4.32 -15 5 C-10.05 5 -5.1 5 0 5 C0 3.35 0 1.7 0 0 Z " fill="#8D8D8D" transform="translate(28,33)"/>
<path d="M0 0 C0.8353125 0.433125 0.8353125 0.433125 1.6875 0.875 C4.08494645 2.0413253 6.51596939 3.0339881 9 4 C9 5.65 9 7.3 9 9 C4.545 9.495 4.545 9.495 0 10 C0 9.34 0 8.68 0 8 C-3.96 8 -7.92 8 -12 8 C-12 7.67 -12 7.34 -12 7 C-6.06 6.505 -6.06 6.505 0 6 C0 4.02 0 2.04 0 0 Z " fill="#BBBBBB" transform="translate(80,21)"/>
<path d="M0 0 C1.4323356 2.8646712 0.57861549 4.91405073 0 8 C0 8.66 0 9.32 0 10 C3.63 10.33 7.26 10.66 11 11 C8.72204978 13.27795022 7.06212707 14.05219877 4 15 C0.99941982 14.63629331 -1.32670748 13.35609849 -4 12 C-4.22893297 8.96663814 -4.36475845 6.02534949 -4 3 C-2 0.9375 -2 0.9375 0 0 Z " fill="#919191" transform="translate(7,21)"/>
<path d="M0 0 C0.5534764 2.07553648 1 3.84365964 1 6 C-9.56 6 -20.12 6 -31 6 C-30.67 5.34 -30.34 4.68 -30 4 C-20.76 4 -11.52 4 -2 4 C-1.34 2.68 -0.68 1.36 0 0 Z " fill="#B3B3B3" transform="translate(89,80)"/>
<path d="M0 0 C0.66 0.66 1.32 1.32 2 2 C1.34 3.32 0.68 4.64 0 6 C-0.639375 5.835 -1.27875 5.67 -1.9375 5.5 C-5.97586652 4.84067485 -9.91807258 4.91996221 -14 5 C-13.67 4.34 -13.34 3.68 -13 3 C-14.32 2.34 -15.64 1.68 -17 1 C-14.20880221 0.77885585 -11.4178788 0.57256699 -8.625 0.375 C-7.43390625 0.27832031 -7.43390625 0.27832031 -6.21875 0.1796875 C-4.14971776 0.03941413 -2.07374464 0.01241763 0 0 Z " fill="#939393" transform="translate(84,37)"/>
<path d="M0 0 C6.6 0 13.2 0 20 0 C20 0.99 20 1.98 20 3 C13.4 3 6.8 3 0 3 C0 2.01 0 1.02 0 0 Z " fill="#AFAFAF" transform="translate(67,35)"/>
<path d="M0 0 C0.66 0 1.32 0 2 0 C2.33 0.99 2.66 1.98 3 3 C3.66 2.01 4.32 1.02 5 0 C5.99 0.33 6.98 0.66 8 1 C7.67 1.33 7.34 1.66 7 2 C7.1018371 3.91424457 7.1018371 3.91424457 7.4375 6.0625 C7.623125 7.361875 7.80875 8.66125 8 10 C5 10 5 10 3.3125 8.5 C2.879375 8.005 2.44625 7.51 2 7 C2 7.99 2 8.98 2 10 C1.34 10 0.68 10 0 10 C0 6.7 0 3.4 0 0 Z " fill="#B2B2B2" transform="translate(59,43)"/>
<path d="M0 0 C1.98 0.99 1.98 0.99 4 2 C4.33 2.99 4.66 3.98 5 5 C5.33 3.35 5.66 1.7 6 0 C6.66 0 7.32 0 8 0 C8 3.3 8 6.6 8 10 C4 9 4 9 2.75 6.9375 C2.37875 5.9784375 2.37875 5.9784375 2 5 C1.67 6.65 1.34 8.3 1 10 C0.67 10 0.34 10 0 10 C0 6.7 0 3.4 0 0 Z " fill="#ACACAC" transform="translate(49,43)"/>
<path d="M0 0 C-0.33 1.32 -0.66 2.64 -1 4 C-1.99 4 -2.98 4 -4 4 C-4 4.66 -4 5.32 -4 6 C-5.96466413 7.06775224 -7.96855359 8.06553465 -10 9 C-10.66 8.67 -11.32 8.34 -12 8 C-11.7421875 6.140625 -11.7421875 6.140625 -11 4 C-9.2578125 2.734375 -9.2578125 2.734375 -7.125 1.75 C-6.42632812 1.41484375 -5.72765625 1.0796875 -5.0078125 0.734375 C-3 0 -3 0 0 0 Z " fill="#C3C3C3" transform="translate(34,9)"/>
<path d="M0 0 C-0.33 0.99 -0.66 1.98 -1 3 C-5.29 3 -9.58 3 -14 3 C-13.67 2.01 -13.34 1.02 -13 0 C-11.39679026 -0.19551338 -9.79237014 -0.38111983 -8.1875 -0.5625 C-7.29417969 -0.66691406 -6.40085937 -0.77132812 -5.48046875 -0.87890625 C-3 -1 -3 -1 0 0 Z " fill="#A9A8A9" transform="translate(29,76)"/>
<path d="M0 0 C0.33 0.66 0.66 1.32 1 2 C4.63 2 8.26 2 12 2 C12.33 2.99 12.66 3.98 13 5 C8.71 5 4.42 5 0 5 C0 3.35 0 1.7 0 0 Z " fill="#757575" transform="translate(11,70)"/>
<path d="M0 0 C0.33 0 0.66 0 1 0 C1 2.31 1 4.62 1 7 C-4.625 10 -4.625 10 -8 10 C-8 9.34 -8 8.68 -8 8 C-8.66 7.67 -9.32 7.34 -10 7 C-9.13375 6.814375 -9.13375 6.814375 -8.25 6.625 C-4.81582795 5.67106332 -2.6093677 5.03592509 -0.75 1.875 C-0.5025 1.25625 -0.255 0.6375 0 0 Z " fill="#8A8A8A" transform="translate(92,26)"/>
<path d="M0 0 C1.32 0.33 2.64 0.66 4 1 C3.01 1.495 3.01 1.495 2 2 C2 3.98 2 5.96 2 8 C2.66 8 3.32 8 4 8 C4.33 5.69 4.66 3.38 5 1 C5.66 1 6.32 1 7 1 C7.09765625 7.15234375 7.09765625 7.15234375 7 9 C6 10 6 10 2.9375 10.0625 C1.968125 10.041875 0.99875 10.02125 0 10 C0 6.7 0 3.4 0 0 Z " fill="#B1B1B1" transform="translate(30,43)"/>
<path d="M0 0 C1.98 0 3.96 0 6 0 C5.67 2.97 5.34 5.94 5 9 C3.68 9 2.36 9 1 9 C0.95745644 7.00045254 0.95919217 4.99958364 1 3 C1.33 2.67 1.66 2.34 2 2 C1.34 1.34 0.68 0.68 0 0 Z " fill="#969696" transform="translate(30,42)"/>
<path d="M0 0 C0.639375 0.165 1.27875 0.33 1.9375 0.5 C5.97586652 1.15932515 9.91807258 1.08003779 14 1 C13.67 2.32 13.34 3.64 13 5 C12.34 4.67 11.68 4.34 11 4 C8.9907774 4 6.98098092 4.00243795 4.97265625 4.0625 C3 4 3 4 0 3 C0 2.01 0 1.02 0 0 Z " fill="#909090" transform="translate(12,69)"/>
<path d="M0 0 C3.3 1.65 6.6 3.3 10 5 C9.34 5.66 8.68 6.32 8 7 C4.55834679 6.64700993 2.93127462 5.95418308 0 4 C0 2.68 0 1.36 0 0 Z " fill="#A6A6A6" transform="translate(80,17)"/>
<path d="M0 0 C0.66 0 1.32 0 2 0 C1.67 1.98 1.34 3.96 1 6 C-5.27 6 -11.54 6 -18 6 C-17.67 5.01 -17.34 4.02 -17 3 C-16.34 3 -15.68 3 -15 3 C-15 3.66 -15 4.32 -15 5 C-10.05 5 -5.1 5 0 5 C0 3.35 0 1.7 0 0 Z " fill="#999999" transform="translate(28,33)"/>
<path d="M0 0 C3.37462715 0.54723683 5.08235 1.0549 8 3 C8 4.32 8 5.64 8 7 C6.02 6.34 4.04 5.68 2 5 C2 4.34 2 3.68 2 3 C1.01 2.67 0.02 2.34 -1 2 C-0.67 1.34 -0.34 0.68 0 0 Z " fill="#BABABA" transform="translate(72,14)"/>
<path d="M0 0 C0.33 1.32 0.66 2.64 1 4 C-5.93 4 -12.86 4 -20 4 C-20 3.01 -20 2.02 -20 1 C-19.01 1.33 -18.02 1.66 -17 2 C-14.26710707 2.22797562 -11.54957796 2.41668187 -8.8125 2.5625 C-8.06291016 2.60568359 -7.31332031 2.64886719 -6.54101562 2.69335938 C-4.69421625 2.79922685 -2.84713166 2.9000976 -1 3 C-0.67 2.01 -0.34 1.02 0 0 Z " fill="#8F8F8F" transform="translate(29,76)"/>
<path d="M0 0 C0.33 0 0.66 0 1 0 C1 1.65 1 3.3 1 5 C-2.42689636 6.14229879 -4.61102218 5.90861076 -8.1875 5.5625 C-9.81751953 5.40974609 -9.81751953 5.40974609 -11.48046875 5.25390625 C-12.31191406 5.17011719 -13.14335938 5.08632812 -14 5 C-14 4.67 -14 4.34 -14 4 C-11.03 4 -8.06 4 -5 4 C-5 3.34 -5 2.68 -5 2 C-3.35 2 -1.7 2 0 2 C0 1.34 0 0.68 0 0 Z " fill="#767676" transform="translate(84,70)"/>
<path d="M0 0 C0.66 0 1.32 0 2 0 C2 0.66 2 1.32 2 2 C2.598125 2.12375 3.19625 2.2475 3.8125 2.375 C6 3 6 3 9 5 C9 5.66 9 6.32 9 7 C5.27566618 5.7874262 1.62197194 4.49140021 -2 3 C-1.34 2.01 -0.68 1.02 0 0 Z " fill="#D0D0D0" transform="translate(72,17)"/>
<path d="M0 0 C-0.3125 1.875 -0.3125 1.875 -1 4 C-4 6 -4 6 -7 6 C-6.75 4.125 -6.75 4.125 -6 2 C-3.85331506 0.61504198 -2.56128588 0 0 0 Z " fill="#B8B8B8" transform="translate(23,14)"/>
<path d="M0 0 C0 0.99 0 1.98 0 3 C0.54453731 6.03385072 1.22658726 9.01683656 2 12 C0.68 11.67 -0.64 11.34 -2 11 C-2.05399736 9.54207116 -2.09279177 8.08357288 -2.125 6.625 C-2.15980469 5.40683594 -2.15980469 5.40683594 -2.1953125 4.1640625 C-2 2 -2 2 0 0 Z " fill="#878787" transform="translate(5,22)"/>
<path d="M0 0 C0.33 0 0.66 0 1 0 C1 1.65 1 3.3 1 5 C-3.455 5.495 -3.455 5.495 -8 6 C-5.76019711 2.64029566 -4.65777032 2.31304575 -1 1 C-0.67 0.67 -0.34 0.34 0 0 Z " fill="#909090" transform="translate(83,67)"/>
<path d="M0 0 C0.99 0.33 1.98 0.66 3 1 C2.67 1.33 2.34 1.66 2 2 C2.1018371 3.91424457 2.1018371 3.91424457 2.4375 6.0625 C2.623125 7.361875 2.80875 8.66125 3 10 C2.01 10 1.02 10 0 10 C-1.125 6.6875 -1.125 6.6875 -2 3 C-1.34 2.01 -0.68 1.02 0 0 Z " fill="#A5A5A5" transform="translate(64,43)"/>
<path d="M0 0 C3.63 0.33 7.26 0.66 11 1 C8.62216162 3.37783838 7.27926335 3.59009208 4 4 C3.34 3.67 2.68 3.34 2 3 C2 2.34 2 1.68 2 1 C1.34 0.67 0.68 0.34 0 0 Z " fill="#9A9A9A" transform="translate(7,31)"/>
<path d="M0 0 C-0.33 1.32 -0.66 2.64 -1 4 C-3.31 3.67 -5.62 3.34 -8 3 C-8 2.34 -8 1.68 -8 1 C-5.07175348 0.02391783 -3.04386724 -0.08226668 0 0 Z " fill="#6C6C6C" transform="translate(85,39)"/>
<path d="M0 0 C0.99 0.66 1.98 1.32 3 2 C2.34 3.98 1.68 5.96 1 8 C-0.20628008 5.66785852 -1.1654738 3.50357861 -2 1 C-1.34 0.67 -0.68 0.34 0 0 Z " fill="#979797" transform="translate(90,22)"/>
<path d="M0 0 C0.99 0.33 1.98 0.66 3 1 C3 1.99 3 2.98 3 4 C2.34 4 1.68 4 1 4 C1 5.98 1 7.96 1 10 C0.67 10 0.34 10 0 10 C0 6.7 0 3.4 0 0 Z " fill="#B3B3B3" transform="translate(49,43)"/>
<path d="M0 0 C1.98 0 3.96 0 6 0 C5.67 1.65 5.34 3.3 5 5 C4.01 5 3.02 5 2 5 C2 4.01 2 3.02 2 2 C1.34 1.34 0.68 0.68 0 0 Z " fill="#8B8B8B" transform="translate(30,42)"/>
<path d="M0 0 C0.928125 0.515625 1.85625 1.03125 2.8125 1.5625 C2.8125 1.8925 2.8125 2.2225 2.8125 2.5625 C-0.33374993 2.82468749 -1.80587017 2.81004367 -4.5 1.0625 C-5.056875 0.5675 -5.61375 0.0725 -6.1875 -0.4375 C-3.1875 -1.4375 -3.1875 -1.4375 0 0 Z " fill="#D6D6D6" transform="translate(70.1875,16.4375)"/>
</svg>
