<?xml version="1.0" encoding="UTF-8"?>
<svg version="1.1" xmlns="http://www.w3.org/2000/svg" width="97" height="96">
<path d="M0 0 C32.01 0 64.02 0 97 0 C97 31.68 97 63.36 97 96 C64.99 96 32.98 96 0 96 C0 64.32 0 32.64 0 0 Z " fill="#F6F0ED" transform="translate(0,0)"/>
<path d="M0 0 C32.01 0 64.02 0 97 0 C97 31.68 97 63.36 97 96 C64.99 96 32.98 96 0 96 C0 64.32 0 32.64 0 0 Z M22 3 C22 20.82 22 38.64 22 57 C20.35 57.66 18.7 58.32 17 59 C13.84012276 61.93645158 11.19617318 65.1783919 10.7265625 69.5390625 C10.48889679 76.76044362 11.15494775 81.49048344 16 87 C20.65069721 91.24034157 25.22082031 91.27453714 31.265625 91.2265625 C35.82232641 90.84900724 38.81584571 89.18415429 42 86 C43.98684692 85.7215271 43.98684692 85.7215271 46.44970703 85.68115234 C47.38339111 85.66109131 48.3170752 85.64103027 49.27905273 85.62036133 C50.26204346 85.60900146 51.24503418 85.5976416 52.2578125 85.5859375 C53.16007568 85.56829346 54.06233887 85.55064941 54.99194336 85.5324707 C58.36944604 85.4693001 61.74725029 85.42318506 65.125 85.375 C72.67375 85.25125 80.2225 85.1275 88 85 C88 57.94 88 30.88 88 3 C66.22 3 44.44 3 22 3 Z " fill="#FEFEFE" transform="translate(0,0)"/>
<path d="M0 0 C5.63935449 2.34637428 9.48500458 6.10030941 13 11 C14.7914557 16.37436709 14.71176628 21.06794566 12.375 26.1875 C9.71781367 30.99123898 6.28700659 34.23766447 1 36 C-5.22902738 36.50849203 -10.72027152 36.73444209 -16 33 C-21.39739834 27.15281846 -22.45947387 22.75416799 -22.31640625 14.9140625 C-21.75033922 9.70065501 -19.26377537 7.13739783 -15.5 3.75 C-10.33859213 0.13701449 -6.27853092 -1.00167352 0 0 Z " fill="#FA7C44" transform="translate(33,55)"/>
<path d="M0 0 C1.98 0 3.96 0 6 0 C6 26.73 6 53.46 6 81 C4.02 81 2.04 81 0 81 C-0.495 74.07 -0.495 74.07 -1 67 C-2.2375 67.99 -2.2375 67.99 -3.5 69 C-7.46147982 71.62847002 -10.31734962 71.60421295 -15 71 C-17.66294837 69.36126254 -18.61902495 68.10529798 -19.6328125 65.1640625 C-20.25901785 62.19243349 -20.41330916 59.9795427 -19.21875 57.1484375 C-17.57148838 54.79997668 -15.86539529 53.22636094 -13.05859375 52.4921875 C-9.23090041 52.27429224 -7.34480288 52.77991305 -4.0625 54.875 C-2 57 -2 57 -1 59 C-0.67 39.53 -0.34 20.06 0 0 Z " fill="#F3E9E6" transform="translate(82,3)"/>
<path d="M0 0 C4.62930592 -0.37034447 8.02682024 -0.48658988 12.25 1.625 C17.3346012 6.01624649 20.7231244 9.73286791 21.3125 16.6875 C21.22229082 22.14014398 19.25647179 26.61980521 15.50390625 30.578125 C11.52030086 34.03521896 8.48787826 35.13750548 3.3125 35.0625 C2.10013672 35.04896484 2.10013672 35.04896484 0.86328125 35.03515625 C0.24839844 35.02355469 -0.36648437 35.01195312 -1 35 C-0.01 34.34 0.98 33.68 2 33 C4.03135683 31.36898357 6.00931873 29.68101974 8 28 C7.34 25.69 6.68 23.38 6 21 C3.65466049 20.23043864 3.65466049 20.23043864 1 20 C-1.53844009 21.81317149 -1.99489025 22.98467075 -3 26 C-3.99 26 -4.98 26 -6 26 C-5.52238806 20.62686567 -5.52238806 20.62686567 -3.4375 18.125 C-0.00769483 16.542013 3.28741068 16.2603826 7 17 C8.32 17.99 9.64 18.98 11 20 C10.505 15.05 10.505 15.05 10 10 C9.01 11.485 9.01 11.485 8 13 C7.34 13 6.68 13 6 13 C6 11.35 6 9.7 6 8 C6.66 7.67 7.32 7.34 8 7 C5.42215154 4.35247996 3.08351902 2.05567935 0 0 Z " fill="#F86A34" transform="translate(26,56)"/>
<path d="M0 0 C0.99 0 1.98 0 3 0 C5.11968973 2.49002633 6.62144416 5.42072925 8.25 8.25 C8.72179687 9.02730469 9.19359375 9.80460937 9.6796875 10.60546875 C10.12054688 11.35957031 10.56140625 12.11367188 11.015625 12.890625 C11.42071289 13.58188477 11.82580078 14.27314453 12.24316406 14.98535156 C13.16212067 17.43155476 12.91693404 18.58831999 12 21 C9.69990227 23.30009773 4.15209334 22.18537365 1.0625 22.1875 C0.12986328 22.19974609 -0.80277344 22.21199219 -1.76367188 22.22460938 C-2.65505859 22.22654297 -3.54644531 22.22847656 -4.46484375 22.23046875 C-5.285896 22.23457764 -6.10694824 22.23868652 -6.95288086 22.24291992 C-9 22 -9 22 -11 20 C-10.73489583 15.46109519 -8.45072723 12.04489761 -6.0625 8.3125 C-5.70220703 7.73177734 -5.34191406 7.15105469 -4.97070312 6.55273438 C-3.45692034 4.14127562 -2.01950571 2.01950571 0 0 Z " fill="#DEB87B" transform="translate(65,9)"/>
<path d="M0 0 C3.0216321 0.73251687 4.80104733 2.27158096 6.93359375 4.46875 C8.36021594 7.32199437 8.24393243 9.30329549 7.93359375 12.46875 C6.13365601 15.16865662 4.84982075 17.0106365 1.93359375 18.46875 C-5.13949003 19.03915998 -5.13949003 19.03915998 -8.50390625 16.96875 C-10.66547824 13.51023482 -11.50446702 10.5521022 -11.06640625 6.46875 C-8.89990229 1.33413562 -5.34615332 -0.404246 0 0 Z " fill="#FE824B" transform="translate(73.06640625,55.53125)"/>
<path d="M0 0 C15.18 0 30.36 0 46 0 C46 0.99 46 1.98 46 3 C30.82 3 15.64 3 0 3 C0 2.01 0 1.02 0 0 Z " fill="#BFB2B1" transform="translate(32,37)"/>
<path d="M0 0 C0.99 0 1.98 0 3 0 C5.11968973 2.49002633 6.62144416 5.42072925 8.25 8.25 C8.72179687 9.02730469 9.19359375 9.80460937 9.6796875 10.60546875 C10.12054688 11.35957031 10.56140625 12.11367188 11.015625 12.890625 C11.42071289 13.58188477 11.82580078 14.27314453 12.24316406 14.98535156 C13.15421524 17.41051101 12.85946784 18.59913912 12 21 C10.02 21 8.04 21 6 21 C5.87625 20.071875 5.7525 19.14375 5.625 18.1875 C5.18466918 14.86074765 5.18466918 14.86074765 3 12 C2.60986284 10.0103005 2.26797351 8.00980131 2 6 C1.01 5.67 0.02 5.34 -1 5 C-0.67 3.35 -0.34 1.7 0 0 Z " fill="#CB9F5C" transform="translate(65,9)"/>
<path d="M0 0 C3.83473284 -0.35671933 5.55342875 -0.29771416 8.8125 1.875 C11.39266816 4.38144907 11.91717964 5.25461673 12.3125 8.8125 C11.92835642 12.7307645 10.70743683 14.21293267 8 17 C5.29120665 18.35439668 2.99066732 18.06501451 0 18 C1.28965176 16.62437146 2.62689293 15.29233607 4 14 C4.66 14 5.32 14 6 14 C5.814375 13.071875 5.62875 12.14375 5.4375 11.1875 C5 8 5 8 6 5 C5.38125 4.731875 4.7625 4.46375 4.125 4.1875 C2 3 2 3 0 0 Z " fill="#FD713A" transform="translate(69,56)"/>
<path d="M0 0 C8.58 0 17.16 0 26 0 C25.67 0.99 25.34 1.98 25 3 C21.77294032 3.28525503 18.54406186 3.52188975 15.3125 3.75 C14.40048828 3.83121094 13.48847656 3.91242187 12.54882812 3.99609375 C11.66259766 4.05410156 10.77636719 4.11210938 9.86328125 4.171875 C8.64572144 4.2661377 8.64572144 4.2661377 7.40356445 4.36230469 C5 4 5 4 0 0 Z " fill="#C4B6B4" transform="translate(35,56)"/>
<path d="M0 0 C7.26 0 14.52 0 22 0 C22 0.99 22 1.98 22 3 C14.41 3 6.82 3 -1 3 C-0.67 2.01 -0.34 1.02 0 0 Z " fill="#BCAFAF" transform="translate(33,13)"/>
<path d="M0 0 C2.5 2.25 2.5 2.25 4 5 C4 6.32 4 7.64 4 9 C3.01 9 2.02 9 1 9 C0.6596875 7.7934375 0.6596875 7.7934375 0.3125 6.5625 C-0.75624123 3.79130224 -0.75624123 3.79130224 -3.4375 3 C-6.01089822 2.75176285 -6.01089822 2.75176285 -7.75 4.25 C-9.19299384 6.08883843 -9.19299384 6.08883843 -10 9 C-10.99 9 -11.98 9 -13 9 C-12.52238806 3.62686567 -12.52238806 3.62686567 -10.4375 1.125 C-6.92582716 -0.49577208 -3.7926648 -0.83936024 0 0 Z " fill="#934430" transform="translate(33,73)"/>
<path d="M0 0 C5.94 0 11.88 0 18 0 C18 0.99 18 1.98 18 3 C11.73 3 5.46 3 -1 3 C-0.67 2.01 -0.34 1.02 0 0 Z " fill="#BDB0B0" transform="translate(33,21)"/>
<path d="M0 0 C5.28 0 10.56 0 16 0 C16 0.99 16 1.98 16 3 C10.72 3 5.44 3 0 3 C0 2.01 0 1.02 0 0 Z " fill="#BFB3B2" transform="translate(32,29)"/>
<path d="M0 0 C0.598125 0.185625 1.19625 0.37125 1.8125 0.5625 C4.16408762 1.22093687 4.16408762 1.22093687 7 0 C7 2.64 7 5.28 7 8 C6.4225 7.814375 5.845 7.62875 5.25 7.4375 C2.79307475 6.95976454 1.35602466 7.24270636 -1 8 C-0.835 7.236875 -0.67 6.47375 -0.5 5.6875 C0.09145396 2.96403764 0.09145396 2.96403764 0 0 Z " fill="#FEF5F0" transform="translate(68,61)"/>
<path d="M0 0 C4.62 0 9.24 0 14 0 C13.67 0.99 13.34 1.98 13 3 C8.71 3 4.42 3 0 3 C0 2.01 0 1.02 0 0 Z " fill="#C3B7B7" transform="translate(47,72)"/>
<path d="M0 0 C2.31 0 4.62 0 7 0 C6.67 0.99 6.34 1.98 6 3 C4.02 3 2.04 3 0 3 C0 2.01 0 1.02 0 0 Z " fill="#C6BAB9" transform="translate(41,48)"/>
<path d="M0 0 C2.31 0 4.62 0 7 0 C6.67 0.99 6.34 1.98 6 3 C4.35 3 2.7 3 1 3 C0.67 2.01 0.34 1.02 0 0 Z " fill="#C3B7B7" transform="translate(32,48)"/>
</svg>
