<svg width="12" height="16" viewBox="0 0 12 16" fill="none" xmlns="http://www.w3.org/2000/svg">
<path d="M2.25 14.75L4.5 11.75M9 14.75L7.5 11.75L5.25 9.5L6 5M6 2C6 2.19891 6.07902 2.38968 6.21967 2.53033C6.36032 2.67098 6.55109 2.75 6.75 2.75C6.94891 2.75 7.13968 2.67098 7.28033 2.53033C7.42098 2.38968 7.5 2.19891 7.5 2C7.5 1.80109 7.42098 1.61032 7.28033 1.46967C7.13968 1.32902 6.94891 1.25 6.75 1.25C6.55109 1.25 6.36032 1.32902 6.21967 1.46967C6.07902 1.61032 6 1.80109 6 2Z" stroke="#808080" stroke-width="2" stroke-linecap="round" stroke-linejoin="round"/>
<path d="M1.5 8L3 5.75L6 5L8.25 7.25L10.5 8" stroke="#808080" stroke-width="2" stroke-linecap="round" stroke-linejoin="round"/>
</svg>
