<svg width="32" height="32" viewBox="0 0 32 32" fill="none" xmlns="http://www.w3.org/2000/svg">
<g id="Headset-Mic">
<path id="Vector" d="M6.24706 24.3867H9.74039C11.0204 24.3867 12.0737 23.3334 12.0737 22.0534V16.0801C12.0737 14.8001 11.0204 13.7467 9.74039 13.7467H5.95373C6.46039 8.64008 10.7671 4.65341 16.0071 4.65341C21.2471 4.65341 25.5537 8.65341 26.0604 13.7467H22.2737C20.9937 13.7467 19.9404 14.8001 19.9404 16.0801V22.0534C19.9404 23.3334 20.9937 24.3867 22.2737 24.3867H25.7671C25.8737 24.3867 25.9937 24.3734 26.1004 24.3601C26.0871 26.0001 24.7404 27.3334 23.1004 27.3334H16.0071C15.4604 27.3334 15.0071 27.7867 15.0071 28.3334C15.0071 28.8801 15.4604 29.3334 16.0071 29.3334H23.1004C25.8604 29.3334 28.1004 27.0934 28.1004 24.3334V14.7601C28.1004 8.09341 22.6737 2.66675 16.0071 2.66675C9.34039 2.66675 3.90039 8.09341 3.90039 14.7601V22.0667C3.90039 23.3467 4.95372 24.4001 6.23372 24.4001L6.24706 24.3867ZM26.1137 20.9201V22.0534C26.1137 22.2401 25.9671 22.3867 25.7804 22.3867H22.2871C22.1004 22.3867 21.9537 22.2401 21.9537 22.0534V16.0801C21.9537 15.8934 22.1004 15.7467 22.2871 15.7467H26.1271V20.9201H26.1137ZM5.91373 15.7467H9.75372C9.94039 15.7467 10.0871 15.8934 10.0871 16.0801V22.0534C10.0871 22.2401 9.94039 22.3867 9.75372 22.3867H6.26039C6.07372 22.3867 5.92706 22.2401 5.92706 22.0534V15.7467H5.91373Z" fill="white"/>
</g>
</svg>
