<svg width="64" height="64" viewBox="0 0 64 64" fill="none" xmlns="http://www.w3.org/2000/svg">
<path d="M14.2051 35.9011C14.2051 39.4288 16.5921 42.4918 20.0036 43.379C21.9047 43.8649 24.2706 44.319 27.0907 44.5619" stroke="#30150D" stroke-width="1.34" stroke-miterlimit="10"/>
<path d="M31.2639 41.647H26.7751C25.5326 41.647 24.5254 42.6542 24.5254 43.8967C24.5254 45.1391 25.5326 46.1464 26.7751 46.1464H31.2639C32.5064 46.1464 33.5136 45.1391 33.5136 43.8967C33.5136 42.6542 32.5064 41.647 31.2639 41.647Z" fill="#30150D"/>
<path d="M29.0773 5.33496C20.3426 5.33496 13.2344 12.4432 13.2344 21.1779V26.818H15.1778V21.1779C15.1778 13.5205 21.4093 7.28893 29.0668 7.28893C36.7242 7.28893 42.9663 13.5205 42.9663 21.1779V27.5256H44.9097V21.1779C44.9097 12.4432 37.8015 5.33496 29.0668 5.33496H29.0773Z" fill="#DE704D"/>
<path d="M40.4316 20.9351H42.2272C46.6843 20.9351 50.3071 24.5578 50.3071 29.0149V29.2473C50.3071 33.7045 46.6843 37.3272 42.2272 37.3272H40.4316V20.9351Z" fill="#EAA790"/>
<path d="M39.1437 20.1641H38.2671C37.5554 20.1641 36.9785 20.741 36.9785 21.4526V36.8202C36.9785 37.5319 37.5554 38.1088 38.2671 38.1088H39.1437C39.8554 38.1088 40.4323 37.5319 40.4323 36.8202V21.4526C40.4323 20.741 39.8554 20.1641 39.1437 20.1641Z" fill="#A14A33"/>
<path d="M17.7227 37.3274H15.9271C11.47 37.3274 7.84726 33.7046 7.84726 29.2475V29.0151C7.84726 24.558 11.47 20.9353 15.9271 20.9353H17.7227L17.7227 37.3274Z" fill="#EAA790"/>
<path d="M19.0125 38.0984H19.8892C20.6008 38.0984 21.1777 37.5215 21.1777 36.8098L21.1777 21.4422C21.1777 20.7306 20.6008 20.1536 19.8892 20.1536H19.0125C18.3009 20.1536 17.724 20.7306 17.724 21.4422L17.724 36.8098C17.724 37.5215 18.3009 38.0984 19.0125 38.0984Z" fill="#A14A33"/>
<path d="M44.4449 58.0389C48.7965 59.8028 53.7606 57.7115 55.5244 53.36C57.2883 49.0085 55.197 44.0444 50.8455 42.2805C46.494 40.5167 41.7199 42.534 39.8716 46.7271L34.5801 44.583C34.5801 44.583 36.2594 53.1804 42.5543 57.0039V56.9827C43.1247 57.4052 43.7584 57.7749 44.4344 58.0495L44.4449 58.0389Z" fill="#F4C050"/>
<path d="M44.4034 51.4168C45.0975 51.4168 45.6602 50.8541 45.6602 50.16C45.6602 49.4658 45.0975 48.9031 44.4034 48.9031C43.7092 48.9031 43.1465 49.4658 43.1465 50.16C43.1465 50.8541 43.7092 51.4168 44.4034 51.4168Z" fill="white"/>
<path d="M48.1416 51.4168C48.8358 51.4168 49.3985 50.8541 49.3985 50.16C49.3985 49.4658 48.8358 48.9031 48.1416 48.9031C47.4475 48.9031 46.8848 49.4658 46.8848 50.16C46.8848 50.8541 47.4475 51.4168 48.1416 51.4168Z" fill="white"/>
<path d="M51.8819 51.4168C52.576 51.4168 53.1387 50.8541 53.1387 50.16C53.1387 49.4658 52.576 48.9031 51.8819 48.9031C51.1877 48.9031 50.625 49.4658 50.625 50.16C50.625 50.8541 51.1877 51.4168 51.8819 51.4168Z" fill="white"/>
</svg>
