<svg width="54" height="54" viewBox="0 0 54 54" fill="none" xmlns="http://www.w3.org/2000/svg">
<path d="M25.4395 0.79752L1.80954 16.2175C0.99954 16.7475 0.519531 17.6375 0.519531 18.6075V22.5175L26.9995 38.5875L53.4795 22.5175V18.6075C53.4795 17.6475 52.9895 16.7475 52.1895 16.2175L28.5595 0.79752C27.6095 0.17752 26.3895 0.17752 25.4395 0.79752Z" fill="#913E27"/>
<path d="M49.2093 17.3176H4.7793V45.8676H49.2093V17.3176Z" fill="white"/>
<path d="M41.3099 22.2175H13.6699V23.6075H41.3099V22.2175Z" fill="#FFCA39"/>
<path d="M41.3099 26.4976H13.6699V27.8875H41.3099V26.4976Z" fill="#FFCA39"/>
<path d="M41.3099 30.7876H13.6699V32.1776H41.3099V30.7876Z" fill="#FFCA39"/>
<path d="M26.9995 37.5876L0.519531 21.5176V53.6676H53.4795V21.5176L26.9995 37.5876Z" fill="#F7A48D"/>
<path d="M31.4688 34.8777L53.4787 53.6676V52.3876L32.7787 34.0776L31.4688 34.8777Z" fill="#913E27"/>
<path d="M22.5295 34.8777L0.519531 53.6676V52.3876L21.2195 34.0776L22.5295 34.8777Z" fill="#913E27"/>
</svg>
