<svg width="12" height="13" viewBox="0 0 12 13" fill="none" xmlns="http://www.w3.org/2000/svg">
<path d="M3.43017 6.68557C3.96803 7.75695 4.86619 8.62107 5.9783 9.13712C6.06033 9.17459 6.15106 9.19081 6.24157 9.18418C6.33207 9.17755 6.41923 9.1483 6.49445 9.09931L8.12787 8.04684C8.20003 7.99963 8.28343 7.97082 8.37026 7.96311C8.45709 7.95539 8.54453 7.96902 8.62443 8.00273L11.6822 9.26947C11.7867 9.31143 11.874 9.38535 11.9307 9.47987C11.9873 9.57439 12.0102 9.68426 11.9958 9.79255C11.8989 10.5222 11.5297 11.1928 10.9572 11.6788C10.3848 12.1648 9.64838 12.433 8.88577 12.4332C6.52912 12.4332 4.26899 11.5302 2.60258 9.92279C0.936177 8.31542 0 6.13535 0 3.86218C0.000171877 3.12659 0.278212 2.41626 0.782095 1.8641C1.28598 1.31195 1.98117 0.955816 2.7376 0.862334C2.84988 0.848423 2.96378 0.870498 3.06177 0.925159C3.15976 0.97982 3.2364 1.06404 3.2799 1.16484L4.59316 4.12057C4.62731 4.19642 4.6416 4.2792 4.63476 4.36163C4.62793 4.44405 4.60018 4.52359 4.55396 4.59324L3.46284 6.194C3.41426 6.2664 3.38575 6.34961 3.38003 6.43567C3.37431 6.52174 3.39157 6.60778 3.43017 6.68557Z" fill="#333333"/>
</svg>
