<?xml version="1.0" encoding="UTF-8"?>
<svg version="1.1" xmlns="http://www.w3.org/2000/svg" width="406" height="120">
<path d="M0 0 C133.98 0 267.96 0 406 0 C406 39.6 406 79.2 406 120 C272.02 120 138.04 120 0 120 C0 80.4 0 40.8 0 0 Z " fill="#030303" transform="translate(0,0)"/>
<path d="M0 0 C133.98 0 267.96 0 406 0 C406 39.6 406 79.2 406 120 C272.02 120 138.04 120 0 120 C0 80.4 0 40.8 0 0 Z M8 6 C4.50024699 10.88099795 4.57088436 15.52799224 4.61181641 21.30664062 C4.60655945 22.22446823 4.60130249 23.14229584 4.59588623 24.0879364 C4.58272164 27.11088257 4.59141188 30.13329881 4.6015625 33.15625 C4.59954075 35.26322531 4.59662847 37.37019993 4.59286499 39.47717285 C4.58844643 43.8886584 4.59485775 48.29996147 4.60888672 52.71142578 C4.62597819 58.36066463 4.61613452 64.00947587 4.59816933 69.65869904 C4.58731894 74.00819103 4.59078363 78.35758196 4.5985527 82.70707703 C4.60055123 84.78985139 4.59810766 86.87263498 4.59111404 88.95539856 C4.58347905 91.86829874 4.59513274 94.78051035 4.61181641 97.69335938 C4.60270737 98.97934273 4.60270737 98.97934273 4.59341431 100.29130554 C4.64611674 105.26858021 5.24679494 108.68670533 8 113 C12.60194775 117.15297723 15.0466302 118.12471059 21.17955399 118.13422108 C21.82333447 118.13657331 22.46711495 118.13892554 23.13040394 118.14134905 C25.30840849 118.14805696 27.48635364 118.14758029 29.66436768 118.14717102 C31.2333675 118.15046853 32.80236647 118.15419386 34.37136436 118.1583125 C38.69926288 118.16835345 43.02714753 118.17205265 47.35505605 118.17470181 C52.01639858 118.17859866 56.67773006 118.18817741 61.33906555 118.19691467 C72.60420704 118.2166965 83.86934944 118.22674741 95.13450396 118.23564246 C100.43549256 118.2400225 105.73648015 118.24539004 111.03746796 118.25063133 C128.65233783 118.26764523 146.26720707 118.28214035 163.88208389 118.28938007 C168.4554062 118.29129006 173.0287285 118.29321038 177.60205078 118.29516602 C178.73877014 118.29564976 179.87548951 118.2961335 181.04665491 118.2966319 C199.46887257 118.30493568 217.89102537 118.33027775 236.31321469 118.36274669 C255.2138957 118.39578821 274.11454372 118.4138262 293.01525378 118.41702431 C303.63257794 118.4191921 314.24980751 118.42797989 324.86710358 118.45348549 C333.90767009 118.47515279 342.94811905 118.48326252 351.98870859 118.47351871 C356.60311487 118.46896247 361.21727842 118.47093679 365.83165169 118.49028015 C370.05469002 118.5078305 374.27730707 118.50698067 378.50034937 118.49138286 C380.02932805 118.48899437 381.55833529 118.49339432 383.08727017 118.50521151 C385.16438772 118.52027315 387.24000144 118.51070027 389.31708145 118.49498463 C390.47110655 118.49596144 391.62513165 118.49693824 392.81412721 118.49794465 C397.44621335 117.77396015 400.41340849 115.41931584 403.84875488 112.34616089 C405.72687316 108.51868089 405.43344611 104.66676591 405.41992188 100.46142578 C405.42839142 99.49512238 405.43686096 98.52881897 405.44558716 97.53323364 C405.46899664 94.33712623 405.46997829 91.14149918 405.46875 87.9453125 C405.47584965 85.72337653 405.48354835 83.50144241 405.49182129 81.2795105 C405.50527554 76.62069606 405.50683079 71.9620511 405.50097656 67.30322266 C405.4950825 61.33538541 405.52565623 55.36836225 405.56609344 49.40068245 C405.59195491 44.81098048 405.59484918 40.22147484 405.59120178 35.63171005 C405.59289476 33.43168976 405.60255431 31.23166058 405.62034607 29.03171158 C405.64250222 25.95304311 405.63284975 22.87602651 405.61523438 19.79736328 C405.62849762 18.89014526 405.64176086 17.98292725 405.65542603 17.04821777 C405.59928156 12.82124069 405.37838902 9.90154869 402.71154785 6.51266479 C398.31700778 2.44044969 395.56246096 1.75005043 389.57714367 1.74273109 C388.60846081 1.73747198 388.60846081 1.73747198 387.62020859 1.73210663 C385.44733803 1.72277223 383.27473428 1.72772109 381.10185242 1.73257446 C379.53183788 1.72883922 377.9618252 1.72423821 376.39181548 1.71884382 C372.07034631 1.70658273 367.74895437 1.70687793 363.42747176 1.70923257 C358.76954742 1.70963995 354.1116481 1.69860908 349.45373535 1.68911743 C340.32519199 1.67248933 331.19667446 1.66700706 322.06811722 1.66589268 C314.6493131 1.66494304 307.23051751 1.66083697 299.81171608 1.65449142 C278.78720566 1.63687392 257.76271568 1.62765333 236.73819783 1.62915237 C235.60425319 1.62923228 234.47030855 1.6293122 233.30200195 1.62939453 C231.59901288 1.62951717 231.59901288 1.62951717 229.86161999 1.62964229 C211.45960052 1.63045529 193.05766288 1.6113154 174.65566709 1.5831178 C155.76960356 1.55440636 136.88357996 1.54057655 117.99749404 1.54230535 C107.39079288 1.54296986 96.78417749 1.53745077 86.17749596 1.51594925 C77.14688134 1.49776032 68.11639138 1.49337125 59.0857664 1.5069681 C54.47730272 1.51350938 49.86907836 1.51357321 45.26063728 1.4962616 C41.04193626 1.4805769 36.82366521 1.48334713 32.60497496 1.50082986 C31.07873323 1.50390995 29.55245978 1.50022947 28.02625545 1.48910971 C17.30866632 1.2695585 17.30866632 1.2695585 8 6 Z " fill="#9D9D9D" transform="translate(0,0)"/>
<path d="M0 0 C3.81524282 0.28344541 5.88820712 1.28866352 9.20043945 3.17529297 C10.31378662 3.80169678 11.42713379 4.42810059 12.57421875 5.07348633 C13.75582924 5.75548873 14.93722196 6.43786857 16.1184082 7.12060547 C17.3272372 7.80722458 18.53663207 8.49284839 19.74658203 9.17749023 C23.27738471 11.18141608 26.79307817 13.21032956 30.3059082 15.24560547 C31.75175293 16.08309326 31.75175293 16.08309326 33.22680664 16.9375 C37.93856442 19.67597991 42.63162194 22.44367083 47.3059082 25.24560547 C46.55696289 25.98166016 45.80801758 26.71771484 45.03637695 27.47607422 C42.13630963 30.41763035 39.49946339 33.50122996 36.85668945 36.67138672 C36.08905273 37.450625 36.08905273 37.450625 35.3059082 38.24560547 C34.6459082 38.24560547 33.9859082 38.24560547 33.3059082 38.24560547 C33.3059082 38.90560547 33.3059082 39.56560547 33.3059082 40.24560547 C29.84436974 43.24560547 29.84436974 43.24560547 27.3059082 43.24560547 C26.90384155 44.13771729 26.90384155 44.13771729 26.49365234 45.04785156 C25.29611121 47.26373343 24.10271838 48.66640075 22.30200195 50.40966797 C21.72643555 50.97427734 21.15086914 51.53888672 20.55786133 52.12060547 C19.9590918 52.69810547 19.36032227 53.27560547 18.7434082 53.87060547 C17.55241436 55.02720697 16.36350815 56.18596325 15.17700195 57.34716797 C14.65033936 57.85586426 14.12367676 58.36456055 13.58105469 58.88867188 C12.1894865 60.23960652 12.1894865 60.23960652 11.3059082 62.24560547 C10.6459082 62.24560547 9.9859082 62.24560547 9.3059082 62.24560547 C9.3059082 62.90560547 9.3059082 63.56560547 9.3059082 64.24560547 C8.6459082 64.24560547 7.9859082 64.24560547 7.3059082 64.24560547 C7.3059082 64.90560547 7.3059082 65.56560547 7.3059082 66.24560547 C5.4309082 68.37060547 5.4309082 68.37060547 3.3059082 70.24560547 C2.6459082 70.24560547 1.9859082 70.24560547 1.3059082 70.24560547 C1.2027832 70.88498047 1.0996582 71.52435547 0.9934082 72.18310547 C0.7665332 72.86373047 0.5396582 73.54435547 0.3059082 74.24560547 C-1.1790918 74.74060547 -1.1790918 74.74060547 -2.6940918 75.24560547 C-4.59579884 73.34389843 -3.82193386 69.96712834 -3.82348633 67.44677734 C-3.82523865 66.73622696 -3.82699097 66.02567657 -3.82879639 65.29359436 C-3.83321457 62.93382356 -3.83027705 60.57412709 -3.8269043 58.21435547 C-3.82757735 56.58150213 -3.82854738 54.94864889 -3.82980347 53.3157959 C-3.83128039 49.88923186 -3.82912605 46.46269384 -3.82446289 43.03613281 C-3.8187656 38.63406046 -3.82204463 34.23204906 -3.82803535 29.82997894 C-3.83164111 26.45692481 -3.83050232 23.08388525 -3.82790756 19.71083069 C-3.82723833 18.0872446 -3.82806658 16.4636572 -3.83038712 14.84007263 C-3.83291388 12.57482377 -3.82907274 10.30967497 -3.82348633 8.04443359 C-3.82269073 6.75283325 -3.82189514 5.46123291 -3.82107544 4.13049316 C-3.65392655 0.3331083 -3.65392655 0.3331083 0 0 Z " fill="#02CDFA" transform="translate(36.694091796875,21.75439453125)"/>
<path d="M0 0 C0.99 0 1.98 0 3 0 C3.00586624 1.16431549 3.01173248 2.32863098 3.01777649 3.52822876 C3.07500764 14.50473954 3.14777153 25.48105228 3.23571491 36.45736122 C3.28042832 42.10030309 3.31968249 47.7431726 3.34643555 53.38623047 C3.37245857 58.83284648 3.41285433 64.27918418 3.46318626 69.7256279 C3.47986166 71.80278434 3.49137174 73.87998892 3.49761391 75.95720291 C3.50724749 78.86841203 3.53529847 81.77890802 3.56762695 84.68994141 C3.56619186 85.54733917 3.56475677 86.40473694 3.5632782 87.28811646 C3.64083243 92.23140453 4.09923285 95.81185261 7 100 C11.33024221 103.42646098 14.17420991 104.50026509 19.6717453 104.50336456 C20.32014116 104.50917833 20.96853702 104.51499209 21.63658124 104.52098203 C23.80656361 104.53556565 25.97541187 104.52170589 28.14538574 104.50793457 C29.71784273 104.51254417 31.29029542 104.51889749 32.86273909 104.52684355 C37.18171621 104.54355201 41.50034009 104.53528368 45.81931853 104.52289867 C50.4778825 104.5138567 55.13638528 104.52781367 59.79493713 104.53881836 C68.92023518 104.55661728 78.04540173 104.55275748 87.17070496 104.5411678 C94.58613994 104.53213915 102.00153803 104.53090701 109.41697693 104.53526306 C110.47184428 104.53587599 111.52671164 104.53648893 112.61354467 104.53712043 C114.75639809 104.53839932 116.8992515 104.53969617 119.0421049 104.5410108 C139.14195095 104.55242062 159.24172407 104.53929658 179.34155816 104.51780933 C196.59313911 104.49993799 213.8446124 104.50304199 231.09619141 104.52148438 C251.12345735 104.54288398 271.15065934 104.55132194 291.17793512 104.53903532 C293.31296443 104.53776111 295.44799375 104.53650362 297.58302307 104.53526306 C298.63353488 104.53464596 299.6840467 104.53402886 300.7663922 104.53339306 C308.17406527 104.52993743 315.58169783 104.53577309 322.98936462 104.54518127 C332.01521525 104.55639251 341.04092672 104.55337962 350.06676137 104.5320583 C354.67308041 104.52153611 359.2791673 104.51744593 363.8854847 104.53065491 C368.10098542 104.54256048 372.31603847 104.53604677 376.53149849 104.5147447 C378.05765625 104.51027082 379.58385171 104.51256254 381.10998529 104.52224785 C383.18328082 104.53439787 385.25503955 104.5219538 387.3282547 104.50336456 C388.48011151 104.50271515 389.63196832 104.50206574 390.81872988 104.50139666 C395.95593505 103.69172712 399.03682414 101.11525625 402.375 97.25 C402.91125 96.5075 403.4475 95.765 404 95 C404 98.96 404 102.92 404 107 C270.02 107 136.04 107 -2 107 C-2 104.36 -2 101.72 -2 99 C-0.515 98.505 -0.515 98.505 1 98 C0.83748025 97.42352345 0.6749605 96.84704689 0.50751591 96.25310135 C0.01376597 94.06111361 -0.12325024 92.19118255 -0.12025452 89.95037842 C-0.12162918 89.15394928 -0.12300385 88.35752014 -0.12442017 87.53695679 C-0.12082489 86.67236847 -0.11722961 85.80778015 -0.11352539 84.91699219 C-0.11367142 83.99957245 -0.11381744 83.08215271 -0.1139679 82.13693237 C-0.11327166 79.10688913 -0.10549275 76.07690749 -0.09765625 73.046875 C-0.09579104 70.94508905 -0.09436762 68.84330266 -0.09336853 66.74151611 C-0.08955144 61.21116942 -0.07972801 55.68084901 -0.06866455 50.1505127 C-0.05843309 44.50659541 -0.05386719 38.86267388 -0.04882812 33.21875 C-0.03810505 22.14582179 -0.02103829 11.07291308 0 0 Z " fill="#A6A6A6" transform="translate(2,13)"/>
<path d="M0 0 C3.36067598 1.2384066 6.34648824 2.9038766 9.37890625 4.78125 C9.96800781 5.12478516 10.55710938 5.46832031 11.1640625 5.82226562 C13.5673319 7.29461343 15.36440597 8.50225122 16.76953125 10.98046875 C16.55437116 14.02259338 14.86293397 14.97734753 12.62890625 16.96875 C10.87702425 18.0865692 9.08331335 19.14042332 7.26171875 20.140625 C6.21838379 20.7183667 5.17504883 21.2961084 4.10009766 21.89135742 C2.99585449 22.49439697 1.89161133 23.09743652 0.75390625 23.71875 C-1.52755509 24.98008656 -3.80880687 26.24180224 -6.08984375 27.50390625 C-7.72953125 28.40713623 -7.72953125 28.40713623 -9.40234375 29.32861328 C-12.86727807 31.24287551 -16.31088438 33.18918368 -19.74609375 35.15625 C-20.78507812 35.74792969 -21.8240625 36.33960938 -22.89453125 36.94921875 C-25.6938157 38.55993808 -28.45846151 40.2243858 -31.22265625 41.89453125 C-32.07424316 42.40282471 -32.92583008 42.91111816 -33.80322266 43.43481445 C-35.47613899 44.43414259 -37.14287022 45.44392188 -38.80224609 46.46557617 C-43.1514754 49.0504782 -46.14144256 50.6392181 -51.37109375 49.96875 C-50.89671875 49.535625 -50.42234375 49.1025 -49.93359375 48.65625 C-48.13422418 46.94565387 -48.13422418 46.94565387 -47.37109375 43.96875 C-46.71109375 43.96875 -46.05109375 43.96875 -45.37109375 43.96875 C-44.71109375 42.64875 -44.05109375 41.32875 -43.37109375 39.96875 C-42.71109375 39.96875 -42.05109375 39.96875 -41.37109375 39.96875 C-41.37109375 39.30875 -41.37109375 38.64875 -41.37109375 37.96875 C-40.71109375 37.96875 -40.05109375 37.96875 -39.37109375 37.96875 C-39.37109375 37.30875 -39.37109375 36.64875 -39.37109375 35.96875 C-38.71109375 35.96875 -38.05109375 35.96875 -37.37109375 35.96875 C-37.10014893 35.3718335 -36.8292041 34.77491699 -36.55004883 34.15991211 C-35.38672457 31.99780086 -34.25182921 30.61781014 -32.5078125 28.91015625 C-31.95029297 28.35908203 -31.39277344 27.80800781 -30.81835938 27.24023438 C-29.94727539 26.39428711 -29.94727539 26.39428711 -29.05859375 25.53125 C-28.48947266 24.97115234 -27.92035156 24.41105469 -27.33398438 23.83398438 C-26.21329349 22.73130689 -25.08949999 21.63177252 -23.96240234 20.53564453 C-22.93040924 19.5194844 -21.91148749 18.48980805 -20.90869141 17.44482422 C-19.76389266 16.25213297 -18.57151923 15.10543608 -17.37109375 13.96875 C-16.71109375 13.96875 -16.05109375 13.96875 -15.37109375 13.96875 C-15.37109375 13.30875 -15.37109375 12.64875 -15.37109375 11.96875 C-14.71109375 11.96875 -14.05109375 11.96875 -13.37109375 11.96875 C-13.13003906 11.39769531 -12.88898438 10.82664062 -12.640625 10.23828125 C-11.12011194 7.52007175 -9.34952571 5.76236728 -7.05859375 3.65625 C-6.29933594 2.93824219 -5.54007813 2.22023437 -4.7578125 1.48046875 C-2.37109375 -0.03125 -2.37109375 -0.03125 0 0 Z " fill="#EE354B" transform="translate(85.37109375,48.03125)"/>
<path d="M0 0 C0.99 0.66 1.98 1.32 3 2 C3.33 1.67 3.66 1.34 4 1 C5.66617115 0.95936168 7.33388095 0.957279 9 1 C9.11647041 5.54144994 9.18734502 10.08251394 9.25 14.625 C9.28351563 15.91019531 9.31703125 17.19539063 9.3515625 18.51953125 C9.47390693 30.32576888 9.47390693 30.32576888 5 35 C1.97149991 37.37953579 -1.24434385 37.35348888 -5.03515625 37.26171875 C-8.90727875 36.74594895 -11.32018848 34.67981152 -14 32 C-14 31.01 -14 30.02 -14 29 C-11.6875 28.3125 -11.6875 28.3125 -9 28 C-8 29 -7 30 -6 31 C-3 31.58333333 -3 31.58333333 0 31 C1.97098426 29.2890789 1.97098426 29.2890789 3 27 C3 26.01 3 25.02 3 24 C2.2575 24.5259375 2.2575 24.5259375 1.5 25.0625 C-2.19032598 26.44637224 -5.34392984 26.28872971 -9 25 C-12.56441982 22.53348164 -14.57635846 19.78902678 -15.578125 15.55859375 C-15.90110615 10.75057896 -15.26733725 7.6965996 -12.1875 3.9375 C-8.54041865 0.11031587 -5.193048 -0.3245655 0 0 Z " fill="#F2F2F2" transform="translate(237,65)"/>
<path d="M0 0 C0 0.99 0 1.98 0 3 C-1.98 3.99 -1.98 3.99 -4 5 C-4.99 4.34 -5.98 3.68 -7 3 C-11.37433428 2.34762676 -16.01269906 1.96598849 -20.01953125 4.05078125 C-23.01413807 6.52078541 -24.85081344 8.50324305 -25.23828125 12.390625 C-25.39519616 18.43597829 -25.30488732 22.33637207 -21 27 C-16.76916039 29.57220857 -12.82380406 29.54364876 -8 29 C-4.1869458 27.50793531 -3.22648139 26.39829487 -1.1875 22.8125 C-0.795625 21.884375 -0.40375 20.95625 0 20 C-4.29 20 -8.58 20 -13 20 C-13 18.02 -13 16.04 -13 14 C-6.73 14 -0.46 14 6 14 C6 21.39466686 5.9085091 24.28951593 2 30 C-2.29300077 34.18292383 -6.3594952 36.06867042 -12.3125 36.375 C-18.14808561 36.21020772 -22.57521203 34.31936241 -26.796875 30.28125 C-31.8743944 24.57508534 -32.46929697 19.891597 -32.41015625 12.3046875 C-31.60109212 5.78594219 -27.8602243 2.45097495 -22.875 -1.4375 C-14.72932362 -5.86449803 -7.67844845 -4.57439482 0 0 Z " fill="#EDEDED" transform="translate(158,55)"/>
<path d="M0 0 C18 0 18 0 24 5 C25.60865775 8.21731551 25.46696133 11.5107612 25 15 C23.29613041 18.40773917 22.14464173 20.41983912 18.71875 22.15625 C14.14495148 23.57570471 9.76423304 23.1148008 5 23 C5 27.62 5 32.24 5 37 C3.35 37 1.7 37 0 37 C0 24.79 0 12.58 0 0 Z " fill="#F7F7F7" transform="translate(294,53)"/>
<path d="M0 0 C3.81524282 0.28344541 5.88820712 1.28866352 9.20043945 3.17529297 C10.31378662 3.80169678 11.42713379 4.42810059 12.57421875 5.07348633 C13.75582924 5.75548873 14.93722196 6.43786857 16.1184082 7.12060547 C17.3272372 7.80722458 18.53663207 8.49284839 19.74658203 9.17749023 C23.27738471 11.18141608 26.79307817 13.21032956 30.3059082 15.24560547 C31.75175293 16.08309326 31.75175293 16.08309326 33.22680664 16.9375 C37.93856442 19.67597991 42.63162194 22.44367083 47.3059082 25.24560547 C46.55954102 25.98166016 45.81317383 26.71771484 45.04418945 27.47607422 C42.76819481 29.77804312 40.6089642 32.11069755 38.4934082 34.55810547 C37.88883789 35.25548828 37.28426758 35.95287109 36.66137695 36.67138672 C35.99041992 37.450625 35.99041992 37.450625 35.3059082 38.24560547 C30.22057342 33.99800923 25.50560015 29.53676194 20.8684082 24.80810547 C16.32793208 20.21347637 11.76309897 15.76733002 6.81762695 11.60498047 C4.70176949 9.70234895 3.0300164 7.5002085 1.3059082 5.24560547 C0.6459082 4.91560547 -0.0140918 4.58560547 -0.6940918 4.24560547 C-0.6940918 3.58560547 -0.6940918 2.92560547 -0.6940918 2.24560547 C-1.6840918 1.91560547 -2.6740918 1.58560547 -3.6940918 1.24560547 C-2.6940918 0.24560547 -2.6940918 0.24560547 0 0 Z " fill="#03ED78" transform="translate(36.694091796875,21.75439453125)"/>
<path d="M0 0 C3.15591067 2.58210873 5.40902301 4.5280662 6.21875 8.6171875 C6.27358563 13.01774698 6.30062505 16.23813061 3.4375 19.75 C-0.54211364 23.45196618 -2.76403491 24.66098982 -8.2578125 24.5 C-12.31965789 23.99027823 -14.60197474 21.82796848 -17.5625 19.1875 C-20.02687148 14.89766817 -20.15450566 11.08176101 -19.25 6.25 C-17.59569768 3.05255401 -15.27685008 1.00302339 -12.375 -1.125 C-7.67328643 -2.50785693 -4.31928681 -2.32576982 0 0 Z " fill="#EEEEEE" transform="translate(185.25,66.75)"/>
<path d="M0 0 C5.51479631 4.51210607 5.51479631 4.51210607 6.03125 8.328125 C6.2206781 13.09539882 5.96180325 16.50289621 2.75 20.25 C-0.48799368 22.97285832 -2.54638867 24.1494841 -6.75 24.75 C-11.63329688 24.05238616 -14.6221042 22.07169292 -17.890625 18.4140625 C-20.29290874 14.58973723 -19.99129348 10.60166726 -19.25 6.25 C-17.60385601 3.04916447 -15.27540648 1.00196476 -12.375 -1.125 C-7.67328643 -2.50785693 -4.31928681 -2.32576982 0 0 Z " fill="#EFEFEF" transform="translate(213.25,66.75)"/>
<path d="M0 0 C2.4491443 1.90489001 3.73847452 3.02839287 5.25 5.75 C5.61714193 8.84180056 5.53219168 11.89217057 5.4375 15 C5.41719727 16.26070312 5.41719727 16.26070312 5.39648438 17.546875 C5.36123464 19.61485938 5.3074302 21.68251271 5.25 23.75 C3.6 23.75 1.95 23.75 0.25 23.75 C-0.08 23.09 -0.41 22.43 -0.75 21.75 C-1.15347656 22.245 -1.55695313 22.74 -1.97265625 23.25 C-3.75 24.75 -3.75 24.75 -5.87109375 25 C-9.92269194 24.56272802 -12.14260721 24.26850604 -15.3125 21.5625 C-17.04869802 18.16559084 -17.53197894 16.50349892 -16.75 12.75 C-13.98186578 9.39910068 -12.46271031 7.95134541 -8.125 7.44140625 C-5.64619089 7.43788521 -3.21837289 7.53048067 -0.75 7.75 C-2.97273231 5.22677041 -2.97273231 5.22677041 -6.1875 4.4375 C-8.8102702 4.75735002 -10.49208944 5.41197892 -12.75 6.75 C-13.74 6.09 -14.73 5.43 -15.75 4.75 C-14.81896676 2.42241689 -14.09617872 1.00642868 -12.0625 -0.5 C-7.76407569 -1.89408356 -4.1202565 -1.87284386 0 0 Z " fill="#F0F0F0" transform="translate(347.75,66.25)"/>
<path d="M0 0 C3.32730265 1.28281548 6.32248242 2.94202985 9.34375 4.8125 C9.93285156 5.15603516 10.52195312 5.49957031 11.12890625 5.85351562 C13.53217565 7.32586343 15.32924972 8.53350122 16.734375 11.01171875 C16.59375 13 16.59375 13 15.03125 15.01171875 C12.331172 17.21418622 9.59035896 19.03326343 6.59375 20.8125 C5.5625 21.43769531 4.53125 22.06289062 3.46875 22.70703125 C0.59375 24 0.59375 24 -1.44921875 24 C-4.36084931 22.51222071 -6.3987297 20.48066044 -8.71875 18.1875 C-9.62238281 17.31480469 -10.52601562 16.44210938 -11.45703125 15.54296875 C-13.40625 13 -13.40625 13 -13.49609375 10.9765625 C-11.95675376 8.1847846 -10.00475153 6.33797699 -7.65625 4.1875 C-6.79515625 3.37667969 -5.9340625 2.56585938 -5.046875 1.73046875 C-2.40625 0 -2.40625 0 0 0 Z " fill="#FAC808" transform="translate(85.40625,48)"/>
<path d="M0 0 C3.70390021 2.02666238 5.65363011 3.48044516 8 7 C8 7.99 8 8.98 8 10 C3.05 12.31 -1.9 14.62 -7 17 C-6.34 17.99 -5.68 18.98 -5 20 C0.55053286 19.25640327 0.55053286 19.25640327 6 18 C6.66 18.99 7.32 19.98 8 21 C4.80729335 24.19270665 2.62833422 26.35778522 -2 26.5625 C-6.20106256 26.27332552 -8.79430776 24.75838634 -12 22 C-14.88602816 18.53676621 -15.53457148 15.51239915 -15.35546875 10.9921875 C-14.60966345 6.81239957 -12.04891115 4.0850805 -9.1875 1.125 C-5.92236925 -0.5542101 -3.62264505 -0.43721578 0 0 Z " fill="#EEEEEE" transform="translate(273,65)"/>
<path d="M0 0 C2.31 0 4.62 0 7 0 C7.83986084 1.93467942 8.67168027 3.87285129 9.5 5.8125 C9.9640625 6.89144531 10.428125 7.97039062 10.90625 9.08203125 C12 12 12 12 12 15 C12.66 15 13.32 15 14 15 C14.12246094 14.28457031 14.24492187 13.56914063 14.37109375 12.83203125 C15.01135375 9.94887287 15.93551556 7.41407527 17.0625 4.6875 C17.42472656 3.80449219 17.78695313 2.92148438 18.16015625 2.01171875 C18.43730469 1.34785156 18.71445312 0.68398437 19 0 C21.31 0 23.62 0 26 0 C24.44058089 3.77211452 22.8768852 7.54244263 21.3125 11.3125 C20.87744141 12.36501953 20.44238281 13.41753906 19.99414062 14.50195312 C17.12931938 21.39874501 14.13606087 28.22222538 11 35 C9.02 35 7.04 35 5 35 C6.81094527 29.30845771 6.81094527 29.30845771 8.1875 27.0625 C9.62500681 23.41344424 8.6304425 19.67418215 7.27416992 16.07250977 C6.39159531 14.10800543 5.4615764 12.17701456 4.5 10.25 C1.07097458 3.21292373 1.07097458 3.21292373 0 0 Z " fill="#F0F0F0" transform="translate(353,66)"/>
<path d="M0 0 C2.92937654 1.81310142 5.43647949 3.87295899 7 7 C7.40417552 9.96395382 7.56382171 12.08904926 5.953125 14.69140625 C3.19956032 18.0523749 1.52830876 19.83018792 -2.8125 20.3125 C-6.7307645 19.92835642 -8.21293267 18.70743683 -11 16 C-12.60086627 12.79826746 -12.49917089 9.47422941 -12 6 C-8.68259295 0.80272896 -6.16380285 -0.71120802 0 0 Z " fill="#E0E0E0" transform="translate(219,20)"/>
<path d="M0 0 C1.98 0 3.96 0 6 0 C6 12.54 6 25.08 6 38 C4.02 38 2.04 38 0 38 C0 25.46 0 12.92 0 0 Z " fill="#E6E6E6" transform="translate(322,52)"/>
<path d="M0 0 C1.32 0.33 2.64 0.66 4 1 C3.83761904 1.5771705 3.67523808 2.15434099 3.50793648 2.7490015 C3.01625009 4.92798525 2.87424594 6.78850471 2.87301636 9.01597595 C2.87019653 9.80517929 2.86737671 10.59438263 2.86447144 11.40750122 C2.86649567 12.26423431 2.8685199 13.12096741 2.87060547 14.00366211 C2.86885315 14.91305038 2.86710083 15.82243866 2.86529541 16.75938416 C2.86089437 19.7653901 2.86380901 22.7713372 2.8671875 25.77734375 C2.8665139 27.86715201 2.86554341 29.9569602 2.86428833 32.04676819 C2.86281368 36.42726385 2.86495826 40.80773913 2.86962891 45.18823242 C2.87532252 50.80162399 2.87204804 56.4149677 2.86605644 62.02835751 C2.86244157 66.34432841 2.86359375 70.66028799 2.86618423 74.97625923 C2.86685112 77.04590422 2.8660334 79.11555023 2.86370468 81.18519402 C2.8611634 84.07913814 2.8650398 86.97300499 2.87060547 89.86694336 C2.86858124 90.72165222 2.86655701 91.57636108 2.86447144 92.45697021 C2.8786474 96.43866847 3.00900892 100.11353084 4 104 C2.68 104 1.36 104 0 104 C0 69.68 0 35.36 0 0 Z " fill="#585858" transform="translate(0,8)"/>
<path d="M0 0 C1.65 0 3.3 0 5 0 C5 12.54 5 25.08 5 38 C3.35 38 1.7 38 0 38 C0 25.46 0 12.92 0 0 Z " fill="#FAFAFA" transform="translate(250,52)"/>
<path d="M0 0 C3.3376405 1.23347584 4.3564082 1.85658397 5.875 5.0625 C6.375 8.5625 6.375 8.5625 5.875 12.0625 C3.75 14.5625 3.75 14.5625 0.875 16.0625 C-2.30909977 15.998818 -4.27432332 15.57290601 -7 13.9375 C-8.85477648 10.84620587 -8.60991678 8.57814662 -8.125 5.0625 C-5.59951332 1.49710704 -4.44248757 0.08884975 0 0 Z " fill="#0F0F0F" transform="translate(235.125,69.9375)"/>
<path d="M0 0 C4.45144991 1.5483304 4.45144991 1.5483304 5.875 4 C6.6268797 10.76691729 6.6268797 10.76691729 4.3125 14.5625 C1.875 16 1.875 16 -1.6875 16 C-5.125 15 -5.125 15 -7.0625 13.3125 C-8.4863395 10.2135552 -8.67653827 8.37817188 -8.125 5 C-5.57998626 1.48189277 -4.43334243 0 0 0 Z " fill="#0D0D0D" transform="translate(207.125,70)"/>
<path d="M0 0 C3.4375 1 3.4375 1 5.4375 2.625 C6.91076389 6.12400175 6.40864747 8.37438276 5.4375 12 C3.4187048 14.81189331 2.33790939 15.81991812 -1.0625 16.5 C-4.50527758 15.81144448 -5.59471339 14.91523942 -7.5625 12 C-8.38693434 7.93612165 -8.16831932 4.99354368 -6 1.4375 C-3.5625 0 -3.5625 0 0 0 Z " fill="#0D0D0D" transform="translate(179.5625,70)"/>
<path d="M0 0 C4.00399186 0.31540396 6.30614625 1.50776064 9.7980957 3.47412109 C10.68074348 3.96641708 10.68074348 3.96641708 11.58122253 4.46865845 C12.81566907 5.16044095 14.04670457 5.85834228 15.27441406 6.56201172 C17.15807246 7.64076529 19.05198518 8.69938984 20.94848633 9.75537109 C30.18837117 14.95779702 30.18837117 14.95779702 31.34106445 17.26318359 C28.67439779 16.59651693 26.00773112 15.92985026 23.34106445 15.26318359 C23.34106445 14.60318359 23.34106445 13.94318359 23.34106445 13.26318359 C21.36106445 12.60318359 19.38106445 11.94318359 17.34106445 11.26318359 C16.35106445 12.74818359 16.35106445 12.74818359 15.34106445 14.26318359 C15.83606445 15.02630859 16.33106445 15.78943359 16.84106445 16.57568359 C18.34106445 19.26318359 18.34106445 19.26318359 18.34106445 22.26318359 C15.92328393 20.01437806 13.50704099 17.76392699 11.09106445 15.51318359 C10.40915039 14.87896484 9.72723633 14.24474609 9.0246582 13.59130859 C7.1249429 11.82070015 5.23182317 10.04334675 3.34106445 8.26318359 C2.5212207 7.49490234 1.70137695 6.72662109 0.85668945 5.93505859 C-0.65893555 4.26318359 -0.65893555 4.26318359 -0.65893555 2.26318359 C-1.64893555 1.93318359 -2.63893555 1.60318359 -3.65893555 1.26318359 C-2.65893555 0.26318359 -2.65893555 0.26318359 0 0 Z " fill="#04E87D" transform="translate(36.658935546875,21.73681640625)"/>
<path d="M0 0 C10.17966102 -0.48474576 10.17966102 -0.48474576 13.75 1.625 C15 4 15 4 15 7.0625 C13.83924241 10.47222541 13.05523387 11.20900084 10 13 C7.421875 13.29296875 7.421875 13.29296875 4.75 13.1875 C3.1825 13.125625 1.615 13.06375 0 13 C0 8.71 0 4.42 0 0 Z " fill="#0F0F0F" transform="translate(299,58)"/>
<path d="M0 0 C3.96 0 7.92 0 12 0 C12 1.32 12 2.64 12 4 C9.36 4 6.72 4 4 4 C4 5.32 4 6.64 4 8 C6.31 8 8.62 8 11 8 C11 9.32 11 10.64 11 12 C8.69 12 6.38 12 4 12 C4 13.32 4 14.64 4 16 C6.64 16 9.28 16 12 16 C12 17.32 12 18.64 12 20 C8.04 20 4.08 20 0 20 C0 13.4 0 6.8 0 0 Z " fill="#666666" transform="translate(147,20)"/>
<path d="M0 0 C0.66 0 1.32 0 2 0 C2.33 21.78 2.66 43.56 3 66 C4.32 66.66 5.64 67.32 7 68 C6.34 68 5.68 68 5 68 C4.896875 68.639375 4.79375 69.27875 4.6875 69.9375 C4.460625 70.618125 4.23375 71.29875 4 72 C2.515 72.495 2.515 72.495 1 73 C0 72 0 72 -0.12025452 69.14634705 C-0.11803391 67.86949539 -0.11581329 66.59264374 -0.11352539 65.27709961 C-0.11367142 64.5746965 -0.11381744 63.8722934 -0.1139679 63.14860535 C-0.11326872 60.81648722 -0.10547617 58.484448 -0.09765625 56.15234375 C-0.09579208 54.53951562 -0.09436818 52.92668693 -0.09336853 51.31385803 C-0.08954323 47.06084643 -0.07971285 42.80786876 -0.06866455 38.55487061 C-0.05845069 34.2182257 -0.05387096 29.88157533 -0.04882812 25.54492188 C-0.03809059 17.02993231 -0.02101403 8.51497037 0 0 Z " fill="#1FCBEA" transform="translate(33,24)"/>
<path d="M0 0 C2.65875764 0.52019171 4.57826626 1.14912539 6.875 2.5625 C6.875 3.5525 6.875 4.5425 6.875 5.5625 C6.26011719 5.45550781 5.64523438 5.34851563 5.01171875 5.23828125 C3.79935547 5.05845703 3.79935547 5.05845703 2.5625 4.875 C1.36173828 4.68357422 1.36173828 4.68357422 0.13671875 4.48828125 C-2.18554155 4.35196826 -2.18554155 4.35196826 -3.89453125 5.85546875 C-5.77760731 8.46786316 -5.51573512 10.436619 -5.125 13.5625 C-4.20833333 15.64583333 -4.20833333 15.64583333 -2.125 16.5625 C1.48962786 16.48671045 1.48962786 16.48671045 4.875 15.5625 C5.205 14.9025 5.535 14.2425 5.875 13.5625 C2.905 13.0675 2.905 13.0675 -0.125 12.5625 C-0.125 11.5725 -0.125 10.5825 -0.125 9.5625 C3.175 9.5625 6.475 9.5625 9.875 9.5625 C9.63935605 13.64699505 9.46537881 15.90464932 6.6875 19 C3.3482175 20.85515694 1.64104494 21.11171489 -2.125 20.5625 C-4.93415461 19.28561154 -6.62606764 18.25150183 -8.4375 15.75 C-9.40314345 12.6774981 -9.63027937 10.78365598 -9.125 7.5625 C-6.78470602 3.55172032 -4.66682786 0.84002901 0 0 Z " fill="#E2E2E2" transform="translate(135.125,19.4375)"/>
<path d="M0 0 C5 1 5 1 6.80078125 3.28515625 C7.29964844 4.20167969 7.79851562 5.11820313 8.3125 6.0625 C8.82425781 6.98160156 9.33601562 7.90070312 9.86328125 8.84765625 C10.23839844 9.55792969 10.61351562 10.26820312 11 11 C11.33 7.37 11.66 3.74 12 0 C12.99 0 13.98 0 15 0 C15 5.94 15 11.88 15 18 C13.68 18 12.36 18 11 18 C9.078125 15.375 9.078125 15.375 7.25 12 C6.63640625 10.88625 6.0228125 9.7725 5.390625 8.625 C4.93171875 7.75875 4.4728125 6.8925 4 6 C3.67 9.96 3.34 13.92 3 18 C2.01 18 1.02 18 0 18 C0 12.06 0 6.12 0 0 Z " fill="#E4E4E4" transform="translate(228,21)"/>
<path d="M0 0 C2.375 1.5625 2.375 1.5625 4 4 C3.93866496 7.4960972 3.65265114 9.93514814 1.8125 12.9375 C-0.94295679 14.55276777 -2.87673586 14.45547602 -6 14 C-8.81868001 11.65109999 -8.9884844 10.09376985 -9.4375 6.4375 C-9 3 -9 3 -7.3125 1.0625 C-4.53632314 -0.21304072 -3.0186385 -0.52826174 0 0 Z " fill="#0D0D0D" transform="translate(219,23)"/>
<path d="M0 0 C3 1 3 1 3.95703125 2.70703125 C4.23933594 3.40183594 4.52164062 4.09664063 4.8125 4.8125 C6.7488605 8.97567507 8.93840976 10.75316284 13 13 C13.99 13.66 14.98 14.32 16 15 C15 16 15 16 11.18359375 16.09765625 C9.60153318 16.09098089 8.01948841 16.07901875 6.4375 16.0625 C5.63119141 16.05798828 4.82488281 16.05347656 3.99414062 16.04882812 C1.99606244 16.03700518 -0.00197783 16.01906914 -2 16 C-2 13.36 -2 10.72 -2 8 C-1.01 7.67 -0.02 7.34 1 7 C0.67 4.69 0.34 2.38 0 0 Z " fill="#9A9A9A" transform="translate(2,104)"/>
<path d="M0 0 C3.3 0 6.6 0 10 0 C10 0.66 10 1.32 10 2 C7.36 2 4.72 2 2 2 C2 3.98 2 5.96 2 8 C4.64 8 7.28 8 10 8 C10 8.66 10 9.32 10 10 C7.36 10 4.72 10 2 10 C2 11.98 2 13.96 2 16 C4.64 16 7.28 16 10 16 C10 16.66 10 17.32 10 18 C6.7 18 3.4 18 0 18 C0 12.06 0 6.12 0 0 Z " fill="#FCFCFC" transform="translate(148,21)"/>
<path d="M0 0 C4.29 0 8.58 0 13 0 C13 0.99 13 1.98 13 3 C11.35 3 9.7 3 8 3 C8 7.95 8 12.9 8 18 C7.01 18 6.02 18 5 18 C5 12.72 5 7.44 5 2 C3.35 2 1.7 2 0 2 C0 1.34 0 0.68 0 0 Z " fill="#E7E7E7" transform="translate(187,21)"/>
<path d="M0 0 C4.29 0 8.58 0 13 0 C13 0.66 13 1.32 13 2 C11.35 2 9.7 2 8 2 C8 7.28 8 12.56 8 18 C7.01 18 6.02 18 5 18 C5 13.05 5 8.1 5 3 C3.35 3 1.7 3 0 3 C0 2.01 0 1.02 0 0 Z " fill="#E0E0E0" transform="translate(160,21)"/>
<path d="M0 0 C0.66 0 1.32 0 2 0 C2 0.99 2 1.98 2 3 C-2.22222222 6 -2.22222222 6 -5 6 C-5.26804443 6.59546631 -5.53608887 7.19093262 -5.81225586 7.80444336 C-7.01015801 10.01877718 -8.19374312 11.39832288 -10.00390625 13.12890625 C-10.57947266 13.68900391 -11.15503906 14.24910156 -11.74804688 14.82617188 C-12.34681641 15.39916016 -12.94558594 15.97214844 -13.5625 16.5625 C-14.75590292 17.70484825 -15.94491454 18.85180657 -17.12890625 20.00390625 C-17.91890015 20.75909546 -17.91890015 20.75909546 -18.72485352 21.52954102 C-20.24271322 23.09043903 -20.24271322 23.09043903 -21 26 C-21.66 26 -22.32 26 -23 26 C-23.33 26.99 -23.66 27.98 -24 29 C-24.99 29.33 -25.98 29.66 -27 30 C-28.37195574 31.29355827 -29.71182656 32.62298702 -31 34 C-31.33 33.34 -31.66 32.68 -32 32 C-31.34 32 -30.68 32 -30 32 C-29.34 30.68 -28.68 29.36 -28 28 C-27.34 28 -26.68 28 -26 28 C-26 27.34 -26 26.68 -26 26 C-25.34 26 -24.68 26 -24 26 C-24 25.34 -24 24.68 -24 24 C-23.34 24 -22.68 24 -22 24 C-21.72905518 23.4030835 -21.45811035 22.80616699 -21.17895508 22.19116211 C-20.01563082 20.02905086 -18.88073546 18.64906014 -17.13671875 16.94140625 C-16.30043945 16.11479492 -16.30043945 16.11479492 -15.44726562 15.27148438 C-14.57618164 14.42553711 -14.57618164 14.42553711 -13.6875 13.5625 C-13.11837891 13.00240234 -12.54925781 12.44230469 -11.96289062 11.86523438 C-10.84219974 10.76255689 -9.71840624 9.66302252 -8.59130859 8.56689453 C-7.55931549 7.5507344 -6.54039374 6.52105805 -5.53759766 5.47607422 C-4.39279891 4.28338297 -3.20042548 3.13668608 -2 2 C-1.34 2 -0.68 2 0 2 C0 1.34 0 0.68 0 0 Z " fill="#867496" transform="translate(70,60)"/>
<path d="M0 0 C4.00399186 0.31540396 6.30614625 1.50776064 9.7980957 3.47412109 C10.68074348 3.96641708 10.68074348 3.96641708 11.58122253 4.46865845 C12.81566907 5.16044095 14.04670457 5.85834228 15.27441406 6.56201172 C17.15807246 7.64076529 19.05198518 8.69938984 20.94848633 9.75537109 C30.18837117 14.95779702 30.18837117 14.95779702 31.34106445 17.26318359 C28.67439779 16.59651693 26.00773112 15.92985026 23.34106445 15.26318359 C23.34106445 14.60318359 23.34106445 13.94318359 23.34106445 13.26318359 C22.04168945 12.89193359 22.04168945 12.89193359 20.71606445 12.51318359 C16.25530105 10.861049 12.74714107 8.2726745 8.90356445 5.51318359 C5.59776195 3.90059701 2.9701458 4.04970822 -0.65893555 4.26318359 C-0.65893555 3.60318359 -0.65893555 2.94318359 -0.65893555 2.26318359 C-1.64893555 1.93318359 -2.63893555 1.60318359 -3.65893555 1.26318359 C-2.65893555 0.26318359 -2.65893555 0.26318359 0 0 Z " fill="#27CC7B" transform="translate(36.658935546875,21.73681640625)"/>
<path d="M0 0 C0.33 0 0.66 0 1 0 C1 3.96 1 7.92 1 12 C-2.96 12 -6.92 12 -11 12 C-7 8 -7 8 -4.375 6 C-2.07655992 4.06447151 -1.08284605 2.75633539 0 0 Z " fill="#A2A2A2" transform="translate(405,108)"/>
<path d="M0 0 C1.23556641 0.01740234 1.23556641 0.01740234 2.49609375 0.03515625 C3.32238281 0.04417969 4.14867187 0.05320312 5 0.0625 C5.63808594 0.07410156 6.27617187 0.08570312 6.93359375 0.09765625 C6.62109375 2.47265625 6.62109375 2.47265625 5.93359375 5.09765625 C2.93359375 7.09765625 2.93359375 7.09765625 0.24609375 6.72265625 C-0.51703125 6.51640625 -1.28015625 6.31015625 -2.06640625 6.09765625 C-2.44859392 4.44150968 -2.78035727 2.77308601 -3.06640625 1.09765625 C-2.06640625 0.09765625 -2.06640625 0.09765625 0 0 Z " fill="#0F0F0F" transform="translate(340.06640625,78.90234375)"/>
<path d="M0 0 C0.33 1.32 0.66 2.64 1 4 C1.66 4 2.32 4 3 4 C3 3.34 3 2.68 3 2 C4.98 1.67 6.96 1.34 9 1 C4.85090553 5.49155941 -0.44061494 8.77549254 -6.5625 9.3125 C-7.7690625 9.1578125 -7.7690625 9.1578125 -9 9 C-6 6 -3 3 0 0 Z " fill="#C1315A" transform="translate(43,89)"/>
<path d="M0 0 C5.96652354 1.57013777 10.82909025 4.75029782 16 8 C14.35 9.65 12.7 11.3 11 13 C10.4375 11.0625 10.4375 11.0625 10 9 C10.33 8.67 10.66 8.34 11 8 C9.68 7.34 8.36 6.68 7 6 C7 5.34 7 4.68 7 4 C6.1028125 3.7834375 6.1028125 3.7834375 5.1875 3.5625 C3.43849596 3.1127561 1.71322977 2.57107659 0 2 C0 1.34 0 0.68 0 0 Z " fill="#29D26F" transform="translate(68,39)"/>
<path d="M0 0 C1.423125 0.37125 1.423125 0.37125 2.875 0.75 C3.205 1.41 3.535 2.07 3.875 2.75 C2.4187455 3.42119549 0.95992133 4.08681807 -0.5 4.75 C-1.71816406 5.306875 -1.71816406 5.306875 -2.9609375 5.875 C-5.125 6.75 -5.125 6.75 -7.125 6.75 C-6.8125 4.375 -6.8125 4.375 -6.125 1.75 C-3.125 -0.25 -3.125 -0.25 0 0 Z " fill="#151515" transform="translate(271.125,70.25)"/>
<path d="M0 0 C1.9765625 0.80078125 1.9765625 0.80078125 2.953125 2.5078125 C3.16710938 3.20261719 3.38109375 3.89742187 3.6015625 4.61328125 C4.52142404 7.49731772 5.56573404 10.11779549 6.9765625 12.80078125 C2.41608238 9.18826609 -1.04008896 5.8128068 -4.0234375 0.80078125 C-2.0234375 -0.19921875 -2.0234375 -0.19921875 0 0 Z " fill="#05E097" transform="translate(42.0234375,25.19921875)"/>
<path d="M0 0 C1.17781058 3.68065805 1 7.1644081 1 11 C1.33 11.99 1.66 12.98 2 14 C1.01 14.33 0.02 14.66 -1 15 C-3.45416273 11.3187559 -3.59384154 8.27738037 -3 4 C-1.5 1.5 -1.5 1.5 0 0 Z " fill="#E8E8E8" transform="translate(210,22)"/>
<path d="M0 0 C2.48449577 0.8867224 3.6553221 1.81261031 5.3203125 3.828125 C2.65364583 3.16145833 -0.01302083 2.49479167 -2.6796875 1.828125 C-3.0096875 2.818125 -3.3396875 3.808125 -3.6796875 4.828125 C-5.31759462 5.87456566 -6.98976771 6.8679433 -8.6796875 7.828125 C-10.36446094 9.13850434 -12.03617293 10.46635578 -13.6796875 11.828125 C-12.18708728 8.29217902 -10.18144951 6.10285411 -7.3671875 3.515625 C-6.60792969 2.79761719 -5.84867187 2.07960937 -5.06640625 1.33984375 C-2.6796875 -0.171875 -2.6796875 -0.171875 0 0 Z " fill="#B8CD29" transform="translate(85.6796875,48.171875)"/>
<path d="M0 0 C3.375 0.25 3.375 0.25 7 1 C7.66 2.32 8.32 3.64 9 5 C5.7 4.67 2.4 4.34 -1 4 C-0.67 2.68 -0.34 1.36 0 0 Z " fill="#1E1E1E" transform="translate(339,70)"/>
<path d="M0 0 C2.13093906 1.06546953 3.36587557 2.29159719 5 4 C3.02 4.33 1.04 4.66 -1 5 C-1 5.66 -1 6.32 -1 7 C-1.99 7.33 -2.98 7.66 -4 8 C-3.50168276 4.31245243 -2.89932357 2.39509338 0 0 Z " fill="#E32C52" transform="translate(47,86)"/>
<path d="M0 0 C0.99 0 1.98 0 3 0 C3 0.66 3 1.32 3 2 C2.34 2 1.68 2 1 2 C0.67 2.99 0.34 3.98 0 5 C-0.99 5.33 -1.98 5.66 -3 6 C-4.37195574 7.29355827 -5.71182656 8.62298702 -7 10 C-7.33 9.34 -7.66 8.68 -8 8 C-7.34 8 -6.68 8 -6 8 C-5.34 6.68 -4.68 5.36 -4 4 C-3.34 4 -2.68 4 -2 4 C-2 3.34 -2 2.68 -2 2 C-1.34 2 -0.68 2 0 2 C0 1.34 0 0.68 0 0 Z " fill="#975F86" transform="translate(46,84)"/>
<path d="M0 0 C1.98 0 3.96 0 6 0 C6 0.66 6 1.32 6 2 C2.04 3.98 2.04 3.98 -2 6 C-1 2 -1 2 0 0 Z " fill="#DD3D47" transform="translate(76,72)"/>
<path d="M0 0 C2.64 0 5.28 0 8 0 C8 1.98 8 3.96 8 6 C6.66402348 5.19185349 5.331275 4.37836819 4 3.5625 C3.2575 3.11003906 2.515 2.65757812 1.75 2.19140625 C1.1725 1.79824219 0.595 1.40507812 0 1 C0 0.67 0 0.34 0 0 Z " fill="#797979" transform="translate(398,0)"/>
<path d="M0 0 C0.33 0 0.66 0 1 0 C1 1.98 1 3.96 1 6 C-1.64 6 -4.28 6 -7 6 C-6.21625 5.38125 -5.4325 4.7625 -4.625 4.125 C-2.03162353 2.10141339 -2.03162353 2.10141339 0 0 Z " fill="#7A7A7A" transform="translate(405,114)"/>
<path d="M0 0 C6.75 -0.125 6.75 -0.125 9 1 C9 1.99 9 2.98 9 4 C5.7 3.34 2.4 2.68 -1 2 C-0.67 1.34 -0.34 0.68 0 0 Z " fill="#EFEFEF" transform="translate(133,21)"/>
<path d="M0 0 C0.66 0 1.32 0 2 0 C2.66 2.64 3.32 5.28 4 8 C2.68 8 1.36 8 0 8 C0 5.36 0 2.72 0 0 Z " fill="#626262" transform="translate(0,104)"/>
<path d="M0 0 C0.66 0.33 1.32 0.66 2 1 C1.67 1.66 1.34 2.32 1 3 C0.34 3 -0.32 3 -1 3 C-1.33 3.99 -1.66 4.98 -2 6 C-3.65 5.67 -5.3 5.34 -7 5 C-2.25 1.125 -2.25 1.125 0 0 Z " fill="#220404" transform="translate(84,72)"/>
<path d="M0 0 C1.4540625 0.0309375 1.4540625 0.0309375 2.9375 0.0625 C3.2675 1.0525 3.5975 2.0425 3.9375 3.0625 C2.2875 3.3925 0.6375 3.7225 -1.0625 4.0625 C-1.0625 3.4025 -1.0625 2.7425 -1.0625 2.0625 C-2.0525 1.7325 -3.0425 1.4025 -4.0625 1.0625 C-3.0625 0.0625 -3.0625 0.0625 0 0 Z " fill="#19CC8F" transform="translate(37.0625,21.9375)"/>
<path d="M0 0 C4.875 0.875 4.875 0.875 6 2 C6.04092937 4.33297433 6.04241723 6.66705225 6 9 C4 6 2 3 0 0 Z " fill="#9E9E9E" transform="translate(400,4)"/>
<path d="M0 0 C0.99 0.99 1.98 1.98 3 3 C2.25 5.4375 2.25 5.4375 1 8 C-1.125 8.8125 -1.125 8.8125 -3 9 C-3 8.34 -3 7.68 -3 7 C-2.01 7 -1.02 7 0 7 C0 4.69 0 2.38 0 0 Z " fill="#D7BD23" transform="translate(99,56)"/>
<path d="M0 0 C2.31 1.98 4.62 3.96 7 6 C4.50907189 7.24546405 3.58919267 6.7767578 1 6 C0.67 4.02 0.34 2.04 0 0 Z " fill="#EC5131" transform="translate(77,66)"/>
<path d="M0 0 C1.32 0.33 2.64 0.66 4 1 C3.34 3.31 2.68 5.62 2 8 C-0.1519437 4.77208445 -0.20086443 3.71599191 0 0 Z " fill="#626262" transform="translate(0,8)"/>
<path d="M0 0 C0 3.10551666 -0.5393715 4.35261084 -2 7 C-3.32 6.67 -4.64 6.34 -6 6 C-4.02 4.02 -2.04 2.04 0 0 Z " fill="#DD3C58" transform="translate(62,70)"/>
<path d="M0 0 C1.65 1.65 3.3 3.3 5 5 C3.6078125 4.7215625 3.6078125 4.7215625 2.1875 4.4375 C-1.01343771 3.75876119 -1.01343771 3.75876119 -4 5 C-3.67 4.01 -3.34 3.02 -3 2 C-2.01 2 -1.02 2 0 2 C0 1.34 0 0.68 0 0 Z " fill="#ED4B38" transform="translate(72,61)"/>
<path d="M0 0 C1.4540625 0.0309375 1.4540625 0.0309375 2.9375 0.0625 C2.9375 0.3925 2.9375 0.7225 2.9375 1.0625 C1.761875 1.18625 1.761875 1.18625 0.5625 1.3125 C-2.20999104 1.79056339 -2.20999104 1.79056339 -3.375 4.125 C-3.7153125 5.0840625 -3.7153125 5.0840625 -4.0625 6.0625 C-4.7225 5.7325 -5.3825 5.4025 -6.0625 5.0625 C-3.64893617 0.07446809 -3.64893617 0.07446809 0 0 Z " fill="#C5C5C5" transform="translate(135.0625,19.9375)"/>
<path d="M0 0 C1.98 0.495 1.98 0.495 4 1 C3.67 2.32 3.34 3.64 3 5 C1.68 5.33 0.36 5.66 -1 6 C-0.67 4.02 -0.34 2.04 0 0 Z " fill="#7E7E7E" transform="translate(8,0)"/>
<path d="M0 0 C0.66 0.33 1.32 0.66 2 1 C-0.25 3.0625 -0.25 3.0625 -3 5 C-5.3125 4.75 -5.3125 4.75 -7 4 C-1.7265625 0.77734375 -1.7265625 0.77734375 0 0 Z " fill="#2F0406" transform="translate(63,84)"/>
</svg>
