<svg width="32" height="32" viewBox="0 0 32 32" fill="none" xmlns="http://www.w3.org/2000/svg">
<path d="M15.9599 30.3337C8.06659 30.3337 1.62659 23.907 1.62659 16.0003C1.62659 8.09366 8.06659 1.66699 15.9599 1.66699C23.8533 1.66699 30.2933 8.09366 30.2933 16.0003C30.2933 23.907 23.8666 30.3337 15.9599 30.3337ZM15.9599 3.66699C9.15992 3.66699 3.62659 9.20033 3.62659 16.0003C3.62659 22.8003 9.15992 28.3337 15.9599 28.3337C22.7599 28.3337 28.2933 22.8003 28.2933 16.0003C28.2933 9.20033 22.7599 3.66699 15.9599 3.66699Z" fill="#365069"/>
<path d="M14.08 22.6543C13.4933 22.6543 12.9333 22.5076 12.44 22.2276C11.2933 21.561 10.6533 20.2543 10.6533 18.5476V14.081C10.6533 12.3743 11.28 11.0676 12.4267 10.401C13.5733 9.7343 15.0267 9.84097 16.5067 10.6943L20.3733 12.921C21.8533 13.7743 22.6667 14.9743 22.6667 16.3076C22.6667 17.6276 21.8533 18.841 20.3733 19.6943L16.5067 21.921C15.68 22.4143 14.84 22.6543 14.08 22.6543ZM14.08 11.961C13.84 11.961 13.6133 12.0143 13.44 12.121C12.9333 12.4143 12.6533 13.121 12.6533 14.081V18.5476C12.6533 19.4943 12.9333 20.2143 13.44 20.4943C13.9333 20.7876 14.6933 20.6676 15.52 20.201L19.3867 17.9743C20.2133 17.4943 20.68 16.8943 20.68 16.321C20.68 15.7476 20.2 15.1476 19.3867 14.6676L15.52 12.441C14.9867 12.121 14.4933 11.961 14.08 11.961Z" fill="#365069"/>
</svg>
