<?xml version="1.0" standalone="no"?>
<!DOCTYPE svg PUBLIC "-//W3C//DTD SVG 20010904//EN"
 "http://www.w3.org/TR/2001/REC-SVG-20010904/DTD/svg10.dtd">
<svg version="1.0" xmlns="http://www.w3.org/2000/svg"
 width="2015.000000pt" height="2015.000000pt" viewBox="0 0 2015.000000 2015.000000"
 preserveAspectRatio="xMidYMid meet">

<g transform="translate(0.000000,2015.000000) scale(0.100000,-0.100000)"
fill="#000000" stroke="none">
<path d="M1250 19611 c-372 -80 -643 -357 -714 -731 -14 -71 -16 -215 -16
-1059 0 -914 1 -982 19 -1066 78 -375 355 -648 731 -719 123 -24 1987 -24
2110 0 309 58 574 272 681 548 70 182 69 151 69 1241 0 918 -1 986 -19 1070
-78 375 -355 648 -731 719 -71 14 -214 16 -1064 15 -906 0 -987 -2 -1066 -18z
m1895 -510 c114 -38 190 -85 281 -175 95 -96 147 -181 176 -292 19 -72 19
-1546 0 -1618 -29 -111 -81 -196 -176 -292 -96 -95 -181 -147 -292 -176 -72
-19 -1546 -19 -1618 0 -111 29 -196 81 -292 176 -95 96 -147 181 -176 292 -19
72 -19 1546 0 1618 37 140 156 304 278 382 67 43 162 82 226 93 29 5 391 8
803 7 588 -1 759 -5 790 -15z"/>
<path d="M1882 18590 c-69 -10 -168 -59 -215 -107 -53 -53 -96 -146 -108 -233
-6 -44 -9 -238 -7 -479 3 -391 4 -408 26 -460 47 -118 114 -185 233 -234 53
-22 61 -22 514 -22 453 0 461 0 514 22 119 49 185 115 234 234 22 53 22 61 22
514 0 453 0 461 -22 514 -49 119 -116 186 -234 233 -52 22 -66 23 -479 24
-234 1 -449 -1 -478 -6z"/>
<path d="M16750 19611 c-372 -80 -643 -357 -714 -731 -14 -71 -16 -215 -16
-1059 0 -914 1 -982 19 -1066 78 -375 355 -648 731 -719 123 -24 1987 -24
2110 0 309 58 574 272 681 548 70 182 69 151 69 1241 0 918 -1 986 -19 1070
-78 375 -355 648 -731 719 -71 14 -214 16 -1064 15 -906 0 -987 -2 -1066 -18z
m1895 -510 c114 -38 190 -85 281 -175 95 -96 147 -181 176 -292 19 -72 19
-1546 0 -1618 -29 -111 -81 -196 -176 -292 -96 -95 -181 -147 -292 -176 -72
-19 -1546 -19 -1618 0 -111 29 -196 81 -292 176 -95 96 -147 181 -176 292 -19
72 -19 1546 0 1618 37 140 156 304 278 382 67 43 162 82 226 93 29 5 391 8
803 7 588 -1 759 -5 790 -15z"/>
<path d="M17382 18590 c-69 -10 -168 -59 -215 -107 -53 -53 -96 -146 -108
-233 -6 -44 -9 -238 -7 -479 3 -391 4 -408 26 -460 47 -118 114 -185 233 -234
53 -22 61 -22 514 -22 453 0 461 0 514 22 119 49 185 115 234 234 22 53 22 61
22 514 0 453 0 461 -22 514 -49 119 -116 186 -234 233 -52 22 -66 23 -479 24
-234 1 -449 -1 -478 -6z"/>
<path d="M6410 19598 c-141 -25 -219 -188 -156 -324 38 -82 108 -125 203 -125
101 0 191 64 218 155 19 63 19 93 0 147 -38 105 -149 167 -265 147z"/>
<path d="M7453 19599 c-110 -20 -193 -116 -193 -224 0 -123 107 -226 233 -226
95 0 165 43 203 125 80 171 -60 357 -243 325z"/>
<path d="M7960 19598 c-141 -25 -219 -188 -156 -324 38 -82 108 -125 203 -125
101 0 191 64 218 155 19 63 19 93 0 147 -38 105 -149 167 -265 147z"/>
<path d="M10033 19599 c-112 -20 -184 -108 -184 -224 0 -131 95 -226 226 -226
131 0 226 95 226 226 0 147 -122 249 -268 224z"/>
<path d="M11583 19599 c-112 -20 -184 -108 -184 -224 0 -131 95 -226 226 -226
131 0 226 95 226 226 0 147 -122 249 -268 224z"/>
<path d="M12103 19599 c-110 -20 -193 -116 -193 -224 0 -123 107 -226 233
-226 95 0 165 43 203 125 80 171 -60 357 -243 325z"/>
<path d="M14160 19598 c-141 -25 -219 -188 -156 -324 38 -82 108 -125 203
-125 101 0 191 64 218 155 19 63 19 93 0 147 -38 105 -149 167 -265 147z"/>
<path d="M5375 19081 c-161 -41 -229 -220 -135 -355 85 -125 284 -126 369 -3
35 53 43 77 43 137 -1 117 -85 210 -202 223 -25 3 -58 2 -75 -2z"/>
<path d="M6925 19081 c-161 -41 -229 -220 -135 -355 85 -125 284 -126 369 -3
35 53 43 77 43 137 -1 117 -85 210 -202 223 -25 3 -58 2 -75 -2z"/>
<path d="M7955 19081 c-100 -26 -163 -100 -172 -202 -8 -79 15 -137 74 -188
56 -50 100 -65 173 -58 141 12 237 149 201 283 -31 117 -162 195 -276 165z"/>
<path d="M10025 19081 c-161 -41 -229 -220 -135 -355 85 -125 284 -126 369 -3
35 53 43 77 43 137 -1 117 -85 210 -202 223 -25 3 -58 2 -75 -2z"/>
<path d="M11055 19081 c-100 -26 -163 -100 -172 -202 -8 -79 15 -137 74 -188
56 -50 100 -65 173 -58 141 12 237 149 201 283 -31 117 -162 195 -276 165z"/>
<path d="M12073 19076 c-58 -19 -99 -51 -128 -100 -85 -146 7 -328 174 -343
74 -7 117 8 174 58 98 86 104 224 13 327 -50 56 -156 83 -233 58z"/>
<path d="M13623 19076 c-58 -19 -99 -51 -128 -100 -85 -146 7 -328 174 -343
74 -7 117 8 174 58 98 86 104 224 13 327 -50 56 -156 83 -233 58z"/>
<path d="M4815 18551 c-209 -97 -166 -398 62 -436 141 -23 279 111 259 251
-21 156 -183 249 -321 185z"/>
<path d="M5322 18544 c-34 -17 -63 -41 -81 -67 -35 -53 -43 -77 -43 -137 1
-128 98 -223 227 -223 129 0 226 95 227 223 0 60 -8 84 -43 137 -38 54 -114
93 -184 93 -35 0 -68 -8 -103 -26z"/>
<path d="M12065 18559 c-16 -4 -47 -22 -68 -40 -141 -117 -96 -344 78 -394
232 -68 398 216 224 382 -61 57 -149 77 -234 52z"/>
<path d="M12565 18551 c-209 -97 -166 -398 62 -436 141 -23 279 111 259 251
-21 156 -183 249 -321 185z"/>
<path d="M13615 18559 c-16 -4 -47 -22 -68 -40 -141 -117 -96 -344 78 -394
232 -68 398 216 224 382 -61 57 -149 77 -234 52z"/>
<path d="M14115 18551 c-209 -97 -166 -398 62 -436 141 -23 279 111 259 251
-21 156 -183 249 -321 185z"/>
<path d="M14622 18544 c-34 -17 -63 -41 -81 -67 -35 -53 -43 -77 -43 -137 1
-128 98 -223 227 -223 129 0 226 95 227 223 0 60 -8 84 -43 137 -38 54 -114
93 -184 93 -35 0 -68 -8 -103 -26z"/>
<path d="M4860 18048 c-141 -25 -219 -188 -156 -324 38 -82 108 -125 203 -125
101 0 191 64 218 155 19 63 19 93 0 147 -38 105 -149 167 -265 147z"/>
<path d="M5383 18049 c-112 -20 -184 -108 -184 -224 0 -131 95 -226 226 -226
131 0 226 95 226 226 0 147 -122 249 -268 224z"/>
<path d="M5903 18049 c-110 -20 -193 -116 -193 -224 0 -123 107 -226 233 -226
95 0 165 43 203 125 80 171 -60 357 -243 325z"/>
<path d="M6410 18048 c-141 -25 -219 -188 -156 -324 38 -82 108 -125 203 -125
101 0 191 64 218 155 19 63 19 93 0 147 -38 105 -149 167 -265 147z"/>
<path d="M7960 18048 c-141 -25 -219 -188 -156 -324 38 -82 108 -125 203 -125
101 0 191 64 218 155 19 63 19 93 0 147 -38 105 -149 167 -265 147z"/>
<path d="M9003 18049 c-110 -20 -193 -116 -193 -224 0 -123 107 -226 233 -226
95 0 165 43 203 125 80 171 -60 357 -243 325z"/>
<path d="M9510 18048 c-141 -25 -219 -188 -156 -324 38 -82 108 -125 203 -125
101 0 191 64 218 155 19 63 19 93 0 147 -38 105 -149 167 -265 147z"/>
<path d="M12103 18049 c-110 -20 -193 -116 -193 -224 0 -123 107 -226 233
-226 95 0 165 43 203 125 80 171 -60 357 -243 325z"/>
<path d="M13133 18049 c-112 -20 -184 -108 -184 -224 0 -131 95 -226 226 -226
131 0 226 95 226 226 0 147 -122 249 -268 224z"/>
<path d="M13653 18049 c-110 -20 -193 -116 -193 -224 0 -123 107 -226 233
-226 95 0 165 43 203 125 80 171 -60 357 -243 325z"/>
<path d="M14160 18048 c-141 -25 -219 -188 -156 -324 38 -82 108 -125 203
-125 101 0 191 64 218 155 19 63 19 93 0 147 -38 105 -149 167 -265 147z"/>
<path d="M14683 18049 c-112 -20 -184 -108 -184 -224 0 -131 95 -226 226 -226
131 0 226 95 226 226 0 147 -122 249 -268 224z"/>
<path d="M15203 18049 c-110 -20 -193 -116 -193 -224 0 -123 107 -226 233
-226 95 0 165 43 203 125 80 171 -60 357 -243 325z"/>
<path d="M5375 17531 c-161 -41 -229 -220 -135 -355 85 -125 284 -126 369 -3
35 53 43 77 43 137 -1 117 -85 210 -202 223 -25 3 -58 2 -75 -2z"/>
<path d="M6925 17531 c-161 -41 -229 -220 -135 -355 85 -125 284 -126 369 -3
35 53 43 77 43 137 -1 117 -85 210 -202 223 -25 3 -58 2 -75 -2z"/>
<path d="M7955 17531 c-100 -26 -163 -100 -172 -202 -8 -79 15 -137 74 -188
56 -50 100 -65 173 -58 141 12 237 149 201 283 -31 117 -162 195 -276 165z"/>
<path d="M8475 17531 c-161 -41 -229 -220 -135 -355 85 -125 284 -126 369 -3
35 53 43 77 43 137 -1 117 -85 210 -202 223 -25 3 -58 2 -75 -2z"/>
<path d="M10025 17531 c-161 -41 -229 -220 -135 -355 85 -125 284 -126 369 -3
35 53 43 77 43 137 -1 117 -85 210 -202 223 -25 3 -58 2 -75 -2z"/>
<path d="M11575 17531 c-161 -41 -229 -220 -135 -355 85 -125 284 -126 369 -3
35 53 43 77 43 137 -1 117 -85 210 -202 223 -25 3 -58 2 -75 -2z"/>
<path d="M12073 17526 c-58 -19 -99 -51 -128 -100 -85 -146 7 -328 174 -343
74 -7 117 8 174 58 98 86 104 224 13 327 -50 56 -156 83 -233 58z"/>
<path d="M12605 17531 c-100 -26 -163 -100 -172 -202 -8 -79 15 -137 74 -188
56 -50 100 -65 173 -58 141 12 237 149 201 283 -31 117 -162 195 -276 165z"/>
<path d="M14155 17531 c-100 -26 -163 -100 -172 -202 -8 -79 15 -137 74 -188
56 -50 100 -65 173 -58 141 12 237 149 201 283 -31 117 -162 195 -276 165z"/>
<path d="M5322 16994 c-34 -17 -63 -41 -81 -67 -35 -53 -43 -77 -43 -137 1
-128 98 -223 227 -223 129 0 226 95 227 223 0 60 -8 84 -43 137 -38 54 -114
93 -184 93 -35 0 -68 -8 -103 -26z"/>
<path d="M6872 16994 c-34 -17 -63 -41 -81 -67 -35 -53 -43 -77 -43 -137 1
-128 98 -223 227 -223 129 0 226 95 227 223 0 60 -8 84 -43 137 -38 54 -114
93 -184 93 -35 0 -68 -8 -103 -26z"/>
<path d="M7415 17009 c-16 -4 -47 -22 -68 -40 -141 -117 -96 -344 78 -394 232
-68 398 216 224 382 -61 57 -149 77 -234 52z"/>
<path d="M7915 17001 c-209 -97 -166 -398 62 -436 141 -23 279 111 259 251
-21 156 -183 249 -321 185z"/>
<path d="M9465 17001 c-209 -97 -166 -398 62 -436 141 -23 279 111 259 251
-21 156 -183 249 -321 185z"/>
<path d="M9972 16994 c-34 -17 -63 -41 -81 -67 -35 -53 -43 -77 -43 -137 1
-128 98 -223 227 -223 129 0 226 95 227 223 0 60 -8 84 -43 137 -38 54 -114
93 -184 93 -35 0 -68 -8 -103 -26z"/>
<path d="M10515 17009 c-16 -4 -47 -22 -68 -40 -141 -117 -96 -344 78 -394
232 -68 398 216 224 382 -61 57 -149 77 -234 52z"/>
<path d="M12065 17009 c-16 -4 -47 -22 -68 -40 -141 -117 -96 -344 78 -394
232 -68 398 216 224 382 -61 57 -149 77 -234 52z"/>
<path d="M13072 16994 c-34 -17 -63 -41 -81 -67 -35 -53 -43 -77 -43 -137 1
-128 98 -223 227 -223 129 0 226 95 227 223 0 60 -8 84 -43 137 -38 54 -114
93 -184 93 -35 0 -68 -8 -103 -26z"/>
<path d="M4860 16498 c-141 -25 -219 -188 -156 -324 38 -82 108 -125 203 -125
101 0 191 64 218 155 19 63 19 93 0 147 -38 105 -149 167 -265 147z"/>
<path d="M5903 16499 c-110 -20 -193 -116 -193 -224 0 -123 107 -226 233 -226
95 0 165 43 203 125 80 171 -60 357 -243 325z"/>
<path d="M6933 16499 c-112 -20 -184 -108 -184 -224 0 -131 95 -226 226 -226
131 0 226 95 226 226 0 147 -122 249 -268 224z"/>
<path d="M7960 16498 c-141 -25 -219 -188 -156 -324 38 -82 108 -125 203 -125
101 0 191 64 218 155 19 63 19 93 0 147 -38 105 -149 167 -265 147z"/>
<path d="M9003 16499 c-110 -20 -193 -116 -193 -224 0 -123 107 -226 233 -226
95 0 165 43 203 125 80 171 -60 357 -243 325z"/>
<path d="M10033 16499 c-112 -20 -184 -108 -184 -224 0 -131 95 -226 226 -226
131 0 226 95 226 226 0 147 -122 249 -268 224z"/>
<path d="M11060 16498 c-141 -25 -219 -188 -156 -324 38 -82 108 -125 203
-125 101 0 191 64 218 155 19 63 19 93 0 147 -38 105 -149 167 -265 147z"/>
<path d="M12103 16499 c-110 -20 -193 -116 -193 -224 0 -123 107 -226 233
-226 95 0 165 43 203 125 80 171 -60 357 -243 325z"/>
<path d="M13133 16499 c-112 -20 -184 -108 -184 -224 0 -131 95 -226 226 -226
131 0 226 95 226 226 0 147 -122 249 -268 224z"/>
<path d="M14160 16498 c-141 -25 -219 -188 -156 -324 38 -82 108 -125 203
-125 101 0 191 64 218 155 19 63 19 93 0 147 -38 105 -149 167 -265 147z"/>
<path d="M15203 16499 c-110 -20 -193 -116 -193 -224 0 -123 107 -226 233
-226 95 0 165 43 203 125 80 171 -60 357 -243 325z"/>
<path d="M5873 15976 c-58 -19 -99 -51 -128 -100 -85 -146 7 -328 174 -343 74
-7 117 8 174 58 98 86 104 224 13 327 -50 56 -156 83 -233 58z"/>
<path d="M6925 15981 c-161 -41 -229 -220 -135 -355 85 -125 284 -126 369 -3
35 53 43 77 43 137 -1 117 -85 210 -202 223 -25 3 -58 2 -75 -2z"/>
<path d="M8475 15981 c-161 -41 -229 -220 -135 -355 85 -125 284 -126 369 -3
35 53 43 77 43 137 -1 117 -85 210 -202 223 -25 3 -58 2 -75 -2z"/>
<path d="M11575 15981 c-161 -41 -229 -220 -135 -355 85 -125 284 -126 369 -3
35 53 43 77 43 137 -1 117 -85 210 -202 223 -25 3 -58 2 -75 -2z"/>
<path d="M13623 15976 c-58 -19 -99 -51 -128 -100 -85 -146 7 -328 174 -343
74 -7 117 8 174 58 98 86 104 224 13 327 -50 56 -156 83 -233 58z"/>
<path d="M14675 15981 c-161 -41 -229 -220 -135 -355 85 -125 284 -126 369 -3
35 53 43 77 43 137 -1 117 -85 210 -202 223 -25 3 -58 2 -75 -2z"/>
<path d="M15173 15976 c-58 -19 -99 -51 -128 -100 -85 -146 7 -328 174 -343
74 -7 117 8 174 58 98 86 104 224 13 327 -50 56 -156 83 -233 58z"/>
<path d="M2222 15444 c-34 -17 -63 -41 -81 -67 -35 -53 -43 -77 -43 -137 1
-128 98 -223 227 -223 129 0 226 95 227 223 0 60 -8 84 -43 137 -38 54 -114
93 -184 93 -35 0 -68 -8 -103 -26z"/>
<path d="M2765 15459 c-16 -4 -47 -22 -68 -40 -141 -117 -96 -344 78 -394 232
-68 398 216 224 382 -61 57 -149 77 -234 52z"/>
<path d="M3772 15444 c-34 -17 -63 -41 -81 -67 -35 -53 -43 -77 -43 -137 1
-128 98 -223 227 -223 129 0 226 95 227 223 0 60 -8 84 -43 137 -38 54 -114
93 -184 93 -35 0 -68 -8 -103 -26z"/>
<path d="M4315 15459 c-16 -4 -47 -22 -68 -40 -141 -117 -96 -344 78 -394 232
-68 398 216 224 382 -61 57 -149 77 -234 52z"/>
<path d="M5322 15444 c-34 -17 -63 -41 -81 -67 -35 -53 -43 -77 -43 -137 1
-128 98 -223 227 -223 129 0 226 95 227 223 0 60 -8 84 -43 137 -38 54 -114
93 -184 93 -35 0 -68 -8 -103 -26z"/>
<path d="M6365 15451 c-209 -97 -166 -398 62 -436 141 -23 279 111 259 251
-21 156 -183 249 -321 185z"/>
<path d="M7415 15459 c-16 -4 -47 -22 -68 -40 -141 -117 -96 -344 78 -394 232
-68 398 216 224 382 -61 57 -149 77 -234 52z"/>
<path d="M8422 15444 c-34 -17 -63 -41 -81 -67 -35 -53 -43 -77 -43 -137 1
-128 98 -223 227 -223 129 0 226 95 227 223 0 60 -8 84 -43 137 -38 54 -114
93 -184 93 -35 0 -68 -8 -103 -26z"/>
<path d="M8965 15459 c-16 -4 -47 -22 -68 -40 -141 -117 -96 -344 78 -394 232
-68 398 216 224 382 -61 57 -149 77 -234 52z"/>
<path d="M9465 15451 c-209 -97 -166 -398 62 -436 141 -23 279 111 259 251
-21 156 -183 249 -321 185z"/>
<path d="M10515 15459 c-16 -4 -47 -22 -68 -40 -141 -117 -96 -344 78 -394
232 -68 398 216 224 382 -61 57 -149 77 -234 52z"/>
<path d="M11015 15451 c-209 -97 -166 -398 62 -436 141 -23 279 111 259 251
-21 156 -183 249 -321 185z"/>
<path d="M13615 15459 c-16 -4 -47 -22 -68 -40 -141 -117 -96 -344 78 -394
232 -68 398 216 224 382 -61 57 -149 77 -234 52z"/>
<path d="M14115 15451 c-209 -97 -166 -398 62 -436 141 -23 279 111 259 251
-21 156 -183 249 -321 185z"/>
<path d="M17722 15444 c-34 -17 -63 -41 -81 -67 -35 -53 -43 -77 -43 -137 1
-128 98 -223 227 -223 129 0 226 95 227 223 0 60 -8 84 -43 137 -38 54 -114
93 -184 93 -35 0 -68 -8 -103 -26z"/>
<path d="M18265 15459 c-16 -4 -47 -22 -68 -40 -141 -117 -96 -344 78 -394
232 -68 398 216 224 382 -61 57 -149 77 -234 52z"/>
<path d="M733 14949 c-112 -20 -184 -108 -184 -224 0 -131 95 -226 226 -226
131 0 226 95 226 226 0 147 -122 249 -268 224z"/>
<path d="M2283 14949 c-112 -20 -184 -108 -184 -224 0 -131 95 -226 226 -226
131 0 226 95 226 226 0 147 -122 249 -268 224z"/>
<path d="M2803 14949 c-110 -20 -193 -116 -193 -224 0 -123 107 -226 233 -226
95 0 165 43 203 125 80 171 -60 357 -243 325z"/>
<path d="M4860 14948 c-141 -25 -219 -188 -156 -324 38 -82 108 -125 203 -125
101 0 191 64 218 155 19 63 19 93 0 147 -38 105 -149 167 -265 147z"/>
<path d="M5903 14949 c-110 -20 -193 -116 -193 -224 0 -123 107 -226 233 -226
95 0 165 43 203 125 80 171 -60 357 -243 325z"/>
<path d="M7453 14949 c-110 -20 -193 -116 -193 -224 0 -123 107 -226 233 -226
95 0 165 43 203 125 80 171 -60 357 -243 325z"/>
<path d="M8483 14949 c-112 -20 -184 -108 -184 -224 0 -131 95 -226 226 -226
131 0 226 95 226 226 0 147 -122 249 -268 224z"/>
<path d="M9510 14948 c-141 -25 -219 -188 -156 -324 38 -82 108 -125 203 -125
101 0 191 64 218 155 19 63 19 93 0 147 -38 105 -149 167 -265 147z"/>
<path d="M10553 14949 c-110 -20 -193 -116 -193 -224 0 -123 107 -226 233
-226 95 0 165 43 203 125 80 171 -60 357 -243 325z"/>
<path d="M11583 14949 c-112 -20 -184 -108 -184 -224 0 -131 95 -226 226 -226
131 0 226 95 226 226 0 147 -122 249 -268 224z"/>
<path d="M12103 14949 c-110 -20 -193 -116 -193 -224 0 -123 107 -226 233
-226 95 0 165 43 203 125 80 171 -60 357 -243 325z"/>
<path d="M13133 14949 c-112 -20 -184 -108 -184 -224 0 -131 95 -226 226 -226
131 0 226 95 226 226 0 147 -122 249 -268 224z"/>
<path d="M13653 14949 c-110 -20 -193 -116 -193 -224 0 -123 107 -226 233
-226 95 0 165 43 203 125 80 171 -60 357 -243 325z"/>
<path d="M14160 14948 c-141 -25 -219 -188 -156 -324 38 -82 108 -125 203
-125 101 0 191 64 218 155 19 63 19 93 0 147 -38 105 -149 167 -265 147z"/>
<path d="M16753 14949 c-110 -20 -193 -116 -193 -224 0 -123 107 -226 233
-226 95 0 165 43 203 125 80 171 -60 357 -243 325z"/>
<path d="M17260 14948 c-141 -25 -219 -188 -156 -324 38 -82 108 -125 203
-125 101 0 191 64 218 155 19 63 19 93 0 147 -38 105 -149 167 -265 147z"/>
<path d="M17783 14949 c-112 -20 -184 -108 -184 -224 0 -131 95 -226 226 -226
131 0 226 95 226 226 0 147 -122 249 -268 224z"/>
<path d="M18303 14949 c-110 -20 -193 -116 -193 -224 0 -123 107 -226 233
-226 95 0 165 43 203 125 80 171 -60 357 -243 325z"/>
<path d="M725 14431 c-161 -41 -229 -220 -135 -355 85 -125 284 -126 369 -3
35 53 43 77 43 137 -1 117 -85 210 -202 223 -25 3 -58 2 -75 -2z"/>
<path d="M1755 14431 c-100 -26 -163 -100 -172 -202 -8 -79 15 -137 74 -188
56 -50 100 -65 173 -58 141 12 237 149 201 283 -31 117 -162 195 -276 165z"/>
<path d="M2275 14431 c-161 -41 -229 -220 -135 -355 85 -125 284 -126 369 -3
35 53 43 77 43 137 -1 117 -85 210 -202 223 -25 3 -58 2 -75 -2z"/>
<path d="M2773 14426 c-58 -19 -99 -51 -128 -100 -85 -146 7 -328 174 -343 74
-7 117 8 174 58 98 86 104 224 13 327 -50 56 -156 83 -233 58z"/>
<path d="M3305 14431 c-100 -26 -163 -100 -172 -202 -8 -79 15 -137 74 -188
56 -50 100 -65 173 -58 141 12 237 149 201 283 -31 117 -162 195 -276 165z"/>
<path d="M3825 14431 c-161 -41 -229 -220 -135 -355 85 -125 284 -126 369 -3
35 53 43 77 43 137 -1 117 -85 210 -202 223 -25 3 -58 2 -75 -2z"/>
<path d="M5873 14426 c-58 -19 -99 -51 -128 -100 -85 -146 7 -328 174 -343 74
-7 117 8 174 58 98 86 104 224 13 327 -50 56 -156 83 -233 58z"/>
<path d="M6405 14431 c-100 -26 -163 -100 -172 -202 -8 -79 15 -137 74 -188
56 -50 100 -65 173 -58 141 12 237 149 201 283 -31 117 -162 195 -276 165z"/>
<path d="M8475 14431 c-161 -41 -229 -220 -135 -355 85 -125 284 -126 369 -3
35 53 43 77 43 137 -1 117 -85 210 -202 223 -25 3 -58 2 -75 -2z"/>
<path d="M10025 14431 c-161 -41 -229 -220 -135 -355 85 -125 284 -126 369 -3
35 53 43 77 43 137 -1 117 -85 210 -202 223 -25 3 -58 2 -75 -2z"/>
<path d="M10523 14426 c-58 -19 -99 -51 -128 -100 -85 -146 7 -328 174 -343
74 -7 117 8 174 58 98 86 104 224 13 327 -50 56 -156 83 -233 58z"/>
<path d="M11055 14431 c-100 -26 -163 -100 -172 -202 -8 -79 15 -137 74 -188
56 -50 100 -65 173 -58 141 12 237 149 201 283 -31 117 -162 195 -276 165z"/>
<path d="M11575 14431 c-161 -41 -229 -220 -135 -355 85 -125 284 -126 369 -3
35 53 43 77 43 137 -1 117 -85 210 -202 223 -25 3 -58 2 -75 -2z"/>
<path d="M13623 14426 c-58 -19 -99 -51 -128 -100 -85 -146 7 -328 174 -343
74 -7 117 8 174 58 98 86 104 224 13 327 -50 56 -156 83 -233 58z"/>
<path d="M14675 14431 c-161 -41 -229 -220 -135 -355 85 -125 284 -126 369 -3
35 53 43 77 43 137 -1 117 -85 210 -202 223 -25 3 -58 2 -75 -2z"/>
<path d="M15705 14431 c-100 -26 -163 -100 -172 -202 -8 -79 15 -137 74 -188
56 -50 100 -65 173 -58 141 12 237 149 201 283 -31 117 -162 195 -276 165z"/>
<path d="M16225 14431 c-161 -41 -229 -220 -135 -355 85 -125 284 -126 369 -3
35 53 43 77 43 137 -1 117 -85 210 -202 223 -25 3 -58 2 -75 -2z"/>
<path d="M16723 14426 c-58 -19 -99 -51 -128 -100 -85 -146 7 -328 174 -343
74 -7 117 8 174 58 98 86 104 224 13 327 -50 56 -156 83 -233 58z"/>
<path d="M17775 14431 c-161 -41 -229 -220 -135 -355 85 -125 284 -126 369 -3
35 53 43 77 43 137 -1 117 -85 210 -202 223 -25 3 -58 2 -75 -2z"/>
<path d="M19325 14431 c-161 -41 -229 -220 -135 -355 85 -125 284 -126 369 -3
35 53 43 77 43 137 -1 117 -85 210 -202 223 -25 3 -58 2 -75 -2z"/>
<path d="M2765 13909 c-16 -4 -47 -22 -68 -40 -141 -117 -96 -344 78 -394 232
-68 398 216 224 382 -61 57 -149 77 -234 52z"/>
<path d="M4315 13909 c-16 -4 -47 -22 -68 -40 -141 -117 -96 -344 78 -394 232
-68 398 216 224 382 -61 57 -149 77 -234 52z"/>
<path d="M5322 13894 c-34 -17 -63 -41 -81 -67 -35 -53 -43 -77 -43 -137 1
-128 98 -223 227 -223 129 0 226 95 227 223 0 60 -8 84 -43 137 -38 54 -114
93 -184 93 -35 0 -68 -8 -103 -26z"/>
<path d="M5865 13909 c-16 -4 -47 -22 -68 -40 -141 -117 -96 -344 78 -394 232
-68 398 216 224 382 -61 57 -149 77 -234 52z"/>
<path d="M14115 13901 c-209 -97 -166 -398 62 -436 141 -23 279 111 259 251
-21 156 -183 249 -321 185z"/>
<path d="M15165 13909 c-16 -4 -47 -22 -68 -40 -141 -117 -96 -344 78 -394
232 -68 398 216 224 382 -61 57 -149 77 -234 52z"/>
<path d="M15665 13901 c-209 -97 -166 -398 62 -436 141 -23 279 111 259 251
-21 156 -183 249 -321 185z"/>
<path d="M16172 13894 c-34 -17 -63 -41 -81 -67 -35 -53 -43 -77 -43 -137 1
-128 98 -223 227 -223 129 0 226 95 227 223 0 60 -8 84 -43 137 -38 54 -114
93 -184 93 -35 0 -68 -8 -103 -26z"/>
<path d="M17722 13894 c-34 -17 -63 -41 -81 -67 -35 -53 -43 -77 -43 -137 1
-128 98 -223 227 -223 129 0 226 95 227 223 0 60 -8 84 -43 137 -38 54 -114
93 -184 93 -35 0 -68 -8 -103 -26z"/>
<path d="M18265 13909 c-16 -4 -47 -22 -68 -40 -141 -117 -96 -344 78 -394
232 -68 398 216 224 382 -61 57 -149 77 -234 52z"/>
<path d="M19272 13894 c-34 -17 -63 -41 -81 -67 -35 -53 -43 -77 -43 -137 1
-128 98 -223 227 -223 129 0 226 95 227 223 0 60 -8 84 -43 137 -38 54 -114
93 -184 93 -35 0 -68 -8 -103 -26z"/>
<path d="M733 13399 c-112 -20 -184 -108 -184 -224 0 -131 95 -226 226 -226
131 0 226 95 226 226 0 147 -122 249 -268 224z"/>
<path d="M1760 13398 c-141 -25 -219 -188 -156 -324 38 -82 108 -125 203 -125
101 0 191 64 218 155 19 63 19 93 0 147 -38 105 -149 167 -265 147z"/>
<path d="M2803 13399 c-110 -20 -193 -116 -193 -224 0 -123 107 -226 233 -226
95 0 165 43 203 125 80 171 -60 357 -243 325z"/>
<path d="M3833 13399 c-112 -20 -184 -108 -184 -224 0 -131 95 -226 226 -226
131 0 226 95 226 226 0 147 -122 249 -268 224z"/>
<path d="M4353 13399 c-110 -20 -193 -116 -193 -224 0 -123 107 -226 233 -226
95 0 165 43 203 125 80 171 -60 357 -243 325z"/>
<path d="M5903 13399 c-110 -20 -193 -116 -193 -224 0 -123 107 -226 233 -226
95 0 165 43 203 125 80 171 -60 357 -243 325z"/>
<path d="M15203 13399 c-110 -20 -193 -116 -193 -224 0 -123 107 -226 233
-226 95 0 165 43 203 125 80 171 -60 357 -243 325z"/>
<path d="M16233 13399 c-112 -20 -184 -108 -184 -224 0 -131 95 -226 226 -226
131 0 226 95 226 226 0 147 -122 249 -268 224z"/>
<path d="M16753 13399 c-110 -20 -193 -116 -193 -224 0 -123 107 -226 233
-226 95 0 165 43 203 125 80 171 -60 357 -243 325z"/>
<path d="M17783 13399 c-112 -20 -184 -108 -184 -224 0 -131 95 -226 226 -226
131 0 226 95 226 226 0 147 -122 249 -268 224z"/>
<path d="M18810 13398 c-141 -25 -219 -188 -156 -324 38 -82 108 -125 203
-125 101 0 191 64 218 155 19 63 19 93 0 147 -38 105 -149 167 -265 147z"/>
<path d="M19333 13399 c-112 -20 -184 -108 -184 -224 0 -131 95 -226 226 -226
131 0 226 95 226 226 0 147 -122 249 -268 224z"/>
<path d="M9956 13061 c-13 -21 -57 -154 -75 -230 -12 -47 -28 -92 -36 -101 -8
-9 -23 -44 -34 -79 -11 -34 -26 -70 -34 -79 -7 -10 -24 -43 -36 -74 -13 -32
-29 -62 -36 -68 -7 -6 -20 -32 -30 -58 -10 -26 -28 -58 -41 -73 -13 -14 -24
-29 -24 -33 0 -15 -43 -96 -51 -96 -4 0 -14 -19 -24 -42 -9 -24 -25 -52 -35
-63 -10 -11 -28 -41 -38 -66 -11 -26 -25 -50 -31 -54 -6 -3 -23 -30 -37 -58
-15 -29 -34 -61 -44 -72 -10 -11 -21 -31 -25 -45 -4 -13 -23 -47 -41 -73 -19
-27 -34 -55 -34 -61 0 -6 -16 -36 -35 -65 -18 -30 -37 -66 -40 -81 -3 -16 -15
-36 -26 -46 -10 -9 -26 -39 -34 -66 -8 -27 -24 -62 -35 -78 -11 -16 -30 -58
-41 -92 -12 -35 -27 -70 -34 -78 -7 -8 -20 -42 -29 -75 -9 -33 -27 -82 -40
-110 -13 -27 -33 -86 -44 -130 -11 -44 -27 -104 -36 -134 -9 -30 -23 -107 -31
-170 -8 -64 -23 -145 -33 -181 -25 -94 -25 -536 0 -625 10 -34 25 -110 34
-170 9 -61 26 -135 39 -166 12 -30 28 -79 35 -108 7 -29 28 -82 46 -118 19
-35 34 -70 34 -78 0 -7 16 -39 35 -71 19 -32 35 -63 35 -69 0 -7 8 -19 18 -28
10 -9 29 -38 42 -64 13 -27 29 -52 37 -56 7 -4 20 -22 29 -40 9 -18 27 -43 40
-57 13 -14 40 -45 60 -70 56 -70 170 -185 269 -271 50 -43 101 -89 115 -102
14 -13 35 -27 47 -31 12 -4 31 -17 40 -30 10 -13 30 -29 43 -36 61 -32 259
-222 315 -301 64 -91 119 -204 136 -284 10 -44 22 -98 28 -120 15 -57 13 -190
-4 -260 -19 -81 -20 -79 18 -100 31 -16 36 -16 81 -1 41 14 131 73 158 103 6
8 47 48 67 68 35 34 161 186 180 218 12 20 27 37 32 37 5 0 18 18 29 39 11 22
26 44 32 48 7 4 21 25 32 45 10 20 27 46 36 56 10 11 28 38 39 60 11 22 25 44
31 47 6 4 24 33 40 65 16 32 34 61 39 64 5 4 21 30 36 59 14 28 43 84 64 122
49 87 55 99 81 155 11 25 27 56 34 70 25 44 94 194 101 220 4 14 17 43 30 65
13 22 28 60 35 85 6 25 21 61 32 80 11 19 29 67 40 105 11 39 25 77 32 85 7 8
23 56 35 105 12 50 29 100 37 112 8 13 23 65 33 117 11 51 26 107 34 123 9 16
25 90 37 164 12 74 28 154 35 179 28 88 45 328 26 359 -8 12 -14 12 -43 1 -18
-7 -46 -25 -61 -39 -67 -61 -127 -127 -133 -146 -4 -11 -19 -38 -35 -60 -16
-22 -38 -71 -50 -110 -11 -38 -25 -74 -29 -80 -4 -5 -18 -59 -30 -120 -12 -60
-28 -117 -35 -125 -7 -8 -22 -47 -34 -87 -12 -39 -27 -78 -34 -85 -8 -7 -21
-34 -31 -60 -10 -25 -29 -57 -42 -69 -13 -12 -24 -27 -24 -33 -1 -24 -135
-150 -195 -183 -92 -51 -125 -63 -213 -74 -115 -15 -273 0 -336 32 -100 49
-111 57 -186 133 -49 49 -78 92 -93 137 -9 25 -26 63 -39 85 -22 37 -23 48
-23 229 0 186 1 191 27 245 15 30 32 73 39 95 6 22 19 49 29 60 10 11 25 35
34 52 35 69 180 212 243 239 17 8 35 19 38 25 8 13 90 49 111 49 9 0 40 12 71
26 71 34 205 45 453 37 182 -6 311 6 340 31 8 8 37 23 63 35 55 23 153 117
163 155 3 13 0 34 -6 46 -11 20 -17 22 -58 16 -26 -3 -95 1 -161 11 -89 13
-187 17 -426 17 -298 1 -312 0 -370 -22 -33 -12 -91 -30 -130 -38 -38 -9 -95
-29 -125 -45 -30 -16 -60 -29 -66 -29 -6 0 -38 -18 -70 -40 -33 -22 -63 -40
-69 -40 -10 0 -22 -11 -138 -126 -80 -80 -152 -179 -181 -249 -9 -21 -23 -46
-31 -55 -8 -9 -24 -52 -35 -97 -11 -44 -30 -102 -42 -129 -20 -45 -22 -65 -22
-259 0 -204 1 -211 25 -265 15 -31 32 -80 39 -110 7 -30 20 -64 30 -75 18 -22
50 -87 50 -104 0 -6 8 -15 19 -20 10 -6 26 -26 35 -45 19 -41 200 -226 269
-276 79 -57 141 -111 154 -134 22 -38 16 -94 -13 -123 -22 -22 -32 -25 -79
-21 -30 3 -65 13 -80 24 -16 10 -35 24 -44 29 -22 14 -119 88 -158 120 -29 25
-192 187 -247 245 -13 14 -29 36 -36 50 -7 14 -26 41 -41 60 -15 19 -30 46
-34 60 -4 14 -18 38 -31 53 -13 15 -28 47 -34 70 -6 23 -22 65 -35 93 -15 31
-29 84 -35 135 -6 46 -17 121 -25 166 -17 93 -19 231 -5 283 5 19 16 93 24
163 9 82 22 143 35 170 11 23 29 72 41 108 11 37 27 72 34 79 8 6 22 33 31 60
9 27 29 65 46 86 16 20 29 42 29 49 0 6 9 20 21 31 12 10 27 31 35 46 19 36
128 169 178 215 10 10 26 26 35 37 9 10 22 24 29 30 13 10 41 36 118 107 43
40 162 129 172 129 4 0 21 14 37 30 16 17 34 30 39 30 6 0 25 12 41 26 17 14
51 37 78 50 26 13 47 28 47 32 0 5 23 19 50 32 28 13 50 26 50 30 0 4 24 19
54 34 30 15 62 36 72 47 9 10 21 19 27 19 12 0 119 76 165 118 20 17 39 32 43
32 5 0 125 118 211 208 12 12 30 41 40 65 11 23 27 51 37 62 10 11 29 65 42
120 35 149 30 205 -16 205 -14 0 -25 -5 -25 -11 0 -6 -44 -53 -97 -105 -129
-125 -143 -137 -178 -159 -16 -10 -39 -27 -50 -38 -11 -10 -36 -27 -56 -37
-19 -10 -41 -26 -49 -35 -7 -9 -28 -22 -46 -30 -19 -8 -43 -23 -55 -34 -13
-11 -42 -28 -66 -37 -24 -9 -43 -21 -43 -26 0 -5 -26 -21 -57 -35 -32 -14 -67
-33 -78 -43 -11 -9 -36 -23 -55 -30 -19 -7 -51 -25 -70 -40 -19 -15 -45 -30
-56 -34 -12 -4 -34 -18 -50 -31 -16 -14 -45 -32 -64 -41 -19 -9 -39 -23 -43
-31 -4 -7 -26 -22 -47 -33 -21 -11 -43 -26 -47 -33 -4 -8 -18 -19 -30 -26 -44
-23 -261 -214 -325 -287 -9 -10 -22 -23 -27 -29 -25 -24 -90 -106 -110 -139
-13 -20 -27 -36 -32 -36 -5 0 -18 -20 -30 -45 -12 -25 -25 -45 -30 -45 -5 0
-22 -28 -37 -62 -16 -35 -36 -69 -45 -77 -9 -7 -17 -20 -17 -29 0 -9 -15 -47
-34 -86 -19 -39 -42 -100 -51 -136 -9 -36 -22 -75 -30 -87 -23 -35 -47 -271
-47 -463 -1 -193 22 -411 47 -460 9 -17 24 -64 34 -105 10 -40 28 -87 38 -102
11 -15 25 -43 32 -62 6 -19 24 -55 40 -80 17 -25 34 -58 40 -73 6 -16 15 -28
20 -28 6 0 18 -14 26 -30 33 -64 216 -257 317 -333 50 -38 74 -95 59 -140 -32
-95 -119 -87 -241 23 -64 57 -225 217 -258 256 -73 88 -112 139 -112 148 0 5
-10 20 -22 33 -26 27 -68 98 -98 163 -12 25 -25 52 -30 60 -28 44 -48 90 -59
132 -6 26 -20 62 -31 80 -10 18 -26 74 -34 123 -9 50 -22 110 -31 134 -24 65
-38 233 -38 451 -1 209 12 335 43 415 10 28 23 79 29 115 6 36 22 87 36 113
14 27 25 55 25 63 0 23 31 107 50 134 9 14 23 47 30 74 7 26 23 60 35 75 12
14 26 40 29 58 4 18 19 49 32 69 14 20 32 55 41 78 9 22 25 53 35 69 18 26 54
90 100 182 11 22 30 54 42 70 12 17 28 46 36 65 7 19 21 44 31 55 9 11 28 45
42 76 14 31 29 59 35 63 6 3 22 32 37 63 14 32 32 64 39 73 8 8 17 26 21 40 4
14 19 43 34 65 15 22 32 58 39 81 6 23 22 56 35 75 12 19 28 54 36 79 7 25 22
60 32 79 11 18 27 63 35 100 8 36 26 100 41 143 24 72 25 85 21 235 -3 138 -7
163 -25 199 -12 23 -27 62 -34 88 -11 44 -22 56 -33 37z"/>
<path d="M1755 12881 c-100 -26 -163 -100 -172 -202 -8 -79 15 -137 74 -188
56 -50 100 -65 173 -58 141 12 237 149 201 283 -31 117 -162 195 -276 165z"/>
<path d="M2275 12881 c-161 -41 -229 -220 -135 -355 85 -125 284 -126 369 -3
35 53 43 77 43 137 -1 117 -85 210 -202 223 -25 3 -58 2 -75 -2z"/>
<path d="M2773 12876 c-58 -19 -99 -51 -128 -100 -85 -146 7 -328 174 -343 74
-7 117 8 174 58 98 86 104 224 13 327 -50 56 -156 83 -233 58z"/>
<path d="M3305 12881 c-100 -26 -163 -100 -172 -202 -8 -79 15 -137 74 -188
56 -50 100 -65 173 -58 141 12 237 149 201 283 -31 117 -162 195 -276 165z"/>
<path d="M14675 12881 c-161 -41 -229 -220 -135 -355 85 -125 284 -126 369 -3
35 53 43 77 43 137 -1 117 -85 210 -202 223 -25 3 -58 2 -75 -2z"/>
<path d="M15173 12876 c-58 -19 -99 -51 -128 -100 -85 -146 7 -328 174 -343
74 -7 117 8 174 58 98 86 104 224 13 327 -50 56 -156 83 -233 58z"/>
<path d="M15705 12881 c-100 -26 -163 -100 -172 -202 -8 -79 15 -137 74 -188
56 -50 100 -65 173 -58 141 12 237 149 201 283 -31 117 -162 195 -276 165z"/>
<path d="M16723 12876 c-58 -19 -99 -51 -128 -100 -85 -146 7 -328 174 -343
74 -7 117 8 174 58 98 86 104 224 13 327 -50 56 -156 83 -233 58z"/>
<path d="M17255 12881 c-100 -26 -163 -100 -172 -202 -8 -79 15 -137 74 -188
56 -50 100 -65 173 -58 141 12 237 149 201 283 -31 117 -162 195 -276 165z"/>
<path d="M18273 12876 c-58 -19 -99 -51 -128 -100 -85 -146 7 -328 174 -343
74 -7 117 8 174 58 98 86 104 224 13 327 -50 56 -156 83 -233 58z"/>
<path d="M18805 12881 c-100 -26 -163 -100 -172 -202 -8 -79 15 -137 74 -188
56 -50 100 -65 173 -58 141 12 237 149 201 283 -31 117 -162 195 -276 165z"/>
<path d="M1715 12351 c-209 -97 -166 -398 62 -436 141 -23 279 111 259 251
-21 156 -183 249 -321 185z"/>
<path d="M2222 12344 c-34 -17 -63 -41 -81 -67 -35 -53 -43 -77 -43 -137 1
-128 98 -223 227 -223 129 0 226 95 227 223 0 60 -8 84 -43 137 -38 54 -114
93 -184 93 -35 0 -68 -8 -103 -26z"/>
<path d="M2765 12359 c-16 -4 -47 -22 -68 -40 -141 -117 -96 -344 78 -394 232
-68 398 216 224 382 -61 57 -149 77 -234 52z"/>
<path d="M3772 12344 c-34 -17 -63 -41 -81 -67 -35 -53 -43 -77 -43 -137 1
-128 98 -223 227 -223 129 0 226 95 227 223 0 60 -8 84 -43 137 -38 54 -114
93 -184 93 -35 0 -68 -8 -103 -26z"/>
<path d="M4315 12359 c-16 -4 -47 -22 -68 -40 -141 -117 -96 -344 78 -394 232
-68 398 216 224 382 -61 57 -149 77 -234 52z"/>
<path d="M5322 12344 c-34 -17 -63 -41 -81 -67 -35 -53 -43 -77 -43 -137 1
-128 98 -223 227 -223 129 0 226 95 227 223 0 60 -8 84 -43 137 -38 54 -114
93 -184 93 -35 0 -68 -8 -103 -26z"/>
<path d="M14115 12351 c-209 -97 -166 -398 62 -436 141 -23 279 111 259 251
-21 156 -183 249 -321 185z"/>
<path d="M14622 12344 c-34 -17 -63 -41 -81 -67 -35 -53 -43 -77 -43 -137 1
-128 98 -223 227 -223 129 0 226 95 227 223 0 60 -8 84 -43 137 -38 54 -114
93 -184 93 -35 0 -68 -8 -103 -26z"/>
<path d="M16172 12344 c-34 -17 -63 -41 -81 -67 -35 -53 -43 -77 -43 -137 1
-128 98 -223 227 -223 129 0 226 95 227 223 0 60 -8 84 -43 137 -38 54 -114
93 -184 93 -35 0 -68 -8 -103 -26z"/>
<path d="M17722 12344 c-34 -17 -63 -41 -81 -67 -35 -53 -43 -77 -43 -137 1
-128 98 -223 227 -223 129 0 226 95 227 223 0 60 -8 84 -43 137 -38 54 -114
93 -184 93 -35 0 -68 -8 -103 -26z"/>
<path d="M18265 12359 c-16 -4 -47 -22 -68 -40 -141 -117 -96 -344 78 -394
232 -68 398 216 224 382 -61 57 -149 77 -234 52z"/>
<path d="M18765 12351 c-209 -97 -166 -398 62 -436 141 -23 279 111 259 251
-21 156 -183 249 -321 185z"/>
<path d="M19272 12344 c-34 -17 -63 -41 -81 -67 -35 -53 -43 -77 -43 -137 1
-128 98 -223 227 -223 129 0 226 95 227 223 0 60 -8 84 -43 137 -38 54 -114
93 -184 93 -35 0 -68 -8 -103 -26z"/>
<path d="M8281 11713 c2 -175 1 -507 -3 -738 -7 -436 0 -613 26 -663 8 -16 24
-80 35 -142 11 -61 27 -122 35 -135 8 -12 25 -60 36 -106 12 -46 30 -94 41
-105 11 -12 26 -45 34 -74 8 -29 17 -55 21 -59 13 -12 -5 224 -22 279 -35 118
-28 738 9 880 8 30 12 152 12 375 0 296 -2 334 -18 367 -10 21 -25 75 -34 120
-9 46 -22 90 -30 99 -8 9 -23 40 -34 69 -11 29 -36 71 -55 93 -18 22 -34 44
-34 49 0 4 -5 8 -11 8 -8 0 -10 -89 -8 -317z"/>
<path d="M1760 11848 c-141 -25 -219 -188 -156 -324 38 -82 108 -125 203 -125
101 0 191 64 218 155 19 63 19 93 0 147 -38 105 -149 167 -265 147z"/>
<path d="M3310 11848 c-141 -25 -219 -188 -156 -324 38 -82 108 -125 203 -125
101 0 191 64 218 155 19 63 19 93 0 147 -38 105 -149 167 -265 147z"/>
<path d="M4860 11848 c-141 -25 -219 -188 -156 -324 38 -82 108 -125 203 -125
101 0 191 64 218 155 19 63 19 93 0 147 -38 105 -149 167 -265 147z"/>
<path d="M14160 11848 c-141 -25 -219 -188 -156 -324 38 -82 108 -125 203
-125 101 0 191 64 218 155 19 63 19 93 0 147 -38 105 -149 167 -265 147z"/>
<path d="M14683 11849 c-112 -20 -184 -108 -184 -224 0 -131 95 -226 226 -226
131 0 226 95 226 226 0 147 -122 249 -268 224z"/>
<path d="M15710 11848 c-141 -25 -219 -188 -156 -324 38 -82 108 -125 203
-125 101 0 191 64 218 155 19 63 19 93 0 147 -38 105 -149 167 -265 147z"/>
<path d="M16233 11849 c-112 -20 -184 -108 -184 -224 0 -131 95 -226 226 -226
131 0 226 95 226 226 0 147 -122 249 -268 224z"/>
<path d="M16753 11849 c-110 -20 -193 -116 -193 -224 0 -123 107 -226 233
-226 95 0 165 43 203 125 80 171 -60 357 -243 325z"/>
<path d="M17260 11848 c-141 -25 -219 -188 -156 -324 38 -82 108 -125 203
-125 101 0 191 64 218 155 19 63 19 93 0 147 -38 105 -149 167 -265 147z"/>
<path d="M17783 11849 c-112 -20 -184 -108 -184 -224 0 -131 95 -226 226 -226
131 0 226 95 226 226 0 147 -122 249 -268 224z"/>
<path d="M18303 11849 c-110 -20 -193 -116 -193 -224 0 -123 107 -226 233
-226 95 0 165 43 203 125 80 171 -60 357 -243 325z"/>
<path d="M1755 11331 c-100 -26 -163 -100 -172 -202 -8 -79 15 -137 74 -188
56 -50 100 -65 173 -58 141 12 237 149 201 283 -31 117 -162 195 -276 165z"/>
<path d="M2275 11331 c-161 -41 -229 -220 -135 -355 85 -125 284 -126 369 -3
35 53 43 77 43 137 -1 117 -85 210 -202 223 -25 3 -58 2 -75 -2z"/>
<path d="M2773 11326 c-58 -19 -99 -51 -128 -100 -85 -146 7 -328 174 -343 74
-7 117 8 174 58 98 86 104 224 13 327 -50 56 -156 83 -233 58z"/>
<path d="M3305 11331 c-100 -26 -163 -100 -172 -202 -8 -79 15 -137 74 -188
56 -50 100 -65 173 -58 141 12 237 149 201 283 -31 117 -162 195 -276 165z"/>
<path d="M3825 11331 c-161 -41 -229 -220 -135 -355 85 -125 284 -126 369 -3
35 53 43 77 43 137 -1 117 -85 210 -202 223 -25 3 -58 2 -75 -2z"/>
<path d="M4323 11326 c-58 -19 -99 -51 -128 -100 -85 -146 7 -328 174 -343 74
-7 117 8 174 58 98 86 104 224 13 327 -50 56 -156 83 -233 58z"/>
<path d="M16225 11331 c-161 -41 -229 -220 -135 -355 85 -125 284 -126 369 -3
35 53 43 77 43 137 -1 117 -85 210 -202 223 -25 3 -58 2 -75 -2z"/>
<path d="M18273 11326 c-58 -19 -99 -51 -128 -100 -85 -146 7 -328 174 -343
74 -7 117 8 174 58 98 86 104 224 13 327 -50 56 -156 83 -233 58z"/>
<path d="M1215 10809 c-16 -4 -47 -22 -68 -40 -141 -117 -96 -344 78 -394 232
-68 398 216 224 382 -61 57 -149 77 -234 52z"/>
<path d="M2765 10809 c-16 -4 -47 -22 -68 -40 -141 -117 -96 -344 78 -394 232
-68 398 216 224 382 -61 57 -149 77 -234 52z"/>
<path d="M4315 10809 c-16 -4 -47 -22 -68 -40 -141 -117 -96 -344 78 -394 232
-68 398 216 224 382 -61 57 -149 77 -234 52z"/>
<path d="M4815 10801 c-209 -97 -166 -398 62 -436 141 -23 279 111 259 251
-21 156 -183 249 -321 185z"/>
<path d="M5322 10794 c-34 -17 -63 -41 -81 -67 -35 -53 -43 -77 -43 -137 1
-128 98 -223 227 -223 129 0 226 95 227 223 0 60 -8 84 -43 137 -38 54 -114
93 -184 93 -35 0 -68 -8 -103 -26z"/>
<path d="M14622 10794 c-34 -17 -63 -41 -81 -67 -35 -53 -43 -77 -43 -137 1
-128 98 -223 227 -223 129 0 226 95 227 223 0 60 -8 84 -43 137 -38 54 -114
93 -184 93 -35 0 -68 -8 -103 -26z"/>
<path d="M15665 10801 c-209 -97 -166 -398 62 -436 141 -23 279 111 259 251
-21 156 -183 249 -321 185z"/>
<path d="M16715 10809 c-16 -4 -47 -22 -68 -40 -141 -117 -96 -344 78 -394
232 -68 398 216 224 382 -61 57 -149 77 -234 52z"/>
<path d="M18265 10809 c-16 -4 -47 -22 -68 -40 -141 -117 -96 -344 78 -394
232 -68 398 216 224 382 -61 57 -149 77 -234 52z"/>
<path d="M18765 10801 c-209 -97 -166 -398 62 -436 141 -23 279 111 259 251
-21 156 -183 249 -321 185z"/>
<path d="M733 10299 c-112 -20 -184 -108 -184 -224 0 -131 95 -226 226 -226
131 0 226 95 226 226 0 147 -122 249 -268 224z"/>
<path d="M1253 10299 c-110 -20 -193 -116 -193 -224 0 -123 107 -226 233 -226
95 0 165 43 203 125 80 171 -60 357 -243 325z"/>
<path d="M1760 10298 c-141 -25 -219 -188 -156 -324 38 -82 108 -125 203 -125
101 0 191 64 218 155 19 63 19 93 0 147 -38 105 -149 167 -265 147z"/>
<path d="M2283 10299 c-112 -20 -184 -108 -184 -224 0 -131 95 -226 226 -226
131 0 226 95 226 226 0 147 -122 249 -268 224z"/>
<path d="M2803 10299 c-110 -20 -193 -116 -193 -224 0 -123 107 -226 233 -226
95 0 165 43 203 125 80 171 -60 357 -243 325z"/>
<path d="M3310 10298 c-141 -25 -219 -188 -156 -324 38 -82 108 -125 203 -125
101 0 191 64 218 155 19 63 19 93 0 147 -38 105 -149 167 -265 147z"/>
<path d="M3833 10299 c-112 -20 -184 -108 -184 -224 0 -131 95 -226 226 -226
131 0 226 95 226 226 0 147 -122 249 -268 224z"/>
<path d="M5383 10299 c-112 -20 -184 -108 -184 -224 0 -131 95 -226 226 -226
131 0 226 95 226 226 0 147 -122 249 -268 224z"/>
<path d="M14683 10299 c-112 -20 -184 -108 -184 -224 0 -131 95 -226 226 -226
131 0 226 95 226 226 0 147 -122 249 -268 224z"/>
<path d="M16753 10299 c-110 -20 -193 -116 -193 -224 0 -123 107 -226 233
-226 95 0 165 43 203 125 80 171 -60 357 -243 325z"/>
<path d="M17783 10299 c-112 -20 -184 -108 -184 -224 0 -131 95 -226 226 -226
131 0 226 95 226 226 0 147 -122 249 -268 224z"/>
<path d="M18303 10299 c-110 -20 -193 -116 -193 -224 0 -123 107 -226 233
-226 95 0 165 43 203 125 80 171 -60 357 -243 325z"/>
<path d="M19333 10299 c-112 -20 -184 -108 -184 -224 0 -131 95 -226 226 -226
131 0 226 95 226 226 0 147 -122 249 -268 224z"/>
<path d="M1223 9776 c-58 -19 -99 -51 -128 -100 -85 -146 7 -328 174 -343 74
-7 117 8 174 58 98 86 104 224 13 327 -50 56 -156 83 -233 58z"/>
<path d="M1755 9781 c-100 -26 -163 -100 -172 -202 -8 -79 15 -137 74 -188 56
-50 100 -65 173 -58 141 12 237 149 201 283 -31 117 -162 195 -276 165z"/>
<path d="M4323 9776 c-58 -19 -99 -51 -128 -100 -85 -146 7 -328 174 -343 74
-7 117 8 174 58 98 86 104 224 13 327 -50 56 -156 83 -233 58z"/>
<path d="M5873 9776 c-58 -19 -99 -51 -128 -100 -85 -146 7 -328 174 -343 74
-7 117 8 174 58 98 86 104 224 13 327 -50 56 -156 83 -233 58z"/>
<path d="M16723 9776 c-58 -19 -99 -51 -128 -100 -85 -146 7 -328 174 -343 74
-7 117 8 174 58 98 86 104 224 13 327 -50 56 -156 83 -233 58z"/>
<path d="M17255 9781 c-100 -26 -163 -100 -172 -202 -8 -79 15 -137 74 -188
56 -50 100 -65 173 -58 141 12 237 149 201 283 -31 117 -162 195 -276 165z"/>
<path d="M17775 9781 c-161 -41 -229 -220 -135 -355 85 -125 284 -126 369 -3
35 53 43 77 43 137 -1 117 -85 210 -202 223 -25 3 -58 2 -75 -2z"/>
<path d="M2222 9244 c-34 -17 -63 -41 -81 -67 -35 -53 -43 -77 -43 -137 1
-128 98 -223 227 -223 129 0 226 95 227 223 0 60 -8 84 -43 137 -38 54 -114
93 -184 93 -35 0 -68 -8 -103 -26z"/>
<path d="M3265 9251 c-209 -97 -166 -398 62 -436 141 -23 279 111 259 251 -21
156 -183 249 -321 185z"/>
<path d="M3772 9244 c-34 -17 -63 -41 -81 -67 -35 -53 -43 -77 -43 -137 1
-128 98 -223 227 -223 129 0 226 95 227 223 0 60 -8 84 -43 137 -38 54 -114
93 -184 93 -35 0 -68 -8 -103 -26z"/>
<path d="M4815 9251 c-209 -97 -166 -398 62 -436 141 -23 279 111 259 251 -21
156 -183 249 -321 185z"/>
<path d="M5322 9244 c-34 -17 -63 -41 -81 -67 -35 -53 -43 -77 -43 -137 1
-128 98 -223 227 -223 129 0 226 95 227 223 0 60 -8 84 -43 137 -38 54 -114
93 -184 93 -35 0 -68 -8 -103 -26z"/>
<path d="M5865 9259 c-16 -4 -47 -22 -68 -40 -141 -117 -96 -344 78 -394 232
-68 398 216 224 382 -61 57 -149 77 -234 52z"/>
<path d="M14115 9251 c-209 -97 -166 -398 62 -436 141 -23 279 111 259 251
-21 156 -183 249 -321 185z"/>
<path d="M14622 9244 c-34 -17 -63 -41 -81 -67 -35 -53 -43 -77 -43 -137 1
-128 98 -223 227 -223 129 0 226 95 227 223 0 60 -8 84 -43 137 -38 54 -114
93 -184 93 -35 0 -68 -8 -103 -26z"/>
<path d="M15165 9259 c-16 -4 -47 -22 -68 -40 -141 -117 -96 -344 78 -394 232
-68 398 216 224 382 -61 57 -149 77 -234 52z"/>
<path d="M15665 9251 c-209 -97 -166 -398 62 -436 141 -23 279 111 259 251
-21 156 -183 249 -321 185z"/>
<path d="M16172 9244 c-34 -17 -63 -41 -81 -67 -35 -53 -43 -77 -43 -137 1
-128 98 -223 227 -223 129 0 226 95 227 223 0 60 -8 84 -43 137 -38 54 -114
93 -184 93 -35 0 -68 -8 -103 -26z"/>
<path d="M17215 9251 c-209 -97 -166 -398 62 -436 141 -23 279 111 259 251
-21 156 -183 249 -321 185z"/>
<path d="M17722 9244 c-34 -17 -63 -41 -81 -67 -35 -53 -43 -77 -43 -137 1
-128 98 -223 227 -223 129 0 226 95 227 223 0 60 -8 84 -43 137 -38 54 -114
93 -184 93 -35 0 -68 -8 -103 -26z"/>
<path d="M733 8749 c-112 -20 -184 -108 -184 -224 0 -131 95 -226 226 -226
131 0 226 95 226 226 0 147 -122 249 -268 224z"/>
<path d="M1760 8748 c-141 -25 -219 -188 -156 -324 38 -82 108 -125 203 -125
101 0 191 64 218 155 19 63 19 93 0 147 -38 105 -149 167 -265 147z"/>
<path d="M5383 8749 c-112 -20 -184 -108 -184 -224 0 -131 95 -226 226 -226
131 0 226 95 226 226 0 147 -122 249 -268 224z"/>
<path d="M5903 8749 c-110 -20 -193 -116 -193 -224 0 -123 107 -226 233 -226
95 0 165 43 203 125 80 171 -60 357 -243 325z"/>
<path d="M14160 8748 c-141 -25 -219 -188 -156 -324 38 -82 108 -125 203 -125
101 0 191 64 218 155 19 63 19 93 0 147 -38 105 -149 167 -265 147z"/>
<path d="M14683 8749 c-112 -20 -184 -108 -184 -224 0 -131 95 -226 226 -226
131 0 226 95 226 226 0 147 -122 249 -268 224z"/>
<path d="M15203 8749 c-110 -20 -193 -116 -193 -224 0 -123 107 -226 233 -226
95 0 165 43 203 125 80 171 -60 357 -243 325z"/>
<path d="M16753 8749 c-110 -20 -193 -116 -193 -224 0 -123 107 -226 233 -226
95 0 165 43 203 125 80 171 -60 357 -243 325z"/>
<path d="M17260 8748 c-141 -25 -219 -188 -156 -324 38 -82 108 -125 203 -125
101 0 191 64 218 155 19 63 19 93 0 147 -38 105 -149 167 -265 147z"/>
<path d="M17783 8749 c-112 -20 -184 -108 -184 -224 0 -131 95 -226 226 -226
131 0 226 95 226 226 0 147 -122 249 -268 224z"/>
<path d="M18810 8748 c-141 -25 -219 -188 -156 -324 38 -82 108 -125 203 -125
101 0 191 64 218 155 19 63 19 93 0 147 -38 105 -149 167 -265 147z"/>
<path d="M725 8231 c-161 -41 -229 -220 -135 -355 85 -125 284 -126 369 -3 35
53 43 77 43 137 -1 117 -85 210 -202 223 -25 3 -58 2 -75 -2z"/>
<path d="M1755 8231 c-100 -26 -163 -100 -172 -202 -8 -79 15 -137 74 -188 56
-50 100 -65 173 -58 141 12 237 149 201 283 -31 117 -162 195 -276 165z"/>
<path d="M2275 8231 c-161 -41 -229 -220 -135 -355 85 -125 284 -126 369 -3
35 53 43 77 43 137 -1 117 -85 210 -202 223 -25 3 -58 2 -75 -2z"/>
<path d="M2773 8226 c-58 -19 -99 -51 -128 -100 -85 -146 7 -328 174 -343 74
-7 117 8 174 58 98 86 104 224 13 327 -50 56 -156 83 -233 58z"/>
<path d="M3825 8231 c-161 -41 -229 -220 -135 -355 85 -125 284 -126 369 -3
35 53 43 77 43 137 -1 117 -85 210 -202 223 -25 3 -58 2 -75 -2z"/>
<path d="M5375 8231 c-161 -41 -229 -220 -135 -355 85 -125 284 -126 369 -3
35 53 43 77 43 137 -1 117 -85 210 -202 223 -25 3 -58 2 -75 -2z"/>
<path d="M5873 8226 c-58 -19 -99 -51 -128 -100 -85 -146 7 -328 174 -343 74
-7 117 8 174 58 98 86 104 224 13 327 -50 56 -156 83 -233 58z"/>
<path d="M14155 8231 c-100 -26 -163 -100 -172 -202 -8 -79 15 -137 74 -188
56 -50 100 -65 173 -58 141 12 237 149 201 283 -31 117 -162 195 -276 165z"/>
<path d="M14675 8231 c-161 -41 -229 -220 -135 -355 85 -125 284 -126 369 -3
35 53 43 77 43 137 -1 117 -85 210 -202 223 -25 3 -58 2 -75 -2z"/>
<path d="M15705 8231 c-100 -26 -163 -100 -172 -202 -8 -79 15 -137 74 -188
56 -50 100 -65 173 -58 141 12 237 149 201 283 -31 117 -162 195 -276 165z"/>
<path d="M16225 8231 c-161 -41 -229 -220 -135 -355 85 -125 284 -126 369 -3
35 53 43 77 43 137 -1 117 -85 210 -202 223 -25 3 -58 2 -75 -2z"/>
<path d="M17255 8231 c-100 -26 -163 -100 -172 -202 -8 -79 15 -137 74 -188
56 -50 100 -65 173 -58 141 12 237 149 201 283 -31 117 -162 195 -276 165z"/>
<path d="M17775 8231 c-161 -41 -229 -220 -135 -355 85 -125 284 -126 369 -3
35 53 43 77 43 137 -1 117 -85 210 -202 223 -25 3 -58 2 -75 -2z"/>
<path d="M18273 8226 c-58 -19 -99 -51 -128 -100 -85 -146 7 -328 174 -343 74
-7 117 8 174 58 98 86 104 224 13 327 -50 56 -156 83 -233 58z"/>
<path d="M19325 8231 c-161 -41 -229 -220 -135 -355 85 -125 284 -126 369 -3
35 53 43 77 43 137 -1 117 -85 210 -202 223 -25 3 -58 2 -75 -2z"/>
<path d="M1215 7709 c-16 -4 -47 -22 -68 -40 -141 -117 -96 -344 78 -394 232
-68 398 216 224 382 -61 57 -149 77 -234 52z"/>
<path d="M3265 7701 c-209 -97 -166 -398 62 -436 141 -23 279 111 259 251 -21
156 -183 249 -321 185z"/>
<path d="M4315 7709 c-16 -4 -47 -22 -68 -40 -141 -117 -96 -344 78 -394 232
-68 398 216 224 382 -61 57 -149 77 -234 52z"/>
<path d="M5865 7709 c-16 -4 -47 -22 -68 -40 -141 -117 -96 -344 78 -394 232
-68 398 216 224 382 -61 57 -149 77 -234 52z"/>
<path d="M14622 7694 c-34 -17 -63 -41 -81 -67 -35 -53 -43 -77 -43 -137 1
-128 98 -223 227 -223 129 0 226 95 227 223 0 60 -8 84 -43 137 -38 54 -114
93 -184 93 -35 0 -68 -8 -103 -26z"/>
<path d="M15165 7709 c-16 -4 -47 -22 -68 -40 -141 -117 -96 -344 78 -394 232
-68 398 216 224 382 -61 57 -149 77 -234 52z"/>
<path d="M16172 7694 c-34 -17 -63 -41 -81 -67 -35 -53 -43 -77 -43 -137 1
-128 98 -223 227 -223 129 0 226 95 227 223 0 60 -8 84 -43 137 -38 54 -114
93 -184 93 -35 0 -68 -8 -103 -26z"/>
<path d="M16715 7709 c-16 -4 -47 -22 -68 -40 -141 -117 -96 -344 78 -394 232
-68 398 216 224 382 -61 57 -149 77 -234 52z"/>
<path d="M17722 7694 c-34 -17 -63 -41 -81 -67 -35 -53 -43 -77 -43 -137 1
-128 98 -223 227 -223 129 0 226 95 227 223 0 60 -8 84 -43 137 -38 54 -114
93 -184 93 -35 0 -68 -8 -103 -26z"/>
<path d="M18265 7709 c-16 -4 -47 -22 -68 -40 -141 -117 -96 -344 78 -394 232
-68 398 216 224 382 -61 57 -149 77 -234 52z"/>
<path d="M19272 7694 c-34 -17 -63 -41 -81 -67 -35 -53 -43 -77 -43 -137 1
-128 98 -223 227 -223 129 0 226 95 227 223 0 60 -8 84 -43 137 -38 54 -114
93 -184 93 -35 0 -68 -8 -103 -26z"/>
<path d="M1760 7198 c-141 -25 -219 -188 -156 -324 38 -82 108 -125 203 -125
101 0 191 64 218 155 19 63 19 93 0 147 -38 105 -149 167 -265 147z"/>
<path d="M2803 7199 c-110 -20 -193 -116 -193 -224 0 -123 107 -226 233 -226
95 0 165 43 203 125 80 171 -60 357 -243 325z"/>
<path d="M3833 7199 c-112 -20 -184 -108 -184 -224 0 -131 95 -226 226 -226
131 0 226 95 226 226 0 147 -122 249 -268 224z"/>
<path d="M5383 7199 c-112 -20 -184 -108 -184 -224 0 -131 95 -226 226 -226
131 0 226 95 226 226 0 147 -122 249 -268 224z"/>
<path d="M5903 7199 c-110 -20 -193 -116 -193 -224 0 -123 107 -226 233 -226
95 0 165 43 203 125 80 171 -60 357 -243 325z"/>
<path d="M14160 7198 c-141 -25 -219 -188 -156 -324 38 -82 108 -125 203 -125
101 0 191 64 218 155 19 63 19 93 0 147 -38 105 -149 167 -265 147z"/>
<path d="M15203 7199 c-110 -20 -193 -116 -193 -224 0 -123 107 -226 233 -226
95 0 165 43 203 125 80 171 -60 357 -243 325z"/>
<path d="M16233 7199 c-112 -20 -184 -108 -184 -224 0 -131 95 -226 226 -226
131 0 226 95 226 226 0 147 -122 249 -268 224z"/>
<path d="M16753 7199 c-110 -20 -193 -116 -193 -224 0 -123 107 -226 233 -226
95 0 165 43 203 125 80 171 -60 357 -243 325z"/>
<path d="M17783 7199 c-112 -20 -184 -108 -184 -224 0 -131 95 -226 226 -226
131 0 226 95 226 226 0 147 -122 249 -268 224z"/>
<path d="M18810 7198 c-141 -25 -219 -188 -156 -324 38 -82 108 -125 203 -125
101 0 191 64 218 155 19 63 19 93 0 147 -38 105 -149 167 -265 147z"/>
<path d="M19333 7199 c-112 -20 -184 -108 -184 -224 0 -131 95 -226 226 -226
131 0 226 95 226 226 0 147 -122 249 -268 224z"/>
<path d="M725 6681 c-161 -41 -229 -220 -135 -355 85 -125 284 -126 369 -3 35
53 43 77 43 137 -1 117 -85 210 -202 223 -25 3 -58 2 -75 -2z"/>
<path d="M1223 6676 c-58 -19 -99 -51 -128 -100 -85 -146 7 -328 174 -343 74
-7 117 8 174 58 98 86 104 224 13 327 -50 56 -156 83 -233 58z"/>
<path d="M1755 6681 c-100 -26 -163 -100 -172 -202 -8 -79 15 -137 74 -188 56
-50 100 -65 173 -58 141 12 237 149 201 283 -31 117 -162 195 -276 165z"/>
<path d="M2275 6681 c-161 -41 -229 -220 -135 -355 85 -125 284 -126 369 -3
35 53 43 77 43 137 -1 117 -85 210 -202 223 -25 3 -58 2 -75 -2z"/>
<path d="M4323 6676 c-58 -19 -99 -51 -128 -100 -85 -146 7 -328 174 -343 74
-7 117 8 174 58 98 86 104 224 13 327 -50 56 -156 83 -233 58z"/>
<path d="M4855 6681 c-100 -26 -163 -100 -172 -202 -8 -79 15 -137 74 -188 56
-50 100 -65 173 -58 141 12 237 149 201 283 -31 117 -162 195 -276 165z"/>
<path d="M14155 6681 c-100 -26 -163 -100 -172 -202 -8 -79 15 -137 74 -188
56 -50 100 -65 173 -58 141 12 237 149 201 283 -31 117 -162 195 -276 165z"/>
<path d="M15173 6676 c-58 -19 -99 -51 -128 -100 -85 -146 7 -328 174 -343 74
-7 117 8 174 58 98 86 104 224 13 327 -50 56 -156 83 -233 58z"/>
<path d="M15705 6681 c-100 -26 -163 -100 -172 -202 -8 -79 15 -137 74 -188
56 -50 100 -65 173 -58 141 12 237 149 201 283 -31 117 -162 195 -276 165z"/>
<path d="M16225 6681 c-161 -41 -229 -220 -135 -355 85 -125 284 -126 369 -3
35 53 43 77 43 137 -1 117 -85 210 -202 223 -25 3 -58 2 -75 -2z"/>
<path d="M17255 6681 c-100 -26 -163 -100 -172 -202 -8 -79 15 -137 74 -188
56 -50 100 -65 173 -58 141 12 237 149 201 283 -31 117 -162 195 -276 165z"/>
<path d="M17775 6681 c-161 -41 -229 -220 -135 -355 85 -125 284 -126 369 -3
35 53 43 77 43 137 -1 117 -85 210 -202 223 -25 3 -58 2 -75 -2z"/>
<path d="M672 6144 c-34 -17 -63 -41 -81 -67 -35 -53 -43 -77 -43 -137 1 -128
98 -223 227 -223 129 0 226 95 227 223 0 60 -8 84 -43 137 -38 54 -114 93
-184 93 -35 0 -68 -8 -103 -26z"/>
<path d="M1215 6159 c-16 -4 -47 -22 -68 -40 -141 -117 -96 -344 78 -394 232
-68 398 216 224 382 -61 57 -149 77 -234 52z"/>
<path d="M1715 6151 c-209 -97 -166 -398 62 -436 141 -23 279 111 259 251 -21
156 -183 249 -321 185z"/>
<path d="M2222 6144 c-34 -17 -63 -41 -81 -67 -35 -53 -43 -77 -43 -137 1
-128 98 -223 227 -223 129 0 226 95 227 223 0 60 -8 84 -43 137 -38 54 -114
93 -184 93 -35 0 -68 -8 -103 -26z"/>
<path d="M2765 6159 c-16 -4 -47 -22 -68 -40 -141 -117 -96 -344 78 -394 232
-68 398 216 224 382 -61 57 -149 77 -234 52z"/>
<path d="M3265 6151 c-209 -97 -166 -398 62 -436 141 -23 279 111 259 251 -21
156 -183 249 -321 185z"/>
<path d="M3772 6144 c-34 -17 -63 -41 -81 -67 -35 -53 -43 -77 -43 -137 1
-128 98 -223 227 -223 129 0 226 95 227 223 0 60 -8 84 -43 137 -38 54 -114
93 -184 93 -35 0 -68 -8 -103 -26z"/>
<path d="M5865 6159 c-16 -4 -47 -22 -68 -40 -141 -117 -96 -344 78 -394 232
-68 398 216 224 382 -61 57 -149 77 -234 52z"/>
<path d="M9465 6151 c-209 -97 -166 -398 62 -436 141 -23 279 111 259 251 -21
156 -183 249 -321 185z"/>
<path d="M9972 6144 c-34 -17 -63 -41 -81 -67 -35 -53 -43 -77 -43 -137 1
-128 98 -223 227 -223 129 0 226 95 227 223 0 60 -8 84 -43 137 -38 54 -114
93 -184 93 -35 0 -68 -8 -103 -26z"/>
<path d="M10515 6159 c-16 -4 -47 -22 -68 -40 -141 -117 -96 -344 78 -394 232
-68 398 216 224 382 -61 57 -149 77 -234 52z"/>
<path d="M11522 6144 c-34 -17 -63 -41 -81 -67 -35 -53 -43 -77 -43 -137 1
-128 98 -223 227 -223 129 0 226 95 227 223 0 60 -8 84 -43 137 -38 54 -114
93 -184 93 -35 0 -68 -8 -103 -26z"/>
<path d="M13615 6159 c-16 -4 -47 -22 -68 -40 -141 -117 -96 -344 78 -394 232
-68 398 216 224 382 -61 57 -149 77 -234 52z"/>
<path d="M14622 6144 c-34 -17 -63 -41 -81 -67 -35 -53 -43 -77 -43 -137 1
-128 98 -223 227 -223 129 0 226 95 227 223 0 60 -8 84 -43 137 -38 54 -114
93 -184 93 -35 0 -68 -8 -103 -26z"/>
<path d="M16172 6144 c-34 -17 -63 -41 -81 -67 -35 -53 -43 -77 -43 -137 1
-128 98 -223 227 -223 129 0 226 95 227 223 0 60 -8 84 -43 137 -38 54 -114
93 -184 93 -35 0 -68 -8 -103 -26z"/>
<path d="M16715 6159 c-16 -4 -47 -22 -68 -40 -141 -117 -96 -344 78 -394 232
-68 398 216 224 382 -61 57 -149 77 -234 52z"/>
<path d="M17722 6144 c-34 -17 -63 -41 -81 -67 -35 -53 -43 -77 -43 -137 1
-128 98 -223 227 -223 129 0 226 95 227 223 0 60 -8 84 -43 137 -38 54 -114
93 -184 93 -35 0 -68 -8 -103 -26z"/>
<path d="M18265 6159 c-16 -4 -47 -22 -68 -40 -141 -117 -96 -344 78 -394 232
-68 398 216 224 382 -61 57 -149 77 -234 52z"/>
<path d="M18765 6151 c-209 -97 -166 -398 62 -436 141 -23 279 111 259 251
-21 156 -183 249 -321 185z"/>
<path d="M19272 6144 c-34 -17 -63 -41 -81 -67 -35 -53 -43 -77 -43 -137 1
-128 98 -223 227 -223 129 0 226 95 227 223 0 60 -8 84 -43 137 -38 54 -114
93 -184 93 -35 0 -68 -8 -103 -26z"/>
<path d="M733 5649 c-112 -20 -184 -108 -184 -224 0 -131 95 -226 226 -226
131 0 226 95 226 226 0 147 -122 249 -268 224z"/>
<path d="M1760 5648 c-141 -25 -219 -188 -156 -324 38 -82 108 -125 203 -125
101 0 191 64 218 155 19 63 19 93 0 147 -38 105 -149 167 -265 147z"/>
<path d="M2803 5649 c-110 -20 -193 -116 -193 -224 0 -123 107 -226 233 -226
95 0 165 43 203 125 80 171 -60 357 -243 325z"/>
<path d="M3310 5648 c-141 -25 -219 -188 -156 -324 38 -82 108 -125 203 -125
101 0 191 64 218 155 19 63 19 93 0 147 -38 105 -149 167 -265 147z"/>
<path d="M4353 5649 c-110 -20 -193 -116 -193 -224 0 -123 107 -226 233 -226
95 0 165 43 203 125 80 171 -60 357 -243 325z"/>
<path d="M5903 5649 c-110 -20 -193 -116 -193 -224 0 -123 107 -226 233 -226
95 0 165 43 203 125 80 171 -60 357 -243 325z"/>
<path d="M7960 5648 c-141 -25 -219 -188 -156 -324 38 -82 108 -125 203 -125
101 0 191 64 218 155 19 63 19 93 0 147 -38 105 -149 167 -265 147z"/>
<path d="M9003 5649 c-110 -20 -193 -116 -193 -224 0 -123 107 -226 233 -226
95 0 165 43 203 125 80 171 -60 357 -243 325z"/>
<path d="M10033 5649 c-112 -20 -184 -108 -184 -224 0 -131 95 -226 226 -226
131 0 226 95 226 226 0 147 -122 249 -268 224z"/>
<path d="M11060 5648 c-141 -25 -219 -188 -156 -324 38 -82 108 -125 203 -125
101 0 191 64 218 155 19 63 19 93 0 147 -38 105 -149 167 -265 147z"/>
<path d="M12103 5649 c-110 -20 -193 -116 -193 -224 0 -123 107 -226 233 -226
95 0 165 43 203 125 80 171 -60 357 -243 325z"/>
<path d="M13133 5649 c-112 -20 -184 -108 -184 -224 0 -131 95 -226 226 -226
131 0 226 95 226 226 0 147 -122 249 -268 224z"/>
<path d="M14683 5649 c-112 -20 -184 -108 -184 -224 0 -131 95 -226 226 -226
131 0 226 95 226 226 0 147 -122 249 -268 224z"/>
<path d="M15203 5649 c-110 -20 -193 -116 -193 -224 0 -123 107 -226 233 -226
95 0 165 43 203 125 80 171 -60 357 -243 325z"/>
<path d="M15710 5648 c-141 -25 -219 -188 -156 -324 38 -82 108 -125 203 -125
101 0 191 64 218 155 19 63 19 93 0 147 -38 105 -149 167 -265 147z"/>
<path d="M17783 5649 c-112 -20 -184 -108 -184 -224 0 -131 95 -226 226 -226
131 0 226 95 226 226 0 147 -122 249 -268 224z"/>
<path d="M18303 5649 c-110 -20 -193 -116 -193 -224 0 -123 107 -226 233 -226
95 0 165 43 203 125 80 171 -60 357 -243 325z"/>
<path d="M725 5131 c-161 -41 -229 -220 -135 -355 85 -125 284 -126 369 -3 35
53 43 77 43 137 -1 117 -85 210 -202 223 -25 3 -58 2 -75 -2z"/>
<path d="M1755 5131 c-100 -26 -163 -100 -172 -202 -8 -79 15 -137 74 -188 56
-50 100 -65 173 -58 141 12 237 149 201 283 -31 117 -162 195 -276 165z"/>
<path d="M2773 5126 c-58 -19 -99 -51 -128 -100 -85 -146 7 -328 174 -343 74
-7 117 8 174 58 98 86 104 224 13 327 -50 56 -156 83 -233 58z"/>
<path d="M3825 5131 c-161 -41 -229 -220 -135 -355 85 -125 284 -126 369 -3
35 53 43 77 43 137 -1 117 -85 210 -202 223 -25 3 -58 2 -75 -2z"/>
<path d="M4323 5126 c-58 -19 -99 -51 -128 -100 -85 -146 7 -328 174 -343 74
-7 117 8 174 58 98 86 104 224 13 327 -50 56 -156 83 -233 58z"/>
<path d="M5873 5126 c-58 -19 -99 -51 -128 -100 -85 -146 7 -328 174 -343 74
-7 117 8 174 58 98 86 104 224 13 327 -50 56 -156 83 -233 58z"/>
<path d="M6405 5131 c-100 -26 -163 -100 -172 -202 -8 -79 15 -137 74 -188 56
-50 100 -65 173 -58 141 12 237 149 201 283 -31 117 -162 195 -276 165z"/>
<path d="M6925 5131 c-161 -41 -229 -220 -135 -355 85 -125 284 -126 369 -3
35 53 43 77 43 137 -1 117 -85 210 -202 223 -25 3 -58 2 -75 -2z"/>
<path d="M8973 5126 c-58 -19 -99 -51 -128 -100 -85 -146 7 -328 174 -343 74
-7 117 8 174 58 98 86 104 224 13 327 -50 56 -156 83 -233 58z"/>
<path d="M10025 5131 c-161 -41 -229 -220 -135 -355 85 -125 284 -126 369 -3
35 53 43 77 43 137 -1 117 -85 210 -202 223 -25 3 -58 2 -75 -2z"/>
<path d="M10523 5126 c-58 -19 -99 -51 -128 -100 -85 -146 7 -328 174 -343 74
-7 117 8 174 58 98 86 104 224 13 327 -50 56 -156 83 -233 58z"/>
<path d="M11055 5131 c-100 -26 -163 -100 -172 -202 -8 -79 15 -137 74 -188
56 -50 100 -65 173 -58 141 12 237 149 201 283 -31 117 -162 195 -276 165z"/>
<path d="M12073 5126 c-58 -19 -99 -51 -128 -100 -85 -146 7 -328 174 -343 74
-7 117 8 174 58 98 86 104 224 13 327 -50 56 -156 83 -233 58z"/>
<path d="M12605 5131 c-100 -26 -163 -100 -172 -202 -8 -79 15 -137 74 -188
56 -50 100 -65 173 -58 141 12 237 149 201 283 -31 117 -162 195 -276 165z"/>
<path d="M13623 5126 c-58 -19 -99 -51 -128 -100 -85 -146 7 -328 174 -343 74
-7 117 8 174 58 98 86 104 224 13 327 -50 56 -156 83 -233 58z"/>
<path d="M14675 5131 c-161 -41 -229 -220 -135 -355 85 -125 284 -126 369 -3
35 53 43 77 43 137 -1 117 -85 210 -202 223 -25 3 -58 2 -75 -2z"/>
<path d="M15173 5126 c-58 -19 -99 -51 -128 -100 -85 -146 7 -328 174 -343 74
-7 117 8 174 58 98 86 104 224 13 327 -50 56 -156 83 -233 58z"/>
<path d="M15705 5131 c-100 -26 -163 -100 -172 -202 -8 -79 15 -137 74 -188
56 -50 100 -65 173 -58 141 12 237 149 201 283 -31 117 -162 195 -276 165z"/>
<path d="M16225 5131 c-161 -41 -229 -220 -135 -355 85 -125 284 -126 369 -3
35 53 43 77 43 137 -1 117 -85 210 -202 223 -25 3 -58 2 -75 -2z"/>
<path d="M16723 5126 c-58 -19 -99 -51 -128 -100 -85 -146 7 -328 174 -343 74
-7 117 8 174 58 98 86 104 224 13 327 -50 56 -156 83 -233 58z"/>
<path d="M17255 5131 c-100 -26 -163 -100 -172 -202 -8 -79 15 -137 74 -188
56 -50 100 -65 173 -58 141 12 237 149 201 283 -31 117 -162 195 -276 165z"/>
<path d="M17775 5131 c-161 -41 -229 -220 -135 -355 85 -125 284 -126 369 -3
35 53 43 77 43 137 -1 117 -85 210 -202 223 -25 3 -58 2 -75 -2z"/>
<path d="M18273 5126 c-58 -19 -99 -51 -128 -100 -85 -146 7 -328 174 -343 74
-7 117 8 174 58 98 86 104 224 13 327 -50 56 -156 83 -233 58z"/>
<path d="M4815 4601 c-209 -97 -166 -398 62 -436 141 -23 279 111 259 251 -21
156 -183 249 -321 185z"/>
<path d="M5322 4594 c-34 -17 -63 -41 -81 -67 -35 -53 -43 -77 -43 -137 1
-128 98 -223 227 -223 129 0 226 95 227 223 0 60 -8 84 -43 137 -38 54 -114
93 -184 93 -35 0 -68 -8 -103 -26z"/>
<path d="M5865 4609 c-16 -4 -47 -22 -68 -40 -141 -117 -96 -344 78 -394 232
-68 398 216 224 382 -61 57 -149 77 -234 52z"/>
<path d="M7915 4601 c-209 -97 -166 -398 62 -436 141 -23 279 111 259 251 -21
156 -183 249 -321 185z"/>
<path d="M11015 4601 c-209 -97 -166 -398 62 -436 141 -23 279 111 259 251
-21 156 -183 249 -321 185z"/>
<path d="M12065 4609 c-16 -4 -47 -22 -68 -40 -141 -117 -96 -344 78 -394 232
-68 398 216 224 382 -61 57 -149 77 -234 52z"/>
<path d="M12565 4601 c-209 -97 -166 -398 62 -436 141 -23 279 111 259 251
-21 156 -183 249 -321 185z"/>
<path d="M13615 4609 c-16 -4 -47 -22 -68 -40 -141 -117 -96 -344 78 -394 232
-68 398 216 224 382 -61 57 -149 77 -234 52z"/>
<path d="M14115 4601 c-209 -97 -166 -398 62 -436 141 -23 279 111 259 251
-21 156 -183 249 -321 185z"/>
<path d="M15165 4609 c-16 -4 -47 -22 -68 -40 -141 -117 -96 -344 78 -394 232
-68 398 216 224 382 -61 57 -149 77 -234 52z"/>
<path d="M17215 4601 c-209 -97 -166 -398 62 -436 141 -23 279 111 259 251
-21 156 -183 249 -321 185z"/>
<path d="M17722 4594 c-34 -17 -63 -41 -81 -67 -35 -53 -43 -77 -43 -137 1
-128 98 -223 227 -223 129 0 226 95 227 223 0 60 -8 84 -43 137 -38 54 -114
93 -184 93 -35 0 -68 -8 -103 -26z"/>
<path d="M18265 4609 c-16 -4 -47 -22 -68 -40 -141 -117 -96 -344 78 -394 232
-68 398 216 224 382 -61 57 -149 77 -234 52z"/>
<path d="M18765 4601 c-209 -97 -166 -398 62 -436 141 -23 279 111 259 251
-21 156 -183 249 -321 185z"/>
<path d="M1250 4111 c-372 -80 -643 -357 -714 -731 -14 -71 -16 -215 -16
-1059 0 -914 1 -982 19 -1066 78 -375 355 -648 731 -719 123 -24 1987 -24
2110 0 309 58 574 272 681 548 70 182 69 151 69 1241 0 918 -1 986 -19 1070
-78 375 -355 648 -731 719 -71 14 -214 16 -1064 15 -906 0 -987 -2 -1066 -18z
m1895 -510 c114 -38 190 -85 281 -175 95 -96 147 -181 176 -292 19 -72 19
-1546 0 -1618 -29 -111 -81 -196 -176 -292 -96 -95 -181 -147 -292 -176 -72
-19 -1546 -19 -1618 0 -111 29 -196 81 -292 176 -95 96 -147 181 -176 292 -19
72 -19 1546 0 1618 37 140 156 304 278 382 67 43 162 82 226 93 29 5 391 8
803 7 588 -1 759 -5 790 -15z"/>
<path d="M1882 3090 c-69 -10 -168 -59 -215 -107 -53 -53 -96 -146 -108 -233
-6 -44 -9 -238 -7 -479 3 -391 4 -408 26 -460 47 -118 114 -185 233 -234 53
-22 61 -22 514 -22 453 0 461 0 514 22 119 49 185 115 234 234 22 53 22 61 22
514 0 453 0 461 -22 514 -49 119 -116 186 -234 233 -52 22 -66 23 -479 24
-234 1 -449 -1 -478 -6z"/>
<path d="M4860 4098 c-141 -25 -219 -188 -156 -324 38 -82 108 -125 203 -125
101 0 191 64 218 155 19 63 19 93 0 147 -38 105 -149 167 -265 147z"/>
<path d="M5383 4099 c-112 -20 -184 -108 -184 -224 0 -131 95 -226 226 -226
131 0 226 95 226 226 0 147 -122 249 -268 224z"/>
<path d="M5903 4099 c-110 -20 -193 -116 -193 -224 0 -123 107 -226 233 -226
95 0 165 43 203 125 80 171 -60 357 -243 325z"/>
<path d="M6410 4098 c-141 -25 -219 -188 -156 -324 38 -82 108 -125 203 -125
101 0 191 64 218 155 19 63 19 93 0 147 -38 105 -149 167 -265 147z"/>
<path d="M7453 4099 c-110 -20 -193 -116 -193 -224 0 -123 107 -226 233 -226
95 0 165 43 203 125 80 171 -60 357 -243 325z"/>
<path d="M8483 4099 c-112 -20 -184 -108 -184 -224 0 -131 95 -226 226 -226
131 0 226 95 226 226 0 147 -122 249 -268 224z"/>
<path d="M9003 4099 c-110 -20 -193 -116 -193 -224 0 -123 107 -226 233 -226
95 0 165 43 203 125 80 171 -60 357 -243 325z"/>
<path d="M10033 4099 c-112 -20 -184 -108 -184 -224 0 -131 95 -226 226 -226
131 0 226 95 226 226 0 147 -122 249 -268 224z"/>
<path d="M10553 4099 c-110 -20 -193 -116 -193 -224 0 -123 107 -226 233 -226
95 0 165 43 203 125 80 171 -60 357 -243 325z"/>
<path d="M11060 4098 c-141 -25 -219 -188 -156 -324 38 -82 108 -125 203 -125
101 0 191 64 218 155 19 63 19 93 0 147 -38 105 -149 167 -265 147z"/>
<path d="M12610 4098 c-141 -25 -219 -188 -156 -324 38 -82 108 -125 203 -125
101 0 191 64 218 155 19 63 19 93 0 147 -38 105 -149 167 -265 147z"/>
<path d="M13653 4099 c-110 -20 -193 -116 -193 -224 0 -123 107 -226 233 -226
95 0 165 43 203 125 80 171 -60 357 -243 325z"/>
<path d="M14160 4098 c-141 -25 -219 -188 -156 -324 38 -82 108 -125 203 -125
101 0 191 64 218 155 19 63 19 93 0 147 -38 105 -149 167 -265 147z"/>
<path d="M15203 4099 c-110 -20 -193 -116 -193 -224 0 -123 107 -226 233 -226
95 0 165 43 203 125 80 171 -60 357 -243 325z"/>
<path d="M16233 4099 c-112 -20 -184 -108 -184 -224 0 -131 95 -226 226 -226
131 0 226 95 226 226 0 147 -122 249 -268 224z"/>
<path d="M17260 4098 c-141 -25 -219 -188 -156 -324 38 -82 108 -125 203 -125
101 0 191 64 218 155 19 63 19 93 0 147 -38 105 -149 167 -265 147z"/>
<path d="M17783 4099 c-112 -20 -184 -108 -184 -224 0 -131 95 -226 226 -226
131 0 226 95 226 226 0 147 -122 249 -268 224z"/>
<path d="M18303 4099 c-110 -20 -193 -116 -193 -224 0 -123 107 -226 233 -226
95 0 165 43 203 125 80 171 -60 357 -243 325z"/>
<path d="M18810 4098 c-141 -25 -219 -188 -156 -324 38 -82 108 -125 203 -125
101 0 191 64 218 155 19 63 19 93 0 147 -38 105 -149 167 -265 147z"/>
<path d="M19333 4099 c-112 -20 -184 -108 -184 -224 0 -131 95 -226 226 -226
131 0 226 95 226 226 0 147 -122 249 -268 224z"/>
<path d="M5873 3576 c-58 -19 -99 -51 -128 -100 -85 -146 7 -328 174 -343 74
-7 117 8 174 58 98 86 104 224 13 327 -50 56 -156 83 -233 58z"/>
<path d="M6405 3581 c-100 -26 -163 -100 -172 -202 -8 -79 15 -137 74 -188 56
-50 100 -65 173 -58 141 12 237 149 201 283 -31 117 -162 195 -276 165z"/>
<path d="M6925 3581 c-161 -41 -229 -220 -135 -355 85 -125 284 -126 369 -3
35 53 43 77 43 137 -1 117 -85 210 -202 223 -25 3 -58 2 -75 -2z"/>
<path d="M7955 3581 c-100 -26 -163 -100 -172 -202 -8 -79 15 -137 74 -188 56
-50 100 -65 173 -58 141 12 237 149 201 283 -31 117 -162 195 -276 165z"/>
<path d="M8475 3581 c-161 -41 -229 -220 -135 -355 85 -125 284 -126 369 -3
35 53 43 77 43 137 -1 117 -85 210 -202 223 -25 3 -58 2 -75 -2z"/>
<path d="M10523 3576 c-58 -19 -99 -51 -128 -100 -85 -146 7 -328 174 -343 74
-7 117 8 174 58 98 86 104 224 13 327 -50 56 -156 83 -233 58z"/>
<path d="M12073 3576 c-58 -19 -99 -51 -128 -100 -85 -146 7 -328 174 -343 74
-7 117 8 174 58 98 86 104 224 13 327 -50 56 -156 83 -233 58z"/>
<path d="M12605 3581 c-100 -26 -163 -100 -172 -202 -8 -79 15 -137 74 -188
56 -50 100 -65 173 -58 141 12 237 149 201 283 -31 117 -162 195 -276 165z"/>
<path d="M13623 3576 c-58 -19 -99 -51 -128 -100 -85 -146 7 -328 174 -343 74
-7 117 8 174 58 98 86 104 224 13 327 -50 56 -156 83 -233 58z"/>
<path d="M14675 3581 c-161 -41 -229 -220 -135 -355 85 -125 284 -126 369 -3
35 53 43 77 43 137 -1 117 -85 210 -202 223 -25 3 -58 2 -75 -2z"/>
<path d="M15173 3576 c-58 -19 -99 -51 -128 -100 -85 -146 7 -328 174 -343 74
-7 117 8 174 58 98 86 104 224 13 327 -50 56 -156 83 -233 58z"/>
<path d="M17255 3581 c-100 -26 -163 -100 -172 -202 -8 -79 15 -137 74 -188
56 -50 100 -65 173 -58 141 12 237 149 201 283 -31 117 -162 195 -276 165z"/>
<path d="M17775 3581 c-161 -41 -229 -220 -135 -355 85 -125 284 -126 369 -3
35 53 43 77 43 137 -1 117 -85 210 -202 223 -25 3 -58 2 -75 -2z"/>
<path d="M4815 3051 c-209 -97 -166 -398 62 -436 141 -23 279 111 259 251 -21
156 -183 249 -321 185z"/>
<path d="M5865 3059 c-16 -4 -47 -22 -68 -40 -141 -117 -96 -344 78 -394 232
-68 398 216 224 382 -61 57 -149 77 -234 52z"/>
<path d="M6365 3051 c-209 -97 -166 -398 62 -436 141 -23 279 111 259 251 -21
156 -183 249 -321 185z"/>
<path d="M7915 3051 c-209 -97 -166 -398 62 -436 141 -23 279 111 259 251 -21
156 -183 249 -321 185z"/>
<path d="M8422 3044 c-34 -17 -63 -41 -81 -67 -35 -53 -43 -77 -43 -137 1
-128 98 -223 227 -223 129 0 226 95 227 223 0 60 -8 84 -43 137 -38 54 -114
93 -184 93 -35 0 -68 -8 -103 -26z"/>
<path d="M8965 3059 c-16 -4 -47 -22 -68 -40 -141 -117 -96 -344 78 -394 232
-68 398 216 224 382 -61 57 -149 77 -234 52z"/>
<path d="M9465 3051 c-209 -97 -166 -398 62 -436 141 -23 279 111 259 251 -21
156 -183 249 -321 185z"/>
<path d="M11015 3051 c-209 -97 -166 -398 62 -436 141 -23 279 111 259 251
-21 156 -183 249 -321 185z"/>
<path d="M11522 3044 c-34 -17 -63 -41 -81 -67 -35 -53 -43 -77 -43 -137 1
-128 98 -223 227 -223 129 0 226 95 227 223 0 60 -8 84 -43 137 -38 54 -114
93 -184 93 -35 0 -68 -8 -103 -26z"/>
<path d="M12065 3059 c-16 -4 -47 -22 -68 -40 -141 -117 -96 -344 78 -394 232
-68 398 216 224 382 -61 57 -149 77 -234 52z"/>
<path d="M12565 3051 c-209 -97 -166 -398 62 -436 141 -23 279 111 259 251
-21 156 -183 249 -321 185z"/>
<path d="M13072 3044 c-34 -17 -63 -41 -81 -67 -35 -53 -43 -77 -43 -137 1
-128 98 -223 227 -223 129 0 226 95 227 223 0 60 -8 84 -43 137 -38 54 -114
93 -184 93 -35 0 -68 -8 -103 -26z"/>
<path d="M14115 3051 c-209 -97 -166 -398 62 -436 141 -23 279 111 259 251
-21 156 -183 249 -321 185z"/>
<path d="M14622 3044 c-34 -17 -63 -41 -81 -67 -35 -53 -43 -77 -43 -137 1
-128 98 -223 227 -223 129 0 226 95 227 223 0 60 -8 84 -43 137 -38 54 -114
93 -184 93 -35 0 -68 -8 -103 -26z"/>
<path d="M15165 3059 c-16 -4 -47 -22 -68 -40 -141 -117 -96 -344 78 -394 232
-68 398 216 224 382 -61 57 -149 77 -234 52z"/>
<path d="M15665 3051 c-209 -97 -166 -398 62 -436 141 -23 279 111 259 251
-21 156 -183 249 -321 185z"/>
<path d="M16172 3044 c-34 -17 -63 -41 -81 -67 -35 -53 -43 -77 -43 -137 1
-128 98 -223 227 -223 129 0 226 95 227 223 0 60 -8 84 -43 137 -38 54 -114
93 -184 93 -35 0 -68 -8 -103 -26z"/>
<path d="M16715 3059 c-16 -4 -47 -22 -68 -40 -141 -117 -96 -344 78 -394 232
-68 398 216 224 382 -61 57 -149 77 -234 52z"/>
<path d="M17215 3051 c-209 -97 -166 -398 62 -436 141 -23 279 111 259 251
-21 156 -183 249 -321 185z"/>
<path d="M19272 3044 c-34 -17 -63 -41 -81 -67 -35 -53 -43 -77 -43 -137 1
-128 98 -223 227 -223 129 0 226 95 227 223 0 60 -8 84 -43 137 -38 54 -114
93 -184 93 -35 0 -68 -8 -103 -26z"/>
<path d="M4860 2548 c-141 -25 -219 -188 -156 -324 38 -82 108 -125 203 -125
101 0 191 64 218 155 19 63 19 93 0 147 -38 105 -149 167 -265 147z"/>
<path d="M5903 2549 c-110 -20 -193 -116 -193 -224 0 -123 107 -226 233 -226
95 0 165 43 203 125 80 171 -60 357 -243 325z"/>
<path d="M6933 2549 c-112 -20 -184 -108 -184 -224 0 -131 95 -226 226 -226
131 0 226 95 226 226 0 147 -122 249 -268 224z"/>
<path d="M7960 2548 c-141 -25 -219 -188 -156 -324 38 -82 108 -125 203 -125
101 0 191 64 218 155 19 63 19 93 0 147 -38 105 -149 167 -265 147z"/>
<path d="M9510 2548 c-141 -25 -219 -188 -156 -324 38 -82 108 -125 203 -125
101 0 191 64 218 155 19 63 19 93 0 147 -38 105 -149 167 -265 147z"/>
<path d="M11060 2548 c-141 -25 -219 -188 -156 -324 38 -82 108 -125 203 -125
101 0 191 64 218 155 19 63 19 93 0 147 -38 105 -149 167 -265 147z"/>
<path d="M11583 2549 c-112 -20 -184 -108 -184 -224 0 -131 95 -226 226 -226
131 0 226 95 226 226 0 147 -122 249 -268 224z"/>
<path d="M12103 2549 c-110 -20 -193 -116 -193 -224 0 -123 107 -226 233 -226
95 0 165 43 203 125 80 171 -60 357 -243 325z"/>
<path d="M14160 2548 c-141 -25 -219 -188 -156 -324 38 -82 108 -125 203 -125
101 0 191 64 218 155 19 63 19 93 0 147 -38 105 -149 167 -265 147z"/>
<path d="M14683 2549 c-112 -20 -184 -108 -184 -224 0 -131 95 -226 226 -226
131 0 226 95 226 226 0 147 -122 249 -268 224z"/>
<path d="M16233 2549 c-112 -20 -184 -108 -184 -224 0 -131 95 -226 226 -226
131 0 226 95 226 226 0 147 -122 249 -268 224z"/>
<path d="M5873 2026 c-58 -19 -99 -51 -128 -100 -85 -146 7 -328 174 -343 74
-7 117 8 174 58 98 86 104 224 13 327 -50 56 -156 83 -233 58z"/>
<path d="M6405 2031 c-100 -26 -163 -100 -172 -202 -8 -79 15 -137 74 -188 56
-50 100 -65 173 -58 141 12 237 149 201 283 -31 117 -162 195 -276 165z"/>
<path d="M7423 2026 c-58 -19 -99 -51 -128 -100 -85 -146 7 -328 174 -343 74
-7 117 8 174 58 98 86 104 224 13 327 -50 56 -156 83 -233 58z"/>
<path d="M8973 2026 c-58 -19 -99 -51 -128 -100 -85 -146 7 -328 174 -343 74
-7 117 8 174 58 98 86 104 224 13 327 -50 56 -156 83 -233 58z"/>
<path d="M9505 2031 c-100 -26 -163 -100 -172 -202 -8 -79 15 -137 74 -188 56
-50 100 -65 173 -58 141 12 237 149 201 283 -31 117 -162 195 -276 165z"/>
<path d="M11055 2031 c-100 -26 -163 -100 -172 -202 -8 -79 15 -137 74 -188
56 -50 100 -65 173 -58 141 12 237 149 201 283 -31 117 -162 195 -276 165z"/>
<path d="M11575 2031 c-161 -41 -229 -220 -135 -355 85 -125 284 -126 369 -3
35 53 43 77 43 137 -1 117 -85 210 -202 223 -25 3 -58 2 -75 -2z"/>
<path d="M13125 2031 c-161 -41 -229 -220 -135 -355 85 -125 284 -126 369 -3
35 53 43 77 43 137 -1 117 -85 210 -202 223 -25 3 -58 2 -75 -2z"/>
<path d="M13623 2026 c-58 -19 -99 -51 -128 -100 -85 -146 7 -328 174 -343 74
-7 117 8 174 58 98 86 104 224 13 327 -50 56 -156 83 -233 58z"/>
<path d="M14675 2031 c-161 -41 -229 -220 -135 -355 85 -125 284 -126 369 -3
35 53 43 77 43 137 -1 117 -85 210 -202 223 -25 3 -58 2 -75 -2z"/>
<path d="M16723 2026 c-58 -19 -99 -51 -128 -100 -85 -146 7 -328 174 -343 74
-7 117 8 174 58 98 86 104 224 13 327 -50 56 -156 83 -233 58z"/>
<path d="M17255 2031 c-100 -26 -163 -100 -172 -202 -8 -79 15 -137 74 -188
56 -50 100 -65 173 -58 141 12 237 149 201 283 -31 117 -162 195 -276 165z"/>
<path d="M18805 2031 c-100 -26 -163 -100 -172 -202 -8 -79 15 -137 74 -188
56 -50 100 -65 173 -58 141 12 237 149 201 283 -31 117 -162 195 -276 165z"/>
<path d="M19325 2031 c-161 -41 -229 -220 -135 -355 85 -125 284 -126 369 -3
35 53 43 77 43 137 -1 117 -85 210 -202 223 -25 3 -58 2 -75 -2z"/>
<path d="M5322 1494 c-52 -26 -100 -81 -117 -132 -12 -39 -7 -118 10 -158 63
-150 264 -186 377 -67 51 53 75 155 53 225 -28 88 -125 158 -220 158 -35 0
-68 -8 -103 -26z"/>
<path d="M5865 1509 c-16 -4 -47 -22 -68 -40 -141 -117 -96 -344 78 -394 232
-68 398 216 224 382 -61 57 -149 77 -234 52z"/>
<path d="M6872 1494 c-52 -26 -100 -81 -117 -132 -12 -39 -7 -118 10 -158 63
-150 264 -186 377 -67 51 53 75 155 53 225 -28 88 -125 158 -220 158 -35 0
-68 -8 -103 -26z"/>
<path d="M8965 1509 c-16 -4 -47 -22 -68 -40 -141 -117 -96 -344 78 -394 232
-68 398 216 224 382 -61 57 -149 77 -234 52z"/>
<path d="M9972 1494 c-52 -26 -100 -81 -117 -132 -12 -39 -7 -118 10 -158 63
-150 264 -186 377 -67 51 53 75 155 53 225 -28 88 -125 158 -220 158 -35 0
-68 -8 -103 -26z"/>
<path d="M11015 1501 c-209 -97 -166 -398 62 -436 141 -23 279 111 259 251
-21 156 -183 249 -321 185z"/>
<path d="M11522 1494 c-52 -26 -100 -81 -117 -132 -12 -39 -7 -118 10 -158 63
-150 264 -186 377 -67 51 53 75 155 53 225 -28 88 -125 158 -220 158 -35 0
-68 -8 -103 -26z"/>
<path d="M14115 1501 c-209 -97 -166 -398 62 -436 141 -23 279 111 259 251
-21 156 -183 249 -321 185z"/>
<path d="M16715 1509 c-16 -4 -47 -22 -68 -40 -141 -117 -96 -344 78 -394 232
-68 398 216 224 382 -61 57 -149 77 -234 52z"/>
<path d="M17215 1501 c-209 -97 -166 -398 62 -436 141 -23 279 111 259 251
-21 156 -183 249 -321 185z"/>
<path d="M17722 1494 c-52 -26 -100 -81 -117 -132 -12 -39 -7 -118 10 -158 63
-150 264 -186 377 -67 51 53 75 155 53 225 -28 88 -125 158 -220 158 -35 0
-68 -8 -103 -26z"/>
<path d="M18265 1509 c-16 -4 -47 -22 -68 -40 -141 -117 -96 -344 78 -394 232
-68 398 216 224 382 -61 57 -149 77 -234 52z"/>
<path d="M18765 1501 c-209 -97 -166 -398 62 -436 141 -23 279 111 259 251
-21 156 -183 249 -321 185z"/>
<path d="M19272 1494 c-52 -26 -100 -81 -117 -132 -12 -39 -7 -118 10 -158 63
-150 264 -186 377 -67 51 53 75 155 53 225 -28 88 -125 158 -220 158 -35 0
-68 -8 -103 -26z"/>
<path d="M5383 999 c-112 -20 -184 -108 -184 -224 0 -131 95 -226 226 -226
131 0 226 95 226 226 0 147 -122 249 -268 224z"/>
<path d="M5903 999 c-110 -20 -193 -116 -193 -224 0 -123 107 -226 233 -226
95 0 165 43 203 125 80 171 -60 357 -243 325z"/>
<path d="M6933 999 c-112 -20 -184 -108 -184 -224 0 -131 95 -226 226 -226
131 0 226 95 226 226 0 147 -122 249 -268 224z"/>
<path d="M8483 999 c-112 -20 -184 -108 -184 -224 0 -131 95 -226 226 -226
131 0 226 95 226 226 0 147 -122 249 -268 224z"/>
<path d="M10033 999 c-112 -20 -184 -108 -184 -224 0 -131 95 -226 226 -226
131 0 226 95 226 226 0 147 -122 249 -268 224z"/>
<path d="M11583 999 c-112 -20 -184 -108 -184 -224 0 -131 95 -226 226 -226
131 0 226 95 226 226 0 147 -122 249 -268 224z"/>
<path d="M13133 999 c-112 -20 -184 -108 -184 -224 0 -131 95 -226 226 -226
131 0 226 95 226 226 0 147 -122 249 -268 224z"/>
<path d="M14160 998 c-141 -25 -219 -188 -156 -324 38 -82 108 -125 203 -125
101 0 191 64 218 155 19 63 19 93 0 147 -38 105 -149 167 -265 147z"/>
<path d="M15203 999 c-110 -20 -193 -116 -193 -224 0 -123 107 -226 233 -226
95 0 165 43 203 125 80 171 -60 357 -243 325z"/>
<path d="M16233 999 c-112 -20 -184 -108 -184 -224 0 -131 95 -226 226 -226
131 0 226 95 226 226 0 147 -122 249 -268 224z"/>
<path d="M16753 999 c-110 -20 -193 -116 -193 -224 0 -123 107 -226 233 -226
95 0 165 43 203 125 80 171 -60 357 -243 325z"/>
<path d="M17260 998 c-141 -25 -219 -188 -156 -324 38 -82 108 -125 203 -125
101 0 191 64 218 155 19 63 19 93 0 147 -38 105 -149 167 -265 147z"/>
<path d="M19333 999 c-112 -20 -184 -108 -184 -224 0 -131 95 -226 226 -226
131 0 226 95 226 226 0 147 -122 249 -268 224z"/>
</g>
</svg>
