<?xml version="1.0" encoding="UTF-8"?>
<svg version="1.1" xmlns="http://www.w3.org/2000/svg" width="96" height="96">
<path d="M0 0 C5.7505337 4.35611571 8.35138887 9.507566 9.94921875 16.4765625 C10.84307789 23.37204729 8.93572555 30.51406528 4.72851562 36.09619141 C1.17922016 40.31316376 -2.64284674 44.36623787 -6.7890625 48 C-8.52928217 50.03654191 -8.99278168 52.02717952 -9.67578125 54.6015625 C-10.96744792 59.39322917 -10.96744792 59.39322917 -12.05078125 60.4765625 C-14.19386021 60.60193991 -16.34157011 60.65230614 -18.48828125 60.6640625 C-20.24978516 60.68533203 -20.24978516 60.68533203 -22.046875 60.70703125 C-25.05078125 60.4765625 -25.05078125 60.4765625 -27.05078125 58.4765625 C-27.41435465 51.95647957 -25.929004 45.73092881 -22.05078125 40.4765625 C-19.30968109 37.64094164 -16.52191589 34.94477635 -13.609375 32.28515625 C-10.23207899 28.5778649 -8.01110981 25.0988444 -8.08984375 19.89453125 C-8.37988281 18.79044922 -8.37988281 18.79044922 -8.67578125 17.6640625 C-8.85367188 16.91511719 -9.0315625 16.16617187 -9.21484375 15.39453125 C-10.00073895 13.1191123 -10.00073895 13.1191123 -13.05078125 11.4765625 C-17.32484916 11.1657212 -20.42765304 11.11074161 -24.05078125 13.4765625 C-25.15687791 15.42957162 -25.15687791 15.42957162 -26.05078125 17.6015625 C-27.29296875 19.75390625 -27.29296875 19.75390625 -29.05078125 21.4765625 C-33.14485544 22.36971419 -36.95180215 22.33489573 -41.05078125 21.4765625 C-42.953125 20.203125 -42.953125 20.203125 -44.05078125 18.4765625 C-44.03991835 12.7735409 -41.59372999 7.79453127 -38.05078125 3.4765625 C-37.39078125 3.4765625 -36.73078125 3.4765625 -36.05078125 3.4765625 C-36.05078125 2.8165625 -36.05078125 2.1565625 -36.05078125 1.4765625 C-25.39146808 -4.87802805 -11.07879586 -6.73380122 0 0 Z " fill="#FA2D3D" transform="translate(65.05078125,6.5234375)"/>
<path d="M0 0 C0.33 0 0.66 0 1 0 C3.02467648 8.35179047 2.06249614 15.45677294 -2 23 C-5.70504813 27.91585785 -10.11431572 32.47097333 -14.73828125 36.5234375 C-16.47850092 38.55997941 -16.94200043 40.55061702 -17.625 43.125 C-18.91666667 47.91666667 -18.91666667 47.91666667 -20 49 C-22.14307896 49.12537741 -24.29078886 49.17574364 -26.4375 49.1875 C-27.61183594 49.20167969 -28.78617188 49.21585938 -29.99609375 49.23046875 C-33 49 -33 49 -35 47 C-35.35230961 40.68191432 -33.91194239 34.06689681 -30 29 C-27.86328125 27.78125 -27.86328125 27.78125 -26 27 C-26.33 27.99 -26.66 28.98 -27 30 C-25.68 30.33 -24.36 30.66 -23 31 C-23.78375 31.639375 -24.5675 32.27875 -25.375 32.9375 C-28.83045276 36.32443103 -29.32290199 40.36137332 -30 45 C-26.535 44.505 -26.535 44.505 -23 44 C-22.690625 42.72125 -22.38125 41.4425 -22.0625 40.125 C-21.52394756 37.89898325 -21.0263 36.05260001 -20 34 C-19.34 34 -18.68 34 -18 34 C-17.67 32.68 -17.34 31.36 -17 30 C-12.25 28.875 -12.25 28.875 -10 30 C-9.938125 28.9275 -9.87625 27.855 -9.8125 26.75 C-8.82708437 22.20192788 -7.54300297 21.76527061 -4 19 C-1.61592704 12.97707884 -0.98437603 6.37749999 0 0 Z " fill="#D40413" transform="translate(73,18)"/>
<path d="M0 0 C2.3181362 1.89111111 3.66914015 3.33828031 5 6 C5.39447548 10.18144011 5.45035186 12.30946048 3.125 15.875 C0.29882359 18.70117641 -1.41072106 19.22109882 -5.3125 19.4375 C-9.21480323 19.38085366 -9.85437903 19.11887426 -13.0625 16.5 C-15.71565523 12.58960049 -15.73301898 9.61801955 -15 5 C-10.48948848 -0.72956869 -7.01104109 -1.59900937 0 0 Z " fill="#D40205" transform="translate(52,74)"/>
<path d="M0 0 C3.8125 1.1875 3.8125 1.1875 6 4 C7.65827724 11.19229546 7.88323008 17.62040772 4 24 C2.5 25.625 2.5 25.625 1 27 C-0.02304948 28.65261839 -1.02616054 30.31791365 -2 32 C-3 33 -3 33 -5.5625 33.0625 C-6.366875 33.041875 -7.17125 33.02125 -8 33 C-7.91437325 30.17431726 -7.40982363 28.44353663 -5.48046875 26.35546875 C-4.86816406 25.78441406 -4.25585938 25.21335937 -3.625 24.625 C-0.19550663 21.34400015 1.78361737 18.70334616 3 14 C2.77568989 10.83357591 2.27154644 7.91742665 1 5 C-2.70126859 2.53248761 -4.62223532 2.69278844 -9 3 C-11.60551296 3.94128401 -12.71993526 4.4872344 -14.0625 6.9453125 C-14.371875 7.66460938 -14.68125 8.38390625 -15 9.125 C-16.2421875 11.27734375 -16.2421875 11.27734375 -18 13 C-22.09407419 13.89315169 -25.9010209 13.85833323 -30 13 C-31.88671875 11.6875 -31.88671875 11.6875 -33 10 C-32.6875 6.3125 -32.6875 6.3125 -32 3 C-30 6 -30 6 -30 9 C-26.04 9 -22.08 9 -18 9 C-17.896875 8.071875 -17.79375 7.14375 -17.6875 6.1875 C-15.78183046 -2.64787696 -7.40396996 -0.69624488 0 0 Z " fill="#E6323E" transform="translate(54,15)"/>
<path d="M0 0 C0.99 0.66 1.98 1.32 3 2 C3.29296875 4.1640625 3.29296875 4.1640625 3.1875 6.625 C3.16042969 7.44226563 3.13335937 8.25953125 3.10546875 9.1015625 C3.07066406 9.72804688 3.03585938 10.35453125 3 11 C1.41773035 11.19627391 -0.16589271 11.38165538 -1.75 11.5625 C-2.63171875 11.66691406 -3.5134375 11.77132812 -4.421875 11.87890625 C-6.88432451 11.99456676 -8.66538064 11.73638695 -11 11 C-11.32469403 6.34605219 -10.79790518 3.76641082 -8 0 C-5.08931154 -1.45534423 -3.1172005 -0.69977971 0 0 Z " fill="#E80001" transform="translate(51,77)"/>
<path d="M0 0 C0.33 0 0.66 0 1 0 C3.02467648 8.35179047 2.06249614 15.45677294 -2 23 C-5.74956418 27.97492176 -10.24359757 32.33777989 -14.71484375 36.65625 C-16.24344479 38.17643164 -16.24344479 38.17643164 -18 41 C-19.26264601 36.70700357 -18.62950412 34.12168689 -17 30 C-12.25 28.875 -12.25 28.875 -10 30 C-9.9071875 28.39125 -9.9071875 28.39125 -9.8125 26.75 C-8.82708437 22.20192788 -7.54300297 21.76527061 -4 19 C-1.61592704 12.97707884 -0.98437603 6.37749999 0 0 Z " fill="#E71E29" transform="translate(73,18)"/>
<path d="M0 0 C1.10118164 -0.0309375 1.10118164 -0.0309375 2.22460938 -0.0625 C7.45413689 -0.09962176 11.01134339 0.90265586 15.6875 3.25 C15.3575 4.24 15.0275 5.23 14.6875 6.25 C12.3775 5.92 10.0675 5.59 7.6875 5.25 C7.6875 4.59 7.6875 3.93 7.6875 3.25 C5.45777727 3.36465421 3.22871247 3.49214766 1 3.625 C-0.86205078 3.72941406 -0.86205078 3.72941406 -2.76171875 3.8359375 C-6.02529197 4.2165082 -8.34507517 4.91519062 -11.3125 6.25 C-12.034375 6.353125 -12.75625 6.45625 -13.5 6.5625 C-15.61515099 7.12814891 -15.61515099 7.12814891 -16.5625 9.8125 C-16.81 10.616875 -17.0575 11.42125 -17.3125 12.25 C-18.6325 12.25 -19.9525 12.25 -21.3125 12.25 C-21.3125 10.6 -21.3125 8.95 -21.3125 7.25 C-20.6525 7.25 -19.9925 7.25 -19.3125 7.25 C-19.3125 6.59 -19.3125 5.93 -19.3125 5.25 C-12.57014329 1.23051812 -7.93161018 0.05484259 0 0 Z " fill="#E52F39" transform="translate(48.3125,2.75)"/>
<path d="M0 0 C0.99 0.33 1.98 0.66 3 1 C2.09362258 6.58137677 1.46047172 10.21535733 -3 14 C-4.03357147 15.64605826 -5.04060332 17.30963442 -6 19 C-7 20 -7 20 -9.5625 20.0625 C-10.366875 20.041875 -11.17125 20.02125 -12 20 C-11.91528403 17.20437284 -11.42444484 15.46018756 -9.515625 13.390625 C-8.61070313 12.54757813 -8.61070313 12.54757813 -7.6875 11.6875 C-3.90812018 8.15696823 -2.06888008 4.71704658 0 0 Z " fill="#E92331" transform="translate(58,28)"/>
<path d="M0 0 C0.99 0.33 1.98 0.66 3 1 C1.35 2.65 -0.3 4.3 -2 6 C-2 3 -2 3 0 0 Z M6 4 C6.66 4 7.32 4 8 4 C8 7.96 8 11.92 8 16 C7.01 16 6.02 16 5 16 C5 16.66 5 17.32 5 18 C4.34 18 3.68 18 3 18 C3 17.34 3 16.68 3 16 C0.03 16 -2.94 16 -6 16 C-6 12.7 -6 9.4 -6 6 C-5.01 6 -4.02 6 -3 6 C-3.33 8.97 -3.66 11.94 -4 15 C-0.535 14.505 -0.535 14.505 3 14 C3.309375 12.72125 3.61875 11.4425 3.9375 10.125 C4.47605244 7.89898325 4.9737 6.05260001 6 4 Z " fill="#E90116" transform="translate(47,48)"/>
<path d="M0 0 C3.47172055 0.8486428 5.51690838 1.43639311 7.875 4.1875 C9.30369654 7.75924135 9.47738631 10.18090956 9 14 C7.20437595 16.75329021 5.94745078 18.52627461 3 20 C0.90625 20.203125 0.90625 20.203125 -1.5 20.25 C-2.2940625 20.27578125 -3.088125 20.3015625 -3.90625 20.328125 C-4.5971875 20.21984375 -5.288125 20.1115625 -6 20 C-6.66 19.01 -7.32 18.02 -8 17 C-7.40832031 17.02320312 -6.81664062 17.04640625 -6.20703125 17.0703125 C-1.66198041 17.17411464 1.85940059 17.13708357 6 15 C5.93993922 13.54052295 5.8511311 12.08220728 5.75 10.625 C5.70359375 9.81289062 5.6571875 9.00078125 5.609375 8.1640625 C5.22003286 5.81692416 5.22003286 5.81692416 3 4.84375 C2.34 4.5653125 1.68 4.286875 1 4 C0.25 1.875 0.25 1.875 0 0 Z " fill="#C20404" transform="translate(48,73)"/>
<path d="M0 0 C1.32 0.33 2.64 0.66 4 1 C3.22914062 1.75925781 2.45828125 2.51851562 1.6640625 3.30078125 C0.65090904 4.30455366 -0.36210448 5.30846732 -1.375 6.3125 C-1.88289063 6.81201172 -2.39078125 7.31152344 -2.9140625 7.82617188 C-5.22854133 10.12542387 -7.18347483 12.27521225 -9 15 C-10.26264601 10.70700357 -9.62950412 8.12168689 -8 4 C-3.25 2.875 -3.25 2.875 -1 4 C-0.67 2.68 -0.34 1.36 0 0 Z " fill="#E41327" transform="translate(64,44)"/>
<path d="M0 0 C0.36190476 5.42857143 0.36190476 5.42857143 -1.1875 7.875 C-3.56036279 9.34781139 -5.25913944 9.22223194 -8 9 C-7.64598897 5.81390075 -7.16972964 4.20933322 -5.125 1.6875 C-3 0 -3 0 0 0 Z " fill="#E51B27" transform="translate(54,39)"/>
<path d="M0 0 C0.33 0 0.66 0 1 0 C2.45780584 6.01344909 2.74225803 11.34409281 0 17 C-0.66 16.67 -1.32 16.34 -2 16 C-1.34 10.72 -0.68 5.44 0 0 Z " fill="#E02736" transform="translate(73,18)"/>
<path d="M0 0 C3.80802445 1.4960096 5.69424557 3.66063151 8 7 C8.75 9.3125 8.75 9.3125 9 11 C8.34 11 7.68 11 7 11 C7 10.34 7 9.68 7 9 C4.525 8.01 4.525 8.01 2 7 C2 6.01 2 5.02 2 4 C1.34 4 0.68 4 0 4 C0 2.68 0 1.36 0 0 Z " fill="#D92E39" transform="translate(64,7)"/>
<path d="M0 0 C0.66 0.33 1.32 0.66 2 1 C1.45276317 4.37462715 0.9451 6.08235 -1 9 C-2.32 9 -3.64 9 -5 9 C-3.7508258 5.54074837 -2.32472205 2.85306797 0 0 Z " fill="#D60F20" transform="translate(45,45)"/>
<path d="M0 0 C-0.61488281 0.59748047 -0.61488281 0.59748047 -1.2421875 1.20703125 C-1.78101563 1.73683594 -2.31984375 2.26664063 -2.875 2.8125 C-3.40867187 3.33457031 -3.94234375 3.85664062 -4.4921875 4.39453125 C-6.20776561 6.13259904 -6.20776561 6.13259904 -8 9 C-8.625 6.6875 -8.625 6.6875 -9 4 C-6.3515138 0.02727069 -4.69305063 -1.56435021 0 0 Z " fill="#D50C21" transform="translate(63,50)"/>
<path d="M0 0 C0.99 0.33 1.98 0.66 3 1 C1.35 2.65 -0.3 4.3 -2 6 C-2 3 -2 3 0 0 Z M-6 6 C-5.01 6 -4.02 6 -3 6 C-3.33 8.64 -3.66 11.28 -4 14 C-4.33 14 -4.66 14 -5 14 C-5.33 11.36 -5.66 8.72 -6 6 Z " fill="#F3071F" transform="translate(47,48)"/>
<path d="M0 0 C0.33 0.99 0.66 1.98 1 3 C-0.25 4.5625 -0.25 4.5625 -2 6 C-4.1875 5.6875 -4.1875 5.6875 -6 5 C-4.02 3.35 -2.04 1.7 0 0 Z " fill="#F3192C" transform="translate(53,42)"/>
<path d="M0 0 C2.31 0.33 4.62 0.66 7 1 C6.67 1.99 6.34 2.98 6 4 C3.69 3.67 1.38 3.34 -1 3 C-0.67 2.01 -0.34 1.02 0 0 Z " fill="#EC353A" transform="translate(57,5)"/>
<path d="M0 0 C2.29013653 3.4352048 2.17842973 4.985331 2 9 C1.34 9 0.68 9 0 9 C-0.84454356 5.62182575 -1.10844919 3.32534757 0 0 Z " fill="#D52936" transform="translate(22,18)"/>
<path d="M0 0 C0.33 0.99 0.66 1.98 1 3 C0.67 3.66 0.34 4.32 0 5 C-1.32 5 -2.64 5 -4 5 C-4 3.68 -4 2.36 -4 1 C-2.68 0.67 -1.36 0.34 0 0 Z " fill="#F03843" transform="translate(31,10)"/>
</svg>

