<svg width="20" height="20" viewBox="0 0 20 20" fill="none" xmlns="http://www.w3.org/2000/svg">
<g clip-path="url(#clip0_2205_81766)">
<path d="M17.1 2.87417C15.2 1.0375 12.7 0 10.0375 0C2.39583 0 -2.4025 8.27917 1.41333 14.865L0 20L5.27917 18.6233C7.57917 19.8658 9.46333 19.7558 10.0425 19.8292C18.9033 19.8292 23.3142 9.10917 17.0875 2.90667L17.1 2.87417Z" fill="#ECEFF1"/>
<path d="M10.0552 18.1255L10.0502 18.1247H10.0369C7.38525 18.1247 5.69108 16.8688 5.52441 16.7963L2.39941 17.6088L3.23691 14.5714L3.03775 14.2589C2.21275 12.9455 1.77441 11.433 1.77441 9.87552C1.77441 2.54802 10.7286 -1.11614 15.9102 4.06302C21.0794 9.18802 17.4502 18.1255 10.0552 18.1255Z" fill="#4CAF50"/>
<path d="M14.5893 11.9218L14.5818 11.9843C14.3309 11.8593 13.1093 11.2618 12.8818 11.1793C12.3709 10.9902 12.5151 11.1493 11.5343 12.2727C11.3884 12.4352 11.2434 12.4477 10.9959 12.3352C10.7459 12.2102 9.94345 11.9477 8.99345 11.0977C8.25345 10.4352 7.75678 9.62266 7.61011 9.37266C7.36595 8.95099 7.87678 8.89099 8.34178 8.01099C8.42511 7.83599 8.38261 7.69849 8.32095 7.57433C8.25845 7.44933 7.76095 6.22433 7.55261 5.73599C7.35261 5.24933 7.14678 5.31099 6.99261 5.31099C6.51261 5.26933 6.16178 5.27599 5.85261 5.59766C4.50761 7.07599 4.84678 8.60099 5.99761 10.2227C8.25928 13.1827 9.46428 13.7277 11.6676 14.4843C12.2626 14.6735 12.8051 14.6468 13.2343 14.5852C13.7126 14.5093 14.7068 13.9843 14.9143 13.3968C15.1268 12.8093 15.1268 12.3218 15.0643 12.2093C15.0026 12.0968 14.8393 12.0343 14.5893 11.9218Z" fill="#FAFAFA"/>
</g>
<defs>
<clipPath id="clip0_2205_81766">
<rect width="20" height="20" fill="white"/>
</clipPath>
</defs>
</svg>
