<svg width="36" height="36" viewBox="0 0 36 36" fill="none" xmlns="http://www.w3.org/2000/svg">
<path d="M29.4776 13.7913L29.156 10.72C28.6903 7.37158 27.1714 6.00781 23.9227 6.00781H21.306H19.6651H16.2944H14.6535H11.9925C8.73273 6.00781 7.22482 7.37158 6.74805 10.7533L6.44869 13.8024C6.33781 14.9887 6.65935 16.1419 7.35787 17.0399C8.20052 18.1376 9.49777 18.7585 10.9392 18.7585C12.3362 18.7585 13.6778 18.06 14.5204 16.9402C15.2744 18.06 16.5605 18.7585 17.9908 18.7585C19.4211 18.7585 20.674 18.0933 21.4391 16.9845C22.2928 18.0822 23.6122 18.7585 24.9871 18.7585C26.4617 18.7585 27.7923 18.1044 28.6238 16.9512C29.2891 16.0642 29.5884 14.9444 29.4776 13.7913Z" fill="#909090"/>
<path d="M17.2699 23.0938C15.8618 23.2379 14.7974 24.4354 14.7974 25.8546V28.8926C14.7974 29.1919 15.0413 29.4359 15.3407 29.4359H20.6294C20.9288 29.4359 21.1727 29.1919 21.1727 28.8926V26.2426C21.1838 23.9253 19.82 22.8277 17.2699 23.0938Z" fill="#909090"/>
<path d="M28.3797 20.5882V23.8923C28.3797 26.9525 25.896 29.4361 22.8359 29.4361C22.5365 29.4361 22.2926 29.1922 22.2926 28.8928V26.2429C22.2926 24.8237 21.8602 23.7149 21.0175 22.961C20.2747 22.2846 19.2657 21.952 18.0128 21.952C17.7356 21.952 17.4584 21.9631 17.159 21.9964C15.1855 22.1959 13.6886 23.8591 13.6886 25.8548V28.8928C13.6886 29.1922 13.4447 29.4361 13.1453 29.4361C10.0852 29.4361 7.60156 26.9525 7.60156 23.8923V20.6104C7.60156 19.8343 8.3666 19.3132 9.0873 19.5682C9.38666 19.668 9.68603 19.7456 9.99648 19.7899C10.1295 19.8121 10.2737 19.8343 10.4067 19.8343C10.5841 19.8565 10.7615 19.8676 10.9389 19.8676C12.2251 19.8676 13.4891 19.3908 14.4869 18.5703C15.4405 19.3908 16.6823 19.8676 17.9906 19.8676C19.31 19.8676 20.5297 19.413 21.4832 18.5925C22.4811 19.4019 23.7229 19.8676 24.9869 19.8676C25.1864 19.8676 25.386 19.8565 25.5745 19.8343C25.7076 19.8232 25.8295 19.8121 25.9515 19.7899C26.2952 19.7456 26.6057 19.6458 26.9161 19.546C27.6368 19.3021 28.3797 19.8343 28.3797 20.5882Z" fill="#909090"/>
</svg>
