<svg width="15" height="14" viewBox="0 0 15 14" fill="none" xmlns="http://www.w3.org/2000/svg">
<path d="M14.0067 10.1428L9.73998 2.46279C9.16665 1.42946 8.37332 0.862793 7.49998 0.862793C6.62665 0.862793 5.83332 1.42946 5.25999 2.46279L0.993318 10.1428C0.453318 11.1228 0.393318 12.0628 0.826652 12.8028C1.25999 13.5428 2.11332 13.9495 3.23332 13.9495H11.7667C12.8867 13.9495 13.74 13.5428 14.1733 12.8028C14.6067 12.0628 14.5467 11.1161 14.0067 10.1428ZM6.99998 5.52946C6.99998 5.25613 7.22665 5.02946 7.49998 5.02946C7.77332 5.02946 7.99998 5.25613 7.99998 5.52946V8.86279C7.99998 9.13613 7.77332 9.36279 7.49998 9.36279C7.22665 9.36279 6.99998 9.13613 6.99998 8.86279V5.52946ZM7.97332 11.3361C7.93998 11.3628 7.90665 11.3895 7.87332 11.4161C7.83332 11.4428 7.79332 11.4628 7.75332 11.4761C7.71332 11.4961 7.67332 11.5095 7.62665 11.5161C7.58665 11.5228 7.53999 11.5295 7.49998 11.5295C7.45998 11.5295 7.41332 11.5228 7.36665 11.5161C7.32665 11.5095 7.28665 11.4961 7.24665 11.4761C7.20665 11.4628 7.16665 11.4428 7.12665 11.4161C7.09332 11.3895 7.05998 11.3628 7.02665 11.3361C6.90665 11.2095 6.83332 11.0361 6.83332 10.8628C6.83332 10.6895 6.90665 10.5161 7.02665 10.3895C7.05998 10.3628 7.09332 10.3361 7.12665 10.3095C7.16665 10.2828 7.20665 10.2628 7.24665 10.2495C7.28665 10.2295 7.32665 10.2161 7.36665 10.2095C7.45332 10.1895 7.54665 10.1895 7.62665 10.2095C7.67332 10.2161 7.71332 10.2295 7.75332 10.2495C7.79332 10.2628 7.83332 10.2828 7.87332 10.3095C7.90665 10.3361 7.93998 10.3628 7.97332 10.3895C8.09332 10.5161 8.16665 10.6895 8.16665 10.8628C8.16665 11.0361 8.09332 11.2095 7.97332 11.3361Z" fill="#F26841"/>
</svg>
