<svg width="20" height="14" viewBox="0 0 20 14" fill="none" xmlns="http://www.w3.org/2000/svg">
<path d="M18.2422 0H1.75781C0.790547 0 0 0.783572 0 1.75V12.25C0 13.2168 0.791055 14 1.75781 14H18.2422C19.2095 14 20 13.2164 20 12.25V1.75C20 0.783339 19.2091 0 18.2422 0ZM17.9723 1.16667C17.4039 1.73433 10.7283 8.40194 10.4541 8.67588C10.225 8.90462 9.77512 8.90478 9.54594 8.67588L2.02773 1.16667H17.9723ZM1.17188 12.0355V1.96447L6.21348 7L1.17188 12.0355ZM2.02773 12.8333L7.04078 7.82631L8.71598 9.49951C9.40246 10.1852 10.5978 10.1849 11.2841 9.49951L12.9593 7.82635L17.9723 12.8333H2.02773ZM18.8281 12.0355L13.7865 7L18.8281 1.96447V12.0355Z" fill="#B3B3B3"/>
</svg>
