<svg width="24" height="24" viewBox="0 0 24 24" fill="none" xmlns="http://www.w3.org/2000/svg">
<path d="M12 10.0007C12.552 10.0007 12.9999 9.55269 12.9999 9.0007C12.9999 8.44871 12.552 8.00073 12 8.00073C11.448 8.00073 11 8.44871 11 9.0007C11 9.55269 11.448 10.0007 12 10.0007Z" fill="white"/>
<path d="M10.6977 20.6333L11.1047 21.4472C11.2747 21.7862 11.6207 22.0002 11.9997 22.0002C12.3786 22.0002 12.7247 21.7862 12.8946 21.4472L13.7566 19.7233C14.8056 17.6243 16.0995 15.5914 17.3505 13.6254L17.9205 12.7284C18.6265 11.6124 18.9995 10.3234 18.9995 9.00043C18.9995 7.00847 18.1465 5.1045 16.6595 3.77655C15.1736 2.44959 13.1746 1.81365 11.1817 2.04765C8.06973 2.40164 5.49981 4.90758 5.0688 8.00553C4.81381 9.8415 5.2728 11.6645 6.35976 13.1404C8.05576 15.4384 9.37972 17.9953 10.6977 20.6333ZM11.9997 6.00054C13.6536 6.00054 14.9996 7.34653 14.9996 9.00048C14.9996 10.6544 13.6536 12.0004 11.9997 12.0004C10.3457 12.0004 8.99971 10.6544 8.99971 9.00048C8.99971 7.34653 10.3457 6.00054 11.9997 6.00054Z" fill="white"/>
</svg>
