<svg width="46" height="35" viewBox="0 0 46 35" fill="none" xmlns="http://www.w3.org/2000/svg">
<ellipse cx="26.8285" cy="17.5" rx="17.561" ry="17.5" fill="#F26841"/>
<path d="M32.7455 14.7628L32.1867 16.6821H20.9138L21.4726 14.7628H32.7455ZM27.6921 28.125L21.2661 20.6179L21.254 19.1116H24.2179C25.0764 19.1116 25.785 18.9698 26.3437 18.6864C26.9106 18.3949 27.3358 18.0021 27.6192 17.5081C27.9027 17.0141 28.0444 16.4594 28.0444 15.8439C28.0444 15.1555 27.9108 14.5522 27.6435 14.0339C27.3763 13.5075 26.9552 13.0986 26.3802 12.807C25.8133 12.5074 25.0683 12.3576 24.1451 12.3576H20.9381L21.5091 10.4383H24.1451C25.5542 10.4383 26.7163 10.6529 27.6314 11.0821C28.5546 11.5032 29.2429 12.1187 29.6965 12.9285C30.15 13.7383 30.3767 14.7182 30.3767 15.8682C30.3767 16.8562 30.1864 17.743 29.8058 18.5285C29.4333 19.3059 28.8137 19.9173 27.9472 20.3628C27.0888 20.8082 25.9307 21.0309 24.473 21.0309L30.4496 27.9792V28.125H27.6921ZM32.7455 10.4383L32.1867 12.3576H23.1004L23.6592 10.4383H32.7455Z" fill="white"/>
<g style="mix-blend-mode:multiply">
<ellipse cx="7.56083" cy="30.383" rx="1.70732" ry="1.70139" fill="#F26841"/>
</g>
<ellipse cx="0.975609" cy="5.34747" rx="0.975609" ry="0.972222" fill="#F26841"/>
<g style="mix-blend-mode:multiply">
<ellipse cx="44.6341" cy="3.64518" rx="0.731707" ry="0.729167" fill="#F26841"/>
</g>
</svg>
