<svg width="36" height="36" viewBox="0 0 36 36" fill="none" xmlns="http://www.w3.org/2000/svg">
<path d="M21.9984 23.1335C21.9984 19.3278 18.7031 16.6886 16.0573 16.6886C13.721 16.4937 11.6904 16.6908 9.93881 18.1366C7.87618 19.7887 7.54436 21.8437 7.52881 24.264L7.53276 25.0404L7.56415 26.6651L7.57178 27.5128C7.57178 28.536 8.40425 29.384 9.44297 29.384L10.76 29.3856L17.8864 29.4226L18.9148 29.4089L19.4788 29.3884L19.9561 29.3566C21.1215 29.2552 21.4583 29.0146 21.7362 28.4809L21.8392 28.2667L21.9176 28.0743L21.9536 27.942L21.9786 27.7714L21.9944 27.5327L22.0029 27.196L21.9984 23.1335Z" fill="#F26841"/>
<path d="M24.8356 16.6672L23.9478 16.662C23.0038 16.6669 22.6241 16.5505 21.7355 17.2786C21.5413 17.5687 21.5484 17.8691 21.7569 18.1799L22.966 19.8706C23.302 20.3405 23.4827 20.903 23.4827 21.4807V26.7787C23.4827 27.3224 23.7104 27.6238 24.1659 27.6831L26.8361 27.6742L27.0257 27.6632C27.8343 27.5694 28.4636 26.8831 28.4636 26.053V20.2733L28.4545 20.0162C28.3214 18.1475 26.7491 16.6672 24.8356 16.6672Z" fill="#F26841"/>
<path d="M19.4337 11.225C19.4337 8.65765 17.3524 6.57642 14.7851 6.57642C12.2177 6.57642 10.1365 8.65765 10.1365 11.225C10.1365 13.7923 12.2177 15.8736 14.7851 15.8736C17.3524 15.8736 19.4337 13.7923 19.4337 11.225Z" fill="#F26841"/>
<path d="M27.1278 12.9348C27.1278 11.3117 25.8121 9.996 24.1891 9.996C22.5661 9.996 21.2503 11.3117 21.2503 12.9348C21.2503 14.5578 22.5661 15.8735 24.1891 15.8735C25.8121 15.8735 27.1278 14.5578 27.1278 12.9348Z" fill="#F26841"/>
</svg>
